%TF.GenerationSoftware,KiCad,Pcbnew,(5.1.10)-1*%
%TF.CreationDate,2022-01-04T20:30:03-05:00*%
%TF.ProjectId,LatchTest,4c617463-6854-4657-9374-2e6b69636164,rev?*%
%TF.SameCoordinates,Original*%
%TF.FileFunction,Legend,Top*%
%TF.FilePolarity,Positive*%
%FSLAX46Y46*%
G04 Gerber Fmt 4.6, Leading zero omitted, Abs format (unit mm)*
G04 Created by KiCad (PCBNEW (5.1.10)-1) date 2022-01-04 20:30:03*
%MOMM*%
%LPD*%
G01*
G04 APERTURE LIST*
%ADD10C,0.150000*%
%ADD11C,0.120000*%
%ADD12C,0.100000*%
%ADD13C,0.127000*%
G04 APERTURE END LIST*
D10*
X94043809Y-65492380D02*
X94043809Y-66206666D01*
X93996190Y-66349523D01*
X93900952Y-66444761D01*
X93758095Y-66492380D01*
X93662857Y-66492380D01*
X94948571Y-66492380D02*
X94948571Y-65968571D01*
X94900952Y-65873333D01*
X94805714Y-65825714D01*
X94615238Y-65825714D01*
X94520000Y-65873333D01*
X94948571Y-66444761D02*
X94853333Y-66492380D01*
X94615238Y-66492380D01*
X94520000Y-66444761D01*
X94472380Y-66349523D01*
X94472380Y-66254285D01*
X94520000Y-66159047D01*
X94615238Y-66111428D01*
X94853333Y-66111428D01*
X94948571Y-66063809D01*
X95853333Y-66444761D02*
X95758095Y-66492380D01*
X95567619Y-66492380D01*
X95472380Y-66444761D01*
X95424761Y-66397142D01*
X95377142Y-66301904D01*
X95377142Y-66016190D01*
X95424761Y-65920952D01*
X95472380Y-65873333D01*
X95567619Y-65825714D01*
X95758095Y-65825714D01*
X95853333Y-65873333D01*
X96281904Y-66492380D02*
X96281904Y-65492380D01*
X96377142Y-66111428D02*
X96662857Y-66492380D01*
X96662857Y-65825714D02*
X96281904Y-66206666D01*
X97043809Y-65587619D02*
X97091428Y-65540000D01*
X97186666Y-65492380D01*
X97424761Y-65492380D01*
X97520000Y-65540000D01*
X97567619Y-65587619D01*
X97615238Y-65682857D01*
X97615238Y-65778095D01*
X97567619Y-65920952D01*
X96996190Y-66492380D01*
X97615238Y-66492380D01*
X98043809Y-66492380D02*
X98043809Y-65492380D01*
X98043809Y-65873333D02*
X98139047Y-65825714D01*
X98329523Y-65825714D01*
X98424761Y-65873333D01*
X98472380Y-65920952D01*
X98520000Y-66016190D01*
X98520000Y-66301904D01*
X98472380Y-66397142D01*
X98424761Y-66444761D01*
X98329523Y-66492380D01*
X98139047Y-66492380D01*
X98043809Y-66444761D01*
X98900952Y-66444761D02*
X98996190Y-66492380D01*
X99186666Y-66492380D01*
X99281904Y-66444761D01*
X99329523Y-66349523D01*
X99329523Y-66301904D01*
X99281904Y-66206666D01*
X99186666Y-66159047D01*
X99043809Y-66159047D01*
X98948571Y-66111428D01*
X98900952Y-66016190D01*
X98900952Y-65968571D01*
X98948571Y-65873333D01*
X99043809Y-65825714D01*
X99186666Y-65825714D01*
X99281904Y-65873333D01*
D11*
%TO.C,D1*%
X88580000Y-68580000D02*
G75*
G03*
X88580000Y-68580000I-950000J0D01*
G01*
D12*
%TO.C,U1*%
G36*
X100679999Y-71814502D02*
G01*
X100679999Y-72195502D01*
X100425999Y-72195502D01*
X100425999Y-71814502D01*
X100679999Y-71814502D01*
G37*
X100679999Y-71814502D02*
X100679999Y-72195502D01*
X100425999Y-72195502D01*
X100425999Y-71814502D01*
X100679999Y-71814502D01*
G36*
X92360001Y-77664498D02*
G01*
X92360001Y-78045498D01*
X92614001Y-78045498D01*
X92614001Y-77664498D01*
X92360001Y-77664498D01*
G37*
X92360001Y-77664498D02*
X92360001Y-78045498D01*
X92614001Y-78045498D01*
X92614001Y-77664498D01*
X92360001Y-77664498D01*
D11*
X98530956Y-71551800D02*
X94509048Y-71551800D01*
X94509044Y-78308200D02*
X98530952Y-78308200D01*
%TO.C,LE*%
X106360000Y-63500000D02*
G75*
G03*
X106360000Y-63500000I-950000J0D01*
G01*
%TO.C,GND*%
X88580000Y-86360000D02*
G75*
G03*
X88580000Y-86360000I-950000J0D01*
G01*
%TO.C,OE*%
X88580000Y-63500000D02*
G75*
G03*
X88580000Y-63500000I-950000J0D01*
G01*
%TO.C,VCC*%
X106360000Y-86360000D02*
G75*
G03*
X106360000Y-86360000I-950000J0D01*
G01*
%TO.C,Q7*%
X106360000Y-83820000D02*
G75*
G03*
X106360000Y-83820000I-950000J0D01*
G01*
%TO.C,Q6*%
X106360000Y-81280000D02*
G75*
G03*
X106360000Y-81280000I-950000J0D01*
G01*
%TO.C,Q5*%
X106360000Y-78740000D02*
G75*
G03*
X106360000Y-78740000I-950000J0D01*
G01*
%TO.C,Q4*%
X106360000Y-76200000D02*
G75*
G03*
X106360000Y-76200000I-950000J0D01*
G01*
%TO.C,Q3*%
X106360000Y-73660000D02*
G75*
G03*
X106360000Y-73660000I-950000J0D01*
G01*
%TO.C,Q2*%
X106360000Y-71120000D02*
G75*
G03*
X106360000Y-71120000I-950000J0D01*
G01*
%TO.C,Q1*%
X106360000Y-68580000D02*
G75*
G03*
X106360000Y-68580000I-950000J0D01*
G01*
%TO.C,Q0*%
X106360000Y-66040000D02*
G75*
G03*
X106360000Y-66040000I-950000J0D01*
G01*
%TO.C,D7*%
X88580000Y-83820000D02*
G75*
G03*
X88580000Y-83820000I-950000J0D01*
G01*
%TO.C,D6*%
X88580000Y-81280000D02*
G75*
G03*
X88580000Y-81280000I-950000J0D01*
G01*
%TO.C,D5*%
X88580000Y-78740000D02*
G75*
G03*
X88580000Y-78740000I-950000J0D01*
G01*
%TO.C,D4*%
X88580000Y-76200000D02*
G75*
G03*
X88580000Y-76200000I-950000J0D01*
G01*
%TO.C,D3*%
X88580000Y-73660000D02*
G75*
G03*
X88580000Y-73660000I-950000J0D01*
G01*
%TO.C,D2*%
X88580000Y-71120000D02*
G75*
G03*
X88580000Y-71120000I-950000J0D01*
G01*
%TO.C,D0*%
X88580000Y-66040000D02*
G75*
G03*
X88580000Y-66040000I-950000J0D01*
G01*
%TO.C,D1*%
D10*
X90114380Y-69318095D02*
X89114380Y-69318095D01*
X89114380Y-69080000D01*
X89162000Y-68937142D01*
X89257238Y-68841904D01*
X89352476Y-68794285D01*
X89542952Y-68746666D01*
X89685809Y-68746666D01*
X89876285Y-68794285D01*
X89971523Y-68841904D01*
X90066761Y-68937142D01*
X90114380Y-69080000D01*
X90114380Y-69318095D01*
X90114380Y-67794285D02*
X90114380Y-68365714D01*
X90114380Y-68080000D02*
X89114380Y-68080000D01*
X89257238Y-68175238D01*
X89352476Y-68270476D01*
X89400095Y-68365714D01*
%TO.C,U1*%
X95758095Y-74382380D02*
X95758095Y-75191904D01*
X95805714Y-75287142D01*
X95853333Y-75334761D01*
X95948571Y-75382380D01*
X96139047Y-75382380D01*
X96234285Y-75334761D01*
X96281904Y-75287142D01*
X96329523Y-75191904D01*
X96329523Y-74382380D01*
X97329523Y-75382380D02*
X96758095Y-75382380D01*
X97043809Y-75382380D02*
X97043809Y-74382380D01*
X96948571Y-74525238D01*
X96853333Y-74620476D01*
X96758095Y-74668095D01*
D13*
X93859047Y-78715809D02*
X94197714Y-78715809D01*
X93980000Y-79223809D01*
X94608952Y-78885142D02*
X94608952Y-79223809D01*
X94488000Y-78691619D02*
X94367047Y-79054476D01*
X94681523Y-79054476D01*
X95116952Y-79223809D02*
X94875047Y-79223809D01*
X94875047Y-78715809D01*
X95576571Y-79175428D02*
X95552380Y-79199619D01*
X95479809Y-79223809D01*
X95431428Y-79223809D01*
X95358857Y-79199619D01*
X95310476Y-79151238D01*
X95286285Y-79102857D01*
X95262095Y-79006095D01*
X95262095Y-78933523D01*
X95286285Y-78836761D01*
X95310476Y-78788380D01*
X95358857Y-78740000D01*
X95431428Y-78715809D01*
X95479809Y-78715809D01*
X95552380Y-78740000D01*
X95576571Y-78764190D01*
X95745904Y-78715809D02*
X96084571Y-79223809D01*
X96084571Y-78715809D02*
X95745904Y-79223809D01*
X96520000Y-78715809D02*
X96278095Y-78715809D01*
X96253904Y-78957714D01*
X96278095Y-78933523D01*
X96326476Y-78909333D01*
X96447428Y-78909333D01*
X96495809Y-78933523D01*
X96520000Y-78957714D01*
X96544190Y-79006095D01*
X96544190Y-79127047D01*
X96520000Y-79175428D01*
X96495809Y-79199619D01*
X96447428Y-79223809D01*
X96326476Y-79223809D01*
X96278095Y-79199619D01*
X96253904Y-79175428D01*
X96713523Y-78715809D02*
X97052190Y-78715809D01*
X96834476Y-79223809D01*
X97197333Y-78715809D02*
X97511809Y-78715809D01*
X97342476Y-78909333D01*
X97415047Y-78909333D01*
X97463428Y-78933523D01*
X97487619Y-78957714D01*
X97511809Y-79006095D01*
X97511809Y-79127047D01*
X97487619Y-79175428D01*
X97463428Y-79199619D01*
X97415047Y-79223809D01*
X97269904Y-79223809D01*
X97221523Y-79199619D01*
X97197333Y-79175428D01*
X97898857Y-78957714D02*
X97729523Y-78957714D01*
X97729523Y-79223809D02*
X97729523Y-78715809D01*
X97971428Y-78715809D01*
X98092380Y-78715809D02*
X98382666Y-78715809D01*
X98237523Y-79223809D02*
X98237523Y-78715809D01*
X98527809Y-79078666D02*
X98769714Y-79078666D01*
X98479428Y-79223809D02*
X98648761Y-78715809D01*
X98818095Y-79223809D01*
X99132571Y-78715809D02*
X99132571Y-79078666D01*
X99108380Y-79151238D01*
X99060000Y-79199619D01*
X98987428Y-79223809D01*
X98939047Y-79223809D01*
D10*
X93472000Y-70826380D02*
X93472000Y-71064476D01*
X93233904Y-70969238D02*
X93472000Y-71064476D01*
X93710095Y-70969238D01*
X93329142Y-71254952D02*
X93472000Y-71064476D01*
X93614857Y-71254952D01*
X93472000Y-70826380D02*
X93472000Y-71064476D01*
X93233904Y-70969238D02*
X93472000Y-71064476D01*
X93710095Y-70969238D01*
X93329142Y-71254952D02*
X93472000Y-71064476D01*
X93614857Y-71254952D01*
%TO.C,LE*%
X103830380Y-63642857D02*
X103830380Y-64119047D01*
X102830380Y-64119047D01*
X103306571Y-63309523D02*
X103306571Y-62976190D01*
X103830380Y-62833333D02*
X103830380Y-63309523D01*
X102830380Y-63309523D01*
X102830380Y-62833333D01*
%TO.C,GND*%
X89162000Y-87121904D02*
X89114380Y-87217142D01*
X89114380Y-87360000D01*
X89162000Y-87502857D01*
X89257238Y-87598095D01*
X89352476Y-87645714D01*
X89542952Y-87693333D01*
X89685809Y-87693333D01*
X89876285Y-87645714D01*
X89971523Y-87598095D01*
X90066761Y-87502857D01*
X90114380Y-87360000D01*
X90114380Y-87264761D01*
X90066761Y-87121904D01*
X90019142Y-87074285D01*
X89685809Y-87074285D01*
X89685809Y-87264761D01*
X90114380Y-86645714D02*
X89114380Y-86645714D01*
X90114380Y-86074285D01*
X89114380Y-86074285D01*
X90114380Y-85598095D02*
X89114380Y-85598095D01*
X89114380Y-85360000D01*
X89162000Y-85217142D01*
X89257238Y-85121904D01*
X89352476Y-85074285D01*
X89542952Y-85026666D01*
X89685809Y-85026666D01*
X89876285Y-85074285D01*
X89971523Y-85121904D01*
X90066761Y-85217142D01*
X90114380Y-85360000D01*
X90114380Y-85598095D01*
%TO.C,OE*%
X89114380Y-64047619D02*
X89114380Y-63857142D01*
X89162000Y-63761904D01*
X89257238Y-63666666D01*
X89447714Y-63619047D01*
X89781047Y-63619047D01*
X89971523Y-63666666D01*
X90066761Y-63761904D01*
X90114380Y-63857142D01*
X90114380Y-64047619D01*
X90066761Y-64142857D01*
X89971523Y-64238095D01*
X89781047Y-64285714D01*
X89447714Y-64285714D01*
X89257238Y-64238095D01*
X89162000Y-64142857D01*
X89114380Y-64047619D01*
X89590571Y-63190476D02*
X89590571Y-62857142D01*
X90114380Y-62714285D02*
X90114380Y-63190476D01*
X89114380Y-63190476D01*
X89114380Y-62714285D01*
%TO.C,VCC*%
X102830380Y-87693333D02*
X103830380Y-87360000D01*
X102830380Y-87026666D01*
X103735142Y-86121904D02*
X103782761Y-86169523D01*
X103830380Y-86312380D01*
X103830380Y-86407619D01*
X103782761Y-86550476D01*
X103687523Y-86645714D01*
X103592285Y-86693333D01*
X103401809Y-86740952D01*
X103258952Y-86740952D01*
X103068476Y-86693333D01*
X102973238Y-86645714D01*
X102878000Y-86550476D01*
X102830380Y-86407619D01*
X102830380Y-86312380D01*
X102878000Y-86169523D01*
X102925619Y-86121904D01*
X103735142Y-85121904D02*
X103782761Y-85169523D01*
X103830380Y-85312380D01*
X103830380Y-85407619D01*
X103782761Y-85550476D01*
X103687523Y-85645714D01*
X103592285Y-85693333D01*
X103401809Y-85740952D01*
X103258952Y-85740952D01*
X103068476Y-85693333D01*
X102973238Y-85645714D01*
X102878000Y-85550476D01*
X102830380Y-85407619D01*
X102830380Y-85312380D01*
X102878000Y-85169523D01*
X102925619Y-85121904D01*
%TO.C,Q7*%
X103925619Y-83915238D02*
X103878000Y-84010476D01*
X103782761Y-84105714D01*
X103639904Y-84248571D01*
X103592285Y-84343809D01*
X103592285Y-84439047D01*
X103830380Y-84391428D02*
X103782761Y-84486666D01*
X103687523Y-84581904D01*
X103497047Y-84629523D01*
X103163714Y-84629523D01*
X102973238Y-84581904D01*
X102878000Y-84486666D01*
X102830380Y-84391428D01*
X102830380Y-84200952D01*
X102878000Y-84105714D01*
X102973238Y-84010476D01*
X103163714Y-83962857D01*
X103497047Y-83962857D01*
X103687523Y-84010476D01*
X103782761Y-84105714D01*
X103830380Y-84200952D01*
X103830380Y-84391428D01*
X102830380Y-83629523D02*
X102830380Y-82962857D01*
X103830380Y-83391428D01*
%TO.C,Q6*%
X103925619Y-81375238D02*
X103878000Y-81470476D01*
X103782761Y-81565714D01*
X103639904Y-81708571D01*
X103592285Y-81803809D01*
X103592285Y-81899047D01*
X103830380Y-81851428D02*
X103782761Y-81946666D01*
X103687523Y-82041904D01*
X103497047Y-82089523D01*
X103163714Y-82089523D01*
X102973238Y-82041904D01*
X102878000Y-81946666D01*
X102830380Y-81851428D01*
X102830380Y-81660952D01*
X102878000Y-81565714D01*
X102973238Y-81470476D01*
X103163714Y-81422857D01*
X103497047Y-81422857D01*
X103687523Y-81470476D01*
X103782761Y-81565714D01*
X103830380Y-81660952D01*
X103830380Y-81851428D01*
X102830380Y-80565714D02*
X102830380Y-80756190D01*
X102878000Y-80851428D01*
X102925619Y-80899047D01*
X103068476Y-80994285D01*
X103258952Y-81041904D01*
X103639904Y-81041904D01*
X103735142Y-80994285D01*
X103782761Y-80946666D01*
X103830380Y-80851428D01*
X103830380Y-80660952D01*
X103782761Y-80565714D01*
X103735142Y-80518095D01*
X103639904Y-80470476D01*
X103401809Y-80470476D01*
X103306571Y-80518095D01*
X103258952Y-80565714D01*
X103211333Y-80660952D01*
X103211333Y-80851428D01*
X103258952Y-80946666D01*
X103306571Y-80994285D01*
X103401809Y-81041904D01*
%TO.C,Q5*%
X103925619Y-78835238D02*
X103878000Y-78930476D01*
X103782761Y-79025714D01*
X103639904Y-79168571D01*
X103592285Y-79263809D01*
X103592285Y-79359047D01*
X103830380Y-79311428D02*
X103782761Y-79406666D01*
X103687523Y-79501904D01*
X103497047Y-79549523D01*
X103163714Y-79549523D01*
X102973238Y-79501904D01*
X102878000Y-79406666D01*
X102830380Y-79311428D01*
X102830380Y-79120952D01*
X102878000Y-79025714D01*
X102973238Y-78930476D01*
X103163714Y-78882857D01*
X103497047Y-78882857D01*
X103687523Y-78930476D01*
X103782761Y-79025714D01*
X103830380Y-79120952D01*
X103830380Y-79311428D01*
X102830380Y-77978095D02*
X102830380Y-78454285D01*
X103306571Y-78501904D01*
X103258952Y-78454285D01*
X103211333Y-78359047D01*
X103211333Y-78120952D01*
X103258952Y-78025714D01*
X103306571Y-77978095D01*
X103401809Y-77930476D01*
X103639904Y-77930476D01*
X103735142Y-77978095D01*
X103782761Y-78025714D01*
X103830380Y-78120952D01*
X103830380Y-78359047D01*
X103782761Y-78454285D01*
X103735142Y-78501904D01*
%TO.C,Q4*%
X103925619Y-76295238D02*
X103878000Y-76390476D01*
X103782761Y-76485714D01*
X103639904Y-76628571D01*
X103592285Y-76723809D01*
X103592285Y-76819047D01*
X103830380Y-76771428D02*
X103782761Y-76866666D01*
X103687523Y-76961904D01*
X103497047Y-77009523D01*
X103163714Y-77009523D01*
X102973238Y-76961904D01*
X102878000Y-76866666D01*
X102830380Y-76771428D01*
X102830380Y-76580952D01*
X102878000Y-76485714D01*
X102973238Y-76390476D01*
X103163714Y-76342857D01*
X103497047Y-76342857D01*
X103687523Y-76390476D01*
X103782761Y-76485714D01*
X103830380Y-76580952D01*
X103830380Y-76771428D01*
X103163714Y-75485714D02*
X103830380Y-75485714D01*
X102782761Y-75723809D02*
X103497047Y-75961904D01*
X103497047Y-75342857D01*
%TO.C,Q3*%
X103925619Y-73755238D02*
X103878000Y-73850476D01*
X103782761Y-73945714D01*
X103639904Y-74088571D01*
X103592285Y-74183809D01*
X103592285Y-74279047D01*
X103830380Y-74231428D02*
X103782761Y-74326666D01*
X103687523Y-74421904D01*
X103497047Y-74469523D01*
X103163714Y-74469523D01*
X102973238Y-74421904D01*
X102878000Y-74326666D01*
X102830380Y-74231428D01*
X102830380Y-74040952D01*
X102878000Y-73945714D01*
X102973238Y-73850476D01*
X103163714Y-73802857D01*
X103497047Y-73802857D01*
X103687523Y-73850476D01*
X103782761Y-73945714D01*
X103830380Y-74040952D01*
X103830380Y-74231428D01*
X102830380Y-73469523D02*
X102830380Y-72850476D01*
X103211333Y-73183809D01*
X103211333Y-73040952D01*
X103258952Y-72945714D01*
X103306571Y-72898095D01*
X103401809Y-72850476D01*
X103639904Y-72850476D01*
X103735142Y-72898095D01*
X103782761Y-72945714D01*
X103830380Y-73040952D01*
X103830380Y-73326666D01*
X103782761Y-73421904D01*
X103735142Y-73469523D01*
%TO.C,Q2*%
X103925619Y-71215238D02*
X103878000Y-71310476D01*
X103782761Y-71405714D01*
X103639904Y-71548571D01*
X103592285Y-71643809D01*
X103592285Y-71739047D01*
X103830380Y-71691428D02*
X103782761Y-71786666D01*
X103687523Y-71881904D01*
X103497047Y-71929523D01*
X103163714Y-71929523D01*
X102973238Y-71881904D01*
X102878000Y-71786666D01*
X102830380Y-71691428D01*
X102830380Y-71500952D01*
X102878000Y-71405714D01*
X102973238Y-71310476D01*
X103163714Y-71262857D01*
X103497047Y-71262857D01*
X103687523Y-71310476D01*
X103782761Y-71405714D01*
X103830380Y-71500952D01*
X103830380Y-71691428D01*
X102925619Y-70881904D02*
X102878000Y-70834285D01*
X102830380Y-70739047D01*
X102830380Y-70500952D01*
X102878000Y-70405714D01*
X102925619Y-70358095D01*
X103020857Y-70310476D01*
X103116095Y-70310476D01*
X103258952Y-70358095D01*
X103830380Y-70929523D01*
X103830380Y-70310476D01*
%TO.C,Q1*%
X103925619Y-68675238D02*
X103878000Y-68770476D01*
X103782761Y-68865714D01*
X103639904Y-69008571D01*
X103592285Y-69103809D01*
X103592285Y-69199047D01*
X103830380Y-69151428D02*
X103782761Y-69246666D01*
X103687523Y-69341904D01*
X103497047Y-69389523D01*
X103163714Y-69389523D01*
X102973238Y-69341904D01*
X102878000Y-69246666D01*
X102830380Y-69151428D01*
X102830380Y-68960952D01*
X102878000Y-68865714D01*
X102973238Y-68770476D01*
X103163714Y-68722857D01*
X103497047Y-68722857D01*
X103687523Y-68770476D01*
X103782761Y-68865714D01*
X103830380Y-68960952D01*
X103830380Y-69151428D01*
X103830380Y-67770476D02*
X103830380Y-68341904D01*
X103830380Y-68056190D02*
X102830380Y-68056190D01*
X102973238Y-68151428D01*
X103068476Y-68246666D01*
X103116095Y-68341904D01*
%TO.C,Q0*%
X103925619Y-66135238D02*
X103878000Y-66230476D01*
X103782761Y-66325714D01*
X103639904Y-66468571D01*
X103592285Y-66563809D01*
X103592285Y-66659047D01*
X103830380Y-66611428D02*
X103782761Y-66706666D01*
X103687523Y-66801904D01*
X103497047Y-66849523D01*
X103163714Y-66849523D01*
X102973238Y-66801904D01*
X102878000Y-66706666D01*
X102830380Y-66611428D01*
X102830380Y-66420952D01*
X102878000Y-66325714D01*
X102973238Y-66230476D01*
X103163714Y-66182857D01*
X103497047Y-66182857D01*
X103687523Y-66230476D01*
X103782761Y-66325714D01*
X103830380Y-66420952D01*
X103830380Y-66611428D01*
X102830380Y-65563809D02*
X102830380Y-65468571D01*
X102878000Y-65373333D01*
X102925619Y-65325714D01*
X103020857Y-65278095D01*
X103211333Y-65230476D01*
X103449428Y-65230476D01*
X103639904Y-65278095D01*
X103735142Y-65325714D01*
X103782761Y-65373333D01*
X103830380Y-65468571D01*
X103830380Y-65563809D01*
X103782761Y-65659047D01*
X103735142Y-65706666D01*
X103639904Y-65754285D01*
X103449428Y-65801904D01*
X103211333Y-65801904D01*
X103020857Y-65754285D01*
X102925619Y-65706666D01*
X102878000Y-65659047D01*
X102830380Y-65563809D01*
%TO.C,D7*%
X90114380Y-84558095D02*
X89114380Y-84558095D01*
X89114380Y-84320000D01*
X89162000Y-84177142D01*
X89257238Y-84081904D01*
X89352476Y-84034285D01*
X89542952Y-83986666D01*
X89685809Y-83986666D01*
X89876285Y-84034285D01*
X89971523Y-84081904D01*
X90066761Y-84177142D01*
X90114380Y-84320000D01*
X90114380Y-84558095D01*
X89114380Y-83653333D02*
X89114380Y-82986666D01*
X90114380Y-83415238D01*
%TO.C,D6*%
X90114380Y-82018095D02*
X89114380Y-82018095D01*
X89114380Y-81780000D01*
X89162000Y-81637142D01*
X89257238Y-81541904D01*
X89352476Y-81494285D01*
X89542952Y-81446666D01*
X89685809Y-81446666D01*
X89876285Y-81494285D01*
X89971523Y-81541904D01*
X90066761Y-81637142D01*
X90114380Y-81780000D01*
X90114380Y-82018095D01*
X89114380Y-80589523D02*
X89114380Y-80780000D01*
X89162000Y-80875238D01*
X89209619Y-80922857D01*
X89352476Y-81018095D01*
X89542952Y-81065714D01*
X89923904Y-81065714D01*
X90019142Y-81018095D01*
X90066761Y-80970476D01*
X90114380Y-80875238D01*
X90114380Y-80684761D01*
X90066761Y-80589523D01*
X90019142Y-80541904D01*
X89923904Y-80494285D01*
X89685809Y-80494285D01*
X89590571Y-80541904D01*
X89542952Y-80589523D01*
X89495333Y-80684761D01*
X89495333Y-80875238D01*
X89542952Y-80970476D01*
X89590571Y-81018095D01*
X89685809Y-81065714D01*
%TO.C,D5*%
X90114380Y-79478095D02*
X89114380Y-79478095D01*
X89114380Y-79240000D01*
X89162000Y-79097142D01*
X89257238Y-79001904D01*
X89352476Y-78954285D01*
X89542952Y-78906666D01*
X89685809Y-78906666D01*
X89876285Y-78954285D01*
X89971523Y-79001904D01*
X90066761Y-79097142D01*
X90114380Y-79240000D01*
X90114380Y-79478095D01*
X89114380Y-78001904D02*
X89114380Y-78478095D01*
X89590571Y-78525714D01*
X89542952Y-78478095D01*
X89495333Y-78382857D01*
X89495333Y-78144761D01*
X89542952Y-78049523D01*
X89590571Y-78001904D01*
X89685809Y-77954285D01*
X89923904Y-77954285D01*
X90019142Y-78001904D01*
X90066761Y-78049523D01*
X90114380Y-78144761D01*
X90114380Y-78382857D01*
X90066761Y-78478095D01*
X90019142Y-78525714D01*
%TO.C,D4*%
X90114380Y-76938095D02*
X89114380Y-76938095D01*
X89114380Y-76700000D01*
X89162000Y-76557142D01*
X89257238Y-76461904D01*
X89352476Y-76414285D01*
X89542952Y-76366666D01*
X89685809Y-76366666D01*
X89876285Y-76414285D01*
X89971523Y-76461904D01*
X90066761Y-76557142D01*
X90114380Y-76700000D01*
X90114380Y-76938095D01*
X89447714Y-75509523D02*
X90114380Y-75509523D01*
X89066761Y-75747619D02*
X89781047Y-75985714D01*
X89781047Y-75366666D01*
%TO.C,D3*%
X90114380Y-74398095D02*
X89114380Y-74398095D01*
X89114380Y-74160000D01*
X89162000Y-74017142D01*
X89257238Y-73921904D01*
X89352476Y-73874285D01*
X89542952Y-73826666D01*
X89685809Y-73826666D01*
X89876285Y-73874285D01*
X89971523Y-73921904D01*
X90066761Y-74017142D01*
X90114380Y-74160000D01*
X90114380Y-74398095D01*
X89114380Y-73493333D02*
X89114380Y-72874285D01*
X89495333Y-73207619D01*
X89495333Y-73064761D01*
X89542952Y-72969523D01*
X89590571Y-72921904D01*
X89685809Y-72874285D01*
X89923904Y-72874285D01*
X90019142Y-72921904D01*
X90066761Y-72969523D01*
X90114380Y-73064761D01*
X90114380Y-73350476D01*
X90066761Y-73445714D01*
X90019142Y-73493333D01*
%TO.C,D2*%
X90114380Y-71858095D02*
X89114380Y-71858095D01*
X89114380Y-71620000D01*
X89162000Y-71477142D01*
X89257238Y-71381904D01*
X89352476Y-71334285D01*
X89542952Y-71286666D01*
X89685809Y-71286666D01*
X89876285Y-71334285D01*
X89971523Y-71381904D01*
X90066761Y-71477142D01*
X90114380Y-71620000D01*
X90114380Y-71858095D01*
X89209619Y-70905714D02*
X89162000Y-70858095D01*
X89114380Y-70762857D01*
X89114380Y-70524761D01*
X89162000Y-70429523D01*
X89209619Y-70381904D01*
X89304857Y-70334285D01*
X89400095Y-70334285D01*
X89542952Y-70381904D01*
X90114380Y-70953333D01*
X90114380Y-70334285D01*
%TO.C,D0*%
X90114380Y-66778095D02*
X89114380Y-66778095D01*
X89114380Y-66540000D01*
X89162000Y-66397142D01*
X89257238Y-66301904D01*
X89352476Y-66254285D01*
X89542952Y-66206666D01*
X89685809Y-66206666D01*
X89876285Y-66254285D01*
X89971523Y-66301904D01*
X90066761Y-66397142D01*
X90114380Y-66540000D01*
X90114380Y-66778095D01*
X89114380Y-65587619D02*
X89114380Y-65492380D01*
X89162000Y-65397142D01*
X89209619Y-65349523D01*
X89304857Y-65301904D01*
X89495333Y-65254285D01*
X89733428Y-65254285D01*
X89923904Y-65301904D01*
X90019142Y-65349523D01*
X90066761Y-65397142D01*
X90114380Y-65492380D01*
X90114380Y-65587619D01*
X90066761Y-65682857D01*
X90019142Y-65730476D01*
X89923904Y-65778095D01*
X89733428Y-65825714D01*
X89495333Y-65825714D01*
X89304857Y-65778095D01*
X89209619Y-65730476D01*
X89162000Y-65682857D01*
X89114380Y-65587619D01*
%TD*%
M02*
