%TF.GenerationSoftware,KiCad,Pcbnew,(5.1.10)-1*%
%TF.CreationDate,2022-01-04T20:30:03-05:00*%
%TF.ProjectId,LatchTest,4c617463-6854-4657-9374-2e6b69636164,rev?*%
%TF.SameCoordinates,Original*%
%TF.FileFunction,Copper,L2,Bot*%
%TF.FilePolarity,Positive*%
%FSLAX46Y46*%
G04 Gerber Fmt 4.6, Leading zero omitted, Abs format (unit mm)*
G04 Created by KiCad (PCBNEW (5.1.10)-1) date 2022-01-04 20:30:03*
%MOMM*%
%LPD*%
G01*
G04 APERTURE LIST*
%TA.AperFunction,ComponentPad*%
%ADD10C,1.500000*%
%TD*%
%TA.AperFunction,Conductor*%
%ADD11C,0.254000*%
%TD*%
%TA.AperFunction,Conductor*%
%ADD12C,0.100000*%
%TD*%
G04 APERTURE END LIST*
D10*
%TO.P,D1,1*%
%TO.N,Net-(TP1-Pad1)*%
X87630000Y-68580000D03*
%TD*%
%TO.P,LE,1*%
%TO.N,Net-(TP31-Pad1)*%
X105410000Y-63500000D03*
%TD*%
%TO.P,GND,1*%
%TO.N,Net-(TP30-Pad1)*%
X87630000Y-86360000D03*
%TD*%
%TO.P,OE,1*%
%TO.N,Net-(TP21-Pad1)*%
X87630000Y-63500000D03*
%TD*%
%TO.P,VCC,1*%
%TO.N,Net-(TP20-Pad1)*%
X105410000Y-86360000D03*
%TD*%
%TO.P,Q7,1*%
%TO.N,Net-(TP17-Pad1)*%
X105410000Y-83820000D03*
%TD*%
%TO.P,Q6,1*%
%TO.N,Net-(TP16-Pad1)*%
X105410000Y-81280000D03*
%TD*%
%TO.P,Q5,1*%
%TO.N,Net-(TP15-Pad1)*%
X105410000Y-78740000D03*
%TD*%
%TO.P,Q4,1*%
%TO.N,Net-(TP14-Pad1)*%
X105410000Y-76200000D03*
%TD*%
%TO.P,Q3,1*%
%TO.N,Net-(TP13-Pad1)*%
X105410000Y-73660000D03*
%TD*%
%TO.P,Q2,1*%
%TO.N,Net-(TP12-Pad1)*%
X105410000Y-71120000D03*
%TD*%
%TO.P,Q1,1*%
%TO.N,Net-(TP11-Pad1)*%
X105410000Y-68580000D03*
%TD*%
%TO.P,Q0,1*%
%TO.N,Net-(TP10-Pad1)*%
X105410000Y-66040000D03*
%TD*%
%TO.P,D7,1*%
%TO.N,Net-(TP7-Pad1)*%
X87630000Y-83820000D03*
%TD*%
%TO.P,D6,1*%
%TO.N,Net-(TP6-Pad1)*%
X87630000Y-81280000D03*
%TD*%
%TO.P,D5,1*%
%TO.N,Net-(TP5-Pad1)*%
X87630000Y-78740000D03*
%TD*%
%TO.P,D4,1*%
%TO.N,Net-(TP4-Pad1)*%
X87630000Y-76200000D03*
%TD*%
%TO.P,D3,1*%
%TO.N,Net-(TP3-Pad1)*%
X87630000Y-73660000D03*
%TD*%
%TO.P,D2,1*%
%TO.N,Net-(TP2-Pad1)*%
X87630000Y-71120000D03*
%TD*%
%TO.P,D0,1*%
%TO.N,Net-(TP0-Pad1)*%
X87630000Y-66040000D03*
%TD*%
D11*
%TO.N,Net-(TP30-Pad1)*%
X104078225Y-63096011D02*
X104025000Y-63363589D01*
X104025000Y-63636411D01*
X104078225Y-63903989D01*
X104182629Y-64156043D01*
X104334201Y-64382886D01*
X104527114Y-64575799D01*
X104753957Y-64727371D01*
X104856873Y-64770000D01*
X104753957Y-64812629D01*
X104527114Y-64964201D01*
X104334201Y-65157114D01*
X104182629Y-65383957D01*
X104078225Y-65636011D01*
X104025000Y-65903589D01*
X104025000Y-66176411D01*
X104078225Y-66443989D01*
X104182629Y-66696043D01*
X104334201Y-66922886D01*
X104527114Y-67115799D01*
X104753957Y-67267371D01*
X104856873Y-67310000D01*
X104753957Y-67352629D01*
X104527114Y-67504201D01*
X104334201Y-67697114D01*
X104182629Y-67923957D01*
X104078225Y-68176011D01*
X104025000Y-68443589D01*
X104025000Y-68716411D01*
X104078225Y-68983989D01*
X104182629Y-69236043D01*
X104334201Y-69462886D01*
X104527114Y-69655799D01*
X104753957Y-69807371D01*
X104856873Y-69850000D01*
X104753957Y-69892629D01*
X104527114Y-70044201D01*
X104334201Y-70237114D01*
X104182629Y-70463957D01*
X104078225Y-70716011D01*
X104025000Y-70983589D01*
X104025000Y-71256411D01*
X104078225Y-71523989D01*
X104182629Y-71776043D01*
X104334201Y-72002886D01*
X104527114Y-72195799D01*
X104753957Y-72347371D01*
X104856873Y-72390000D01*
X104753957Y-72432629D01*
X104527114Y-72584201D01*
X104334201Y-72777114D01*
X104182629Y-73003957D01*
X104078225Y-73256011D01*
X104025000Y-73523589D01*
X104025000Y-73796411D01*
X104078225Y-74063989D01*
X104182629Y-74316043D01*
X104334201Y-74542886D01*
X104527114Y-74735799D01*
X104753957Y-74887371D01*
X104856873Y-74930000D01*
X104753957Y-74972629D01*
X104527114Y-75124201D01*
X104334201Y-75317114D01*
X104182629Y-75543957D01*
X104078225Y-75796011D01*
X104025000Y-76063589D01*
X104025000Y-76336411D01*
X104078225Y-76603989D01*
X104182629Y-76856043D01*
X104334201Y-77082886D01*
X104527114Y-77275799D01*
X104753957Y-77427371D01*
X104856873Y-77470000D01*
X104753957Y-77512629D01*
X104527114Y-77664201D01*
X104334201Y-77857114D01*
X104182629Y-78083957D01*
X104078225Y-78336011D01*
X104025000Y-78603589D01*
X104025000Y-78876411D01*
X104078225Y-79143989D01*
X104182629Y-79396043D01*
X104334201Y-79622886D01*
X104527114Y-79815799D01*
X104753957Y-79967371D01*
X104856873Y-80010000D01*
X104753957Y-80052629D01*
X104527114Y-80204201D01*
X104334201Y-80397114D01*
X104182629Y-80623957D01*
X104078225Y-80876011D01*
X104025000Y-81143589D01*
X104025000Y-81416411D01*
X104078225Y-81683989D01*
X104182629Y-81936043D01*
X104334201Y-82162886D01*
X104527114Y-82355799D01*
X104753957Y-82507371D01*
X104856873Y-82550000D01*
X104753957Y-82592629D01*
X104527114Y-82744201D01*
X104334201Y-82937114D01*
X104182629Y-83163957D01*
X104078225Y-83416011D01*
X104025000Y-83683589D01*
X104025000Y-83956411D01*
X104078225Y-84223989D01*
X104182629Y-84476043D01*
X104334201Y-84702886D01*
X104527114Y-84895799D01*
X104753957Y-85047371D01*
X104856873Y-85090000D01*
X104753957Y-85132629D01*
X104527114Y-85284201D01*
X104334201Y-85477114D01*
X104182629Y-85703957D01*
X104078225Y-85956011D01*
X104025000Y-86223589D01*
X104025000Y-86496411D01*
X104078225Y-86763989D01*
X104163557Y-86970000D01*
X88873661Y-86970000D01*
X88941760Y-86824884D01*
X89007250Y-86560040D01*
X89019812Y-86287508D01*
X88978965Y-86017762D01*
X88886277Y-85761168D01*
X88825860Y-85648137D01*
X88586993Y-85582612D01*
X87809605Y-86360000D01*
X87823748Y-86374143D01*
X87644143Y-86553748D01*
X87630000Y-86539605D01*
X87615858Y-86553748D01*
X87436253Y-86374143D01*
X87450395Y-86360000D01*
X87436253Y-86345858D01*
X87615858Y-86166253D01*
X87630000Y-86180395D01*
X88407388Y-85403007D01*
X88341863Y-85164140D01*
X88183523Y-85089836D01*
X88286043Y-85047371D01*
X88512886Y-84895799D01*
X88705799Y-84702886D01*
X88857371Y-84476043D01*
X88961775Y-84223989D01*
X89015000Y-83956411D01*
X89015000Y-83683589D01*
X88961775Y-83416011D01*
X88857371Y-83163957D01*
X88705799Y-82937114D01*
X88512886Y-82744201D01*
X88286043Y-82592629D01*
X88183127Y-82550000D01*
X88286043Y-82507371D01*
X88512886Y-82355799D01*
X88705799Y-82162886D01*
X88857371Y-81936043D01*
X88961775Y-81683989D01*
X89015000Y-81416411D01*
X89015000Y-81143589D01*
X88961775Y-80876011D01*
X88857371Y-80623957D01*
X88705799Y-80397114D01*
X88512886Y-80204201D01*
X88286043Y-80052629D01*
X88183127Y-80010000D01*
X88286043Y-79967371D01*
X88512886Y-79815799D01*
X88705799Y-79622886D01*
X88857371Y-79396043D01*
X88961775Y-79143989D01*
X89015000Y-78876411D01*
X89015000Y-78603589D01*
X88961775Y-78336011D01*
X88857371Y-78083957D01*
X88705799Y-77857114D01*
X88512886Y-77664201D01*
X88286043Y-77512629D01*
X88183127Y-77470000D01*
X88286043Y-77427371D01*
X88512886Y-77275799D01*
X88705799Y-77082886D01*
X88857371Y-76856043D01*
X88961775Y-76603989D01*
X89015000Y-76336411D01*
X89015000Y-76063589D01*
X88961775Y-75796011D01*
X88857371Y-75543957D01*
X88705799Y-75317114D01*
X88512886Y-75124201D01*
X88286043Y-74972629D01*
X88183127Y-74930000D01*
X88286043Y-74887371D01*
X88512886Y-74735799D01*
X88705799Y-74542886D01*
X88857371Y-74316043D01*
X88961775Y-74063989D01*
X89015000Y-73796411D01*
X89015000Y-73523589D01*
X88961775Y-73256011D01*
X88857371Y-73003957D01*
X88705799Y-72777114D01*
X88512886Y-72584201D01*
X88286043Y-72432629D01*
X88183127Y-72390000D01*
X88286043Y-72347371D01*
X88512886Y-72195799D01*
X88705799Y-72002886D01*
X88857371Y-71776043D01*
X88961775Y-71523989D01*
X89015000Y-71256411D01*
X89015000Y-70983589D01*
X88961775Y-70716011D01*
X88857371Y-70463957D01*
X88705799Y-70237114D01*
X88512886Y-70044201D01*
X88286043Y-69892629D01*
X88183127Y-69850000D01*
X88286043Y-69807371D01*
X88512886Y-69655799D01*
X88705799Y-69462886D01*
X88857371Y-69236043D01*
X88961775Y-68983989D01*
X89015000Y-68716411D01*
X89015000Y-68443589D01*
X88961775Y-68176011D01*
X88857371Y-67923957D01*
X88705799Y-67697114D01*
X88512886Y-67504201D01*
X88286043Y-67352629D01*
X88183127Y-67310000D01*
X88286043Y-67267371D01*
X88512886Y-67115799D01*
X88705799Y-66922886D01*
X88857371Y-66696043D01*
X88961775Y-66443989D01*
X89015000Y-66176411D01*
X89015000Y-65903589D01*
X88961775Y-65636011D01*
X88857371Y-65383957D01*
X88705799Y-65157114D01*
X88512886Y-64964201D01*
X88286043Y-64812629D01*
X88183127Y-64770000D01*
X88286043Y-64727371D01*
X88512886Y-64575799D01*
X88705799Y-64382886D01*
X88857371Y-64156043D01*
X88961775Y-63903989D01*
X89015000Y-63636411D01*
X89015000Y-63363589D01*
X88961775Y-63096011D01*
X88876443Y-62890000D01*
X104163557Y-62890000D01*
X104078225Y-63096011D01*
%TA.AperFunction,Conductor*%
D12*
G36*
X104078225Y-63096011D02*
G01*
X104025000Y-63363589D01*
X104025000Y-63636411D01*
X104078225Y-63903989D01*
X104182629Y-64156043D01*
X104334201Y-64382886D01*
X104527114Y-64575799D01*
X104753957Y-64727371D01*
X104856873Y-64770000D01*
X104753957Y-64812629D01*
X104527114Y-64964201D01*
X104334201Y-65157114D01*
X104182629Y-65383957D01*
X104078225Y-65636011D01*
X104025000Y-65903589D01*
X104025000Y-66176411D01*
X104078225Y-66443989D01*
X104182629Y-66696043D01*
X104334201Y-66922886D01*
X104527114Y-67115799D01*
X104753957Y-67267371D01*
X104856873Y-67310000D01*
X104753957Y-67352629D01*
X104527114Y-67504201D01*
X104334201Y-67697114D01*
X104182629Y-67923957D01*
X104078225Y-68176011D01*
X104025000Y-68443589D01*
X104025000Y-68716411D01*
X104078225Y-68983989D01*
X104182629Y-69236043D01*
X104334201Y-69462886D01*
X104527114Y-69655799D01*
X104753957Y-69807371D01*
X104856873Y-69850000D01*
X104753957Y-69892629D01*
X104527114Y-70044201D01*
X104334201Y-70237114D01*
X104182629Y-70463957D01*
X104078225Y-70716011D01*
X104025000Y-70983589D01*
X104025000Y-71256411D01*
X104078225Y-71523989D01*
X104182629Y-71776043D01*
X104334201Y-72002886D01*
X104527114Y-72195799D01*
X104753957Y-72347371D01*
X104856873Y-72390000D01*
X104753957Y-72432629D01*
X104527114Y-72584201D01*
X104334201Y-72777114D01*
X104182629Y-73003957D01*
X104078225Y-73256011D01*
X104025000Y-73523589D01*
X104025000Y-73796411D01*
X104078225Y-74063989D01*
X104182629Y-74316043D01*
X104334201Y-74542886D01*
X104527114Y-74735799D01*
X104753957Y-74887371D01*
X104856873Y-74930000D01*
X104753957Y-74972629D01*
X104527114Y-75124201D01*
X104334201Y-75317114D01*
X104182629Y-75543957D01*
X104078225Y-75796011D01*
X104025000Y-76063589D01*
X104025000Y-76336411D01*
X104078225Y-76603989D01*
X104182629Y-76856043D01*
X104334201Y-77082886D01*
X104527114Y-77275799D01*
X104753957Y-77427371D01*
X104856873Y-77470000D01*
X104753957Y-77512629D01*
X104527114Y-77664201D01*
X104334201Y-77857114D01*
X104182629Y-78083957D01*
X104078225Y-78336011D01*
X104025000Y-78603589D01*
X104025000Y-78876411D01*
X104078225Y-79143989D01*
X104182629Y-79396043D01*
X104334201Y-79622886D01*
X104527114Y-79815799D01*
X104753957Y-79967371D01*
X104856873Y-80010000D01*
X104753957Y-80052629D01*
X104527114Y-80204201D01*
X104334201Y-80397114D01*
X104182629Y-80623957D01*
X104078225Y-80876011D01*
X104025000Y-81143589D01*
X104025000Y-81416411D01*
X104078225Y-81683989D01*
X104182629Y-81936043D01*
X104334201Y-82162886D01*
X104527114Y-82355799D01*
X104753957Y-82507371D01*
X104856873Y-82550000D01*
X104753957Y-82592629D01*
X104527114Y-82744201D01*
X104334201Y-82937114D01*
X104182629Y-83163957D01*
X104078225Y-83416011D01*
X104025000Y-83683589D01*
X104025000Y-83956411D01*
X104078225Y-84223989D01*
X104182629Y-84476043D01*
X104334201Y-84702886D01*
X104527114Y-84895799D01*
X104753957Y-85047371D01*
X104856873Y-85090000D01*
X104753957Y-85132629D01*
X104527114Y-85284201D01*
X104334201Y-85477114D01*
X104182629Y-85703957D01*
X104078225Y-85956011D01*
X104025000Y-86223589D01*
X104025000Y-86496411D01*
X104078225Y-86763989D01*
X104163557Y-86970000D01*
X88873661Y-86970000D01*
X88941760Y-86824884D01*
X89007250Y-86560040D01*
X89019812Y-86287508D01*
X88978965Y-86017762D01*
X88886277Y-85761168D01*
X88825860Y-85648137D01*
X88586993Y-85582612D01*
X87809605Y-86360000D01*
X87823748Y-86374143D01*
X87644143Y-86553748D01*
X87630000Y-86539605D01*
X87615858Y-86553748D01*
X87436253Y-86374143D01*
X87450395Y-86360000D01*
X87436253Y-86345858D01*
X87615858Y-86166253D01*
X87630000Y-86180395D01*
X88407388Y-85403007D01*
X88341863Y-85164140D01*
X88183523Y-85089836D01*
X88286043Y-85047371D01*
X88512886Y-84895799D01*
X88705799Y-84702886D01*
X88857371Y-84476043D01*
X88961775Y-84223989D01*
X89015000Y-83956411D01*
X89015000Y-83683589D01*
X88961775Y-83416011D01*
X88857371Y-83163957D01*
X88705799Y-82937114D01*
X88512886Y-82744201D01*
X88286043Y-82592629D01*
X88183127Y-82550000D01*
X88286043Y-82507371D01*
X88512886Y-82355799D01*
X88705799Y-82162886D01*
X88857371Y-81936043D01*
X88961775Y-81683989D01*
X89015000Y-81416411D01*
X89015000Y-81143589D01*
X88961775Y-80876011D01*
X88857371Y-80623957D01*
X88705799Y-80397114D01*
X88512886Y-80204201D01*
X88286043Y-80052629D01*
X88183127Y-80010000D01*
X88286043Y-79967371D01*
X88512886Y-79815799D01*
X88705799Y-79622886D01*
X88857371Y-79396043D01*
X88961775Y-79143989D01*
X89015000Y-78876411D01*
X89015000Y-78603589D01*
X88961775Y-78336011D01*
X88857371Y-78083957D01*
X88705799Y-77857114D01*
X88512886Y-77664201D01*
X88286043Y-77512629D01*
X88183127Y-77470000D01*
X88286043Y-77427371D01*
X88512886Y-77275799D01*
X88705799Y-77082886D01*
X88857371Y-76856043D01*
X88961775Y-76603989D01*
X89015000Y-76336411D01*
X89015000Y-76063589D01*
X88961775Y-75796011D01*
X88857371Y-75543957D01*
X88705799Y-75317114D01*
X88512886Y-75124201D01*
X88286043Y-74972629D01*
X88183127Y-74930000D01*
X88286043Y-74887371D01*
X88512886Y-74735799D01*
X88705799Y-74542886D01*
X88857371Y-74316043D01*
X88961775Y-74063989D01*
X89015000Y-73796411D01*
X89015000Y-73523589D01*
X88961775Y-73256011D01*
X88857371Y-73003957D01*
X88705799Y-72777114D01*
X88512886Y-72584201D01*
X88286043Y-72432629D01*
X88183127Y-72390000D01*
X88286043Y-72347371D01*
X88512886Y-72195799D01*
X88705799Y-72002886D01*
X88857371Y-71776043D01*
X88961775Y-71523989D01*
X89015000Y-71256411D01*
X89015000Y-70983589D01*
X88961775Y-70716011D01*
X88857371Y-70463957D01*
X88705799Y-70237114D01*
X88512886Y-70044201D01*
X88286043Y-69892629D01*
X88183127Y-69850000D01*
X88286043Y-69807371D01*
X88512886Y-69655799D01*
X88705799Y-69462886D01*
X88857371Y-69236043D01*
X88961775Y-68983989D01*
X89015000Y-68716411D01*
X89015000Y-68443589D01*
X88961775Y-68176011D01*
X88857371Y-67923957D01*
X88705799Y-67697114D01*
X88512886Y-67504201D01*
X88286043Y-67352629D01*
X88183127Y-67310000D01*
X88286043Y-67267371D01*
X88512886Y-67115799D01*
X88705799Y-66922886D01*
X88857371Y-66696043D01*
X88961775Y-66443989D01*
X89015000Y-66176411D01*
X89015000Y-65903589D01*
X88961775Y-65636011D01*
X88857371Y-65383957D01*
X88705799Y-65157114D01*
X88512886Y-64964201D01*
X88286043Y-64812629D01*
X88183127Y-64770000D01*
X88286043Y-64727371D01*
X88512886Y-64575799D01*
X88705799Y-64382886D01*
X88857371Y-64156043D01*
X88961775Y-63903989D01*
X89015000Y-63636411D01*
X89015000Y-63363589D01*
X88961775Y-63096011D01*
X88876443Y-62890000D01*
X104163557Y-62890000D01*
X104078225Y-63096011D01*
G37*
%TD.AperFunction*%
%TD*%
M02*
