M48
; DRILL file {KiCad (6.0.6)} date Sat Jul 30 22:38:51 2022
; FORMAT={-:-/ absolute / inch / decimal}
; #@! TF.CreationDate,2022-07-30T22:38:51-07:00
; #@! TF.GenerationSoftware,Kicad,Pcbnew,(6.0.6)
; #@! TF.FileFunction,Plated,1,2,PTH
FMAT,2
INCH
; #@! TA.AperFunction,Plated,PTH,ViaDrill
T1C0.0118
; #@! TA.AperFunction,Plated,PTH,ComponentDrill
T2C0.0177
; #@! TA.AperFunction,Plated,PTH,ComponentDrill
T3C0.0394
%
G90
G05
T1
X5.0492Y-3.0217
X5.1437Y-2.9429
X5.187Y-2.748
X5.2244Y-2.8248
X5.2398Y-2.7694
X5.2621Y-2.7471
X5.4134Y-3.0413
X5.415Y-3.0745
X5.4823Y-2.689
X5.5512Y-3.0315
X5.5807Y-2.689
X5.5825Y-3.077
X5.8366Y-3.0118
X5.8722Y-3.1174
X5.8722Y-3.2657
X5.876Y-2.813
X5.8819Y-2.8889
X5.9251Y-2.8937
X5.9491Y-2.9164
X5.9705Y-2.9395
X5.9774Y-3.1273
X5.9794Y-2.9697
X5.9852Y-3.2137
X5.9862Y-2.7559
X6.0039Y-2.879
X6.0324Y-3.115
X6.0581Y-3.0969
X6.0858Y-3.1119
X6.0997Y-2.9463
X6.1088Y-2.9123
X6.1122Y-2.879
X6.122Y-3.1273
X6.1919Y-3.1371
X6.3189Y-3.1909
X6.5028Y-2.6908
X6.5586Y-2.9035
X6.5933Y-2.6893
X6.624Y-3.2579
X6.6304Y-2.9035
T3
X4.9902Y-2.6772
X4.9969Y-3.376
X5.0902Y-2.6772
X5.0969Y-3.376
X5.1902Y-2.6772
X5.1969Y-3.376
X5.2902Y-2.6772
X5.2969Y-3.376
X5.3969Y-3.376
X5.4969Y-3.376
X5.5969Y-3.376
X5.6969Y-3.376
X5.7969Y-3.376
X5.8969Y-3.376
X5.9969Y-3.376
X6.0969Y-3.376
X6.1969Y-3.376
X6.2969Y-3.376
X6.3969Y-3.376
X6.4969Y-3.376
X6.5969Y-3.376
X6.6969Y-3.376
T2
G00X4.8752Y-2.8254
M15
G01X4.9067Y-2.8254
M16
G05
G00X4.9067Y-3.1069
M15
G01X4.8752Y-3.1069
M16
G05
T0
M30
