%TF.GenerationSoftware,KiCad,Pcbnew,(6.0.6)*%
%TF.CreationDate,2022-07-30T22:38:46-07:00*%
%TF.ProjectId,ManySegDisplayController,4d616e79-5365-4674-9469-73706c617943,rev?*%
%TF.SameCoordinates,Original*%
%TF.FileFunction,Copper,L2,Bot*%
%TF.FilePolarity,Positive*%
%FSLAX46Y46*%
G04 Gerber Fmt 4.6, Leading zero omitted, Abs format (unit mm)*
G04 Created by KiCad (PCBNEW (6.0.6)) date 2022-07-30 22:38:46*
%MOMM*%
%LPD*%
G01*
G04 APERTURE LIST*
%TA.AperFunction,ComponentPad*%
%ADD10R,1.700000X1.700000*%
%TD*%
%TA.AperFunction,ComponentPad*%
%ADD11O,1.700000X1.700000*%
%TD*%
%TA.AperFunction,ComponentPad*%
%ADD12O,1.900000X1.050000*%
%TD*%
%TA.AperFunction,ViaPad*%
%ADD13C,0.600000*%
%TD*%
%TA.AperFunction,Conductor*%
%ADD14C,0.250000*%
%TD*%
G04 APERTURE END LIST*
D10*
%TO.P,J1,1*%
%TO.N,Net-(J1-Pad1)*%
X126920000Y-85750000D03*
D11*
%TO.P,J1,2*%
%TO.N,Net-(J1-Pad2)*%
X129460000Y-85750000D03*
%TO.P,J1,3*%
%TO.N,Net-(J1-Pad3)*%
X132000000Y-85750000D03*
%TO.P,J1,4*%
%TO.N,AD0*%
X134540000Y-85750000D03*
%TO.P,J1,5*%
%TO.N,AD1*%
X137080000Y-85750000D03*
%TO.P,J1,6*%
%TO.N,AD2*%
X139620000Y-85750000D03*
%TO.P,J1,7*%
%TO.N,AD3*%
X142160000Y-85750000D03*
%TO.P,J1,8*%
%TO.N,AD4*%
X144700000Y-85750000D03*
%TO.P,J1,9*%
%TO.N,AD5*%
X147240000Y-85750000D03*
%TO.P,J1,10*%
%TO.N,AD6*%
X149780000Y-85750000D03*
%TO.P,J1,11*%
%TO.N,PD0*%
X152320000Y-85750000D03*
%TO.P,J1,12*%
%TO.N,PD1*%
X154860000Y-85750000D03*
%TO.P,J1,13*%
%TO.N,PD2*%
X157400000Y-85750000D03*
%TO.P,J1,14*%
%TO.N,PD3*%
X159940000Y-85750000D03*
%TO.P,J1,15*%
%TO.N,PD4*%
X162480000Y-85750000D03*
%TO.P,J1,16*%
%TO.N,PD5*%
X165020000Y-85750000D03*
%TO.P,J1,17*%
%TO.N,PD6*%
X167560000Y-85750000D03*
%TO.P,J1,18*%
%TO.N,PD7*%
X170100000Y-85750000D03*
%TD*%
D12*
%TO.P,J10,6*%
%TO.N,Net-(J10-Pad6)*%
X124230000Y-78915000D03*
X124230000Y-71765000D03*
%TD*%
D10*
%TO.P,J2,1*%
%TO.N,+5V*%
X126750000Y-68000000D03*
D11*
%TO.P,J2,2*%
%TO.N,SCL*%
X129290000Y-68000000D03*
%TO.P,J2,3*%
%TO.N,SDA*%
X131830000Y-68000000D03*
%TO.P,J2,4*%
%TO.N,GND*%
X134370000Y-68000000D03*
%TD*%
D13*
%TO.N,GND*%
X130650000Y-74750000D03*
X128250000Y-76750000D03*
%TO.N,+3V3*%
X132700000Y-71750000D03*
X139250000Y-68300000D03*
X149155000Y-82950000D03*
X149250000Y-71450000D03*
X149155000Y-79182403D03*
X152050000Y-70000000D03*
X148250000Y-76500000D03*
%TO.N,Net-(C30-Pad1)*%
X157274999Y-79682402D03*
X168250000Y-82750000D03*
X160500000Y-81050000D03*
%TO.N,PD7*%
X154579169Y-79043075D03*
%TO.N,PD6*%
X153876449Y-78660729D03*
%TO.N,PD5*%
X153222906Y-79122122D03*
%TO.N,PD4*%
X151825010Y-79433097D03*
%TO.N,PD3*%
X152024999Y-81626901D03*
%TO.N,PD2*%
X154933628Y-74836666D03*
%TO.N,PD1*%
X155162469Y-73971415D03*
%TO.N,PD0*%
X155250000Y-73126903D03*
%TO.N,AD6*%
X151876489Y-75429655D03*
%TO.N,AD5*%
X151650558Y-74662219D03*
%TO.N,AD4*%
X151106339Y-74075850D03*
%TO.N,AD3*%
X150496903Y-73500000D03*
%TO.N,AD2*%
X149400001Y-73377597D03*
%TO.N,AD1*%
X152500000Y-73126903D03*
%TO.N,D-*%
X141000000Y-77000000D03*
X137500000Y-77250000D03*
%TO.N,D+*%
X141794963Y-78155000D03*
X137541941Y-78091944D03*
%TO.N,Net-(R10-Pad2)*%
X141750000Y-68300000D03*
X168412500Y-73750000D03*
%TO.N,BOOT0*%
X166587500Y-73750000D03*
X155499443Y-79433097D03*
%TO.N,SCL*%
X167470000Y-68307500D03*
X133657629Y-69776256D03*
%TO.N,SDA*%
X133091942Y-70341942D03*
X165170000Y-68347500D03*
X131750000Y-69800001D03*
%TD*%
D14*
%TO.N,GND*%
X128250000Y-76750000D02*
X130250000Y-74750000D01*
X130250000Y-74750000D02*
X130650000Y-74750000D01*
%TO.N,+3V3*%
X149155000Y-79182403D02*
X149155000Y-77405000D01*
X149250000Y-71450000D02*
X150600000Y-71450000D01*
X149155000Y-82950000D02*
X149155000Y-79182403D01*
X135800000Y-71750000D02*
X139250000Y-68300000D01*
X132700000Y-71750000D02*
X135800000Y-71750000D01*
X150600000Y-71450000D02*
X152050000Y-70000000D01*
X149155000Y-77405000D02*
X148250000Y-76500000D01*
%TO.N,Net-(C30-Pad1)*%
X166550000Y-81050000D02*
X168250000Y-82750000D01*
X160500000Y-81050000D02*
X166550000Y-81050000D01*
X157274999Y-79682402D02*
X158642597Y-81050000D01*
X158642597Y-81050000D02*
X160500000Y-81050000D01*
%TO.N,PD7*%
X154549940Y-81799940D02*
X154326459Y-81576459D01*
X170100000Y-85750000D02*
X166149940Y-81799940D01*
X166149940Y-81799940D02*
X154549940Y-81799940D01*
X154326459Y-81576459D02*
X154326459Y-79295785D01*
X154326459Y-79295785D02*
X154579169Y-79043075D01*
%TO.N,PD6*%
X153876449Y-78660729D02*
X153876449Y-82126449D01*
X153876449Y-82126449D02*
X153999950Y-82249950D01*
X164059950Y-82249950D02*
X167560000Y-85750000D01*
X153999950Y-82249950D02*
X164059950Y-82249950D01*
%TO.N,PD5*%
X153449960Y-82699960D02*
X153222906Y-82472906D01*
X165020000Y-85750000D02*
X161969960Y-82699960D01*
X161969960Y-82699960D02*
X153449960Y-82699960D01*
X153222906Y-82472906D02*
X153222906Y-79122122D01*
%TO.N,PD4*%
X152650000Y-81326900D02*
X152650000Y-83100000D01*
X159879970Y-83149970D02*
X162480000Y-85750000D01*
X152650000Y-83100000D02*
X152699970Y-83149970D01*
X151825010Y-79433097D02*
X151825010Y-80501910D01*
X152699970Y-83149970D02*
X159879970Y-83149970D01*
X151825010Y-80501910D02*
X152650000Y-81326900D01*
%TO.N,PD3*%
X151650020Y-83150020D02*
X151650020Y-82674990D01*
X151650020Y-82674990D02*
X151650020Y-82001880D01*
X155886390Y-83599980D02*
X152099980Y-83599980D01*
X159940000Y-85750000D02*
X157789980Y-83599980D01*
X151650020Y-82001880D02*
X152024999Y-81626901D01*
X152099980Y-83599980D02*
X151650020Y-83150020D01*
X157789980Y-83599980D02*
X155886390Y-83599980D01*
%TO.N,PD2*%
X155699990Y-84049990D02*
X156550001Y-84900001D01*
X151200010Y-78570284D02*
X151200010Y-83357190D01*
X154933628Y-74836666D02*
X151200010Y-78570284D01*
X151892810Y-84049990D02*
X155699990Y-84049990D01*
X151200010Y-83357190D02*
X151892810Y-84049990D01*
X156550001Y-84900001D02*
X157400000Y-85750000D01*
%TO.N,PD1*%
X154860000Y-85750000D02*
X153610000Y-84500000D01*
X155162469Y-73971415D02*
X155133884Y-74000000D01*
X151706410Y-84500000D02*
X150750000Y-83543590D01*
X152687890Y-76179666D02*
X152706745Y-76179665D01*
X155133884Y-74000000D02*
X154886410Y-74000000D01*
X154886410Y-74000000D02*
X152706744Y-76179666D01*
X153610000Y-84500000D02*
X151706410Y-84500000D01*
X150750000Y-78117556D02*
X152687890Y-76179666D01*
X152706744Y-76179666D02*
X152687890Y-76179666D01*
X150750000Y-83543590D02*
X150750000Y-78117556D01*
%TO.N,PD0*%
X150250000Y-77981146D02*
X152481146Y-75750000D01*
X152320000Y-85750000D02*
X150250000Y-83680000D01*
X152481146Y-75750000D02*
X152501490Y-75729656D01*
X152501490Y-75729656D02*
X152520344Y-75729656D01*
X152520344Y-75729656D02*
X154500000Y-73750000D01*
X150250000Y-83680000D02*
X150250000Y-77981146D01*
X154500000Y-73750000D02*
X155123097Y-73126903D01*
X155123097Y-73126903D02*
X155250000Y-73126903D01*
%TO.N,AD6*%
X149780000Y-85750000D02*
X149780000Y-77526144D01*
X149780000Y-77526144D02*
X151876489Y-75429655D01*
%TO.N,AD5*%
X147250000Y-76545640D02*
X148845630Y-74950010D01*
X148845630Y-74950010D02*
X151362767Y-74950010D01*
X147240000Y-85750000D02*
X147240000Y-84547919D01*
X147250000Y-84537919D02*
X147250000Y-76545640D01*
X151362767Y-74950010D02*
X151650558Y-74662219D01*
X147240000Y-84547919D02*
X147250000Y-84537919D01*
%TO.N,AD4*%
X150682189Y-74500000D02*
X151106339Y-74075850D01*
X144700000Y-85750000D02*
X144700000Y-78459230D01*
X144700000Y-78459230D02*
X148659230Y-74500000D01*
X148659230Y-74500000D02*
X150682189Y-74500000D01*
%TO.N,AD3*%
X149988590Y-74008313D02*
X149988590Y-74011410D01*
X142160000Y-80362820D02*
X148511410Y-74011410D01*
X150496903Y-73500000D02*
X149988590Y-74008313D01*
X148511410Y-74011410D02*
X149988590Y-74011410D01*
X142160000Y-85750000D02*
X142160000Y-80362820D01*
%TO.N,AD2*%
X148508813Y-73377597D02*
X149400001Y-73377597D01*
X139620000Y-85750000D02*
X139620000Y-82266410D01*
X139620000Y-82266410D02*
X148508813Y-73377597D01*
%TO.N,AD1*%
X137080000Y-84170000D02*
X149000000Y-72250000D01*
X151163694Y-72250000D02*
X151900202Y-72986508D01*
X151900202Y-72986508D02*
X152359605Y-72986508D01*
X137080000Y-85750000D02*
X137080000Y-84170000D01*
X149000000Y-72250000D02*
X151163694Y-72250000D01*
X152359605Y-72986508D02*
X152500000Y-73126903D01*
%TO.N,D-*%
X140750000Y-77250000D02*
X141000000Y-77000000D01*
X137500000Y-77250000D02*
X140750000Y-77250000D01*
%TO.N,D+*%
X137541941Y-78091944D02*
X141731907Y-78091944D01*
X141731907Y-78091944D02*
X141794963Y-78155000D01*
%TO.N,Net-(R10-Pad2)*%
X168412500Y-73750000D02*
X162962500Y-68300000D01*
X162962500Y-68300000D02*
X141750000Y-68300000D01*
%TO.N,BOOT0*%
X155875139Y-79057401D02*
X157557401Y-79057401D01*
X155499443Y-79433097D02*
X155875139Y-79057401D01*
X165674999Y-80424999D02*
X166587500Y-79512498D01*
X157557401Y-79057401D02*
X158924999Y-80424999D01*
X158924999Y-80424999D02*
X165674999Y-80424999D01*
X166587500Y-79512498D02*
X166587500Y-73750000D01*
%TO.N,SCL*%
X133657629Y-69776256D02*
X133451258Y-69776256D01*
X133451258Y-69776256D02*
X132850003Y-69175001D01*
X130139999Y-68849999D02*
X129290000Y-68000000D01*
X167470000Y-68307500D02*
X165987499Y-66824999D01*
X165987499Y-66824999D02*
X130465001Y-66824999D01*
X130465001Y-69175001D02*
X130139999Y-68849999D01*
X130465001Y-66824999D02*
X130139999Y-67150001D01*
X130139999Y-67150001D02*
X129290000Y-68000000D01*
X132850003Y-69175001D02*
X130465001Y-69175001D01*
%TO.N,SDA*%
X165170000Y-68347500D02*
X164370000Y-68347500D01*
X133925001Y-69175001D02*
X133750000Y-69000000D01*
X135183886Y-69175001D02*
X133925001Y-69175001D01*
X132311412Y-68000000D02*
X131830000Y-68000000D01*
X164370000Y-68347500D02*
X163697499Y-67674999D01*
X136683888Y-67674999D02*
X135183886Y-69175001D01*
X133750000Y-69000000D02*
X133311412Y-69000000D01*
X132291941Y-70341942D02*
X131750000Y-69800001D01*
X133311412Y-69000000D02*
X132311412Y-68000000D01*
X133091942Y-70341942D02*
X132291941Y-70341942D01*
X163697499Y-67674999D02*
X136683888Y-67674999D01*
%TD*%
%TA.AperFunction,NonConductor*%
G36*
X138109528Y-68328501D02*
G01*
X138156021Y-68382157D01*
X138166125Y-68452431D01*
X138136631Y-68517011D01*
X138130503Y-68523593D01*
X136852029Y-69802066D01*
X135574500Y-71079595D01*
X135512188Y-71113621D01*
X135485405Y-71116500D01*
X133766050Y-71116500D01*
X133697929Y-71096498D01*
X133651436Y-71042842D01*
X133641332Y-70972568D01*
X133670826Y-70907988D01*
X133679158Y-70899254D01*
X133694108Y-70885017D01*
X133715208Y-70864924D01*
X133815585Y-70713844D01*
X133818086Y-70707259D01*
X133818089Y-70707254D01*
X133854278Y-70611985D01*
X133897167Y-70555406D01*
X133933131Y-70536895D01*
X133987035Y-70519381D01*
X133987038Y-70519380D01*
X133993737Y-70517203D01*
X134149541Y-70424325D01*
X134280895Y-70299238D01*
X134381272Y-70148158D01*
X134430427Y-70018757D01*
X134443184Y-69985176D01*
X134443185Y-69985174D01*
X134445684Y-69978594D01*
X134454345Y-69916965D01*
X134483633Y-69852292D01*
X134543236Y-69813718D01*
X134579119Y-69808501D01*
X135105119Y-69808501D01*
X135116302Y-69809028D01*
X135123795Y-69810703D01*
X135131721Y-69810454D01*
X135131722Y-69810454D01*
X135191872Y-69808563D01*
X135195831Y-69808501D01*
X135223742Y-69808501D01*
X135227677Y-69808004D01*
X135227742Y-69807996D01*
X135239579Y-69807063D01*
X135271837Y-69806049D01*
X135275856Y-69805923D01*
X135283775Y-69805674D01*
X135303229Y-69800022D01*
X135322586Y-69796014D01*
X135334816Y-69794469D01*
X135334817Y-69794469D01*
X135342683Y-69793475D01*
X135350054Y-69790556D01*
X135350056Y-69790556D01*
X135383798Y-69777197D01*
X135395028Y-69773352D01*
X135429869Y-69763230D01*
X135429870Y-69763230D01*
X135437479Y-69761019D01*
X135444298Y-69756986D01*
X135444303Y-69756984D01*
X135454914Y-69750708D01*
X135472662Y-69742013D01*
X135491503Y-69734553D01*
X135511873Y-69719754D01*
X135527273Y-69708565D01*
X135537193Y-69702049D01*
X135568421Y-69683581D01*
X135568424Y-69683579D01*
X135575248Y-69679543D01*
X135589569Y-69665222D01*
X135604603Y-69652381D01*
X135610016Y-69648448D01*
X135620993Y-69640473D01*
X135649184Y-69606396D01*
X135657174Y-69597617D01*
X136909387Y-68345404D01*
X136971699Y-68311378D01*
X136998482Y-68308499D01*
X138041407Y-68308499D01*
X138109528Y-68328501D01*
G37*
%TD.AperFunction*%
%TA.AperFunction,NonConductor*%
G36*
X150590660Y-75603512D02*
G01*
X150637153Y-75657168D01*
X150647257Y-75727442D01*
X150617763Y-75792022D01*
X150611634Y-75798605D01*
X149617167Y-76793072D01*
X149554855Y-76827098D01*
X149484040Y-76822033D01*
X149438977Y-76793072D01*
X149084421Y-76438516D01*
X149050395Y-76376204D01*
X149048301Y-76363465D01*
X149044182Y-76326746D01*
X149043397Y-76319745D01*
X149004442Y-76207881D01*
X148986064Y-76155106D01*
X148986062Y-76155103D01*
X148983745Y-76148448D01*
X148887626Y-75994624D01*
X148881079Y-75988031D01*
X148880389Y-75986757D01*
X148878285Y-75984102D01*
X148878751Y-75983732D01*
X148847272Y-75925600D01*
X148852585Y-75854802D01*
X148881391Y-75810153D01*
X149071129Y-75620415D01*
X149133441Y-75586389D01*
X149160224Y-75583510D01*
X150522539Y-75583510D01*
X150590660Y-75603512D01*
G37*
%TD.AperFunction*%
%TA.AperFunction,NonConductor*%
G36*
X156411072Y-79715450D02*
G01*
X156460970Y-79765955D01*
X156475418Y-79813374D01*
X156479162Y-79851562D01*
X156536417Y-80023675D01*
X156540064Y-80029697D01*
X156540065Y-80029699D01*
X156613723Y-80151323D01*
X156630379Y-80178826D01*
X156635268Y-80183889D01*
X156635269Y-80183890D01*
X156672598Y-80222545D01*
X156756381Y-80309304D01*
X156908158Y-80408624D01*
X156914762Y-80411080D01*
X156914764Y-80411081D01*
X157071557Y-80469392D01*
X157071559Y-80469392D01*
X157078167Y-80471850D01*
X157085152Y-80472782D01*
X157085156Y-80472783D01*
X157120086Y-80477443D01*
X157140186Y-80480125D01*
X157205062Y-80508960D01*
X157212616Y-80515923D01*
X157648038Y-80951345D01*
X157682064Y-81013657D01*
X157676999Y-81084472D01*
X157634452Y-81141308D01*
X157567932Y-81166119D01*
X157558943Y-81166440D01*
X155085959Y-81166440D01*
X155017838Y-81146438D01*
X154971345Y-81092782D01*
X154959959Y-81040440D01*
X154959959Y-80276041D01*
X154979961Y-80207920D01*
X155033617Y-80161427D01*
X155103891Y-80151323D01*
X155132253Y-80160258D01*
X155132602Y-80159319D01*
X155296001Y-80220087D01*
X155296003Y-80220087D01*
X155302611Y-80222545D01*
X155386438Y-80233730D01*
X155475423Y-80245604D01*
X155475427Y-80245604D01*
X155482404Y-80246535D01*
X155489415Y-80245897D01*
X155489419Y-80245897D01*
X155631902Y-80232929D01*
X155663043Y-80230095D01*
X155669745Y-80227917D01*
X155669747Y-80227917D01*
X155828852Y-80176221D01*
X155828855Y-80176220D01*
X155835551Y-80174044D01*
X155991355Y-80081166D01*
X156122709Y-79956079D01*
X156223086Y-79804999D01*
X156225587Y-79798414D01*
X156225590Y-79798409D01*
X156232232Y-79780924D01*
X156275121Y-79724347D01*
X156341791Y-79699939D01*
X156411072Y-79715450D01*
G37*
%TD.AperFunction*%
%TA.AperFunction,NonConductor*%
G36*
X165903467Y-82453442D02*
G01*
X165924441Y-82470345D01*
X167630086Y-84175990D01*
X167664112Y-84238302D01*
X167659047Y-84309117D01*
X167616500Y-84365953D01*
X167549980Y-84390764D01*
X167539459Y-84391076D01*
X167491962Y-84390495D01*
X167470080Y-84390228D01*
X167470078Y-84390228D01*
X167464911Y-84390165D01*
X167244091Y-84423955D01*
X167231532Y-84428060D01*
X167160568Y-84430210D01*
X167103294Y-84397389D01*
X165354440Y-82648535D01*
X165320414Y-82586223D01*
X165325479Y-82515408D01*
X165368026Y-82458572D01*
X165434546Y-82433761D01*
X165443535Y-82433440D01*
X165835346Y-82433440D01*
X165903467Y-82453442D01*
G37*
%TD.AperFunction*%
%TA.AperFunction,NonConductor*%
G36*
X159633497Y-83803472D02*
G01*
X159654471Y-83820375D01*
X160010086Y-84175990D01*
X160044112Y-84238302D01*
X160039047Y-84309117D01*
X159996500Y-84365953D01*
X159929980Y-84390764D01*
X159919459Y-84391076D01*
X159871962Y-84390495D01*
X159850080Y-84390228D01*
X159850078Y-84390228D01*
X159844911Y-84390165D01*
X159624091Y-84423955D01*
X159611532Y-84428060D01*
X159540568Y-84430210D01*
X159483294Y-84397389D01*
X159084470Y-83998565D01*
X159050444Y-83936253D01*
X159055509Y-83865438D01*
X159098056Y-83808602D01*
X159164576Y-83783791D01*
X159173565Y-83783470D01*
X159565376Y-83783470D01*
X159633497Y-83803472D01*
G37*
%TD.AperFunction*%
%TA.AperFunction,NonConductor*%
G36*
X163813477Y-82903452D02*
G01*
X163834451Y-82920355D01*
X165090086Y-84175990D01*
X165124112Y-84238302D01*
X165119047Y-84309117D01*
X165076500Y-84365953D01*
X165009980Y-84390764D01*
X164999459Y-84391076D01*
X164951962Y-84390495D01*
X164930080Y-84390228D01*
X164930078Y-84390228D01*
X164924911Y-84390165D01*
X164704091Y-84423955D01*
X164691532Y-84428060D01*
X164620568Y-84430210D01*
X164563294Y-84397389D01*
X163264450Y-83098545D01*
X163230424Y-83036233D01*
X163235489Y-82965418D01*
X163278036Y-82908582D01*
X163344556Y-82883771D01*
X163353545Y-82883450D01*
X163745356Y-82883450D01*
X163813477Y-82903452D01*
G37*
%TD.AperFunction*%
%TA.AperFunction,NonConductor*%
G36*
X161723487Y-83353462D02*
G01*
X161744457Y-83370361D01*
X162550087Y-84175992D01*
X162584111Y-84238302D01*
X162579046Y-84309118D01*
X162536499Y-84365953D01*
X162469979Y-84390764D01*
X162459458Y-84391076D01*
X162411416Y-84390489D01*
X162390080Y-84390228D01*
X162390078Y-84390228D01*
X162384911Y-84390165D01*
X162164091Y-84423955D01*
X162151532Y-84428060D01*
X162080568Y-84430210D01*
X162023294Y-84397389D01*
X161174460Y-83548555D01*
X161140434Y-83486243D01*
X161145499Y-83415428D01*
X161188046Y-83358592D01*
X161254566Y-83333781D01*
X161263555Y-83333460D01*
X161655366Y-83333460D01*
X161723487Y-83353462D01*
G37*
%TD.AperFunction*%
%TA.AperFunction,NonConductor*%
G36*
X141444532Y-81441948D02*
G01*
X141501368Y-81484495D01*
X141526179Y-81551015D01*
X141526500Y-81560004D01*
X141526500Y-84471692D01*
X141506498Y-84539813D01*
X141458683Y-84583453D01*
X141433607Y-84596507D01*
X141429474Y-84599610D01*
X141429471Y-84599612D01*
X141259100Y-84727530D01*
X141254965Y-84730635D01*
X141251393Y-84734373D01*
X141143729Y-84847037D01*
X141100629Y-84892138D01*
X140993201Y-85049621D01*
X140938293Y-85094621D01*
X140867768Y-85102792D01*
X140804021Y-85071538D01*
X140783324Y-85047054D01*
X140702822Y-84922617D01*
X140702820Y-84922614D01*
X140700014Y-84918277D01*
X140549670Y-84753051D01*
X140545619Y-84749852D01*
X140545615Y-84749848D01*
X140378414Y-84617800D01*
X140378410Y-84617798D01*
X140374359Y-84614598D01*
X140369835Y-84612101D01*
X140369831Y-84612098D01*
X140318608Y-84583822D01*
X140268636Y-84533390D01*
X140253500Y-84473513D01*
X140253500Y-82581004D01*
X140273502Y-82512883D01*
X140290405Y-82491909D01*
X141311405Y-81470909D01*
X141373717Y-81436883D01*
X141444532Y-81441948D01*
G37*
%TD.AperFunction*%
%TA.AperFunction,NonConductor*%
G36*
X143984532Y-79538358D02*
G01*
X144041368Y-79580905D01*
X144066179Y-79647425D01*
X144066500Y-79656414D01*
X144066500Y-84471692D01*
X144046498Y-84539813D01*
X143998683Y-84583453D01*
X143973607Y-84596507D01*
X143969474Y-84599610D01*
X143969471Y-84599612D01*
X143799100Y-84727530D01*
X143794965Y-84730635D01*
X143791393Y-84734373D01*
X143683729Y-84847037D01*
X143640629Y-84892138D01*
X143533201Y-85049621D01*
X143478293Y-85094621D01*
X143407768Y-85102792D01*
X143344021Y-85071538D01*
X143323324Y-85047054D01*
X143242822Y-84922617D01*
X143242820Y-84922614D01*
X143240014Y-84918277D01*
X143089670Y-84753051D01*
X143085619Y-84749852D01*
X143085615Y-84749848D01*
X142918414Y-84617800D01*
X142918410Y-84617798D01*
X142914359Y-84614598D01*
X142909835Y-84612101D01*
X142909831Y-84612098D01*
X142858608Y-84583822D01*
X142808636Y-84533390D01*
X142793500Y-84473513D01*
X142793500Y-80677414D01*
X142813502Y-80609293D01*
X142830405Y-80588319D01*
X143851405Y-79567319D01*
X143913717Y-79533293D01*
X143984532Y-79538358D01*
G37*
%TD.AperFunction*%
%TA.AperFunction,NonConductor*%
G36*
X148039980Y-77285351D02*
G01*
X148046568Y-77286993D01*
X148053168Y-77289448D01*
X148060151Y-77290380D01*
X148060152Y-77290380D01*
X148076221Y-77292524D01*
X148115187Y-77297723D01*
X148180063Y-77326558D01*
X148187617Y-77333521D01*
X148484595Y-77630499D01*
X148518621Y-77692811D01*
X148521500Y-77719594D01*
X148521500Y-78635734D01*
X148501411Y-78703989D01*
X148430054Y-78814713D01*
X148430050Y-78814722D01*
X148426235Y-78820641D01*
X148423826Y-78827261D01*
X148423825Y-78827262D01*
X148395149Y-78906049D01*
X148364197Y-78991088D01*
X148341463Y-79171043D01*
X148359163Y-79351563D01*
X148416418Y-79523676D01*
X148420065Y-79529698D01*
X148420066Y-79529700D01*
X148503276Y-79667097D01*
X148521500Y-79732368D01*
X148521500Y-82403331D01*
X148501411Y-82471586D01*
X148430054Y-82582310D01*
X148430050Y-82582319D01*
X148426235Y-82588238D01*
X148423826Y-82594858D01*
X148423825Y-82594859D01*
X148368791Y-82746062D01*
X148364197Y-82758685D01*
X148341463Y-82938640D01*
X148359163Y-83119160D01*
X148416418Y-83291273D01*
X148420065Y-83297295D01*
X148420066Y-83297297D01*
X148503248Y-83434647D01*
X148510380Y-83446424D01*
X148515269Y-83451487D01*
X148515270Y-83451488D01*
X148548833Y-83486243D01*
X148636382Y-83576902D01*
X148788159Y-83676222D01*
X148794763Y-83678678D01*
X148794765Y-83678679D01*
X148951558Y-83736990D01*
X148951560Y-83736990D01*
X148958168Y-83739448D01*
X149005176Y-83745720D01*
X149037165Y-83749989D01*
X149102042Y-83778825D01*
X149141030Y-83838159D01*
X149146500Y-83874882D01*
X149146500Y-84471692D01*
X149126498Y-84539813D01*
X149078683Y-84583453D01*
X149053607Y-84596507D01*
X149049474Y-84599610D01*
X149049471Y-84599612D01*
X148879100Y-84727530D01*
X148874965Y-84730635D01*
X148871393Y-84734373D01*
X148763729Y-84847037D01*
X148720629Y-84892138D01*
X148613201Y-85049621D01*
X148558293Y-85094621D01*
X148487768Y-85102792D01*
X148424021Y-85071538D01*
X148403324Y-85047054D01*
X148322822Y-84922617D01*
X148322820Y-84922614D01*
X148320014Y-84918277D01*
X148169670Y-84753051D01*
X148165619Y-84749852D01*
X148165615Y-84749848D01*
X147998412Y-84617799D01*
X147994359Y-84614598D01*
X147989843Y-84612105D01*
X147989840Y-84612103D01*
X147948606Y-84589341D01*
X147898636Y-84538908D01*
X147883500Y-84479032D01*
X147883500Y-77407609D01*
X147903502Y-77339488D01*
X147957158Y-77292995D01*
X148027432Y-77282891D01*
X148039980Y-77285351D01*
G37*
%TD.AperFunction*%
%TA.AperFunction,NonConductor*%
G36*
X146534532Y-77624768D02*
G01*
X146591368Y-77667315D01*
X146616179Y-77733835D01*
X146616500Y-77742824D01*
X146616500Y-84413026D01*
X146612541Y-84444361D01*
X146606500Y-84467889D01*
X146606500Y-84475816D01*
X146605506Y-84483683D01*
X146603069Y-84483375D01*
X146586498Y-84539812D01*
X146538681Y-84583454D01*
X146518200Y-84594116D01*
X146513607Y-84596507D01*
X146334965Y-84730635D01*
X146331393Y-84734373D01*
X146223729Y-84847037D01*
X146180629Y-84892138D01*
X146073201Y-85049621D01*
X146018293Y-85094621D01*
X145947768Y-85102792D01*
X145884021Y-85071538D01*
X145863324Y-85047054D01*
X145782822Y-84922617D01*
X145782820Y-84922614D01*
X145780014Y-84918277D01*
X145629670Y-84753051D01*
X145625619Y-84749852D01*
X145625615Y-84749848D01*
X145458414Y-84617800D01*
X145458410Y-84617798D01*
X145454359Y-84614598D01*
X145449835Y-84612101D01*
X145449831Y-84612098D01*
X145398608Y-84583822D01*
X145348636Y-84533390D01*
X145333500Y-84473513D01*
X145333500Y-78773824D01*
X145353502Y-78705703D01*
X145370405Y-78684729D01*
X146401405Y-77653729D01*
X146463717Y-77619703D01*
X146534532Y-77624768D01*
G37*
%TD.AperFunction*%
%TA.AperFunction,NonConductor*%
G36*
X138904532Y-83345538D02*
G01*
X138961368Y-83388085D01*
X138986179Y-83454605D01*
X138986500Y-83463594D01*
X138986500Y-84471692D01*
X138966498Y-84539813D01*
X138918683Y-84583453D01*
X138893607Y-84596507D01*
X138889474Y-84599610D01*
X138889471Y-84599612D01*
X138719100Y-84727530D01*
X138714965Y-84730635D01*
X138711393Y-84734373D01*
X138603729Y-84847037D01*
X138560629Y-84892138D01*
X138453201Y-85049621D01*
X138398293Y-85094621D01*
X138327768Y-85102792D01*
X138264021Y-85071538D01*
X138243324Y-85047054D01*
X138162822Y-84922617D01*
X138162820Y-84922614D01*
X138160014Y-84918277D01*
X138009670Y-84753051D01*
X138005619Y-84749852D01*
X138005615Y-84749848D01*
X137838414Y-84617800D01*
X137838410Y-84617798D01*
X137834359Y-84614598D01*
X137829831Y-84612098D01*
X137785747Y-84587763D01*
X137735776Y-84537330D01*
X137721004Y-84467888D01*
X137746120Y-84401482D01*
X137757545Y-84388359D01*
X138771405Y-83374499D01*
X138833717Y-83340473D01*
X138904532Y-83345538D01*
G37*
%TD.AperFunction*%
%TA.AperFunction,NonConductor*%
G36*
X172183621Y-66278502D02*
G01*
X172230114Y-66332158D01*
X172241500Y-66384500D01*
X172241500Y-87115500D01*
X172221498Y-87183621D01*
X172167842Y-87230114D01*
X172115500Y-87241500D01*
X170687160Y-87241500D01*
X170619039Y-87221498D01*
X170572546Y-87167842D01*
X170562442Y-87097568D01*
X170591936Y-87032988D01*
X170631728Y-87002349D01*
X170793346Y-86923173D01*
X170797994Y-86920896D01*
X170979860Y-86791173D01*
X171138096Y-86633489D01*
X171268453Y-86452077D01*
X171289320Y-86409857D01*
X171365136Y-86256453D01*
X171365137Y-86256451D01*
X171367430Y-86251811D01*
X171432370Y-86038069D01*
X171461529Y-85816590D01*
X171463156Y-85750000D01*
X171444852Y-85527361D01*
X171390431Y-85310702D01*
X171301354Y-85105840D01*
X171180014Y-84918277D01*
X171029670Y-84753051D01*
X171025619Y-84749852D01*
X171025615Y-84749848D01*
X170858414Y-84617800D01*
X170858410Y-84617798D01*
X170854359Y-84614598D01*
X170849831Y-84612098D01*
X170797945Y-84583456D01*
X170658789Y-84506638D01*
X170653920Y-84504914D01*
X170653916Y-84504912D01*
X170453087Y-84433795D01*
X170453083Y-84433794D01*
X170448212Y-84432069D01*
X170443119Y-84431162D01*
X170443116Y-84431161D01*
X170233373Y-84393800D01*
X170233367Y-84393799D01*
X170228284Y-84392894D01*
X170154452Y-84391992D01*
X170010081Y-84390228D01*
X170010079Y-84390228D01*
X170004911Y-84390165D01*
X169784091Y-84423955D01*
X169771532Y-84428060D01*
X169700568Y-84430210D01*
X169643294Y-84397389D01*
X168783046Y-83537141D01*
X168749020Y-83474829D01*
X168754085Y-83404014D01*
X168785249Y-83356801D01*
X168868159Y-83277846D01*
X168868162Y-83277843D01*
X168873266Y-83272982D01*
X168973643Y-83121902D01*
X169015423Y-83011917D01*
X169035555Y-82958920D01*
X169035556Y-82958918D01*
X169038055Y-82952338D01*
X169042550Y-82920355D01*
X169062748Y-82776639D01*
X169062748Y-82776636D01*
X169063299Y-82772717D01*
X169063616Y-82750000D01*
X169043397Y-82569745D01*
X169041080Y-82563091D01*
X168986064Y-82405106D01*
X168986062Y-82405103D01*
X168983745Y-82398448D01*
X168887626Y-82244624D01*
X168882664Y-82239627D01*
X168764778Y-82120915D01*
X168764774Y-82120912D01*
X168759815Y-82115918D01*
X168606666Y-82018727D01*
X168435790Y-81957881D01*
X168386007Y-81951945D01*
X168320733Y-81924018D01*
X168311830Y-81915926D01*
X167053652Y-80657747D01*
X167046112Y-80649461D01*
X167042000Y-80642982D01*
X166992348Y-80596356D01*
X166989507Y-80593602D01*
X166969770Y-80573865D01*
X166966573Y-80571385D01*
X166957551Y-80563680D01*
X166931100Y-80538841D01*
X166925321Y-80533414D01*
X166918375Y-80529595D01*
X166918372Y-80529593D01*
X166907566Y-80523652D01*
X166891047Y-80512801D01*
X166886095Y-80508960D01*
X166875041Y-80500386D01*
X166867772Y-80497241D01*
X166867768Y-80497238D01*
X166834463Y-80482826D01*
X166823813Y-80477609D01*
X166785060Y-80456305D01*
X166784294Y-80456108D01*
X166730824Y-80414387D01*
X166707348Y-80347384D01*
X166723824Y-80278326D01*
X166744087Y-80251815D01*
X166979747Y-80016155D01*
X166988037Y-80008611D01*
X166994518Y-80004498D01*
X167041159Y-79954830D01*
X167043913Y-79951989D01*
X167063634Y-79932268D01*
X167066112Y-79929073D01*
X167073818Y-79920051D01*
X167098658Y-79893599D01*
X167104086Y-79887819D01*
X167111055Y-79875142D01*
X167113846Y-79870066D01*
X167124699Y-79853543D01*
X167126236Y-79851562D01*
X167137113Y-79837539D01*
X167154676Y-79796955D01*
X167159883Y-79786325D01*
X167181195Y-79747558D01*
X167183166Y-79739881D01*
X167183168Y-79739876D01*
X167186232Y-79727940D01*
X167192638Y-79709228D01*
X167197533Y-79697917D01*
X167200681Y-79690643D01*
X167201921Y-79682815D01*
X167201923Y-79682808D01*
X167207599Y-79646974D01*
X167210005Y-79635354D01*
X167219028Y-79600209D01*
X167219028Y-79600208D01*
X167221000Y-79592528D01*
X167221000Y-79572274D01*
X167222551Y-79552563D01*
X167224480Y-79540384D01*
X167225720Y-79532555D01*
X167221559Y-79488536D01*
X167221000Y-79476679D01*
X167221000Y-74295620D01*
X167242052Y-74225893D01*
X167276335Y-74174293D01*
X167311143Y-74121902D01*
X167375555Y-73952338D01*
X167376535Y-73945366D01*
X167378288Y-73938538D01*
X167381182Y-73939281D01*
X167405010Y-73886736D01*
X167464634Y-73848194D01*
X167535630Y-73848005D01*
X167595458Y-73886230D01*
X167620010Y-73929221D01*
X167673918Y-74091273D01*
X167677565Y-74097295D01*
X167677566Y-74097297D01*
X167763764Y-74239627D01*
X167767880Y-74246424D01*
X167893882Y-74376902D01*
X168045659Y-74476222D01*
X168052263Y-74478678D01*
X168052265Y-74478679D01*
X168209058Y-74536990D01*
X168209060Y-74536990D01*
X168215668Y-74539448D01*
X168299495Y-74550633D01*
X168388480Y-74562507D01*
X168388484Y-74562507D01*
X168395461Y-74563438D01*
X168402472Y-74562800D01*
X168402476Y-74562800D01*
X168544959Y-74549832D01*
X168576100Y-74546998D01*
X168582802Y-74544820D01*
X168582804Y-74544820D01*
X168741909Y-74493124D01*
X168741912Y-74493123D01*
X168748608Y-74490947D01*
X168845013Y-74433478D01*
X168898360Y-74401677D01*
X168898362Y-74401676D01*
X168904412Y-74398069D01*
X169035766Y-74272982D01*
X169136143Y-74121902D01*
X169200555Y-73952338D01*
X169202390Y-73939281D01*
X169225248Y-73776639D01*
X169225248Y-73776636D01*
X169225799Y-73772717D01*
X169226116Y-73750000D01*
X169205897Y-73569745D01*
X169203580Y-73563091D01*
X169148564Y-73405106D01*
X169148562Y-73405103D01*
X169146245Y-73398448D01*
X169050126Y-73244624D01*
X169036441Y-73230843D01*
X168927278Y-73120915D01*
X168927274Y-73120912D01*
X168922315Y-73115918D01*
X168911197Y-73108862D01*
X168863038Y-73078300D01*
X168769166Y-73018727D01*
X168598290Y-72957881D01*
X168548507Y-72951945D01*
X168483233Y-72924018D01*
X168474330Y-72915926D01*
X164915798Y-69357393D01*
X164881772Y-69295081D01*
X164886837Y-69224265D01*
X164929384Y-69167430D01*
X164995904Y-69142619D01*
X165021557Y-69143405D01*
X165145979Y-69160007D01*
X165145984Y-69160007D01*
X165152961Y-69160938D01*
X165159972Y-69160300D01*
X165159976Y-69160300D01*
X165302459Y-69147332D01*
X165333600Y-69144498D01*
X165340302Y-69142320D01*
X165340304Y-69142320D01*
X165499409Y-69090624D01*
X165499412Y-69090623D01*
X165506108Y-69088447D01*
X165661912Y-68995569D01*
X165793266Y-68870482D01*
X165893643Y-68719402D01*
X165958055Y-68549838D01*
X165963806Y-68508920D01*
X165982748Y-68374139D01*
X165982748Y-68374136D01*
X165983299Y-68370217D01*
X165983616Y-68347500D01*
X165963397Y-68167245D01*
X165949468Y-68127245D01*
X165906064Y-68002606D01*
X165906062Y-68002603D01*
X165903745Y-67995948D01*
X165892110Y-67977328D01*
X165872975Y-67908959D01*
X165893841Y-67841098D01*
X165948084Y-67795290D01*
X166018480Y-67786080D01*
X166082681Y-67816392D01*
X166088054Y-67821459D01*
X166634751Y-68368156D01*
X166668776Y-68430468D01*
X166671054Y-68444954D01*
X166674163Y-68476660D01*
X166731418Y-68648773D01*
X166735065Y-68654795D01*
X166735066Y-68654797D01*
X166777748Y-68725273D01*
X166825380Y-68803924D01*
X166830269Y-68808987D01*
X166830270Y-68808988D01*
X166851027Y-68830482D01*
X166951382Y-68934402D01*
X167011799Y-68973938D01*
X167091698Y-69026222D01*
X167103159Y-69033722D01*
X167109763Y-69036178D01*
X167109765Y-69036179D01*
X167266558Y-69094490D01*
X167266560Y-69094490D01*
X167273168Y-69096948D01*
X167356995Y-69108133D01*
X167445980Y-69120007D01*
X167445984Y-69120007D01*
X167452961Y-69120938D01*
X167459972Y-69120300D01*
X167459976Y-69120300D01*
X167602459Y-69107332D01*
X167633600Y-69104498D01*
X167640302Y-69102320D01*
X167640304Y-69102320D01*
X167799409Y-69050624D01*
X167799412Y-69050623D01*
X167806108Y-69048447D01*
X167919251Y-68981000D01*
X167955860Y-68959177D01*
X167955862Y-68959176D01*
X167961912Y-68955569D01*
X168093266Y-68830482D01*
X168193643Y-68679402D01*
X168258055Y-68509838D01*
X168260089Y-68495366D01*
X168282748Y-68334139D01*
X168282748Y-68334136D01*
X168283299Y-68330217D01*
X168283616Y-68307500D01*
X168263397Y-68127245D01*
X168219993Y-68002606D01*
X168206064Y-67962606D01*
X168206062Y-67962603D01*
X168203745Y-67955948D01*
X168131979Y-67841098D01*
X168111359Y-67808098D01*
X168107626Y-67802124D01*
X168019537Y-67713418D01*
X167984778Y-67678415D01*
X167984774Y-67678412D01*
X167979815Y-67673418D01*
X167826666Y-67576227D01*
X167655790Y-67515381D01*
X167606007Y-67509445D01*
X167540733Y-67481518D01*
X167531830Y-67473426D01*
X166532000Y-66473595D01*
X166497974Y-66411283D01*
X166503039Y-66340467D01*
X166545586Y-66283632D01*
X166612106Y-66258821D01*
X166621095Y-66258500D01*
X172115500Y-66258500D01*
X172183621Y-66278502D01*
G37*
%TD.AperFunction*%
%TA.AperFunction,NonConductor*%
G36*
X135892026Y-86425144D02*
G01*
X135919875Y-86456994D01*
X135979987Y-86555088D01*
X136126250Y-86723938D01*
X136298126Y-86866632D01*
X136491000Y-86979338D01*
X136495825Y-86981180D01*
X136495826Y-86981181D01*
X136539321Y-86997790D01*
X136595824Y-87040778D01*
X136620117Y-87107489D01*
X136604487Y-87176743D01*
X136553896Y-87226554D01*
X136494372Y-87241500D01*
X135127160Y-87241500D01*
X135059039Y-87221498D01*
X135012546Y-87167842D01*
X135002442Y-87097568D01*
X135031936Y-87032988D01*
X135071728Y-87002349D01*
X135233346Y-86923173D01*
X135237994Y-86920896D01*
X135419860Y-86791173D01*
X135578096Y-86633489D01*
X135708453Y-86452077D01*
X135709776Y-86453028D01*
X135756645Y-86409857D01*
X135826580Y-86397625D01*
X135892026Y-86425144D01*
G37*
%TD.AperFunction*%
%TA.AperFunction,NonConductor*%
G36*
X133352026Y-86425144D02*
G01*
X133379875Y-86456994D01*
X133439987Y-86555088D01*
X133586250Y-86723938D01*
X133758126Y-86866632D01*
X133951000Y-86979338D01*
X133955825Y-86981180D01*
X133955826Y-86981181D01*
X133999321Y-86997790D01*
X134055824Y-87040778D01*
X134080117Y-87107489D01*
X134064487Y-87176743D01*
X134013896Y-87226554D01*
X133954372Y-87241500D01*
X132587160Y-87241500D01*
X132519039Y-87221498D01*
X132472546Y-87167842D01*
X132462442Y-87097568D01*
X132491936Y-87032988D01*
X132531728Y-87002349D01*
X132693346Y-86923173D01*
X132697994Y-86920896D01*
X132879860Y-86791173D01*
X133038096Y-86633489D01*
X133168453Y-86452077D01*
X133169776Y-86453028D01*
X133216645Y-86409857D01*
X133286580Y-86397625D01*
X133352026Y-86425144D01*
G37*
%TD.AperFunction*%
%TA.AperFunction,NonConductor*%
G36*
X130812026Y-86425144D02*
G01*
X130839875Y-86456994D01*
X130899987Y-86555088D01*
X131046250Y-86723938D01*
X131218126Y-86866632D01*
X131411000Y-86979338D01*
X131415825Y-86981180D01*
X131415826Y-86981181D01*
X131459321Y-86997790D01*
X131515824Y-87040778D01*
X131540117Y-87107489D01*
X131524487Y-87176743D01*
X131473896Y-87226554D01*
X131414372Y-87241500D01*
X130047160Y-87241500D01*
X129979039Y-87221498D01*
X129932546Y-87167842D01*
X129922442Y-87097568D01*
X129951936Y-87032988D01*
X129991728Y-87002349D01*
X130153346Y-86923173D01*
X130157994Y-86920896D01*
X130339860Y-86791173D01*
X130498096Y-86633489D01*
X130628453Y-86452077D01*
X130629776Y-86453028D01*
X130676645Y-86409857D01*
X130746580Y-86397625D01*
X130812026Y-86425144D01*
G37*
%TD.AperFunction*%
%TA.AperFunction,NonConductor*%
G36*
X128443150Y-86663126D02*
G01*
X128477817Y-86691114D01*
X128506250Y-86723938D01*
X128678126Y-86866632D01*
X128871000Y-86979338D01*
X128875825Y-86981180D01*
X128875826Y-86981181D01*
X128919321Y-86997790D01*
X128975824Y-87040778D01*
X129000117Y-87107489D01*
X128984487Y-87176743D01*
X128933896Y-87226554D01*
X128874372Y-87241500D01*
X128140226Y-87241500D01*
X128072105Y-87221498D01*
X128025612Y-87167842D01*
X128015508Y-87097568D01*
X128045002Y-87032988D01*
X128064661Y-87014674D01*
X128126080Y-86968643D01*
X128126081Y-86968642D01*
X128133261Y-86963261D01*
X128220615Y-86846705D01*
X128242799Y-86787529D01*
X128264598Y-86729382D01*
X128307240Y-86672618D01*
X128373802Y-86647918D01*
X128443150Y-86663126D01*
G37*
%TD.AperFunction*%
%TA.AperFunction,NonConductor*%
G36*
X129899526Y-66278502D02*
G01*
X129946019Y-66332158D01*
X129956123Y-66402432D01*
X129926629Y-66467012D01*
X129920500Y-66473595D01*
X129747345Y-66646750D01*
X129685033Y-66680776D01*
X129636154Y-66681702D01*
X129423373Y-66643800D01*
X129423367Y-66643799D01*
X129418284Y-66642894D01*
X129344452Y-66641992D01*
X129200081Y-66640228D01*
X129200079Y-66640228D01*
X129194911Y-66640165D01*
X128974091Y-66673955D01*
X128761756Y-66743357D01*
X128563607Y-66846507D01*
X128559474Y-66849610D01*
X128559471Y-66849612D01*
X128389100Y-66977530D01*
X128384965Y-66980635D01*
X128328537Y-67039684D01*
X128304283Y-67065064D01*
X128242759Y-67100494D01*
X128171846Y-67097037D01*
X128114060Y-67055791D01*
X128095207Y-67022243D01*
X128053767Y-66911703D01*
X128050615Y-66903295D01*
X127963261Y-66786739D01*
X127846705Y-66699385D01*
X127710316Y-66648255D01*
X127648134Y-66641500D01*
X125851866Y-66641500D01*
X125789684Y-66648255D01*
X125653295Y-66699385D01*
X125536739Y-66786739D01*
X125449385Y-66903295D01*
X125398255Y-67039684D01*
X125391500Y-67101866D01*
X125391500Y-68898134D01*
X125398255Y-68960316D01*
X125449385Y-69096705D01*
X125536739Y-69213261D01*
X125653295Y-69300615D01*
X125789684Y-69351745D01*
X125851866Y-69358500D01*
X127648134Y-69358500D01*
X127710316Y-69351745D01*
X127846705Y-69300615D01*
X127963261Y-69213261D01*
X128050615Y-69096705D01*
X128068706Y-69048447D01*
X128094598Y-68979382D01*
X128137240Y-68922618D01*
X128203802Y-68897918D01*
X128273150Y-68913126D01*
X128307817Y-68941114D01*
X128336250Y-68973938D01*
X128416963Y-69040947D01*
X128493511Y-69104498D01*
X128508126Y-69116632D01*
X128701000Y-69229338D01*
X128909692Y-69309030D01*
X128914760Y-69310061D01*
X128914763Y-69310062D01*
X128993760Y-69326134D01*
X129128597Y-69353567D01*
X129133772Y-69353757D01*
X129133774Y-69353757D01*
X129346673Y-69361564D01*
X129346677Y-69361564D01*
X129351837Y-69361753D01*
X129356957Y-69361097D01*
X129356959Y-69361097D01*
X129435512Y-69351034D01*
X129573416Y-69333368D01*
X129619830Y-69319443D01*
X129690823Y-69319027D01*
X129745130Y-69351034D01*
X129961344Y-69567248D01*
X129968888Y-69575538D01*
X129973001Y-69582019D01*
X129978778Y-69587444D01*
X130022668Y-69628659D01*
X130025510Y-69631414D01*
X130045231Y-69651135D01*
X130048426Y-69653613D01*
X130057448Y-69661319D01*
X130089680Y-69691587D01*
X130096629Y-69695407D01*
X130107433Y-69701347D01*
X130123957Y-69712200D01*
X130139960Y-69724614D01*
X130180544Y-69742177D01*
X130191174Y-69747384D01*
X130229941Y-69768696D01*
X130237618Y-69770667D01*
X130237623Y-69770669D01*
X130249559Y-69773733D01*
X130268267Y-69780138D01*
X130286856Y-69788182D01*
X130294684Y-69789422D01*
X130294691Y-69789424D01*
X130330525Y-69795100D01*
X130342145Y-69797506D01*
X130373960Y-69805674D01*
X130384971Y-69808501D01*
X130405225Y-69808501D01*
X130424935Y-69810052D01*
X130444944Y-69813221D01*
X130452836Y-69812475D01*
X130471581Y-69810703D01*
X130488963Y-69809060D01*
X130500820Y-69808501D01*
X130824160Y-69808501D01*
X130892281Y-69828503D01*
X130938774Y-69882159D01*
X130949559Y-69922206D01*
X130954163Y-69969161D01*
X130956387Y-69975846D01*
X130956387Y-69975847D01*
X130963112Y-69996062D01*
X131011418Y-70141274D01*
X131015065Y-70147296D01*
X131015066Y-70147298D01*
X131052386Y-70208920D01*
X131105380Y-70296425D01*
X131231382Y-70426903D01*
X131383159Y-70526223D01*
X131389763Y-70528679D01*
X131389765Y-70528680D01*
X131546558Y-70586991D01*
X131546560Y-70586991D01*
X131553168Y-70589449D01*
X131560153Y-70590381D01*
X131560157Y-70590382D01*
X131595087Y-70595042D01*
X131615187Y-70597724D01*
X131680063Y-70626559D01*
X131687617Y-70633522D01*
X131788284Y-70734189D01*
X131795828Y-70742479D01*
X131799941Y-70748960D01*
X131805718Y-70754385D01*
X131849608Y-70795600D01*
X131852450Y-70798355D01*
X131872171Y-70818076D01*
X131875366Y-70820554D01*
X131884388Y-70828260D01*
X131916620Y-70858528D01*
X131923569Y-70862348D01*
X131934373Y-70868288D01*
X131950897Y-70879141D01*
X131966900Y-70891555D01*
X132007484Y-70909118D01*
X132018114Y-70914325D01*
X132056881Y-70935637D01*
X132064558Y-70937608D01*
X132064563Y-70937610D01*
X132076499Y-70940674D01*
X132095211Y-70947081D01*
X132109745Y-70953371D01*
X132164318Y-70998783D01*
X132185676Y-71066491D01*
X132167037Y-71134998D01*
X132147859Y-71159029D01*
X132104168Y-71201815D01*
X132069493Y-71235771D01*
X131971235Y-71388238D01*
X131968826Y-71394858D01*
X131968824Y-71394861D01*
X131932062Y-71495865D01*
X131909197Y-71558685D01*
X131886463Y-71738640D01*
X131904163Y-71919160D01*
X131961418Y-72091273D01*
X131965065Y-72097295D01*
X131965066Y-72097297D01*
X132047376Y-72233207D01*
X132055380Y-72246424D01*
X132060269Y-72251487D01*
X132060270Y-72251488D01*
X132067119Y-72258580D01*
X132181382Y-72376902D01*
X132333159Y-72476222D01*
X132339763Y-72478678D01*
X132339765Y-72478679D01*
X132496558Y-72536990D01*
X132496560Y-72536990D01*
X132503168Y-72539448D01*
X132586995Y-72550633D01*
X132675980Y-72562507D01*
X132675984Y-72562507D01*
X132682961Y-72563438D01*
X132689972Y-72562800D01*
X132689976Y-72562800D01*
X132832459Y-72549832D01*
X132863600Y-72546998D01*
X132870302Y-72544820D01*
X132870304Y-72544820D01*
X133029409Y-72493124D01*
X133029412Y-72493123D01*
X133036108Y-72490947D01*
X133186540Y-72401271D01*
X133251058Y-72383500D01*
X135721233Y-72383500D01*
X135732416Y-72384027D01*
X135739909Y-72385702D01*
X135747835Y-72385453D01*
X135747836Y-72385453D01*
X135807986Y-72383562D01*
X135811945Y-72383500D01*
X135839856Y-72383500D01*
X135843791Y-72383003D01*
X135843856Y-72382995D01*
X135855693Y-72382062D01*
X135887951Y-72381048D01*
X135891970Y-72380922D01*
X135899889Y-72380673D01*
X135919343Y-72375021D01*
X135938700Y-72371013D01*
X135950930Y-72369468D01*
X135950931Y-72369468D01*
X135958797Y-72368474D01*
X135966168Y-72365555D01*
X135966170Y-72365555D01*
X135999912Y-72352196D01*
X136011142Y-72348351D01*
X136045983Y-72338229D01*
X136045984Y-72338229D01*
X136053593Y-72336018D01*
X136060412Y-72331985D01*
X136060417Y-72331983D01*
X136071028Y-72325707D01*
X136088776Y-72317012D01*
X136107617Y-72309552D01*
X136143387Y-72283564D01*
X136153307Y-72277048D01*
X136184535Y-72258580D01*
X136184538Y-72258578D01*
X136191362Y-72254542D01*
X136205683Y-72240221D01*
X136220717Y-72227380D01*
X136230694Y-72220131D01*
X136237107Y-72215472D01*
X136265298Y-72181395D01*
X136273288Y-72172616D01*
X139310178Y-69135727D01*
X139372490Y-69101701D01*
X139387837Y-69099343D01*
X139413600Y-69096998D01*
X139420302Y-69094820D01*
X139420304Y-69094820D01*
X139579409Y-69043124D01*
X139579412Y-69043123D01*
X139586108Y-69040947D01*
X139692977Y-68977240D01*
X139735860Y-68951677D01*
X139735862Y-68951676D01*
X139741912Y-68948069D01*
X139873266Y-68822982D01*
X139973643Y-68671902D01*
X140038055Y-68502338D01*
X140039035Y-68495366D01*
X140050054Y-68416963D01*
X140079343Y-68352289D01*
X140138947Y-68313716D01*
X140174828Y-68308499D01*
X140824160Y-68308499D01*
X140892281Y-68328501D01*
X140938774Y-68382157D01*
X140949559Y-68422203D01*
X140954163Y-68469160D01*
X141011418Y-68641273D01*
X141015065Y-68647295D01*
X141015066Y-68647297D01*
X141062290Y-68725273D01*
X141105380Y-68796424D01*
X141110269Y-68801487D01*
X141110270Y-68801488D01*
X141142962Y-68835341D01*
X141231382Y-68926902D01*
X141383159Y-69026222D01*
X141389763Y-69028678D01*
X141389765Y-69028679D01*
X141546558Y-69086990D01*
X141546560Y-69086990D01*
X141553168Y-69089448D01*
X141616362Y-69097880D01*
X141725980Y-69112507D01*
X141725984Y-69112507D01*
X141732961Y-69113438D01*
X141739972Y-69112800D01*
X141739976Y-69112800D01*
X141882459Y-69099832D01*
X141913600Y-69096998D01*
X141920302Y-69094820D01*
X141920304Y-69094820D01*
X142079409Y-69043124D01*
X142079412Y-69043123D01*
X142086108Y-69040947D01*
X142192977Y-68977240D01*
X142236541Y-68951271D01*
X142301058Y-68933500D01*
X162647906Y-68933500D01*
X162716027Y-68953502D01*
X162737001Y-68970405D01*
X166505762Y-72739167D01*
X166539788Y-72801479D01*
X166534723Y-72872295D01*
X166492176Y-72929130D01*
X166429837Y-72953572D01*
X166419789Y-72954628D01*
X166419788Y-72954628D01*
X166412788Y-72955364D01*
X166241079Y-73013818D01*
X166235075Y-73017512D01*
X166092595Y-73105166D01*
X166092592Y-73105168D01*
X166086588Y-73108862D01*
X166081553Y-73113793D01*
X166081550Y-73113795D01*
X166068165Y-73126903D01*
X165956993Y-73235771D01*
X165858735Y-73388238D01*
X165856326Y-73394858D01*
X165856324Y-73394861D01*
X165816355Y-73504676D01*
X165796697Y-73558685D01*
X165773963Y-73738640D01*
X165791663Y-73919160D01*
X165848918Y-74091273D01*
X165852565Y-74097295D01*
X165852566Y-74097297D01*
X165935776Y-74234694D01*
X165954000Y-74299965D01*
X165954000Y-79197903D01*
X165933998Y-79266024D01*
X165917095Y-79286998D01*
X165449499Y-79754594D01*
X165387187Y-79788620D01*
X165360404Y-79791499D01*
X159239593Y-79791499D01*
X159171472Y-79771497D01*
X159150498Y-79754594D01*
X158061053Y-78665148D01*
X158053513Y-78656862D01*
X158049401Y-78650383D01*
X157999749Y-78603757D01*
X157996908Y-78601003D01*
X157977171Y-78581266D01*
X157973974Y-78578786D01*
X157964952Y-78571081D01*
X157951517Y-78558465D01*
X157932722Y-78540815D01*
X157925776Y-78536996D01*
X157925773Y-78536994D01*
X157914967Y-78531053D01*
X157898448Y-78520202D01*
X157897984Y-78519842D01*
X157882442Y-78507787D01*
X157875173Y-78504642D01*
X157875169Y-78504639D01*
X157841864Y-78490227D01*
X157831214Y-78485010D01*
X157792461Y-78463706D01*
X157772838Y-78458668D01*
X157754135Y-78452264D01*
X157742821Y-78447368D01*
X157742820Y-78447368D01*
X157735546Y-78444220D01*
X157727723Y-78442981D01*
X157727713Y-78442978D01*
X157691877Y-78437302D01*
X157680257Y-78434896D01*
X157645112Y-78425873D01*
X157645111Y-78425873D01*
X157637431Y-78423901D01*
X157617177Y-78423901D01*
X157597466Y-78422350D01*
X157594935Y-78421949D01*
X157577458Y-78419181D01*
X157569566Y-78419927D01*
X157533440Y-78423342D01*
X157521582Y-78423901D01*
X155953902Y-78423901D01*
X155942718Y-78423374D01*
X155935230Y-78421700D01*
X155927307Y-78421949D01*
X155867172Y-78423839D01*
X155863214Y-78423901D01*
X155835283Y-78423901D01*
X155831368Y-78424396D01*
X155831364Y-78424396D01*
X155831306Y-78424404D01*
X155831277Y-78424407D01*
X155819435Y-78425340D01*
X155775249Y-78426728D01*
X155757883Y-78431773D01*
X155755797Y-78432379D01*
X155736445Y-78436387D01*
X155724207Y-78437933D01*
X155724205Y-78437934D01*
X155716342Y-78438927D01*
X155675225Y-78455207D01*
X155664024Y-78459042D01*
X155621545Y-78471383D01*
X155614726Y-78475416D01*
X155614721Y-78475418D01*
X155604110Y-78481694D01*
X155586360Y-78490391D01*
X155567522Y-78497849D01*
X155561106Y-78502510D01*
X155561105Y-78502511D01*
X155531764Y-78523829D01*
X155521840Y-78530348D01*
X155490599Y-78548823D01*
X155490594Y-78548827D01*
X155483776Y-78552859D01*
X155469452Y-78567183D01*
X155454420Y-78580022D01*
X155438032Y-78591929D01*
X155432978Y-78598038D01*
X155432320Y-78598656D01*
X155368970Y-78630707D01*
X155298348Y-78623420D01*
X155239212Y-78573574D01*
X155220529Y-78543674D01*
X155220527Y-78543671D01*
X155216795Y-78537699D01*
X155211833Y-78532702D01*
X155093947Y-78413990D01*
X155093943Y-78413987D01*
X155088984Y-78408993D01*
X154935835Y-78311802D01*
X154899790Y-78298967D01*
X154771594Y-78253318D01*
X154771589Y-78253317D01*
X154764959Y-78250956D01*
X154757971Y-78250123D01*
X154757968Y-78250122D01*
X154618369Y-78233476D01*
X154553096Y-78205548D01*
X154526435Y-78175133D01*
X154514075Y-78155353D01*
X154421449Y-78062078D01*
X154391227Y-78031644D01*
X154391223Y-78031641D01*
X154386264Y-78026647D01*
X154375146Y-78019591D01*
X154326987Y-77989029D01*
X154233115Y-77929456D01*
X154189575Y-77913952D01*
X154068874Y-77870972D01*
X154068869Y-77870971D01*
X154062239Y-77868610D01*
X154055251Y-77867777D01*
X154055248Y-77867776D01*
X153932147Y-77853097D01*
X153882129Y-77847133D01*
X153875126Y-77847869D01*
X153875125Y-77847869D01*
X153708737Y-77865357D01*
X153708735Y-77865358D01*
X153701737Y-77866093D01*
X153530028Y-77924547D01*
X153474653Y-77958614D01*
X153381544Y-78015895D01*
X153381541Y-78015897D01*
X153375537Y-78019591D01*
X153370502Y-78024522D01*
X153370499Y-78024524D01*
X153250974Y-78141572D01*
X153245942Y-78146500D01*
X153167899Y-78267600D01*
X153114187Y-78314022D01*
X153075159Y-78324652D01*
X153055203Y-78326749D01*
X153055200Y-78326750D01*
X153048194Y-78327486D01*
X152876485Y-78385940D01*
X152870481Y-78389634D01*
X152728001Y-78477288D01*
X152727998Y-78477290D01*
X152721994Y-78480984D01*
X152716959Y-78485915D01*
X152716956Y-78485917D01*
X152607166Y-78593432D01*
X152592399Y-78607893D01*
X152558319Y-78660775D01*
X152497996Y-78754378D01*
X152444282Y-78800803D01*
X152373995Y-78810818D01*
X152324572Y-78792509D01*
X152181676Y-78701824D01*
X152183391Y-78699121D01*
X152141339Y-78660775D01*
X152123068Y-78592170D01*
X152144789Y-78524577D01*
X152159933Y-78506265D01*
X154993805Y-75672393D01*
X155056117Y-75638367D01*
X155071465Y-75636009D01*
X155097228Y-75633664D01*
X155103930Y-75631486D01*
X155103932Y-75631486D01*
X155263037Y-75579790D01*
X155263040Y-75579789D01*
X155269736Y-75577613D01*
X155377738Y-75513231D01*
X155419488Y-75488343D01*
X155419490Y-75488342D01*
X155425540Y-75484735D01*
X155556894Y-75359648D01*
X155657271Y-75208568D01*
X155721683Y-75039004D01*
X155746927Y-74859383D01*
X155747244Y-74836666D01*
X155727025Y-74656411D01*
X155724708Y-74649757D01*
X155723148Y-74642892D01*
X155725432Y-74642373D01*
X155722471Y-74582494D01*
X155758080Y-74520733D01*
X155780632Y-74499257D01*
X155780634Y-74499255D01*
X155785735Y-74494397D01*
X155886112Y-74343317D01*
X155950524Y-74173753D01*
X155953864Y-74149989D01*
X155975217Y-73998054D01*
X155975217Y-73998051D01*
X155975768Y-73994132D01*
X155976085Y-73971415D01*
X155955866Y-73791160D01*
X155915751Y-73675965D01*
X155912237Y-73605058D01*
X155929794Y-73564803D01*
X155969742Y-73504676D01*
X155973643Y-73498805D01*
X156038055Y-73329241D01*
X156050359Y-73241693D01*
X156062748Y-73153542D01*
X156062748Y-73153539D01*
X156063299Y-73149620D01*
X156063616Y-73126903D01*
X156043397Y-72946648D01*
X156037297Y-72929130D01*
X155986064Y-72782009D01*
X155986062Y-72782006D01*
X155983745Y-72775351D01*
X155887626Y-72621527D01*
X155829941Y-72563438D01*
X155764778Y-72497818D01*
X155764774Y-72497815D01*
X155759815Y-72492821D01*
X155751179Y-72487340D01*
X155700538Y-72455203D01*
X155606666Y-72395630D01*
X155569088Y-72382249D01*
X155442425Y-72337146D01*
X155442420Y-72337145D01*
X155435790Y-72334784D01*
X155428802Y-72333951D01*
X155428799Y-72333950D01*
X155286700Y-72317006D01*
X155255680Y-72313307D01*
X155248677Y-72314043D01*
X155248676Y-72314043D01*
X155082288Y-72331531D01*
X155082286Y-72331532D01*
X155075288Y-72332267D01*
X154903579Y-72390721D01*
X154841109Y-72429153D01*
X154755095Y-72482069D01*
X154755092Y-72482071D01*
X154749088Y-72485765D01*
X154744053Y-72490696D01*
X154744050Y-72490698D01*
X154669771Y-72563438D01*
X154619493Y-72612674D01*
X154521235Y-72765141D01*
X154518826Y-72771761D01*
X154518824Y-72771764D01*
X154492035Y-72845366D01*
X154462729Y-72891366D01*
X152672265Y-74681830D01*
X152609953Y-74715856D01*
X152539138Y-74710791D01*
X152482302Y-74668244D01*
X152457955Y-74606780D01*
X152454585Y-74576730D01*
X152443955Y-74481964D01*
X152408712Y-74380760D01*
X152386622Y-74317325D01*
X152386620Y-74317322D01*
X152384303Y-74310667D01*
X152367970Y-74284528D01*
X152291917Y-74162817D01*
X152288184Y-74156843D01*
X152271400Y-74139941D01*
X152237593Y-74077510D01*
X152242906Y-74006712D01*
X152285652Y-73950026D01*
X152352259Y-73925448D01*
X152377467Y-73926265D01*
X152426225Y-73932771D01*
X152475980Y-73939410D01*
X152475984Y-73939410D01*
X152482961Y-73940341D01*
X152489972Y-73939703D01*
X152489976Y-73939703D01*
X152637625Y-73926265D01*
X152663600Y-73923901D01*
X152670302Y-73921723D01*
X152670304Y-73921723D01*
X152829409Y-73870027D01*
X152829412Y-73870026D01*
X152836108Y-73867850D01*
X152953016Y-73798159D01*
X152985860Y-73778580D01*
X152985862Y-73778579D01*
X152991912Y-73774972D01*
X153123266Y-73649885D01*
X153223643Y-73498805D01*
X153288055Y-73329241D01*
X153300359Y-73241693D01*
X153312748Y-73153542D01*
X153312748Y-73153539D01*
X153313299Y-73149620D01*
X153313616Y-73126903D01*
X153293397Y-72946648D01*
X153287297Y-72929130D01*
X153236064Y-72782009D01*
X153236062Y-72782006D01*
X153233745Y-72775351D01*
X153137626Y-72621527D01*
X153079941Y-72563438D01*
X153014778Y-72497818D01*
X153014774Y-72497815D01*
X153009815Y-72492821D01*
X153001179Y-72487340D01*
X152950538Y-72455203D01*
X152856666Y-72395630D01*
X152819088Y-72382249D01*
X152692425Y-72337146D01*
X152692420Y-72337145D01*
X152685790Y-72334784D01*
X152678802Y-72333951D01*
X152678799Y-72333950D01*
X152536700Y-72317006D01*
X152505680Y-72313307D01*
X152498677Y-72314043D01*
X152498676Y-72314043D01*
X152332288Y-72331531D01*
X152332286Y-72331532D01*
X152325288Y-72332267D01*
X152285764Y-72345722D01*
X152284107Y-72346286D01*
X152243502Y-72353008D01*
X152214797Y-72353008D01*
X152146676Y-72333006D01*
X152125701Y-72316103D01*
X151906896Y-72097297D01*
X151667341Y-71857742D01*
X151659807Y-71849463D01*
X151655694Y-71842982D01*
X151606042Y-71796356D01*
X151603201Y-71793602D01*
X151583464Y-71773865D01*
X151580267Y-71771385D01*
X151571245Y-71763680D01*
X151544794Y-71738841D01*
X151539015Y-71733414D01*
X151532069Y-71729595D01*
X151532066Y-71729593D01*
X151521260Y-71723652D01*
X151504741Y-71712801D01*
X151504277Y-71712441D01*
X151488735Y-71700386D01*
X151481466Y-71697240D01*
X151474993Y-71693412D01*
X151426541Y-71641518D01*
X151413837Y-71571668D01*
X151440914Y-71506037D01*
X151450039Y-71495865D01*
X152110177Y-70835727D01*
X152172489Y-70801701D01*
X152187837Y-70799343D01*
X152213600Y-70796998D01*
X152220302Y-70794820D01*
X152220304Y-70794820D01*
X152379409Y-70743124D01*
X152379412Y-70743123D01*
X152386108Y-70740947D01*
X152521490Y-70660243D01*
X152535860Y-70651677D01*
X152535862Y-70651676D01*
X152541912Y-70648069D01*
X152673266Y-70522982D01*
X152773643Y-70371902D01*
X152838055Y-70202338D01*
X152839035Y-70195366D01*
X152862748Y-70026639D01*
X152862748Y-70026636D01*
X152863299Y-70022717D01*
X152863616Y-70000000D01*
X152843397Y-69819745D01*
X152839676Y-69809060D01*
X152786064Y-69655106D01*
X152786062Y-69655103D01*
X152783745Y-69648448D01*
X152687626Y-69494624D01*
X152673941Y-69480843D01*
X152564778Y-69370915D01*
X152564774Y-69370912D01*
X152559815Y-69365918D01*
X152552955Y-69361564D01*
X152485926Y-69319027D01*
X152406666Y-69268727D01*
X152377463Y-69258328D01*
X152242425Y-69210243D01*
X152242420Y-69210242D01*
X152235790Y-69207881D01*
X152228802Y-69207048D01*
X152228799Y-69207047D01*
X152105698Y-69192368D01*
X152055680Y-69186404D01*
X152048677Y-69187140D01*
X152048676Y-69187140D01*
X151882288Y-69204628D01*
X151882286Y-69204629D01*
X151875288Y-69205364D01*
X151703579Y-69263818D01*
X151648315Y-69297817D01*
X151555095Y-69355166D01*
X151555092Y-69355168D01*
X151549088Y-69358862D01*
X151544053Y-69363793D01*
X151544050Y-69363795D01*
X151424525Y-69480843D01*
X151419493Y-69485771D01*
X151321235Y-69638238D01*
X151318826Y-69644858D01*
X151318824Y-69644861D01*
X151263809Y-69796014D01*
X151259197Y-69808685D01*
X151252138Y-69864567D01*
X151223757Y-69929641D01*
X151216227Y-69937869D01*
X150374499Y-70779596D01*
X150312187Y-70813621D01*
X150285404Y-70816500D01*
X149797338Y-70816500D01*
X149729824Y-70796885D01*
X149662854Y-70754385D01*
X149606666Y-70718727D01*
X149552943Y-70699597D01*
X149442425Y-70660243D01*
X149442420Y-70660242D01*
X149435790Y-70657881D01*
X149428802Y-70657048D01*
X149428799Y-70657047D01*
X149305698Y-70642368D01*
X149255680Y-70636404D01*
X149248677Y-70637140D01*
X149248676Y-70637140D01*
X149082288Y-70654628D01*
X149082286Y-70654629D01*
X149075288Y-70655364D01*
X148903579Y-70713818D01*
X148874348Y-70731801D01*
X148755095Y-70805166D01*
X148755092Y-70805168D01*
X148749088Y-70808862D01*
X148744053Y-70813793D01*
X148744050Y-70813795D01*
X148624525Y-70930843D01*
X148619493Y-70935771D01*
X148521235Y-71088238D01*
X148518826Y-71094858D01*
X148518824Y-71094861D01*
X148461606Y-71252066D01*
X148459197Y-71258685D01*
X148436463Y-71438640D01*
X148454163Y-71619160D01*
X148461601Y-71641518D01*
X148499686Y-71756006D01*
X148502209Y-71826958D01*
X148469223Y-71884873D01*
X142649154Y-77704942D01*
X142586842Y-77738968D01*
X142516027Y-77733903D01*
X142459191Y-77691356D01*
X142453213Y-77682630D01*
X142432589Y-77649624D01*
X142374644Y-77591273D01*
X142309741Y-77525915D01*
X142309737Y-77525912D01*
X142304778Y-77520918D01*
X142151629Y-77423727D01*
X142106364Y-77407609D01*
X141987388Y-77365243D01*
X141987383Y-77365242D01*
X141980753Y-77362881D01*
X141920487Y-77355695D01*
X141895912Y-77352764D01*
X141830639Y-77324836D01*
X141790827Y-77266053D01*
X141788972Y-77202467D01*
X141788055Y-77202338D01*
X141788811Y-77196959D01*
X141800285Y-77115314D01*
X141812748Y-77026639D01*
X141812748Y-77026636D01*
X141813299Y-77022717D01*
X141813616Y-77000000D01*
X141793397Y-76819745D01*
X141790904Y-76812586D01*
X141736064Y-76655106D01*
X141736062Y-76655103D01*
X141733745Y-76648448D01*
X141673519Y-76552066D01*
X141641359Y-76500598D01*
X141637626Y-76494624D01*
X141601139Y-76457881D01*
X141514778Y-76370915D01*
X141514774Y-76370912D01*
X141509815Y-76365918D01*
X141498697Y-76358862D01*
X141426571Y-76313090D01*
X141356666Y-76268727D01*
X141327463Y-76258328D01*
X141192425Y-76210243D01*
X141192420Y-76210242D01*
X141185790Y-76207881D01*
X141178802Y-76207048D01*
X141178799Y-76207047D01*
X141055698Y-76192368D01*
X141005680Y-76186404D01*
X140998677Y-76187140D01*
X140998676Y-76187140D01*
X140832288Y-76204628D01*
X140832286Y-76204629D01*
X140825288Y-76205364D01*
X140653579Y-76263818D01*
X140647575Y-76267512D01*
X140505095Y-76355166D01*
X140505092Y-76355168D01*
X140499088Y-76358862D01*
X140494053Y-76363793D01*
X140494050Y-76363795D01*
X140397973Y-76457881D01*
X140369493Y-76485771D01*
X140345819Y-76522506D01*
X140322458Y-76558755D01*
X140268744Y-76605180D01*
X140216547Y-76616500D01*
X138047338Y-76616500D01*
X137979824Y-76596885D01*
X137909200Y-76552066D01*
X137856666Y-76518727D01*
X137788977Y-76494624D01*
X137692425Y-76460243D01*
X137692420Y-76460242D01*
X137685790Y-76457881D01*
X137678802Y-76457048D01*
X137678799Y-76457047D01*
X137555698Y-76442368D01*
X137505680Y-76436404D01*
X137498677Y-76437140D01*
X137498676Y-76437140D01*
X137332288Y-76454628D01*
X137332286Y-76454629D01*
X137325288Y-76455364D01*
X137153579Y-76513818D01*
X137147575Y-76517512D01*
X137005095Y-76605166D01*
X137005092Y-76605168D01*
X136999088Y-76608862D01*
X136994053Y-76613793D01*
X136994050Y-76613795D01*
X136958664Y-76648448D01*
X136869493Y-76735771D01*
X136771235Y-76888238D01*
X136768826Y-76894858D01*
X136768824Y-76894861D01*
X136722288Y-77022717D01*
X136709197Y-77058685D01*
X136686463Y-77238640D01*
X136704163Y-77419160D01*
X136761418Y-77591273D01*
X136794055Y-77645162D01*
X136812233Y-77713790D01*
X136804679Y-77753527D01*
X136763096Y-77867776D01*
X136751138Y-77900629D01*
X136728404Y-78080584D01*
X136746104Y-78261104D01*
X136803359Y-78433217D01*
X136807006Y-78439239D01*
X136807007Y-78439241D01*
X136889314Y-78575146D01*
X136897321Y-78588368D01*
X136902210Y-78593431D01*
X136902211Y-78593432D01*
X136951782Y-78644764D01*
X137023323Y-78718846D01*
X137055670Y-78740013D01*
X137148567Y-78800803D01*
X137175100Y-78818166D01*
X137181704Y-78820622D01*
X137181706Y-78820623D01*
X137338499Y-78878934D01*
X137338501Y-78878934D01*
X137345109Y-78881392D01*
X137428936Y-78892577D01*
X137517921Y-78904451D01*
X137517925Y-78904451D01*
X137524902Y-78905382D01*
X137531913Y-78904744D01*
X137531917Y-78904744D01*
X137674400Y-78891776D01*
X137705541Y-78888942D01*
X137712243Y-78886764D01*
X137712245Y-78886764D01*
X137871350Y-78835068D01*
X137871353Y-78835067D01*
X137878049Y-78832891D01*
X138028481Y-78743215D01*
X138092999Y-78725444D01*
X141168340Y-78725444D01*
X141236461Y-78745446D01*
X141258977Y-78763917D01*
X141276345Y-78781902D01*
X141325439Y-78814028D01*
X141371487Y-78868066D01*
X141381010Y-78938421D01*
X141350985Y-79002756D01*
X141345540Y-79008555D01*
X136687747Y-83666348D01*
X136679461Y-83673888D01*
X136672982Y-83678000D01*
X136667557Y-83683777D01*
X136626357Y-83727651D01*
X136623602Y-83730493D01*
X136603865Y-83750230D01*
X136601385Y-83753427D01*
X136593682Y-83762447D01*
X136563414Y-83794679D01*
X136559595Y-83801625D01*
X136559593Y-83801628D01*
X136553652Y-83812434D01*
X136542801Y-83828953D01*
X136530386Y-83844959D01*
X136527241Y-83852228D01*
X136527238Y-83852232D01*
X136512826Y-83885537D01*
X136507609Y-83896187D01*
X136486305Y-83934940D01*
X136484334Y-83942615D01*
X136484334Y-83942616D01*
X136481267Y-83954562D01*
X136474863Y-83973266D01*
X136466819Y-83991855D01*
X136465580Y-83999678D01*
X136465577Y-83999688D01*
X136459901Y-84035524D01*
X136457495Y-84047144D01*
X136446500Y-84089970D01*
X136446500Y-84110224D01*
X136444949Y-84129934D01*
X136441780Y-84149943D01*
X136442526Y-84157835D01*
X136445941Y-84193961D01*
X136446500Y-84205819D01*
X136446500Y-84471692D01*
X136426498Y-84539813D01*
X136378683Y-84583453D01*
X136353607Y-84596507D01*
X136349474Y-84599610D01*
X136349471Y-84599612D01*
X136179100Y-84727530D01*
X136174965Y-84730635D01*
X136171393Y-84734373D01*
X136063729Y-84847037D01*
X136020629Y-84892138D01*
X135913201Y-85049621D01*
X135858293Y-85094621D01*
X135787768Y-85102792D01*
X135724021Y-85071538D01*
X135703324Y-85047054D01*
X135622822Y-84922617D01*
X135622820Y-84922614D01*
X135620014Y-84918277D01*
X135469670Y-84753051D01*
X135465619Y-84749852D01*
X135465615Y-84749848D01*
X135298414Y-84617800D01*
X135298410Y-84617798D01*
X135294359Y-84614598D01*
X135289831Y-84612098D01*
X135237945Y-84583456D01*
X135098789Y-84506638D01*
X135093920Y-84504914D01*
X135093916Y-84504912D01*
X134893087Y-84433795D01*
X134893083Y-84433794D01*
X134888212Y-84432069D01*
X134883119Y-84431162D01*
X134883116Y-84431161D01*
X134673373Y-84393800D01*
X134673367Y-84393799D01*
X134668284Y-84392894D01*
X134594452Y-84391992D01*
X134450081Y-84390228D01*
X134450079Y-84390228D01*
X134444911Y-84390165D01*
X134224091Y-84423955D01*
X134011756Y-84493357D01*
X133983543Y-84508044D01*
X133837975Y-84583822D01*
X133813607Y-84596507D01*
X133809474Y-84599610D01*
X133809471Y-84599612D01*
X133639100Y-84727530D01*
X133634965Y-84730635D01*
X133631393Y-84734373D01*
X133523729Y-84847037D01*
X133480629Y-84892138D01*
X133373201Y-85049621D01*
X133318293Y-85094621D01*
X133247768Y-85102792D01*
X133184021Y-85071538D01*
X133163324Y-85047054D01*
X133082822Y-84922617D01*
X133082820Y-84922614D01*
X133080014Y-84918277D01*
X132929670Y-84753051D01*
X132925619Y-84749852D01*
X132925615Y-84749848D01*
X132758414Y-84617800D01*
X132758410Y-84617798D01*
X132754359Y-84614598D01*
X132749831Y-84612098D01*
X132697945Y-84583456D01*
X132558789Y-84506638D01*
X132553920Y-84504914D01*
X132553916Y-84504912D01*
X132353087Y-84433795D01*
X132353083Y-84433794D01*
X132348212Y-84432069D01*
X132343119Y-84431162D01*
X132343116Y-84431161D01*
X132133373Y-84393800D01*
X132133367Y-84393799D01*
X132128284Y-84392894D01*
X132054452Y-84391992D01*
X131910081Y-84390228D01*
X131910079Y-84390228D01*
X131904911Y-84390165D01*
X131684091Y-84423955D01*
X131471756Y-84493357D01*
X131443543Y-84508044D01*
X131297975Y-84583822D01*
X131273607Y-84596507D01*
X131269474Y-84599610D01*
X131269471Y-84599612D01*
X131099100Y-84727530D01*
X131094965Y-84730635D01*
X131091393Y-84734373D01*
X130983729Y-84847037D01*
X130940629Y-84892138D01*
X130833201Y-85049621D01*
X130778293Y-85094621D01*
X130707768Y-85102792D01*
X130644021Y-85071538D01*
X130623324Y-85047054D01*
X130542822Y-84922617D01*
X130542820Y-84922614D01*
X130540014Y-84918277D01*
X130389670Y-84753051D01*
X130385619Y-84749852D01*
X130385615Y-84749848D01*
X130218414Y-84617800D01*
X130218410Y-84617798D01*
X130214359Y-84614598D01*
X130209831Y-84612098D01*
X130157945Y-84583456D01*
X130018789Y-84506638D01*
X130013920Y-84504914D01*
X130013916Y-84504912D01*
X129813087Y-84433795D01*
X129813083Y-84433794D01*
X129808212Y-84432069D01*
X129803119Y-84431162D01*
X129803116Y-84431161D01*
X129593373Y-84393800D01*
X129593367Y-84393799D01*
X129588284Y-84392894D01*
X129514452Y-84391992D01*
X129370081Y-84390228D01*
X129370079Y-84390228D01*
X129364911Y-84390165D01*
X129144091Y-84423955D01*
X128931756Y-84493357D01*
X128903543Y-84508044D01*
X128757975Y-84583822D01*
X128733607Y-84596507D01*
X128729474Y-84599610D01*
X128729471Y-84599612D01*
X128559100Y-84727530D01*
X128554965Y-84730635D01*
X128498537Y-84789684D01*
X128474283Y-84815064D01*
X128412759Y-84850494D01*
X128341846Y-84847037D01*
X128284060Y-84805791D01*
X128265207Y-84772243D01*
X128223767Y-84661703D01*
X128220615Y-84653295D01*
X128133261Y-84536739D01*
X128016705Y-84449385D01*
X127880316Y-84398255D01*
X127818134Y-84391500D01*
X126021866Y-84391500D01*
X125959684Y-84398255D01*
X125823295Y-84449385D01*
X125706739Y-84536739D01*
X125619385Y-84653295D01*
X125568255Y-84789684D01*
X125561500Y-84851866D01*
X125561500Y-86648134D01*
X125568255Y-86710316D01*
X125619385Y-86846705D01*
X125706739Y-86963261D01*
X125713919Y-86968642D01*
X125713920Y-86968643D01*
X125775339Y-87014674D01*
X125817854Y-87071533D01*
X125822880Y-87142352D01*
X125788820Y-87204645D01*
X125726489Y-87238635D01*
X125699774Y-87241500D01*
X123384500Y-87241500D01*
X123316379Y-87221498D01*
X123269886Y-87167842D01*
X123258500Y-87115500D01*
X123258500Y-79998097D01*
X123278502Y-79929976D01*
X123332158Y-79883483D01*
X123402432Y-79873379D01*
X123422598Y-79877995D01*
X123568836Y-79924384D01*
X123589084Y-79930807D01*
X123595201Y-79931493D01*
X123595205Y-79931494D01*
X123669348Y-79939810D01*
X123746817Y-79948500D01*
X124706004Y-79948500D01*
X124856713Y-79933723D01*
X125050742Y-79875142D01*
X125229698Y-79779990D01*
X125240112Y-79771497D01*
X125316460Y-79709228D01*
X125386763Y-79651890D01*
X125429517Y-79600209D01*
X125512027Y-79500472D01*
X125512029Y-79500469D01*
X125515956Y-79495722D01*
X125612356Y-79317435D01*
X125642323Y-79220628D01*
X125670468Y-79129707D01*
X125670469Y-79129704D01*
X125672290Y-79123820D01*
X125685015Y-79002756D01*
X125692832Y-78928378D01*
X125692832Y-78928377D01*
X125693476Y-78922250D01*
X125679066Y-78763917D01*
X125675665Y-78726543D01*
X125675664Y-78726540D01*
X125675106Y-78720404D01*
X125670780Y-78705703D01*
X125619620Y-78531880D01*
X125617881Y-78525971D01*
X125610914Y-78512643D01*
X125556727Y-78408993D01*
X125523981Y-78346355D01*
X125396981Y-78188399D01*
X125241719Y-78058119D01*
X125236327Y-78055155D01*
X125236323Y-78055152D01*
X125069506Y-77963444D01*
X125064109Y-77960477D01*
X124958862Y-77927091D01*
X124876789Y-77901056D01*
X124870916Y-77899193D01*
X124864799Y-77898507D01*
X124864795Y-77898506D01*
X124790652Y-77890190D01*
X124713183Y-77881500D01*
X123753996Y-77881500D01*
X123603287Y-77896277D01*
X123420917Y-77951338D01*
X123349924Y-77951879D01*
X123289907Y-77913952D01*
X123259923Y-77849597D01*
X123258500Y-77830716D01*
X123258500Y-76738640D01*
X127436463Y-76738640D01*
X127454163Y-76919160D01*
X127511418Y-77091273D01*
X127515065Y-77097295D01*
X127515066Y-77097297D01*
X127578681Y-77202338D01*
X127605380Y-77246424D01*
X127610269Y-77251487D01*
X127610270Y-77251488D01*
X127646928Y-77289448D01*
X127731382Y-77376902D01*
X127883159Y-77476222D01*
X127889763Y-77478678D01*
X127889765Y-77478679D01*
X128046558Y-77536990D01*
X128046560Y-77536990D01*
X128053168Y-77539448D01*
X128136995Y-77550633D01*
X128225980Y-77562507D01*
X128225984Y-77562507D01*
X128232961Y-77563438D01*
X128239972Y-77562800D01*
X128239976Y-77562800D01*
X128382459Y-77549832D01*
X128413600Y-77546998D01*
X128420302Y-77544820D01*
X128420304Y-77544820D01*
X128579409Y-77493124D01*
X128579412Y-77493123D01*
X128586108Y-77490947D01*
X128695319Y-77425844D01*
X128735860Y-77401677D01*
X128735862Y-77401676D01*
X128741912Y-77398069D01*
X128873266Y-77272982D01*
X128973643Y-77121902D01*
X129038055Y-76952338D01*
X129041779Y-76925844D01*
X129047639Y-76884145D01*
X129076927Y-76819471D01*
X129083318Y-76812586D01*
X130325997Y-75569908D01*
X130388309Y-75535882D01*
X130445572Y-75536745D01*
X130446567Y-75536993D01*
X130453168Y-75539448D01*
X130460149Y-75540379D01*
X130460151Y-75540380D01*
X130625980Y-75562507D01*
X130625984Y-75562507D01*
X130632961Y-75563438D01*
X130639972Y-75562800D01*
X130639976Y-75562800D01*
X130782459Y-75549832D01*
X130813600Y-75546998D01*
X130820302Y-75544820D01*
X130820304Y-75544820D01*
X130979409Y-75493124D01*
X130979412Y-75493123D01*
X130986108Y-75490947D01*
X131141912Y-75398069D01*
X131273266Y-75272982D01*
X131373643Y-75121902D01*
X131438055Y-74952338D01*
X131451119Y-74859383D01*
X131462748Y-74776639D01*
X131462748Y-74776636D01*
X131463299Y-74772717D01*
X131463616Y-74750000D01*
X131443397Y-74569745D01*
X131441080Y-74563091D01*
X131386064Y-74405106D01*
X131386062Y-74405103D01*
X131383745Y-74398448D01*
X131287626Y-74244624D01*
X131277765Y-74234694D01*
X131164778Y-74120915D01*
X131164774Y-74120912D01*
X131159815Y-74115918D01*
X131148697Y-74108862D01*
X131099293Y-74077510D01*
X131006666Y-74018727D01*
X130972924Y-74006712D01*
X130842425Y-73960243D01*
X130842420Y-73960242D01*
X130835790Y-73957881D01*
X130828802Y-73957048D01*
X130828799Y-73957047D01*
X130688696Y-73940341D01*
X130655680Y-73936404D01*
X130648677Y-73937140D01*
X130648676Y-73937140D01*
X130482288Y-73954628D01*
X130482286Y-73954629D01*
X130475288Y-73955364D01*
X130303579Y-74013818D01*
X130297575Y-74017512D01*
X130167887Y-74097297D01*
X130154047Y-74105811D01*
X130154045Y-74105812D01*
X130149088Y-74108862D01*
X130148605Y-74108076D01*
X130106033Y-74125793D01*
X130106744Y-74128561D01*
X130099065Y-74130533D01*
X130091203Y-74131526D01*
X130083834Y-74134443D01*
X130083832Y-74134444D01*
X130050097Y-74147800D01*
X130038869Y-74151645D01*
X129996407Y-74163982D01*
X129989584Y-74168017D01*
X129989582Y-74168018D01*
X129978972Y-74174293D01*
X129961224Y-74182988D01*
X129942383Y-74190448D01*
X129935967Y-74195110D01*
X129935966Y-74195110D01*
X129906613Y-74216436D01*
X129896693Y-74222952D01*
X129865465Y-74241420D01*
X129865462Y-74241422D01*
X129858638Y-74245458D01*
X129844317Y-74259779D01*
X129829284Y-74272619D01*
X129812893Y-74284528D01*
X129796215Y-74304688D01*
X129784702Y-74318605D01*
X129776712Y-74327384D01*
X128188908Y-75915187D01*
X128126596Y-75949213D01*
X128112986Y-75951402D01*
X128104210Y-75952324D01*
X128082288Y-75954628D01*
X128082286Y-75954628D01*
X128075288Y-75955364D01*
X127903579Y-76013818D01*
X127897575Y-76017512D01*
X127755095Y-76105166D01*
X127755092Y-76105168D01*
X127749088Y-76108862D01*
X127744053Y-76113793D01*
X127744050Y-76113795D01*
X127647973Y-76207881D01*
X127619493Y-76235771D01*
X127521235Y-76388238D01*
X127518826Y-76394858D01*
X127518824Y-76394861D01*
X127472365Y-76522506D01*
X127459197Y-76558685D01*
X127436463Y-76738640D01*
X123258500Y-76738640D01*
X123258500Y-72848097D01*
X123278502Y-72779976D01*
X123332158Y-72733483D01*
X123402432Y-72723379D01*
X123422599Y-72727995D01*
X123589084Y-72780807D01*
X123595201Y-72781493D01*
X123595205Y-72781494D01*
X123669348Y-72789810D01*
X123746817Y-72798500D01*
X124706004Y-72798500D01*
X124856713Y-72783723D01*
X125050742Y-72725142D01*
X125229698Y-72629990D01*
X125243669Y-72618596D01*
X125330672Y-72547637D01*
X125386763Y-72501890D01*
X125396022Y-72490698D01*
X125512027Y-72350472D01*
X125512029Y-72350469D01*
X125515956Y-72345722D01*
X125612356Y-72167435D01*
X125672290Y-71973820D01*
X125693476Y-71772250D01*
X125681578Y-71641518D01*
X125675665Y-71576543D01*
X125675664Y-71576540D01*
X125675106Y-71570404D01*
X125617881Y-71375971D01*
X125523981Y-71196355D01*
X125396981Y-71038399D01*
X125241719Y-70908119D01*
X125236327Y-70905155D01*
X125236323Y-70905152D01*
X125069506Y-70813444D01*
X125064109Y-70810477D01*
X124870916Y-70749193D01*
X124864799Y-70748507D01*
X124864795Y-70748506D01*
X124790652Y-70740190D01*
X124713183Y-70731500D01*
X123753996Y-70731500D01*
X123603287Y-70746277D01*
X123420917Y-70801338D01*
X123349924Y-70801879D01*
X123289907Y-70763952D01*
X123259923Y-70699597D01*
X123258500Y-70680716D01*
X123258500Y-66384500D01*
X123278502Y-66316379D01*
X123332158Y-66269886D01*
X123384500Y-66258500D01*
X129831405Y-66258500D01*
X129899526Y-66278502D01*
G37*
%TD.AperFunction*%
%TA.AperFunction,NonConductor*%
G36*
X151132026Y-86425144D02*
G01*
X151159875Y-86456994D01*
X151219987Y-86555088D01*
X151366250Y-86723938D01*
X151538126Y-86866632D01*
X151731000Y-86979338D01*
X151735825Y-86981180D01*
X151735826Y-86981181D01*
X151779321Y-86997790D01*
X151835824Y-87040778D01*
X151860117Y-87107489D01*
X151844487Y-87176743D01*
X151793896Y-87226554D01*
X151734372Y-87241500D01*
X150367160Y-87241500D01*
X150299039Y-87221498D01*
X150252546Y-87167842D01*
X150242442Y-87097568D01*
X150271936Y-87032988D01*
X150311728Y-87002349D01*
X150473346Y-86923173D01*
X150477994Y-86920896D01*
X150659860Y-86791173D01*
X150818096Y-86633489D01*
X150948453Y-86452077D01*
X150949776Y-86453028D01*
X150996645Y-86409857D01*
X151066580Y-86397625D01*
X151132026Y-86425144D01*
G37*
%TD.AperFunction*%
%TA.AperFunction,NonConductor*%
G36*
X161292026Y-86425144D02*
G01*
X161319875Y-86456994D01*
X161379987Y-86555088D01*
X161526250Y-86723938D01*
X161698126Y-86866632D01*
X161891000Y-86979338D01*
X161895825Y-86981180D01*
X161895826Y-86981181D01*
X161939321Y-86997790D01*
X161995824Y-87040778D01*
X162020117Y-87107489D01*
X162004487Y-87176743D01*
X161953896Y-87226554D01*
X161894372Y-87241500D01*
X160527160Y-87241500D01*
X160459039Y-87221498D01*
X160412546Y-87167842D01*
X160402442Y-87097568D01*
X160431936Y-87032988D01*
X160471728Y-87002349D01*
X160633346Y-86923173D01*
X160637994Y-86920896D01*
X160819860Y-86791173D01*
X160978096Y-86633489D01*
X161108453Y-86452077D01*
X161109776Y-86453028D01*
X161156645Y-86409857D01*
X161226580Y-86397625D01*
X161292026Y-86425144D01*
G37*
%TD.AperFunction*%
%TA.AperFunction,NonConductor*%
G36*
X138432026Y-86425144D02*
G01*
X138459875Y-86456994D01*
X138519987Y-86555088D01*
X138666250Y-86723938D01*
X138838126Y-86866632D01*
X139031000Y-86979338D01*
X139035825Y-86981180D01*
X139035826Y-86981181D01*
X139079321Y-86997790D01*
X139135824Y-87040778D01*
X139160117Y-87107489D01*
X139144487Y-87176743D01*
X139093896Y-87226554D01*
X139034372Y-87241500D01*
X137667160Y-87241500D01*
X137599039Y-87221498D01*
X137552546Y-87167842D01*
X137542442Y-87097568D01*
X137571936Y-87032988D01*
X137611728Y-87002349D01*
X137773346Y-86923173D01*
X137777994Y-86920896D01*
X137959860Y-86791173D01*
X138118096Y-86633489D01*
X138248453Y-86452077D01*
X138249776Y-86453028D01*
X138296645Y-86409857D01*
X138366580Y-86397625D01*
X138432026Y-86425144D01*
G37*
%TD.AperFunction*%
%TA.AperFunction,NonConductor*%
G36*
X143512026Y-86425144D02*
G01*
X143539875Y-86456994D01*
X143599987Y-86555088D01*
X143746250Y-86723938D01*
X143918126Y-86866632D01*
X144111000Y-86979338D01*
X144115825Y-86981180D01*
X144115826Y-86981181D01*
X144159321Y-86997790D01*
X144215824Y-87040778D01*
X144240117Y-87107489D01*
X144224487Y-87176743D01*
X144173896Y-87226554D01*
X144114372Y-87241500D01*
X142747160Y-87241500D01*
X142679039Y-87221498D01*
X142632546Y-87167842D01*
X142622442Y-87097568D01*
X142651936Y-87032988D01*
X142691728Y-87002349D01*
X142853346Y-86923173D01*
X142857994Y-86920896D01*
X143039860Y-86791173D01*
X143198096Y-86633489D01*
X143328453Y-86452077D01*
X143329776Y-86453028D01*
X143376645Y-86409857D01*
X143446580Y-86397625D01*
X143512026Y-86425144D01*
G37*
%TD.AperFunction*%
%TA.AperFunction,NonConductor*%
G36*
X163832026Y-86425144D02*
G01*
X163859875Y-86456994D01*
X163919987Y-86555088D01*
X164066250Y-86723938D01*
X164238126Y-86866632D01*
X164431000Y-86979338D01*
X164435825Y-86981180D01*
X164435826Y-86981181D01*
X164479321Y-86997790D01*
X164535824Y-87040778D01*
X164560117Y-87107489D01*
X164544487Y-87176743D01*
X164493896Y-87226554D01*
X164434372Y-87241500D01*
X163067160Y-87241500D01*
X162999039Y-87221498D01*
X162952546Y-87167842D01*
X162942442Y-87097568D01*
X162971936Y-87032988D01*
X163011728Y-87002349D01*
X163173346Y-86923173D01*
X163177994Y-86920896D01*
X163359860Y-86791173D01*
X163518096Y-86633489D01*
X163648453Y-86452077D01*
X163649776Y-86453028D01*
X163696645Y-86409857D01*
X163766580Y-86397625D01*
X163832026Y-86425144D01*
G37*
%TD.AperFunction*%
%TA.AperFunction,NonConductor*%
G36*
X153672026Y-86425144D02*
G01*
X153699875Y-86456994D01*
X153759987Y-86555088D01*
X153906250Y-86723938D01*
X154078126Y-86866632D01*
X154271000Y-86979338D01*
X154275825Y-86981180D01*
X154275826Y-86981181D01*
X154319321Y-86997790D01*
X154375824Y-87040778D01*
X154400117Y-87107489D01*
X154384487Y-87176743D01*
X154333896Y-87226554D01*
X154274372Y-87241500D01*
X152907160Y-87241500D01*
X152839039Y-87221498D01*
X152792546Y-87167842D01*
X152782442Y-87097568D01*
X152811936Y-87032988D01*
X152851728Y-87002349D01*
X153013346Y-86923173D01*
X153017994Y-86920896D01*
X153199860Y-86791173D01*
X153358096Y-86633489D01*
X153488453Y-86452077D01*
X153489776Y-86453028D01*
X153536645Y-86409857D01*
X153606580Y-86397625D01*
X153672026Y-86425144D01*
G37*
%TD.AperFunction*%
%TA.AperFunction,NonConductor*%
G36*
X166372026Y-86425144D02*
G01*
X166399875Y-86456994D01*
X166459987Y-86555088D01*
X166606250Y-86723938D01*
X166778126Y-86866632D01*
X166971000Y-86979338D01*
X166975825Y-86981180D01*
X166975826Y-86981181D01*
X167019321Y-86997790D01*
X167075824Y-87040778D01*
X167100117Y-87107489D01*
X167084487Y-87176743D01*
X167033896Y-87226554D01*
X166974372Y-87241500D01*
X165607160Y-87241500D01*
X165539039Y-87221498D01*
X165492546Y-87167842D01*
X165482442Y-87097568D01*
X165511936Y-87032988D01*
X165551728Y-87002349D01*
X165713346Y-86923173D01*
X165717994Y-86920896D01*
X165899860Y-86791173D01*
X166058096Y-86633489D01*
X166188453Y-86452077D01*
X166189776Y-86453028D01*
X166236645Y-86409857D01*
X166306580Y-86397625D01*
X166372026Y-86425144D01*
G37*
%TD.AperFunction*%
%TA.AperFunction,NonConductor*%
G36*
X148592026Y-86425144D02*
G01*
X148619875Y-86456994D01*
X148679987Y-86555088D01*
X148826250Y-86723938D01*
X148998126Y-86866632D01*
X149191000Y-86979338D01*
X149195825Y-86981180D01*
X149195826Y-86981181D01*
X149239321Y-86997790D01*
X149295824Y-87040778D01*
X149320117Y-87107489D01*
X149304487Y-87176743D01*
X149253896Y-87226554D01*
X149194372Y-87241500D01*
X147827160Y-87241500D01*
X147759039Y-87221498D01*
X147712546Y-87167842D01*
X147702442Y-87097568D01*
X147731936Y-87032988D01*
X147771728Y-87002349D01*
X147933346Y-86923173D01*
X147937994Y-86920896D01*
X148119860Y-86791173D01*
X148278096Y-86633489D01*
X148408453Y-86452077D01*
X148409776Y-86453028D01*
X148456645Y-86409857D01*
X148526580Y-86397625D01*
X148592026Y-86425144D01*
G37*
%TD.AperFunction*%
%TA.AperFunction,NonConductor*%
G36*
X156212026Y-86425144D02*
G01*
X156239875Y-86456994D01*
X156299987Y-86555088D01*
X156446250Y-86723938D01*
X156618126Y-86866632D01*
X156811000Y-86979338D01*
X156815825Y-86981180D01*
X156815826Y-86981181D01*
X156859321Y-86997790D01*
X156915824Y-87040778D01*
X156940117Y-87107489D01*
X156924487Y-87176743D01*
X156873896Y-87226554D01*
X156814372Y-87241500D01*
X155447160Y-87241500D01*
X155379039Y-87221498D01*
X155332546Y-87167842D01*
X155322442Y-87097568D01*
X155351936Y-87032988D01*
X155391728Y-87002349D01*
X155553346Y-86923173D01*
X155557994Y-86920896D01*
X155739860Y-86791173D01*
X155898096Y-86633489D01*
X156028453Y-86452077D01*
X156029776Y-86453028D01*
X156076645Y-86409857D01*
X156146580Y-86397625D01*
X156212026Y-86425144D01*
G37*
%TD.AperFunction*%
%TA.AperFunction,NonConductor*%
G36*
X168912026Y-86425144D02*
G01*
X168939875Y-86456994D01*
X168999987Y-86555088D01*
X169146250Y-86723938D01*
X169318126Y-86866632D01*
X169511000Y-86979338D01*
X169515825Y-86981180D01*
X169515826Y-86981181D01*
X169559321Y-86997790D01*
X169615824Y-87040778D01*
X169640117Y-87107489D01*
X169624487Y-87176743D01*
X169573896Y-87226554D01*
X169514372Y-87241500D01*
X168147160Y-87241500D01*
X168079039Y-87221498D01*
X168032546Y-87167842D01*
X168022442Y-87097568D01*
X168051936Y-87032988D01*
X168091728Y-87002349D01*
X168253346Y-86923173D01*
X168257994Y-86920896D01*
X168439860Y-86791173D01*
X168598096Y-86633489D01*
X168728453Y-86452077D01*
X168729776Y-86453028D01*
X168776645Y-86409857D01*
X168846580Y-86397625D01*
X168912026Y-86425144D01*
G37*
%TD.AperFunction*%
%TA.AperFunction,NonConductor*%
G36*
X140972026Y-86425144D02*
G01*
X140999875Y-86456994D01*
X141059987Y-86555088D01*
X141206250Y-86723938D01*
X141378126Y-86866632D01*
X141571000Y-86979338D01*
X141575825Y-86981180D01*
X141575826Y-86981181D01*
X141619321Y-86997790D01*
X141675824Y-87040778D01*
X141700117Y-87107489D01*
X141684487Y-87176743D01*
X141633896Y-87226554D01*
X141574372Y-87241500D01*
X140207160Y-87241500D01*
X140139039Y-87221498D01*
X140092546Y-87167842D01*
X140082442Y-87097568D01*
X140111936Y-87032988D01*
X140151728Y-87002349D01*
X140313346Y-86923173D01*
X140317994Y-86920896D01*
X140499860Y-86791173D01*
X140658096Y-86633489D01*
X140788453Y-86452077D01*
X140789776Y-86453028D01*
X140836645Y-86409857D01*
X140906580Y-86397625D01*
X140972026Y-86425144D01*
G37*
%TD.AperFunction*%
%TA.AperFunction,NonConductor*%
G36*
X146052026Y-86425144D02*
G01*
X146079875Y-86456994D01*
X146139987Y-86555088D01*
X146286250Y-86723938D01*
X146458126Y-86866632D01*
X146651000Y-86979338D01*
X146655825Y-86981180D01*
X146655826Y-86981181D01*
X146699321Y-86997790D01*
X146755824Y-87040778D01*
X146780117Y-87107489D01*
X146764487Y-87176743D01*
X146713896Y-87226554D01*
X146654372Y-87241500D01*
X145287160Y-87241500D01*
X145219039Y-87221498D01*
X145172546Y-87167842D01*
X145162442Y-87097568D01*
X145191936Y-87032988D01*
X145231728Y-87002349D01*
X145393346Y-86923173D01*
X145397994Y-86920896D01*
X145579860Y-86791173D01*
X145738096Y-86633489D01*
X145868453Y-86452077D01*
X145869776Y-86453028D01*
X145916645Y-86409857D01*
X145986580Y-86397625D01*
X146052026Y-86425144D01*
G37*
%TD.AperFunction*%
%TA.AperFunction,NonConductor*%
G36*
X158752026Y-86425144D02*
G01*
X158779875Y-86456994D01*
X158839987Y-86555088D01*
X158986250Y-86723938D01*
X159158126Y-86866632D01*
X159351000Y-86979338D01*
X159355825Y-86981180D01*
X159355826Y-86981181D01*
X159399321Y-86997790D01*
X159455824Y-87040778D01*
X159480117Y-87107489D01*
X159464487Y-87176743D01*
X159413896Y-87226554D01*
X159354372Y-87241500D01*
X157987160Y-87241500D01*
X157919039Y-87221498D01*
X157872546Y-87167842D01*
X157862442Y-87097568D01*
X157891936Y-87032988D01*
X157931728Y-87002349D01*
X158093346Y-86923173D01*
X158097994Y-86920896D01*
X158279860Y-86791173D01*
X158438096Y-86633489D01*
X158568453Y-86452077D01*
X158569776Y-86453028D01*
X158616645Y-86409857D01*
X158686580Y-86397625D01*
X158752026Y-86425144D01*
G37*
%TD.AperFunction*%
M02*
