M48
; DRILL file {KiCad (5.1.10)-1} date 01/04/22 20:26:49
; FORMAT={-:-/ absolute / inch / decimal}
; #@! TF.CreationDate,2022-01-04T20:26:49-05:00
; #@! TF.GenerationSoftware,Kicad,Pcbnew,(5.1.10)-1
; #@! TF.FileFunction,Plated,1,2,PTH
FMAT,2
INCH
T1C0.0157
T2C0.0177
T3C0.0472
%
G90
G05
T1
X1.8196Y-4.32
X1.8417Y-3.74
X1.844Y-3.8421
X1.8444Y-3.8027
X1.8652Y-4.3552
X1.8835Y-3.9435
X1.89Y-4.27
X1.94Y-3.4
X1.9565Y-2.9524
X1.96Y-3.72
X1.9626Y-3.7937
X1.9702Y-3.3102
X1.98Y-3.41
X1.99Y-3.25
X2.0185Y-3.8566
X2.0385Y-3.7407
X2.04Y-3.78
X2.04Y-3.82
X2.04Y-3.92
X2.0524Y-3.8827
X2.0593Y-3.38
X2.06Y-3.28
X2.06Y-3.33
X2.0696Y-3.8472
X2.079Y-3.42
X2.08Y-3.07
X2.08Y-4.28
X2.0987Y-3.457
X2.1Y-3.7
X2.1184Y-3.4942
X2.121Y-3.859
X2.1287Y-3.8984
X2.1381Y-3.5301
X2.1694Y-3.9
X2.2Y-3.7026
X2.24Y-3.99
X2.24Y-4.04
X2.25Y-3.26
X2.27Y-4.24
X2.3082Y-3.4472
X2.33Y-3.48
X2.33Y-3.96
T3
X1.73Y-2.85
X1.73Y-2.95
X1.73Y-3.05
X1.73Y-3.15
X1.73Y-3.25
X1.73Y-3.35
X1.73Y-3.45
X1.73Y-3.55
X1.73Y-3.65
X1.73Y-3.75
X1.73Y-3.85
X1.73Y-3.95
X1.73Y-4.05
X1.73Y-4.15
X1.73Y-4.25
X1.73Y-4.35
X1.73Y-4.45
X1.73Y-4.55
X1.73Y-4.65
X2.43Y-2.85
X2.43Y-2.95
X2.43Y-3.05
X2.43Y-3.15
X2.43Y-3.25
X2.43Y-3.35
X2.43Y-3.45
X2.43Y-3.55
X2.43Y-3.65
X2.43Y-3.75
X2.43Y-3.85
X2.43Y-3.95
X2.43Y-4.05
X2.43Y-4.15
X2.43Y-4.25
X2.43Y-4.35
X2.43Y-4.45
X2.43Y-4.55
X2.43Y-4.65
T2
G00X1.9493Y-2.8385
M15
G01X1.9493Y-2.807
M16
G05
G00X2.2307Y-2.807
M15
G01X2.2307Y-2.8385
M16
G05
T0
M30
