%TF.GenerationSoftware,KiCad,Pcbnew,(5.1.10)-1*%
%TF.CreationDate,2022-01-04T20:26:21-05:00*%
%TF.ProjectId,STM32G441DevBoard,53544d33-3247-4343-9431-446576426f61,rev?*%
%TF.SameCoordinates,Original*%
%TF.FileFunction,Legend,Bot*%
%TF.FilePolarity,Positive*%
%FSLAX46Y46*%
G04 Gerber Fmt 4.6, Leading zero omitted, Abs format (unit mm)*
G04 Created by KiCad (PCBNEW (5.1.10)-1) date 2022-01-04 20:26:21*
%MOMM*%
%LPD*%
G01*
G04 APERTURE LIST*
%ADD10C,0.120000*%
%ADD11C,0.150000*%
G04 APERTURE END LIST*
D10*
%TO.C,C26*%
X54094748Y-103605000D02*
X54617252Y-103605000D01*
X54094748Y-102135000D02*
X54617252Y-102135000D01*
%TO.C,C14*%
X58447000Y-94480748D02*
X58447000Y-95003252D01*
X59917000Y-94480748D02*
X59917000Y-95003252D01*
%TO.C,C11*%
X58447000Y-98036748D02*
X58447000Y-98559252D01*
X59917000Y-98036748D02*
X59917000Y-98559252D01*
%TO.C,C26*%
D11*
X54998857Y-104907142D02*
X55046476Y-104954761D01*
X55189333Y-105002380D01*
X55284571Y-105002380D01*
X55427428Y-104954761D01*
X55522666Y-104859523D01*
X55570285Y-104764285D01*
X55617904Y-104573809D01*
X55617904Y-104430952D01*
X55570285Y-104240476D01*
X55522666Y-104145238D01*
X55427428Y-104050000D01*
X55284571Y-104002380D01*
X55189333Y-104002380D01*
X55046476Y-104050000D01*
X54998857Y-104097619D01*
X54617904Y-104097619D02*
X54570285Y-104050000D01*
X54475047Y-104002380D01*
X54236952Y-104002380D01*
X54141714Y-104050000D01*
X54094095Y-104097619D01*
X54046476Y-104192857D01*
X54046476Y-104288095D01*
X54094095Y-104430952D01*
X54665523Y-105002380D01*
X54046476Y-105002380D01*
X53189333Y-104002380D02*
X53379809Y-104002380D01*
X53475047Y-104050000D01*
X53522666Y-104097619D01*
X53617904Y-104240476D01*
X53665523Y-104430952D01*
X53665523Y-104811904D01*
X53617904Y-104907142D01*
X53570285Y-104954761D01*
X53475047Y-105002380D01*
X53284571Y-105002380D01*
X53189333Y-104954761D01*
X53141714Y-104907142D01*
X53094095Y-104811904D01*
X53094095Y-104573809D01*
X53141714Y-104478571D01*
X53189333Y-104430952D01*
X53284571Y-104383333D01*
X53475047Y-104383333D01*
X53570285Y-104430952D01*
X53617904Y-104478571D01*
X53665523Y-104573809D01*
%TO.C,C14*%
X57859142Y-94099142D02*
X57906761Y-94051523D01*
X57954380Y-93908666D01*
X57954380Y-93813428D01*
X57906761Y-93670571D01*
X57811523Y-93575333D01*
X57716285Y-93527714D01*
X57525809Y-93480095D01*
X57382952Y-93480095D01*
X57192476Y-93527714D01*
X57097238Y-93575333D01*
X57002000Y-93670571D01*
X56954380Y-93813428D01*
X56954380Y-93908666D01*
X57002000Y-94051523D01*
X57049619Y-94099142D01*
X57954380Y-95051523D02*
X57954380Y-94480095D01*
X57954380Y-94765809D02*
X56954380Y-94765809D01*
X57097238Y-94670571D01*
X57192476Y-94575333D01*
X57240095Y-94480095D01*
X57287714Y-95908666D02*
X57954380Y-95908666D01*
X56906761Y-95670571D02*
X57621047Y-95432476D01*
X57621047Y-96051523D01*
%TO.C,C11*%
X57859142Y-97655142D02*
X57906761Y-97607523D01*
X57954380Y-97464666D01*
X57954380Y-97369428D01*
X57906761Y-97226571D01*
X57811523Y-97131333D01*
X57716285Y-97083714D01*
X57525809Y-97036095D01*
X57382952Y-97036095D01*
X57192476Y-97083714D01*
X57097238Y-97131333D01*
X57002000Y-97226571D01*
X56954380Y-97369428D01*
X56954380Y-97464666D01*
X57002000Y-97607523D01*
X57049619Y-97655142D01*
X57954380Y-98607523D02*
X57954380Y-98036095D01*
X57954380Y-98321809D02*
X56954380Y-98321809D01*
X57097238Y-98226571D01*
X57192476Y-98131333D01*
X57240095Y-98036095D01*
X57954380Y-99559904D02*
X57954380Y-98988476D01*
X57954380Y-99274190D02*
X56954380Y-99274190D01*
X57097238Y-99178952D01*
X57192476Y-99083714D01*
X57240095Y-98988476D01*
%TD*%
M02*
