%TF.GenerationSoftware,KiCad,Pcbnew,(5.1.10)-1*%
%TF.CreationDate,2022-01-04T20:26:20-05:00*%
%TF.ProjectId,STM32G441DevBoard,53544d33-3247-4343-9431-446576426f61,rev?*%
%TF.SameCoordinates,Original*%
%TF.FileFunction,Copper,L1,Top*%
%TF.FilePolarity,Positive*%
%FSLAX46Y46*%
G04 Gerber Fmt 4.6, Leading zero omitted, Abs format (unit mm)*
G04 Created by KiCad (PCBNEW (5.1.10)-1) date 2022-01-04 20:26:20*
%MOMM*%
%LPD*%
G01*
G04 APERTURE LIST*
%TA.AperFunction,ComponentPad*%
%ADD10C,1.775000*%
%TD*%
%TA.AperFunction,SMDPad,CuDef*%
%ADD11R,1.193800X0.304800*%
%TD*%
%TA.AperFunction,SMDPad,CuDef*%
%ADD12R,0.304800X1.193800*%
%TD*%
%TA.AperFunction,SMDPad,CuDef*%
%ADD13R,1.500000X1.100000*%
%TD*%
%TA.AperFunction,SMDPad,CuDef*%
%ADD14R,1.000000X1.800000*%
%TD*%
%TA.AperFunction,SMDPad,CuDef*%
%ADD15R,1.400000X1.200000*%
%TD*%
%TA.AperFunction,SMDPad,CuDef*%
%ADD16R,1.060000X0.650000*%
%TD*%
%TA.AperFunction,SMDPad,CuDef*%
%ADD17R,1.000000X1.600000*%
%TD*%
%TA.AperFunction,SMDPad,CuDef*%
%ADD18R,0.900000X1.000000*%
%TD*%
%TA.AperFunction,SMDPad,CuDef*%
%ADD19R,1.700000X0.550000*%
%TD*%
%TA.AperFunction,SMDPad,CuDef*%
%ADD20R,1.150000X1.450000*%
%TD*%
%TA.AperFunction,ComponentPad*%
%ADD21O,1.050000X1.900000*%
%TD*%
%TA.AperFunction,SMDPad,CuDef*%
%ADD22R,1.750000X1.900000*%
%TD*%
%TA.AperFunction,SMDPad,CuDef*%
%ADD23R,0.400000X1.400000*%
%TD*%
%TA.AperFunction,ViaPad*%
%ADD24C,0.800000*%
%TD*%
%TA.AperFunction,Conductor*%
%ADD25C,0.250000*%
%TD*%
G04 APERTURE END LIST*
D10*
%TO.P,3v3,1*%
%TO.N,+3V3*%
X43942000Y-72390000D03*
%TD*%
D11*
%TO.P,U1,48*%
%TO.N,+3V3*%
X48582001Y-99270000D03*
%TO.P,U1,47*%
%TO.N,GND*%
X48582001Y-98770001D03*
%TO.P,U1,46*%
%TO.N,B9*%
X48582001Y-98269999D03*
%TO.P,U1,45*%
%TO.N,BOOT0*%
X48582001Y-97770000D03*
%TO.P,U1,44*%
%TO.N,B7*%
X48582001Y-97270001D03*
%TO.P,U1,43*%
%TO.N,B6*%
X48582001Y-96770000D03*
%TO.P,U1,42*%
%TO.N,B5*%
X48582001Y-96270000D03*
%TO.P,U1,41*%
%TO.N,B4*%
X48582001Y-95769999D03*
%TO.P,U1,40*%
%TO.N,B3*%
X48582001Y-95270000D03*
%TO.P,U1,39*%
%TO.N,A15*%
X48582001Y-94770001D03*
%TO.P,U1,38*%
%TO.N,A14*%
X48582001Y-94269999D03*
%TO.P,U1,37*%
%TO.N,A13*%
X48582001Y-93770000D03*
D12*
%TO.P,U1,36*%
%TO.N,+3V3*%
X50082000Y-92270001D03*
%TO.P,U1,35*%
%TO.N,GND*%
X50581999Y-92270001D03*
%TO.P,U1,34*%
%TO.N,A12*%
X51082001Y-92270001D03*
%TO.P,U1,33*%
%TO.N,A11*%
X51582000Y-92270001D03*
%TO.P,U1,32*%
%TO.N,A10*%
X52081999Y-92270001D03*
%TO.P,U1,31*%
%TO.N,A9*%
X52582000Y-92270001D03*
%TO.P,U1,30*%
%TO.N,A8*%
X53082000Y-92270001D03*
%TO.P,U1,29*%
%TO.N,B15*%
X53582001Y-92270001D03*
%TO.P,U1,28*%
%TO.N,B14*%
X54082000Y-92270001D03*
%TO.P,U1,27*%
%TO.N,B13*%
X54581999Y-92270001D03*
%TO.P,U1,26*%
%TO.N,B12*%
X55082001Y-92270001D03*
%TO.P,U1,25*%
%TO.N,B11*%
X55582000Y-92270001D03*
D11*
%TO.P,U1,24*%
%TO.N,+3V3*%
X57081999Y-93770000D03*
%TO.P,U1,23*%
%TO.N,GND*%
X57081999Y-94269999D03*
%TO.P,U1,22*%
%TO.N,B10*%
X57081999Y-94770001D03*
%TO.P,U1,21*%
%TO.N,+3V3*%
X57081999Y-95270000D03*
%TO.P,U1,20*%
X57081999Y-95769999D03*
%TO.P,U1,19*%
%TO.N,GND*%
X57081999Y-96270000D03*
%TO.P,U1,18*%
%TO.N,B2*%
X57081999Y-96770000D03*
%TO.P,U1,17*%
%TO.N,B1*%
X57081999Y-97270001D03*
%TO.P,U1,16*%
%TO.N,B0*%
X57081999Y-97770000D03*
%TO.P,U1,15*%
%TO.N,A7*%
X57081999Y-98269999D03*
%TO.P,U1,14*%
%TO.N,A6*%
X57081999Y-98770001D03*
%TO.P,U1,13*%
%TO.N,A5*%
X57081999Y-99270000D03*
D12*
%TO.P,U1,12*%
%TO.N,A4*%
X55582000Y-100769999D03*
%TO.P,U1,11*%
%TO.N,A3*%
X55082001Y-100769999D03*
%TO.P,U1,10*%
%TO.N,A2*%
X54581999Y-100769999D03*
%TO.P,U1,9*%
%TO.N,A1*%
X54082000Y-100769999D03*
%TO.P,U1,8*%
%TO.N,A0*%
X53582001Y-100769999D03*
%TO.P,U1,7*%
%TO.N,NRST*%
X53082000Y-100769999D03*
%TO.P,U1,6*%
%TO.N,OSC_OUT*%
X52582000Y-100769999D03*
%TO.P,U1,5*%
%TO.N,OSC_IN*%
X52081999Y-100769999D03*
%TO.P,U1,4*%
%TO.N,OSC32_OUT*%
X51582000Y-100769999D03*
%TO.P,U1,3*%
%TO.N,OSC32_IN*%
X51082001Y-100769999D03*
%TO.P,U1,2*%
%TO.N,C13*%
X50581999Y-100769999D03*
%TO.P,U1,1*%
%TO.N,+3V3*%
X50082000Y-100769999D03*
%TD*%
D13*
%TO.P,SW3,2*%
%TO.N,B9*%
X48382000Y-84582000D03*
%TO.P,SW3,1*%
%TO.N,Net-(D1-Pad2)*%
X57282000Y-84582000D03*
%TD*%
D14*
%TO.P,Y2,2*%
%TO.N,OSC32_OUT*%
X50780000Y-104394000D03*
%TO.P,Y2,1*%
%TO.N,OSC32_IN*%
X48280000Y-104394000D03*
%TD*%
D15*
%TO.P,Y1,4*%
%TO.N,GND*%
X54272000Y-104052000D03*
%TO.P,Y1,3*%
%TO.N,OSC_OUT*%
X56472000Y-104052000D03*
%TO.P,Y1,2*%
%TO.N,GND*%
X56472000Y-105752000D03*
%TO.P,Y1,1*%
%TO.N,OSC_IN*%
X54272000Y-105752000D03*
%TD*%
D16*
%TO.P,U2,5*%
%TO.N,+3V3*%
X54272000Y-81214000D03*
%TO.P,U2,4*%
%TO.N,Net-(U2-Pad4)*%
X54272000Y-79314000D03*
%TO.P,U2,3*%
%TO.N,+5V*%
X56472000Y-79314000D03*
%TO.P,U2,2*%
%TO.N,GND*%
X56472000Y-80264000D03*
%TO.P,U2,1*%
%TO.N,+5V*%
X56472000Y-81214000D03*
%TD*%
D17*
%TO.P,SW2,7*%
%TO.N,N/C*%
X56094000Y-114878000D03*
%TO.P,SW2,6*%
X53594000Y-114878000D03*
%TO.P,SW2,5*%
X51094000Y-114878000D03*
%TO.P,SW2,3*%
%TO.N,GND*%
X56094000Y-117278000D03*
%TO.P,SW2,2*%
%TO.N,Net-(R3-Pad1)*%
X53594000Y-117278000D03*
%TO.P,SW2,1*%
%TO.N,+3V3*%
X51094000Y-117278000D03*
%TD*%
D18*
%TO.P,SW1,1*%
%TO.N,NRST*%
X54882000Y-110706000D03*
%TO.P,SW1,2*%
%TO.N,GND*%
X54882000Y-112306000D03*
X50782000Y-112306000D03*
%TO.P,SW1,1*%
%TO.N,NRST*%
X50782000Y-110706000D03*
D19*
%TO.P,SW1,3*%
%TO.N,N/C*%
X52832000Y-110081000D03*
%TD*%
%TO.P,R3,2*%
%TO.N,BOOT0*%
%TA.AperFunction,SMDPad,CuDef*%
G36*
G01*
X47948001Y-115678000D02*
X47047999Y-115678000D01*
G75*
G02*
X46798000Y-115428001I0J249999D01*
G01*
X46798000Y-114902999D01*
G75*
G02*
X47047999Y-114653000I249999J0D01*
G01*
X47948001Y-114653000D01*
G75*
G02*
X48198000Y-114902999I0J-249999D01*
G01*
X48198000Y-115428001D01*
G75*
G02*
X47948001Y-115678000I-249999J0D01*
G01*
G37*
%TD.AperFunction*%
%TO.P,R3,1*%
%TO.N,Net-(R3-Pad1)*%
%TA.AperFunction,SMDPad,CuDef*%
G36*
G01*
X47948001Y-117503000D02*
X47047999Y-117503000D01*
G75*
G02*
X46798000Y-117253001I0J249999D01*
G01*
X46798000Y-116727999D01*
G75*
G02*
X47047999Y-116478000I249999J0D01*
G01*
X47948001Y-116478000D01*
G75*
G02*
X48198000Y-116727999I0J-249999D01*
G01*
X48198000Y-117253001D01*
G75*
G02*
X47948001Y-117503000I-249999J0D01*
G01*
G37*
%TD.AperFunction*%
%TD*%
%TO.P,R2,2*%
%TO.N,D+*%
%TA.AperFunction,SMDPad,CuDef*%
G36*
G01*
X48456001Y-79864000D02*
X47555999Y-79864000D01*
G75*
G02*
X47306000Y-79614001I0J249999D01*
G01*
X47306000Y-79088999D01*
G75*
G02*
X47555999Y-78839000I249999J0D01*
G01*
X48456001Y-78839000D01*
G75*
G02*
X48706000Y-79088999I0J-249999D01*
G01*
X48706000Y-79614001D01*
G75*
G02*
X48456001Y-79864000I-249999J0D01*
G01*
G37*
%TD.AperFunction*%
%TO.P,R2,1*%
%TO.N,A12*%
%TA.AperFunction,SMDPad,CuDef*%
G36*
G01*
X48456001Y-81689000D02*
X47555999Y-81689000D01*
G75*
G02*
X47306000Y-81439001I0J249999D01*
G01*
X47306000Y-80913999D01*
G75*
G02*
X47555999Y-80664000I249999J0D01*
G01*
X48456001Y-80664000D01*
G75*
G02*
X48706000Y-80913999I0J-249999D01*
G01*
X48706000Y-81439001D01*
G75*
G02*
X48456001Y-81689000I-249999J0D01*
G01*
G37*
%TD.AperFunction*%
%TD*%
%TO.P,R1,2*%
%TO.N,D-*%
%TA.AperFunction,SMDPad,CuDef*%
G36*
G01*
X50488001Y-79864000D02*
X49587999Y-79864000D01*
G75*
G02*
X49338000Y-79614001I0J249999D01*
G01*
X49338000Y-79088999D01*
G75*
G02*
X49587999Y-78839000I249999J0D01*
G01*
X50488001Y-78839000D01*
G75*
G02*
X50738000Y-79088999I0J-249999D01*
G01*
X50738000Y-79614001D01*
G75*
G02*
X50488001Y-79864000I-249999J0D01*
G01*
G37*
%TD.AperFunction*%
%TO.P,R1,1*%
%TO.N,A11*%
%TA.AperFunction,SMDPad,CuDef*%
G36*
G01*
X50488001Y-81689000D02*
X49587999Y-81689000D01*
G75*
G02*
X49338000Y-81439001I0J249999D01*
G01*
X49338000Y-80913999D01*
G75*
G02*
X49587999Y-80664000I249999J0D01*
G01*
X50488001Y-80664000D01*
G75*
G02*
X50738000Y-80913999I0J-249999D01*
G01*
X50738000Y-81439001D01*
G75*
G02*
X50488001Y-81689000I-249999J0D01*
G01*
G37*
%TD.AperFunction*%
%TD*%
D10*
%TO.P,C13,1*%
%TO.N,C13*%
X43942000Y-115570000D03*
%TD*%
D20*
%TO.P,J1,6*%
%TO.N,Net-(J1-Pad6)*%
X55406000Y-73928000D03*
X50766000Y-73928000D03*
D21*
X49511000Y-71698000D03*
X56661000Y-71698000D03*
D22*
X54211000Y-71698000D03*
D23*
%TO.P,J1,3*%
%TO.N,D+*%
X53086000Y-74348000D03*
%TO.P,J1,4*%
%TO.N,Net-(J1-Pad4)*%
X52436000Y-74348000D03*
%TO.P,J1,5*%
%TO.N,GND*%
X51786000Y-74348000D03*
%TO.P,J1,1*%
%TO.N,VCC*%
X54386000Y-74348000D03*
%TO.P,J1,2*%
%TO.N,D-*%
X53736000Y-74348000D03*
D22*
%TO.P,J1,6*%
%TO.N,Net-(J1-Pad6)*%
X51961000Y-71698000D03*
%TD*%
D10*
%TO.P,GND,1*%
%TO.N,GND*%
X61722000Y-72390000D03*
%TD*%
%TO.P,GND,1*%
%TO.N,GND*%
X61722000Y-118110000D03*
%TD*%
%TO.P,GND,1*%
%TO.N,GND*%
X43942000Y-74930000D03*
%TD*%
%TO.P,F1,2*%
%TO.N,VCC*%
%TA.AperFunction,SMDPad,CuDef*%
G36*
G01*
X55176000Y-76505750D02*
X55176000Y-77418250D01*
G75*
G02*
X54932250Y-77662000I-243750J0D01*
G01*
X54444750Y-77662000D01*
G75*
G02*
X54201000Y-77418250I0J243750D01*
G01*
X54201000Y-76505750D01*
G75*
G02*
X54444750Y-76262000I243750J0D01*
G01*
X54932250Y-76262000D01*
G75*
G02*
X55176000Y-76505750I0J-243750D01*
G01*
G37*
%TD.AperFunction*%
%TO.P,F1,1*%
%TO.N,+5V*%
%TA.AperFunction,SMDPad,CuDef*%
G36*
G01*
X57051000Y-76505750D02*
X57051000Y-77418250D01*
G75*
G02*
X56807250Y-77662000I-243750J0D01*
G01*
X56319750Y-77662000D01*
G75*
G02*
X56076000Y-77418250I0J243750D01*
G01*
X56076000Y-76505750D01*
G75*
G02*
X56319750Y-76262000I243750J0D01*
G01*
X56807250Y-76262000D01*
G75*
G02*
X57051000Y-76505750I0J-243750D01*
G01*
G37*
%TD.AperFunction*%
%TD*%
%TO.P,D1,2*%
%TO.N,Net-(D1-Pad2)*%
%TA.AperFunction,SMDPad,CuDef*%
G36*
G01*
X56838000Y-88594250D02*
X56838000Y-87681750D01*
G75*
G02*
X57081750Y-87438000I243750J0D01*
G01*
X57569250Y-87438000D01*
G75*
G02*
X57813000Y-87681750I0J-243750D01*
G01*
X57813000Y-88594250D01*
G75*
G02*
X57569250Y-88838000I-243750J0D01*
G01*
X57081750Y-88838000D01*
G75*
G02*
X56838000Y-88594250I0J243750D01*
G01*
G37*
%TD.AperFunction*%
%TO.P,D1,1*%
%TO.N,GND*%
%TA.AperFunction,SMDPad,CuDef*%
G36*
G01*
X54963000Y-88594250D02*
X54963000Y-87681750D01*
G75*
G02*
X55206750Y-87438000I243750J0D01*
G01*
X55694250Y-87438000D01*
G75*
G02*
X55938000Y-87681750I0J-243750D01*
G01*
X55938000Y-88594250D01*
G75*
G02*
X55694250Y-88838000I-243750J0D01*
G01*
X55206750Y-88838000D01*
G75*
G02*
X54963000Y-88594250I0J243750D01*
G01*
G37*
%TD.AperFunction*%
%TD*%
%TO.P,C25,2*%
%TO.N,GND*%
%TA.AperFunction,SMDPad,CuDef*%
G36*
G01*
X52799000Y-79814000D02*
X51849000Y-79814000D01*
G75*
G02*
X51599000Y-79564000I0J250000D01*
G01*
X51599000Y-79064000D01*
G75*
G02*
X51849000Y-78814000I250000J0D01*
G01*
X52799000Y-78814000D01*
G75*
G02*
X53049000Y-79064000I0J-250000D01*
G01*
X53049000Y-79564000D01*
G75*
G02*
X52799000Y-79814000I-250000J0D01*
G01*
G37*
%TD.AperFunction*%
%TO.P,C25,1*%
%TO.N,+3V3*%
%TA.AperFunction,SMDPad,CuDef*%
G36*
G01*
X52799000Y-81714000D02*
X51849000Y-81714000D01*
G75*
G02*
X51599000Y-81464000I0J250000D01*
G01*
X51599000Y-80964000D01*
G75*
G02*
X51849000Y-80714000I250000J0D01*
G01*
X52799000Y-80714000D01*
G75*
G02*
X53049000Y-80964000I0J-250000D01*
G01*
X53049000Y-81464000D01*
G75*
G02*
X52799000Y-81714000I-250000J0D01*
G01*
G37*
%TD.AperFunction*%
%TD*%
%TO.P,C24,2*%
%TO.N,GND*%
%TA.AperFunction,SMDPad,CuDef*%
G36*
G01*
X57945000Y-80714000D02*
X58895000Y-80714000D01*
G75*
G02*
X59145000Y-80964000I0J-250000D01*
G01*
X59145000Y-81464000D01*
G75*
G02*
X58895000Y-81714000I-250000J0D01*
G01*
X57945000Y-81714000D01*
G75*
G02*
X57695000Y-81464000I0J250000D01*
G01*
X57695000Y-80964000D01*
G75*
G02*
X57945000Y-80714000I250000J0D01*
G01*
G37*
%TD.AperFunction*%
%TO.P,C24,1*%
%TO.N,+5V*%
%TA.AperFunction,SMDPad,CuDef*%
G36*
G01*
X57945000Y-78814000D02*
X58895000Y-78814000D01*
G75*
G02*
X59145000Y-79064000I0J-250000D01*
G01*
X59145000Y-79564000D01*
G75*
G02*
X58895000Y-79814000I-250000J0D01*
G01*
X57945000Y-79814000D01*
G75*
G02*
X57695000Y-79564000I0J250000D01*
G01*
X57695000Y-79064000D01*
G75*
G02*
X57945000Y-78814000I250000J0D01*
G01*
G37*
%TD.AperFunction*%
%TD*%
%TO.P,C23,2*%
%TO.N,OSC_OUT*%
%TA.AperFunction,SMDPad,CuDef*%
G36*
G01*
X59149000Y-104452000D02*
X58199000Y-104452000D01*
G75*
G02*
X57949000Y-104202000I0J250000D01*
G01*
X57949000Y-103702000D01*
G75*
G02*
X58199000Y-103452000I250000J0D01*
G01*
X59149000Y-103452000D01*
G75*
G02*
X59399000Y-103702000I0J-250000D01*
G01*
X59399000Y-104202000D01*
G75*
G02*
X59149000Y-104452000I-250000J0D01*
G01*
G37*
%TD.AperFunction*%
%TO.P,C23,1*%
%TO.N,GND*%
%TA.AperFunction,SMDPad,CuDef*%
G36*
G01*
X59149000Y-106352000D02*
X58199000Y-106352000D01*
G75*
G02*
X57949000Y-106102000I0J250000D01*
G01*
X57949000Y-105602000D01*
G75*
G02*
X58199000Y-105352000I250000J0D01*
G01*
X59149000Y-105352000D01*
G75*
G02*
X59399000Y-105602000I0J-250000D01*
G01*
X59399000Y-106102000D01*
G75*
G02*
X59149000Y-106352000I-250000J0D01*
G01*
G37*
%TD.AperFunction*%
%TD*%
%TO.P,C22,2*%
%TO.N,OSC_IN*%
%TA.AperFunction,SMDPad,CuDef*%
G36*
G01*
X54922000Y-107221000D02*
X54922000Y-108171000D01*
G75*
G02*
X54672000Y-108421000I-250000J0D01*
G01*
X54172000Y-108421000D01*
G75*
G02*
X53922000Y-108171000I0J250000D01*
G01*
X53922000Y-107221000D01*
G75*
G02*
X54172000Y-106971000I250000J0D01*
G01*
X54672000Y-106971000D01*
G75*
G02*
X54922000Y-107221000I0J-250000D01*
G01*
G37*
%TD.AperFunction*%
%TO.P,C22,1*%
%TO.N,GND*%
%TA.AperFunction,SMDPad,CuDef*%
G36*
G01*
X56822000Y-107221000D02*
X56822000Y-108171000D01*
G75*
G02*
X56572000Y-108421000I-250000J0D01*
G01*
X56072000Y-108421000D01*
G75*
G02*
X55822000Y-108171000I0J250000D01*
G01*
X55822000Y-107221000D01*
G75*
G02*
X56072000Y-106971000I250000J0D01*
G01*
X56572000Y-106971000D01*
G75*
G02*
X56822000Y-107221000I0J-250000D01*
G01*
G37*
%TD.AperFunction*%
%TD*%
%TO.P,C21,2*%
%TO.N,OSC32_OUT*%
%TA.AperFunction,SMDPad,CuDef*%
G36*
G01*
X51758000Y-107155000D02*
X51758000Y-106205000D01*
G75*
G02*
X52008000Y-105955000I250000J0D01*
G01*
X52508000Y-105955000D01*
G75*
G02*
X52758000Y-106205000I0J-250000D01*
G01*
X52758000Y-107155000D01*
G75*
G02*
X52508000Y-107405000I-250000J0D01*
G01*
X52008000Y-107405000D01*
G75*
G02*
X51758000Y-107155000I0J250000D01*
G01*
G37*
%TD.AperFunction*%
%TO.P,C21,1*%
%TO.N,GND*%
%TA.AperFunction,SMDPad,CuDef*%
G36*
G01*
X49858000Y-107155000D02*
X49858000Y-106205000D01*
G75*
G02*
X50108000Y-105955000I250000J0D01*
G01*
X50608000Y-105955000D01*
G75*
G02*
X50858000Y-106205000I0J-250000D01*
G01*
X50858000Y-107155000D01*
G75*
G02*
X50608000Y-107405000I-250000J0D01*
G01*
X50108000Y-107405000D01*
G75*
G02*
X49858000Y-107155000I0J250000D01*
G01*
G37*
%TD.AperFunction*%
%TD*%
%TO.P,C20,2*%
%TO.N,OSC32_IN*%
%TA.AperFunction,SMDPad,CuDef*%
G36*
G01*
X47302000Y-106205000D02*
X47302000Y-107155000D01*
G75*
G02*
X47052000Y-107405000I-250000J0D01*
G01*
X46552000Y-107405000D01*
G75*
G02*
X46302000Y-107155000I0J250000D01*
G01*
X46302000Y-106205000D01*
G75*
G02*
X46552000Y-105955000I250000J0D01*
G01*
X47052000Y-105955000D01*
G75*
G02*
X47302000Y-106205000I0J-250000D01*
G01*
G37*
%TD.AperFunction*%
%TO.P,C20,1*%
%TO.N,GND*%
%TA.AperFunction,SMDPad,CuDef*%
G36*
G01*
X49202000Y-106205000D02*
X49202000Y-107155000D01*
G75*
G02*
X48952000Y-107405000I-250000J0D01*
G01*
X48452000Y-107405000D01*
G75*
G02*
X48202000Y-107155000I0J250000D01*
G01*
X48202000Y-106205000D01*
G75*
G02*
X48452000Y-105955000I250000J0D01*
G01*
X48952000Y-105955000D01*
G75*
G02*
X49202000Y-106205000I0J-250000D01*
G01*
G37*
%TD.AperFunction*%
%TD*%
%TO.P,C12,2*%
%TO.N,GND*%
%TA.AperFunction,SMDPad,CuDef*%
G36*
G01*
X58707000Y-98560000D02*
X59657000Y-98560000D01*
G75*
G02*
X59907000Y-98810000I0J-250000D01*
G01*
X59907000Y-99310000D01*
G75*
G02*
X59657000Y-99560000I-250000J0D01*
G01*
X58707000Y-99560000D01*
G75*
G02*
X58457000Y-99310000I0J250000D01*
G01*
X58457000Y-98810000D01*
G75*
G02*
X58707000Y-98560000I250000J0D01*
G01*
G37*
%TD.AperFunction*%
%TO.P,C12,1*%
%TO.N,+3V3*%
%TA.AperFunction,SMDPad,CuDef*%
G36*
G01*
X58707000Y-96660000D02*
X59657000Y-96660000D01*
G75*
G02*
X59907000Y-96910000I0J-250000D01*
G01*
X59907000Y-97410000D01*
G75*
G02*
X59657000Y-97660000I-250000J0D01*
G01*
X58707000Y-97660000D01*
G75*
G02*
X58457000Y-97410000I0J250000D01*
G01*
X58457000Y-96910000D01*
G75*
G02*
X58707000Y-96660000I250000J0D01*
G01*
G37*
%TD.AperFunction*%
%TD*%
%TO.P,C10,2*%
%TO.N,GND*%
%TA.AperFunction,SMDPad,CuDef*%
G36*
G01*
X58707000Y-95126000D02*
X59657000Y-95126000D01*
G75*
G02*
X59907000Y-95376000I0J-250000D01*
G01*
X59907000Y-95876000D01*
G75*
G02*
X59657000Y-96126000I-250000J0D01*
G01*
X58707000Y-96126000D01*
G75*
G02*
X58457000Y-95876000I0J250000D01*
G01*
X58457000Y-95376000D01*
G75*
G02*
X58707000Y-95126000I250000J0D01*
G01*
G37*
%TD.AperFunction*%
%TO.P,C10,1*%
%TO.N,+3V3*%
%TA.AperFunction,SMDPad,CuDef*%
G36*
G01*
X58707000Y-93226000D02*
X59657000Y-93226000D01*
G75*
G02*
X59907000Y-93476000I0J-250000D01*
G01*
X59907000Y-93976000D01*
G75*
G02*
X59657000Y-94226000I-250000J0D01*
G01*
X58707000Y-94226000D01*
G75*
G02*
X58457000Y-93976000I0J250000D01*
G01*
X58457000Y-93476000D01*
G75*
G02*
X58707000Y-93226000I250000J0D01*
G01*
G37*
%TD.AperFunction*%
%TD*%
%TO.P,C4,2*%
%TO.N,GND*%
%TA.AperFunction,SMDPad,CuDef*%
G36*
G01*
X46957000Y-101150000D02*
X46007000Y-101150000D01*
G75*
G02*
X45757000Y-100900000I0J250000D01*
G01*
X45757000Y-100400000D01*
G75*
G02*
X46007000Y-100150000I250000J0D01*
G01*
X46957000Y-100150000D01*
G75*
G02*
X47207000Y-100400000I0J-250000D01*
G01*
X47207000Y-100900000D01*
G75*
G02*
X46957000Y-101150000I-250000J0D01*
G01*
G37*
%TD.AperFunction*%
%TO.P,C4,1*%
%TO.N,+3V3*%
%TA.AperFunction,SMDPad,CuDef*%
G36*
G01*
X46957000Y-103050000D02*
X46007000Y-103050000D01*
G75*
G02*
X45757000Y-102800000I0J250000D01*
G01*
X45757000Y-102300000D01*
G75*
G02*
X46007000Y-102050000I250000J0D01*
G01*
X46957000Y-102050000D01*
G75*
G02*
X47207000Y-102300000I0J-250000D01*
G01*
X47207000Y-102800000D01*
G75*
G02*
X46957000Y-103050000I-250000J0D01*
G01*
G37*
%TD.AperFunction*%
%TD*%
%TO.P,C3,2*%
%TO.N,GND*%
%TA.AperFunction,SMDPad,CuDef*%
G36*
G01*
X49472000Y-90645000D02*
X49472000Y-89695000D01*
G75*
G02*
X49722000Y-89445000I250000J0D01*
G01*
X50222000Y-89445000D01*
G75*
G02*
X50472000Y-89695000I0J-250000D01*
G01*
X50472000Y-90645000D01*
G75*
G02*
X50222000Y-90895000I-250000J0D01*
G01*
X49722000Y-90895000D01*
G75*
G02*
X49472000Y-90645000I0J250000D01*
G01*
G37*
%TD.AperFunction*%
%TO.P,C3,1*%
%TO.N,+3V3*%
%TA.AperFunction,SMDPad,CuDef*%
G36*
G01*
X47572000Y-90645000D02*
X47572000Y-89695000D01*
G75*
G02*
X47822000Y-89445000I250000J0D01*
G01*
X48322000Y-89445000D01*
G75*
G02*
X48572000Y-89695000I0J-250000D01*
G01*
X48572000Y-90645000D01*
G75*
G02*
X48322000Y-90895000I-250000J0D01*
G01*
X47822000Y-90895000D01*
G75*
G02*
X47572000Y-90645000I0J250000D01*
G01*
G37*
%TD.AperFunction*%
%TD*%
%TO.P,C2,2*%
%TO.N,GND*%
%TA.AperFunction,SMDPad,CuDef*%
G36*
G01*
X58870000Y-91915000D02*
X58870000Y-90965000D01*
G75*
G02*
X59120000Y-90715000I250000J0D01*
G01*
X59620000Y-90715000D01*
G75*
G02*
X59870000Y-90965000I0J-250000D01*
G01*
X59870000Y-91915000D01*
G75*
G02*
X59620000Y-92165000I-250000J0D01*
G01*
X59120000Y-92165000D01*
G75*
G02*
X58870000Y-91915000I0J250000D01*
G01*
G37*
%TD.AperFunction*%
%TO.P,C2,1*%
%TO.N,+3V3*%
%TA.AperFunction,SMDPad,CuDef*%
G36*
G01*
X56970000Y-91915000D02*
X56970000Y-90965000D01*
G75*
G02*
X57220000Y-90715000I250000J0D01*
G01*
X57720000Y-90715000D01*
G75*
G02*
X57970000Y-90965000I0J-250000D01*
G01*
X57970000Y-91915000D01*
G75*
G02*
X57720000Y-92165000I-250000J0D01*
G01*
X57220000Y-92165000D01*
G75*
G02*
X56970000Y-91915000I0J250000D01*
G01*
G37*
%TD.AperFunction*%
%TD*%
%TO.P,C1,2*%
%TO.N,GND*%
%TA.AperFunction,SMDPad,CuDef*%
G36*
G01*
X49472000Y-88613000D02*
X49472000Y-87663000D01*
G75*
G02*
X49722000Y-87413000I250000J0D01*
G01*
X50222000Y-87413000D01*
G75*
G02*
X50472000Y-87663000I0J-250000D01*
G01*
X50472000Y-88613000D01*
G75*
G02*
X50222000Y-88863000I-250000J0D01*
G01*
X49722000Y-88863000D01*
G75*
G02*
X49472000Y-88613000I0J250000D01*
G01*
G37*
%TD.AperFunction*%
%TO.P,C1,1*%
%TO.N,+3V3*%
%TA.AperFunction,SMDPad,CuDef*%
G36*
G01*
X47572000Y-88613000D02*
X47572000Y-87663000D01*
G75*
G02*
X47822000Y-87413000I250000J0D01*
G01*
X48322000Y-87413000D01*
G75*
G02*
X48572000Y-87663000I0J-250000D01*
G01*
X48572000Y-88613000D01*
G75*
G02*
X48322000Y-88863000I-250000J0D01*
G01*
X47822000Y-88863000D01*
G75*
G02*
X47572000Y-88613000I0J250000D01*
G01*
G37*
%TD.AperFunction*%
%TD*%
%TO.P,B15,1*%
%TO.N,B15*%
X43942000Y-77470000D03*
%TD*%
%TO.P,B14,1*%
%TO.N,B14*%
X61722000Y-77470000D03*
%TD*%
%TO.P,B13,1*%
%TO.N,B13*%
X61722000Y-80010000D03*
%TD*%
%TO.P,B12,1*%
%TO.N,B12*%
X61722000Y-82550000D03*
%TD*%
%TO.P,B11,1*%
%TO.N,B11*%
X61722000Y-85090000D03*
%TD*%
%TO.P,B10,1*%
%TO.N,B10*%
X61722000Y-87630000D03*
%TD*%
%TO.P,B9,1*%
%TO.N,B9*%
X43942000Y-85090000D03*
%TD*%
%TO.P,B7,1*%
%TO.N,B7*%
X43942000Y-113030000D03*
%TD*%
%TO.P,B6,1*%
%TO.N,B6*%
X43942000Y-110490000D03*
%TD*%
%TO.P,B5,1*%
%TO.N,B5*%
X43942000Y-107950000D03*
%TD*%
%TO.P,B4,1*%
%TO.N,B4*%
X43942000Y-105410000D03*
%TD*%
%TO.P,B3,1*%
%TO.N,B3*%
X43942000Y-102870000D03*
%TD*%
%TO.P,B2,1*%
%TO.N,B2*%
X61722000Y-90170000D03*
%TD*%
%TO.P,B1,1*%
%TO.N,B1*%
X61722000Y-92710000D03*
%TD*%
%TO.P,B0,1*%
%TO.N,B0*%
X61722000Y-95250000D03*
%TD*%
%TO.P,A15,1*%
%TO.N,A15*%
X43942000Y-100330000D03*
%TD*%
%TO.P,A14,1*%
%TO.N,A14*%
X43942000Y-97790000D03*
%TD*%
%TO.P,A13,1*%
%TO.N,A13*%
X43942000Y-95250000D03*
%TD*%
%TO.P,A12,1*%
%TO.N,A12*%
X43942000Y-92710000D03*
%TD*%
%TO.P,A11,1*%
%TO.N,A11*%
X43942000Y-90170000D03*
%TD*%
%TO.P,A10,1*%
%TO.N,A10*%
X43942000Y-87630000D03*
%TD*%
%TO.P,A9,1*%
%TO.N,A9*%
X43942000Y-82550000D03*
%TD*%
%TO.P,A8,1*%
%TO.N,A8*%
X43942000Y-80010000D03*
%TD*%
%TO.P,A7,1*%
%TO.N,A7*%
X61722000Y-97790000D03*
%TD*%
%TO.P,A6,1*%
%TO.N,A6*%
X61722000Y-100330000D03*
%TD*%
%TO.P,A5,1*%
%TO.N,A5*%
X61722000Y-102870000D03*
%TD*%
%TO.P,A4,1*%
%TO.N,A4*%
X61722000Y-105410000D03*
%TD*%
%TO.P,A3,1*%
%TO.N,A3*%
X61722000Y-107950000D03*
%TD*%
%TO.P,A2,1*%
%TO.N,A2*%
X61722000Y-110490000D03*
%TD*%
%TO.P,A1,1*%
%TO.N,A1*%
X61722000Y-113030000D03*
%TD*%
%TO.P,A0,1*%
%TO.N,A0*%
X61722000Y-115570000D03*
%TD*%
%TO.P,5V,1*%
%TO.N,+5V*%
X61722000Y-74930000D03*
%TD*%
%TO.P,3v3,1*%
%TO.N,+3V3*%
X43942000Y-118110000D03*
%TD*%
D24*
%TO.N,+3V3*%
X52324000Y-83312000D03*
X49276000Y-86360000D03*
X55880000Y-94045001D03*
%TO.N,A0*%
X52132228Y-98619315D03*
%TO.N,A1*%
X54069007Y-99020616D03*
%TO.N,A2*%
X55102003Y-99060000D03*
%TO.N,A3*%
X56896000Y-102616000D03*
%TO.N,A4*%
X56896000Y-101346000D03*
%TO.N,A7*%
X53872988Y-98019011D03*
%TO.N,A8*%
X53307000Y-87807037D03*
%TO.N,A9*%
X52806999Y-86868000D03*
%TO.N,A10*%
X52307000Y-85852000D03*
%TO.N,A11*%
X50546000Y-82550000D03*
%TO.N,A12*%
X50042653Y-84078653D03*
%TO.N,B0*%
X52569076Y-97719778D03*
%TO.N,B1*%
X51816000Y-97028000D03*
%TO.N,B2*%
X51816000Y-96012000D03*
%TO.N,B3*%
X46779521Y-94996000D03*
%TO.N,B4*%
X49784000Y-94488000D03*
%TO.N,B5*%
X46848379Y-96588858D03*
%TO.N,B6*%
X49850938Y-96359499D03*
X47375653Y-110621653D03*
X46218694Y-109728000D03*
%TO.N,B7*%
X46837020Y-97588795D03*
%TO.N,B10*%
X53340000Y-93980000D03*
%TO.N,B11*%
X59182000Y-88392000D03*
%TO.N,B12*%
X58627299Y-87559949D03*
%TO.N,B13*%
X57150000Y-82804000D03*
%TO.N,B14*%
X54307001Y-89664952D03*
%TO.N,B15*%
X53807000Y-88753208D03*
%TO.N,GND*%
X59182000Y-100584000D03*
X52832000Y-77978000D03*
X50292000Y-86614000D03*
X57658000Y-107696000D03*
X52324000Y-84582000D03*
X51779000Y-95012683D03*
X47841347Y-100165347D03*
X48006000Y-108458000D03*
X49694979Y-74990587D03*
%TO.N,NRST*%
X51816000Y-99568000D03*
X52832000Y-108712000D03*
%TO.N,C13*%
X51269362Y-97958021D03*
%TD*%
D25*
%TO.N,+3V3*%
X52324000Y-81214000D02*
X54272000Y-81214000D01*
X59182000Y-94004302D02*
X59182000Y-93726000D01*
X57916302Y-95270000D02*
X59182000Y-94004302D01*
X57081999Y-95270000D02*
X57916302Y-95270000D01*
X60232010Y-96834990D02*
X59907000Y-97160000D01*
X60232010Y-94776010D02*
X60232010Y-96834990D01*
X59907000Y-97160000D02*
X59182000Y-97160000D01*
X59182000Y-93726000D02*
X60232010Y-94776010D01*
X57081999Y-91828001D02*
X57470000Y-91440000D01*
X57081999Y-93770000D02*
X57081999Y-91828001D01*
X48072000Y-90170000D02*
X48072000Y-88138000D01*
X50082000Y-93104304D02*
X50169598Y-93191902D01*
X50082000Y-92270001D02*
X50082000Y-93104304D01*
X50082000Y-92180000D02*
X50082000Y-92270001D01*
X48072000Y-90170000D02*
X50082000Y-92180000D01*
X52324000Y-81214000D02*
X52324000Y-83312000D01*
X49276000Y-86934000D02*
X48072000Y-88138000D01*
X49276000Y-86360000D02*
X49276000Y-86934000D01*
X50079999Y-100772000D02*
X50082000Y-100769999D01*
X49596000Y-100772000D02*
X50079999Y-100772000D01*
X51054000Y-94076304D02*
X50169598Y-93191902D01*
X56432000Y-93770000D02*
X57081999Y-93770000D01*
X55853902Y-93191902D02*
X56432000Y-93770000D01*
X53556998Y-95270000D02*
X52805902Y-94518904D01*
X52805902Y-93191902D02*
X54894904Y-93191902D01*
X50169598Y-93191902D02*
X52805902Y-93191902D01*
X54894904Y-93191902D02*
X55144098Y-93191902D01*
X55144098Y-93191902D02*
X55144098Y-93563099D01*
X55144098Y-93191902D02*
X55853902Y-93191902D01*
X56359999Y-95769999D02*
X55860000Y-95270000D01*
X57081999Y-95769999D02*
X56359999Y-95769999D01*
X55860000Y-95270000D02*
X53556998Y-95270000D01*
X57081999Y-95270000D02*
X55860000Y-95270000D01*
X51915623Y-94076304D02*
X51054000Y-94076304D01*
X52805902Y-94518904D02*
X52354904Y-94518904D01*
X51915623Y-94079623D02*
X51915623Y-94076304D01*
X52354904Y-94518904D02*
X51915623Y-94079623D01*
X55398098Y-93563099D02*
X55880000Y-94045001D01*
X55144098Y-93563099D02*
X55398098Y-93563099D01*
X47818000Y-102550000D02*
X49596000Y-100772000D01*
X46482000Y-102550000D02*
X47818000Y-102550000D01*
X48582001Y-100449999D02*
X48582001Y-99270000D01*
X46482000Y-102550000D02*
X48582001Y-100449999D01*
X51054000Y-95250000D02*
X51054000Y-94076304D01*
X50395599Y-97691951D02*
X51054000Y-97033550D01*
X50395599Y-98128543D02*
X50395599Y-97691951D01*
X50131989Y-99474011D02*
X50131989Y-98392153D01*
X50131989Y-98392153D02*
X50395599Y-98128543D01*
X49596000Y-100010000D02*
X50131989Y-99474011D01*
X51054000Y-97033550D02*
X51054000Y-95250000D01*
X49596000Y-100772000D02*
X49596000Y-100010000D01*
X48100654Y-113984654D02*
X48100654Y-109625656D01*
X51094000Y-116978000D02*
X48100654Y-113984654D01*
X51094000Y-117278000D02*
X51094000Y-116978000D01*
X44829499Y-118997499D02*
X43942000Y-118110000D01*
X53759503Y-118997499D02*
X44829499Y-118997499D01*
X54419001Y-118338001D02*
X53759503Y-118997499D01*
X54419001Y-116217999D02*
X54419001Y-118338001D01*
X54354001Y-116152999D02*
X54419001Y-116217999D01*
X52219001Y-116152999D02*
X54354001Y-116152999D01*
X51094000Y-117278000D02*
X52219001Y-116152999D01*
X51448990Y-80338990D02*
X52324000Y-81214000D01*
X47467800Y-80338990D02*
X51448990Y-80338990D01*
X46980990Y-79852180D02*
X47467800Y-80338990D01*
X46980990Y-75428990D02*
X46980990Y-79852180D01*
X43942000Y-72390000D02*
X46980990Y-75428990D01*
X45976990Y-103055010D02*
X46482000Y-102550000D01*
X45976990Y-107501992D02*
X45976990Y-103055010D01*
X48100654Y-109625656D02*
X45976990Y-107501992D01*
%TO.N,+5V*%
X59690000Y-76962000D02*
X61722000Y-74930000D01*
X56563500Y-76962000D02*
X59690000Y-76962000D01*
X56563500Y-79222500D02*
X56472000Y-79314000D01*
X56563500Y-76962000D02*
X56563500Y-79222500D01*
X56472000Y-79314000D02*
X58420000Y-79314000D01*
X55616999Y-81138999D02*
X55692000Y-81214000D01*
X55616999Y-79389001D02*
X55616999Y-81138999D01*
X55692000Y-81214000D02*
X56472000Y-81214000D01*
X55692000Y-79314000D02*
X55616999Y-79389001D01*
X56472000Y-79314000D02*
X55692000Y-79314000D01*
%TO.N,A0*%
X52414626Y-98619315D02*
X52132228Y-98619315D01*
X53582001Y-99786690D02*
X52414626Y-98619315D01*
X53582001Y-100769999D02*
X53582001Y-99786690D01*
%TO.N,A1*%
X54082000Y-99033609D02*
X54069007Y-99020616D01*
X54082000Y-100769999D02*
X54082000Y-99033609D01*
%TO.N,A2*%
X55102003Y-99132999D02*
X55102003Y-99060000D01*
X54581999Y-99653003D02*
X55102003Y-99132999D01*
X54581999Y-100769999D02*
X54581999Y-99653003D01*
%TO.N,A3*%
X56081102Y-102616000D02*
X56896000Y-102616000D01*
X55082001Y-101616899D02*
X56081102Y-102616000D01*
X55082001Y-100769999D02*
X55082001Y-101616899D01*
%TO.N,A4*%
X56319999Y-100769999D02*
X56896000Y-101346000D01*
X55582000Y-100769999D02*
X56319999Y-100769999D01*
%TO.N,A5*%
X59758588Y-102870000D02*
X61722000Y-102870000D01*
X57081999Y-100193411D02*
X59758588Y-102870000D01*
X57081999Y-99270000D02*
X57081999Y-100193411D01*
%TO.N,A6*%
X60742999Y-101309001D02*
X61722000Y-100330000D01*
X58833999Y-101309001D02*
X60742999Y-101309001D01*
X58131990Y-100606992D02*
X58833999Y-101309001D01*
X58131990Y-98985689D02*
X58131990Y-100606992D01*
X57916302Y-98770001D02*
X58131990Y-98985689D01*
X57081999Y-98770001D02*
X57916302Y-98770001D01*
%TO.N,A7*%
X54123976Y-98269999D02*
X53872988Y-98019011D01*
X57081999Y-98269999D02*
X54123976Y-98269999D01*
%TO.N,A8*%
X53082000Y-88032037D02*
X53307000Y-87807037D01*
X53082000Y-92270001D02*
X53082000Y-88032037D01*
%TO.N,A9*%
X52582000Y-87092999D02*
X52806999Y-86868000D01*
X52582000Y-92270001D02*
X52582000Y-87092999D01*
%TO.N,A10*%
X52081999Y-86077001D02*
X52307000Y-85852000D01*
X52081999Y-92270001D02*
X52081999Y-86077001D01*
%TO.N,A11*%
X51582000Y-82720500D02*
X51582000Y-92270001D01*
X50978750Y-82117250D02*
X50546000Y-82550000D01*
X50038000Y-81176500D02*
X50978750Y-82117250D01*
X50978750Y-82117250D02*
X51582000Y-82720500D01*
%TO.N,A12*%
X51082001Y-84252501D02*
X51082001Y-92270001D01*
X50089750Y-84031556D02*
X50042653Y-84078653D01*
X50089750Y-83260250D02*
X50089750Y-84031556D01*
X48006000Y-81176500D02*
X50089750Y-83260250D01*
X50089750Y-83260250D02*
X51082001Y-84252501D01*
%TO.N,A13*%
X48582001Y-93770000D02*
X48582001Y-93286001D01*
X48582001Y-93286001D02*
X47244000Y-91948000D01*
X47244000Y-91948000D02*
X45720000Y-91948000D01*
X45154501Y-94037499D02*
X43942000Y-95250000D01*
X45154501Y-92513499D02*
X45154501Y-94037499D01*
X45720000Y-91948000D02*
X45154501Y-92513499D01*
%TO.N,A14*%
X47498000Y-94020301D02*
X47498000Y-92838410D01*
X47747698Y-94269999D02*
X47498000Y-94020301D01*
X48582001Y-94269999D02*
X47747698Y-94269999D01*
X47498000Y-92838410D02*
X47115590Y-92456000D01*
X47115590Y-92456000D02*
X45974000Y-92456000D01*
X45604511Y-96127489D02*
X43942000Y-97790000D01*
X45604511Y-92825489D02*
X45604511Y-96127489D01*
X45974000Y-92456000D02*
X45604511Y-92825489D01*
%TO.N,A15*%
X47611290Y-94770001D02*
X47047990Y-94206701D01*
X48582001Y-94770001D02*
X47611290Y-94770001D01*
X47047990Y-94206701D02*
X47047990Y-93024810D01*
X46987180Y-92964000D02*
X46102410Y-92964000D01*
X47047990Y-93024810D02*
X46987180Y-92964000D01*
X46054521Y-98217479D02*
X43942000Y-100330000D01*
X46054521Y-93011889D02*
X46054521Y-98217479D01*
X46102410Y-92964000D02*
X46054521Y-93011889D01*
%TO.N,B0*%
X52994844Y-97294010D02*
X52569076Y-97719778D01*
X54220989Y-97294010D02*
X52994844Y-97294010D01*
X54696979Y-97770000D02*
X54220989Y-97294010D01*
X57081999Y-97770000D02*
X54696979Y-97770000D01*
%TO.N,B1*%
X52000000Y-96844000D02*
X51816000Y-97028000D01*
X54407389Y-96844000D02*
X52000000Y-96844000D01*
X54833390Y-97270001D02*
X54407389Y-96844000D01*
X57081999Y-97270001D02*
X54833390Y-97270001D01*
%TO.N,B2*%
X57081999Y-96770000D02*
X54969799Y-96770000D01*
X54969799Y-96770000D02*
X54593789Y-96393990D01*
X52197990Y-96393990D02*
X51816000Y-96012000D01*
X54593789Y-96393990D02*
X52197990Y-96393990D01*
%TO.N,B3*%
X47053521Y-95270000D02*
X46779521Y-94996000D01*
X48582001Y-95270000D02*
X47053521Y-95270000D01*
%TO.N,B4*%
X49784000Y-95414900D02*
X49784000Y-94234000D01*
X49428901Y-95769999D02*
X49784000Y-95414900D01*
X48582001Y-95769999D02*
X49428901Y-95769999D01*
%TO.N,B5*%
X47167237Y-96270000D02*
X46848379Y-96588858D01*
X48582001Y-96270000D02*
X47167237Y-96270000D01*
%TO.N,B6*%
X49440437Y-96770000D02*
X49850938Y-96359499D01*
X48582001Y-96770000D02*
X49440437Y-96770000D01*
X47112347Y-110621653D02*
X46218694Y-109728000D01*
X47375653Y-110621653D02*
X47112347Y-110621653D01*
%TO.N,B7*%
X47155814Y-97270001D02*
X46837020Y-97588795D01*
X48582001Y-97270001D02*
X47155814Y-97270001D01*
%TO.N,B9*%
X47874000Y-85090000D02*
X48382000Y-84582000D01*
X43942000Y-85090000D02*
X47874000Y-85090000D01*
X47246990Y-85717010D02*
X48382000Y-84582000D01*
X47246990Y-90883180D02*
X47246990Y-85717010D01*
X49503902Y-93140092D02*
X47246990Y-90883180D01*
X47498000Y-91134190D02*
X47246990Y-90883180D01*
X47498000Y-91156714D02*
X47498000Y-91134190D01*
X50603990Y-94262704D02*
X47498000Y-91156714D01*
X50603990Y-96847150D02*
X50603990Y-94262704D01*
X49945589Y-97505551D02*
X50603990Y-96847150D01*
X49945589Y-97942143D02*
X49945589Y-97505551D01*
X49617733Y-98269999D02*
X49945589Y-97942143D01*
X48582001Y-98269999D02*
X49617733Y-98269999D01*
%TO.N,B10*%
X57081999Y-94770001D02*
X54130001Y-94770001D01*
X54130001Y-94770001D02*
X53340000Y-93980000D01*
%TO.N,B11*%
X58588020Y-88985980D02*
X59182000Y-88392000D01*
X58588020Y-89016240D02*
X58588020Y-88985980D01*
X55582000Y-91153400D02*
X57122380Y-89613020D01*
X57991241Y-89613019D02*
X58588020Y-89016240D01*
X57122380Y-89613020D02*
X57991241Y-89613019D01*
X55582000Y-92270001D02*
X55582000Y-91153400D01*
%TO.N,B12*%
X58456999Y-87730249D02*
X58627299Y-87559949D01*
X56846160Y-89163010D02*
X57804840Y-89163010D01*
X55082001Y-90927169D02*
X56846160Y-89163010D01*
X55082001Y-92270001D02*
X55082001Y-90927169D01*
X57804840Y-89163010D02*
X58138010Y-88829840D01*
X58138010Y-88049238D02*
X58627299Y-87559949D01*
X58138010Y-88829840D02*
X58138010Y-88049238D01*
%TO.N,B13*%
X56206999Y-83747001D02*
X57150000Y-82804000D01*
X56206999Y-85392001D02*
X56206999Y-83747001D01*
X56271999Y-85457001D02*
X56206999Y-85392001D01*
X56271999Y-88820851D02*
X56271999Y-85457001D01*
X54581999Y-90510851D02*
X56271999Y-88820851D01*
X54581999Y-92270001D02*
X54581999Y-90510851D01*
%TO.N,B14*%
X54082000Y-89889953D02*
X54307001Y-89664952D01*
X54082000Y-92270001D02*
X54082000Y-89889953D01*
%TO.N,B15*%
X53582001Y-88978207D02*
X53807000Y-88753208D01*
X53582001Y-92270001D02*
X53582001Y-88978207D01*
%TO.N,GND*%
X46230990Y-101023010D02*
X46482000Y-100772000D01*
X58574000Y-105752000D02*
X58674000Y-105852000D01*
X56472000Y-105752000D02*
X58574000Y-105752000D01*
X56472000Y-107546000D02*
X56322000Y-107696000D01*
X56472000Y-105752000D02*
X56472000Y-107546000D01*
X57470000Y-80264000D02*
X58420000Y-81214000D01*
X56472000Y-80264000D02*
X57470000Y-80264000D01*
X58131990Y-98009990D02*
X59182000Y-99060000D01*
X58131990Y-96485689D02*
X58131990Y-98009990D01*
X57916301Y-96270000D02*
X58131990Y-96485689D01*
X57081999Y-96270000D02*
X57916301Y-96270000D01*
X58538000Y-96270000D02*
X59182000Y-95626000D01*
X57081999Y-96270000D02*
X58538000Y-96270000D01*
X59182000Y-99060000D02*
X59182000Y-100584000D01*
X58131990Y-92678010D02*
X59370000Y-91440000D01*
X58131990Y-94054311D02*
X58131990Y-92678010D01*
X57916302Y-94269999D02*
X58131990Y-94054311D01*
X57081999Y-94269999D02*
X57916302Y-94269999D01*
X49972000Y-88138000D02*
X49972000Y-90170000D01*
X50581999Y-90779999D02*
X50581999Y-92270001D01*
X49972000Y-90170000D02*
X50581999Y-90779999D01*
X52324000Y-78486000D02*
X52832000Y-77978000D01*
X52324000Y-79314000D02*
X52324000Y-78486000D01*
X43990001Y-74978001D02*
X43942000Y-74930000D01*
X51786000Y-74793002D02*
X51601001Y-74978001D01*
X51786000Y-74348000D02*
X51786000Y-74793002D01*
X57769999Y-81864001D02*
X58420000Y-81214000D01*
X55705591Y-81864001D02*
X57769999Y-81864001D01*
X55166989Y-80668987D02*
X55166990Y-81325400D01*
X55062001Y-80563999D02*
X55166989Y-80668987D01*
X53573999Y-80563999D02*
X55062001Y-80563999D01*
X52324000Y-79314000D02*
X53573999Y-80563999D01*
X50292000Y-87818000D02*
X49972000Y-88138000D01*
X50292000Y-86614000D02*
X50292000Y-87818000D01*
X57658000Y-107696000D02*
X56322000Y-107696000D01*
X56919001Y-108293001D02*
X56322000Y-107696000D01*
X56094000Y-117278000D02*
X56919001Y-116452999D01*
X54882000Y-112306000D02*
X50782000Y-112306000D01*
X56858000Y-112306000D02*
X56919001Y-112244999D01*
X54882000Y-112306000D02*
X56858000Y-112306000D01*
X56919001Y-116452999D02*
X56919001Y-112244999D01*
X54384809Y-109196999D02*
X56919001Y-109196999D01*
X53174809Y-107986999D02*
X54384809Y-109196999D01*
X51664999Y-107986999D02*
X53174809Y-107986999D01*
X50358000Y-106680000D02*
X51664999Y-107986999D01*
X56919001Y-109196999D02*
X56919001Y-108293001D01*
X56919001Y-112244999D02*
X56919001Y-109196999D01*
X55450500Y-81608910D02*
X55373795Y-81532205D01*
X55450500Y-88138000D02*
X55450500Y-81608910D01*
X55373795Y-81532205D02*
X55705591Y-81864001D01*
X55166990Y-81325400D02*
X55373795Y-81532205D01*
X48768000Y-106868000D02*
X48956000Y-106680000D01*
X55297090Y-81608910D02*
X55450500Y-81608910D01*
X52324000Y-84582000D02*
X55297090Y-81608910D01*
X58420000Y-81214000D02*
X59944000Y-82738000D01*
X59944000Y-90866000D02*
X59370000Y-91440000D01*
X59944000Y-82738000D02*
X59944000Y-90866000D01*
X55106209Y-96270000D02*
X54780189Y-95943980D01*
X54780189Y-95943980D02*
X53594568Y-95943980D01*
X57081999Y-96270000D02*
X55106209Y-96270000D01*
X52663271Y-95012683D02*
X51779000Y-95012683D01*
X53594568Y-95943980D02*
X52663271Y-95012683D01*
X47747698Y-98770001D02*
X48582001Y-98770001D01*
X46482000Y-100035699D02*
X47747698Y-98770001D01*
X46482000Y-100650000D02*
X46482000Y-100035699D01*
X46966653Y-100165347D02*
X46482000Y-100650000D01*
X47841347Y-100165347D02*
X46966653Y-100165347D01*
X60890000Y-117278000D02*
X61722000Y-118110000D01*
X56094000Y-117278000D02*
X60890000Y-117278000D01*
X51588415Y-74990587D02*
X49694979Y-74990587D01*
X51786000Y-74793002D02*
X51588415Y-74990587D01*
X48702000Y-106680000D02*
X50358000Y-106680000D01*
X48006000Y-107376000D02*
X48702000Y-106680000D01*
X48006000Y-108458000D02*
X48006000Y-107376000D01*
%TO.N,OSC32_IN*%
X48280000Y-104282489D02*
X48280000Y-104394000D01*
X51082001Y-101480488D02*
X48280000Y-104282489D01*
X51082001Y-100769999D02*
X51082001Y-101480488D01*
X46802000Y-105872000D02*
X48280000Y-104394000D01*
X46802000Y-106680000D02*
X46802000Y-105872000D01*
%TO.N,OSC32_OUT*%
X50780000Y-102418899D02*
X50780000Y-104394000D01*
X51582000Y-101616899D02*
X50780000Y-102418899D01*
X51582000Y-100769999D02*
X51582000Y-101616899D01*
X51896190Y-106680000D02*
X52258000Y-106680000D01*
X50780000Y-105563810D02*
X51896190Y-106680000D01*
X50780000Y-104394000D02*
X50780000Y-105563810D01*
%TO.N,OSC_IN*%
X54422000Y-105902000D02*
X54272000Y-105752000D01*
X54422000Y-107696000D02*
X54422000Y-105902000D01*
X52081999Y-100769999D02*
X52081999Y-102119999D01*
X53246999Y-105676999D02*
X53322000Y-105752000D01*
X53246999Y-103284999D02*
X53246999Y-105676999D01*
X53322000Y-105752000D02*
X54272000Y-105752000D01*
X52081999Y-102119999D02*
X53246999Y-103284999D01*
%TO.N,OSC_OUT*%
X55546999Y-103126999D02*
X56472000Y-104052000D01*
X54092100Y-103126999D02*
X55546999Y-103126999D01*
X52582000Y-101616899D02*
X54092100Y-103126999D01*
X52582000Y-100769999D02*
X52582000Y-101616899D01*
X58574000Y-104052000D02*
X58674000Y-103952000D01*
X56472000Y-104052000D02*
X58574000Y-104052000D01*
%TO.N,NRST*%
X52726901Y-99568000D02*
X51816000Y-99568000D01*
X53082000Y-99923099D02*
X52726901Y-99568000D01*
X53082000Y-100769999D02*
X53082000Y-99923099D01*
X50782000Y-110706000D02*
X54882000Y-110706000D01*
X52026000Y-108712000D02*
X52832000Y-108712000D01*
X50782000Y-109956000D02*
X52026000Y-108712000D01*
X50782000Y-110706000D02*
X50782000Y-109956000D01*
%TO.N,Net-(D1-Pad2)*%
X57325500Y-84625500D02*
X57282000Y-84582000D01*
X57325500Y-88138000D02*
X57325500Y-84625500D01*
%TO.N,VCC*%
X54386000Y-76659500D02*
X54688500Y-76962000D01*
X54386000Y-74348000D02*
X54386000Y-76659500D01*
%TO.N,Net-(J1-Pad6)*%
X50766000Y-72893000D02*
X51961000Y-71698000D01*
X50766000Y-73928000D02*
X50766000Y-72893000D01*
X51961000Y-71698000D02*
X54211000Y-71698000D01*
X54211000Y-71698000D02*
X56661000Y-71698000D01*
X51961000Y-71698000D02*
X49511000Y-71698000D01*
X55406000Y-72893000D02*
X54211000Y-71698000D01*
X55406000Y-73928000D02*
X55406000Y-72893000D01*
%TO.N,D+*%
X53086000Y-75433000D02*
X53086000Y-74348000D01*
X50005010Y-78513990D02*
X53086000Y-75433000D01*
X48843510Y-78513990D02*
X50005010Y-78513990D01*
X48006000Y-79351500D02*
X48843510Y-78513990D01*
%TO.N,D-*%
X53736000Y-75653500D02*
X53736000Y-74348000D01*
X50038000Y-79351500D02*
X53736000Y-75653500D01*
%TO.N,C13*%
X50581999Y-100769999D02*
X50581999Y-98578553D01*
X51027447Y-98578553D02*
X51562000Y-98044000D01*
X50581999Y-98578553D02*
X51027447Y-98578553D01*
%TO.N,BOOT0*%
X47498000Y-115165500D02*
X45431990Y-113099490D01*
X45431990Y-100073111D02*
X45431990Y-113099490D01*
X47735101Y-97770000D02*
X45431990Y-100073111D01*
X48582001Y-97770000D02*
X47735101Y-97770000D01*
%TO.N,Net-(R3-Pad1)*%
X52468999Y-118403001D02*
X53594000Y-117278000D01*
X48910501Y-118403001D02*
X52468999Y-118403001D01*
X47498000Y-116990500D02*
X48910501Y-118403001D01*
%TD*%
M02*
