%TF.GenerationSoftware,KiCad,Pcbnew,(6.0.6)*%
%TF.CreationDate,2022-07-30T22:38:46-07:00*%
%TF.ProjectId,ManySegDisplayController,4d616e79-5365-4674-9469-73706c617943,rev?*%
%TF.SameCoordinates,Original*%
%TF.FileFunction,Soldermask,Top*%
%TF.FilePolarity,Negative*%
%FSLAX46Y46*%
G04 Gerber Fmt 4.6, Leading zero omitted, Abs format (unit mm)*
G04 Created by KiCad (PCBNEW (6.0.6)) date 2022-07-30 22:38:46*
%MOMM*%
%LPD*%
G01*
G04 APERTURE LIST*
G04 Aperture macros list*
%AMRoundRect*
0 Rectangle with rounded corners*
0 $1 Rounding radius*
0 $2 $3 $4 $5 $6 $7 $8 $9 X,Y pos of 4 corners*
0 Add a 4 corners polygon primitive as box body*
4,1,4,$2,$3,$4,$5,$6,$7,$8,$9,$2,$3,0*
0 Add four circle primitives for the rounded corners*
1,1,$1+$1,$2,$3*
1,1,$1+$1,$4,$5*
1,1,$1+$1,$6,$7*
1,1,$1+$1,$8,$9*
0 Add four rect primitives between the rounded corners*
20,1,$1+$1,$2,$3,$4,$5,0*
20,1,$1+$1,$4,$5,$6,$7,0*
20,1,$1+$1,$6,$7,$8,$9,0*
20,1,$1+$1,$8,$9,$2,$3,0*%
G04 Aperture macros list end*
%ADD10RoundRect,0.250000X-0.250000X-0.475000X0.250000X-0.475000X0.250000X0.475000X-0.250000X0.475000X0*%
%ADD11R,1.700000X1.700000*%
%ADD12O,1.700000X1.700000*%
%ADD13R,1.400000X0.400000*%
%ADD14R,1.900000X1.750000*%
%ADD15R,1.450000X1.150000*%
%ADD16O,1.900000X1.050000*%
%ADD17R,1.000000X1.600000*%
%ADD18R,1.100000X1.500000*%
%ADD19R,1.060000X0.650000*%
%ADD20RoundRect,0.250000X-0.262500X-0.450000X0.262500X-0.450000X0.262500X0.450000X-0.262500X0.450000X0*%
%ADD21R,0.900000X1.000000*%
%ADD22R,1.700000X0.550000*%
%ADD23RoundRect,0.250000X0.475000X-0.250000X0.475000X0.250000X-0.475000X0.250000X-0.475000X-0.250000X0*%
%ADD24RoundRect,0.250000X-0.475000X0.250000X-0.475000X-0.250000X0.475000X-0.250000X0.475000X0.250000X0*%
%ADD25RoundRect,0.250000X0.250000X0.475000X-0.250000X0.475000X-0.250000X-0.475000X0.250000X-0.475000X0*%
%ADD26R,1.193800X0.304800*%
%ADD27R,0.304800X1.193800*%
%ADD28R,1.000000X1.150000*%
%ADD29RoundRect,0.250000X0.450000X-0.262500X0.450000X0.262500X-0.450000X0.262500X-0.450000X-0.262500X0*%
%ADD30R,1.800000X1.000000*%
G04 APERTURE END LIST*
D10*
%TO.C,C20*%
X130800000Y-77750000D03*
X132700000Y-77750000D03*
%TD*%
%TO.C,C21*%
X130800000Y-71750000D03*
X132700000Y-71750000D03*
%TD*%
D11*
%TO.C,J1*%
X126920000Y-85750000D03*
D12*
X129460000Y-85750000D03*
X132000000Y-85750000D03*
X134540000Y-85750000D03*
X137080000Y-85750000D03*
X139620000Y-85750000D03*
X142160000Y-85750000D03*
X144700000Y-85750000D03*
X147240000Y-85750000D03*
X149780000Y-85750000D03*
X152320000Y-85750000D03*
X154860000Y-85750000D03*
X157400000Y-85750000D03*
X159940000Y-85750000D03*
X162480000Y-85750000D03*
X165020000Y-85750000D03*
X167560000Y-85750000D03*
X170100000Y-85750000D03*
%TD*%
D13*
%TO.C,J10*%
X126880000Y-74040000D03*
X126880000Y-74690000D03*
X126880000Y-75340000D03*
X126880000Y-75990000D03*
X126880000Y-76640000D03*
D14*
X124230000Y-74215000D03*
D15*
X126460000Y-77660000D03*
X126460000Y-73020000D03*
D16*
X124230000Y-78915000D03*
X124230000Y-71765000D03*
D14*
X124230000Y-76465000D03*
%TD*%
D17*
%TO.C,SW2*%
X144250000Y-68300000D03*
X141750000Y-68300000D03*
X139250000Y-68300000D03*
X144250000Y-70700000D03*
X141750000Y-70700000D03*
X139250000Y-70700000D03*
%TD*%
D18*
%TO.C,SW10*%
X145250000Y-73550000D03*
X145250000Y-82450000D03*
%TD*%
%TO.C,SW11*%
X140990000Y-73510000D03*
X140990000Y-82410000D03*
%TD*%
%TO.C,SW12*%
X136750000Y-73540000D03*
X136750000Y-82440000D03*
%TD*%
D19*
%TO.C,U10*%
X130650000Y-73800000D03*
X130650000Y-74750000D03*
X130650000Y-75700000D03*
X132850000Y-75700000D03*
X132850000Y-73800000D03*
%TD*%
D20*
%TO.C,R1*%
X130837500Y-80000000D03*
X132662500Y-80000000D03*
%TD*%
%TO.C,R2*%
X130837500Y-82000000D03*
X132662500Y-82000000D03*
%TD*%
D11*
%TO.C,J2*%
X126750000Y-68000000D03*
D12*
X129290000Y-68000000D03*
X131830000Y-68000000D03*
X134370000Y-68000000D03*
%TD*%
D21*
%TO.C,SW1*%
X162950000Y-82550000D03*
X167050000Y-82550000D03*
X167050000Y-80950000D03*
X162950000Y-80950000D03*
D22*
X165000000Y-83175000D03*
%TD*%
D10*
%TO.C,C1*%
X162990000Y-78950000D03*
X164890000Y-78950000D03*
%TD*%
D23*
%TO.C,C4*%
X163100000Y-74560000D03*
X163100000Y-72660000D03*
%TD*%
%TO.C,C13*%
X149250000Y-82950000D03*
X149250000Y-81050000D03*
%TD*%
D24*
%TO.C,C11*%
X158250000Y-81050000D03*
X158250000Y-82950000D03*
%TD*%
D23*
%TO.C,C12*%
X149250000Y-71450000D03*
X149250000Y-69550000D03*
%TD*%
D10*
%TO.C,C15*%
X152050000Y-70000000D03*
X153950000Y-70000000D03*
%TD*%
D25*
%TO.C,C16*%
X157450000Y-67750000D03*
X155550000Y-67750000D03*
%TD*%
%TO.C,C10*%
X156200000Y-82750000D03*
X154300000Y-82750000D03*
%TD*%
D10*
%TO.C,C17*%
X152050000Y-67750000D03*
X153950000Y-67750000D03*
%TD*%
D24*
%TO.C,C30*%
X160500000Y-81050000D03*
X160500000Y-82950000D03*
%TD*%
D25*
%TO.C,C2*%
X164880000Y-76410000D03*
X162980000Y-76410000D03*
%TD*%
D10*
%TO.C,C3*%
X159350000Y-70820000D03*
X161250000Y-70820000D03*
%TD*%
D25*
%TO.C,C14*%
X157450000Y-70000000D03*
X155550000Y-70000000D03*
%TD*%
D26*
%TO.C,U1*%
X157899999Y-79030000D03*
X157899999Y-78530001D03*
X157899999Y-78029999D03*
X157899999Y-77530000D03*
X157899999Y-77030001D03*
X157899999Y-76530000D03*
X157899999Y-76030000D03*
X157899999Y-75529999D03*
X157899999Y-75030000D03*
X157899999Y-74530001D03*
X157899999Y-74029999D03*
X157899999Y-73530000D03*
D27*
X156400000Y-72030001D03*
X155900001Y-72030001D03*
X155399999Y-72030001D03*
X154900000Y-72030001D03*
X154400001Y-72030001D03*
X153900000Y-72030001D03*
X153400000Y-72030001D03*
X152899999Y-72030001D03*
X152400000Y-72030001D03*
X151900001Y-72030001D03*
X151399999Y-72030001D03*
X150900000Y-72030001D03*
D26*
X149400001Y-73530000D03*
X149400001Y-74029999D03*
X149400001Y-74530001D03*
X149400001Y-75030000D03*
X149400001Y-75529999D03*
X149400001Y-76030000D03*
X149400001Y-76530000D03*
X149400001Y-77030001D03*
X149400001Y-77530000D03*
X149400001Y-78029999D03*
X149400001Y-78530001D03*
X149400001Y-79030000D03*
D27*
X150900000Y-80529999D03*
X151399999Y-80529999D03*
X151900001Y-80529999D03*
X152400000Y-80529999D03*
X152899999Y-80529999D03*
X153400000Y-80529999D03*
X153900000Y-80529999D03*
X154400001Y-80529999D03*
X154900000Y-80529999D03*
X155399999Y-80529999D03*
X155900001Y-80529999D03*
X156400000Y-80529999D03*
%TD*%
D28*
%TO.C,Y2*%
X159760000Y-72755000D03*
X159760000Y-74505000D03*
X161160000Y-74505000D03*
X161160000Y-72755000D03*
%TD*%
D20*
%TO.C,R10*%
X166587500Y-73750000D03*
X168412500Y-73750000D03*
%TD*%
D29*
%TO.C,R20*%
X167470000Y-70132500D03*
X167470000Y-68307500D03*
%TD*%
%TO.C,R21*%
X165170000Y-70172500D03*
X165170000Y-68347500D03*
%TD*%
D30*
%TO.C,Y1*%
X160810000Y-78850000D03*
X160810000Y-76350000D03*
%TD*%
M02*
