%TF.GenerationSoftware,KiCad,Pcbnew,(6.0.6)*%
%TF.CreationDate,2022-07-30T22:38:46-07:00*%
%TF.ProjectId,ManySegDisplayController,4d616e79-5365-4674-9469-73706c617943,rev?*%
%TF.SameCoordinates,Original*%
%TF.FileFunction,Copper,L1,Top*%
%TF.FilePolarity,Positive*%
%FSLAX46Y46*%
G04 Gerber Fmt 4.6, Leading zero omitted, Abs format (unit mm)*
G04 Created by KiCad (PCBNEW (6.0.6)) date 2022-07-30 22:38:46*
%MOMM*%
%LPD*%
G01*
G04 APERTURE LIST*
G04 Aperture macros list*
%AMRoundRect*
0 Rectangle with rounded corners*
0 $1 Rounding radius*
0 $2 $3 $4 $5 $6 $7 $8 $9 X,Y pos of 4 corners*
0 Add a 4 corners polygon primitive as box body*
4,1,4,$2,$3,$4,$5,$6,$7,$8,$9,$2,$3,0*
0 Add four circle primitives for the rounded corners*
1,1,$1+$1,$2,$3*
1,1,$1+$1,$4,$5*
1,1,$1+$1,$6,$7*
1,1,$1+$1,$8,$9*
0 Add four rect primitives between the rounded corners*
20,1,$1+$1,$2,$3,$4,$5,0*
20,1,$1+$1,$4,$5,$6,$7,0*
20,1,$1+$1,$6,$7,$8,$9,0*
20,1,$1+$1,$8,$9,$2,$3,0*%
G04 Aperture macros list end*
%TA.AperFunction,SMDPad,CuDef*%
%ADD10RoundRect,0.250000X-0.250000X-0.475000X0.250000X-0.475000X0.250000X0.475000X-0.250000X0.475000X0*%
%TD*%
%TA.AperFunction,ComponentPad*%
%ADD11R,1.700000X1.700000*%
%TD*%
%TA.AperFunction,ComponentPad*%
%ADD12O,1.700000X1.700000*%
%TD*%
%TA.AperFunction,SMDPad,CuDef*%
%ADD13R,1.400000X0.400000*%
%TD*%
%TA.AperFunction,SMDPad,CuDef*%
%ADD14R,1.900000X1.750000*%
%TD*%
%TA.AperFunction,SMDPad,CuDef*%
%ADD15R,1.450000X1.150000*%
%TD*%
%TA.AperFunction,ComponentPad*%
%ADD16O,1.900000X1.050000*%
%TD*%
%TA.AperFunction,SMDPad,CuDef*%
%ADD17R,1.000000X1.600000*%
%TD*%
%TA.AperFunction,SMDPad,CuDef*%
%ADD18R,1.100000X1.500000*%
%TD*%
%TA.AperFunction,SMDPad,CuDef*%
%ADD19R,1.060000X0.650000*%
%TD*%
%TA.AperFunction,SMDPad,CuDef*%
%ADD20RoundRect,0.250000X-0.262500X-0.450000X0.262500X-0.450000X0.262500X0.450000X-0.262500X0.450000X0*%
%TD*%
%TA.AperFunction,SMDPad,CuDef*%
%ADD21R,0.900000X1.000000*%
%TD*%
%TA.AperFunction,SMDPad,CuDef*%
%ADD22R,1.700000X0.550000*%
%TD*%
%TA.AperFunction,SMDPad,CuDef*%
%ADD23RoundRect,0.250000X0.475000X-0.250000X0.475000X0.250000X-0.475000X0.250000X-0.475000X-0.250000X0*%
%TD*%
%TA.AperFunction,SMDPad,CuDef*%
%ADD24RoundRect,0.250000X-0.475000X0.250000X-0.475000X-0.250000X0.475000X-0.250000X0.475000X0.250000X0*%
%TD*%
%TA.AperFunction,SMDPad,CuDef*%
%ADD25RoundRect,0.250000X0.250000X0.475000X-0.250000X0.475000X-0.250000X-0.475000X0.250000X-0.475000X0*%
%TD*%
%TA.AperFunction,SMDPad,CuDef*%
%ADD26R,1.193800X0.304800*%
%TD*%
%TA.AperFunction,SMDPad,CuDef*%
%ADD27R,0.304800X1.193800*%
%TD*%
%TA.AperFunction,SMDPad,CuDef*%
%ADD28R,1.000000X1.150000*%
%TD*%
%TA.AperFunction,SMDPad,CuDef*%
%ADD29RoundRect,0.250000X0.450000X-0.262500X0.450000X0.262500X-0.450000X0.262500X-0.450000X-0.262500X0*%
%TD*%
%TA.AperFunction,SMDPad,CuDef*%
%ADD30R,1.800000X1.000000*%
%TD*%
%TA.AperFunction,ViaPad*%
%ADD31C,0.600000*%
%TD*%
%TA.AperFunction,Conductor*%
%ADD32C,0.250000*%
%TD*%
%TA.AperFunction,Conductor*%
%ADD33C,0.200000*%
%TD*%
G04 APERTURE END LIST*
D10*
%TO.P,C20,1*%
%TO.N,+5V*%
X130800000Y-77750000D03*
%TO.P,C20,2*%
%TO.N,GND*%
X132700000Y-77750000D03*
%TD*%
%TO.P,C21,1*%
%TO.N,GND*%
X130800000Y-71750000D03*
%TO.P,C21,2*%
%TO.N,+3V3*%
X132700000Y-71750000D03*
%TD*%
D11*
%TO.P,J1,1*%
%TO.N,Net-(J1-Pad1)*%
X126920000Y-85750000D03*
D12*
%TO.P,J1,2*%
%TO.N,Net-(J1-Pad2)*%
X129460000Y-85750000D03*
%TO.P,J1,3*%
%TO.N,Net-(J1-Pad3)*%
X132000000Y-85750000D03*
%TO.P,J1,4*%
%TO.N,AD0*%
X134540000Y-85750000D03*
%TO.P,J1,5*%
%TO.N,AD1*%
X137080000Y-85750000D03*
%TO.P,J1,6*%
%TO.N,AD2*%
X139620000Y-85750000D03*
%TO.P,J1,7*%
%TO.N,AD3*%
X142160000Y-85750000D03*
%TO.P,J1,8*%
%TO.N,AD4*%
X144700000Y-85750000D03*
%TO.P,J1,9*%
%TO.N,AD5*%
X147240000Y-85750000D03*
%TO.P,J1,10*%
%TO.N,AD6*%
X149780000Y-85750000D03*
%TO.P,J1,11*%
%TO.N,PD0*%
X152320000Y-85750000D03*
%TO.P,J1,12*%
%TO.N,PD1*%
X154860000Y-85750000D03*
%TO.P,J1,13*%
%TO.N,PD2*%
X157400000Y-85750000D03*
%TO.P,J1,14*%
%TO.N,PD3*%
X159940000Y-85750000D03*
%TO.P,J1,15*%
%TO.N,PD4*%
X162480000Y-85750000D03*
%TO.P,J1,16*%
%TO.N,PD5*%
X165020000Y-85750000D03*
%TO.P,J1,17*%
%TO.N,PD6*%
X167560000Y-85750000D03*
%TO.P,J1,18*%
%TO.N,PD7*%
X170100000Y-85750000D03*
%TD*%
D13*
%TO.P,J10,1*%
%TO.N,+5V*%
X126880000Y-74040000D03*
%TO.P,J10,2*%
%TO.N,Net-(J10-Pad2)*%
X126880000Y-74690000D03*
%TO.P,J10,3*%
%TO.N,Net-(J10-Pad3)*%
X126880000Y-75340000D03*
%TO.P,J10,4*%
%TO.N,Net-(J10-Pad4)*%
X126880000Y-75990000D03*
%TO.P,J10,5*%
%TO.N,GND*%
X126880000Y-76640000D03*
D14*
%TO.P,J10,6*%
%TO.N,Net-(J10-Pad6)*%
X124230000Y-74215000D03*
D15*
X126460000Y-77660000D03*
X126460000Y-73020000D03*
D16*
X124230000Y-78915000D03*
X124230000Y-71765000D03*
D14*
X124230000Y-76465000D03*
%TD*%
D17*
%TO.P,SW2,1*%
%TO.N,GND*%
X144250000Y-68300000D03*
%TO.P,SW2,2*%
%TO.N,Net-(R10-Pad2)*%
X141750000Y-68300000D03*
%TO.P,SW2,3*%
%TO.N,+3V3*%
X139250000Y-68300000D03*
%TO.P,SW2,5*%
%TO.N,N/C*%
X144250000Y-70700000D03*
%TO.P,SW2,6*%
X141750000Y-70700000D03*
%TO.P,SW2,7*%
X139250000Y-70700000D03*
%TD*%
D18*
%TO.P,SW10,1*%
%TO.N,GND*%
X145250000Y-73550000D03*
%TO.P,SW10,2*%
%TO.N,Net-(J1-Pad3)*%
X145250000Y-82450000D03*
%TD*%
%TO.P,SW11,1*%
%TO.N,+3V3*%
X140990000Y-73510000D03*
%TO.P,SW11,2*%
%TO.N,Net-(J1-Pad2)*%
X140990000Y-82410000D03*
%TD*%
%TO.P,SW12,1*%
%TO.N,+5V*%
X136750000Y-73540000D03*
%TO.P,SW12,2*%
%TO.N,Net-(J1-Pad1)*%
X136750000Y-82440000D03*
%TD*%
D19*
%TO.P,U10,1*%
%TO.N,+5V*%
X130650000Y-73800000D03*
%TO.P,U10,2*%
%TO.N,GND*%
X130650000Y-74750000D03*
%TO.P,U10,3*%
%TO.N,+5V*%
X130650000Y-75700000D03*
%TO.P,U10,4*%
%TO.N,Net-(U10-Pad4)*%
X132850000Y-75700000D03*
%TO.P,U10,5*%
%TO.N,+3V3*%
X132850000Y-73800000D03*
%TD*%
D20*
%TO.P,R1,1*%
%TO.N,Net-(J10-Pad2)*%
X130837500Y-80000000D03*
%TO.P,R1,2*%
%TO.N,D-*%
X132662500Y-80000000D03*
%TD*%
%TO.P,R2,1*%
%TO.N,Net-(J10-Pad3)*%
X130837500Y-82000000D03*
%TO.P,R2,2*%
%TO.N,D+*%
X132662500Y-82000000D03*
%TD*%
D11*
%TO.P,J2,1*%
%TO.N,+5V*%
X126750000Y-68000000D03*
D12*
%TO.P,J2,2*%
%TO.N,SCL*%
X129290000Y-68000000D03*
%TO.P,J2,3*%
%TO.N,SDA*%
X131830000Y-68000000D03*
%TO.P,J2,4*%
%TO.N,GND*%
X134370000Y-68000000D03*
%TD*%
D21*
%TO.P,SW1,1*%
%TO.N,Net-(C30-Pad1)*%
X162950000Y-82550000D03*
X167050000Y-82550000D03*
%TO.P,SW1,2*%
%TO.N,GND*%
X167050000Y-80950000D03*
X162950000Y-80950000D03*
D22*
%TO.P,SW1,3*%
%TO.N,N/C*%
X165000000Y-83175000D03*
%TD*%
D10*
%TO.P,C1,1*%
%TO.N,Net-(C1-Pad1)*%
X162990000Y-78950000D03*
%TO.P,C1,2*%
%TO.N,GND*%
X164890000Y-78950000D03*
%TD*%
D23*
%TO.P,C4,1*%
%TO.N,Net-(C4-Pad1)*%
X163100000Y-74560000D03*
%TO.P,C4,2*%
%TO.N,GND*%
X163100000Y-72660000D03*
%TD*%
%TO.P,C13,1*%
%TO.N,+3V3*%
X149250000Y-82950000D03*
%TO.P,C13,2*%
%TO.N,GND*%
X149250000Y-81050000D03*
%TD*%
D24*
%TO.P,C11,1*%
%TO.N,+3V3*%
X158250000Y-81050000D03*
%TO.P,C11,2*%
%TO.N,GND*%
X158250000Y-82950000D03*
%TD*%
D23*
%TO.P,C12,1*%
%TO.N,+3V3*%
X149250000Y-71450000D03*
%TO.P,C12,2*%
%TO.N,GND*%
X149250000Y-69550000D03*
%TD*%
D10*
%TO.P,C15,1*%
%TO.N,+3V3*%
X152050000Y-70000000D03*
%TO.P,C15,2*%
%TO.N,GND*%
X153950000Y-70000000D03*
%TD*%
D25*
%TO.P,C16,1*%
%TO.N,+3V3*%
X157450000Y-67750000D03*
%TO.P,C16,2*%
%TO.N,GND*%
X155550000Y-67750000D03*
%TD*%
%TO.P,C10,1*%
%TO.N,+3V3*%
X156200000Y-82750000D03*
%TO.P,C10,2*%
%TO.N,GND*%
X154300000Y-82750000D03*
%TD*%
D10*
%TO.P,C17,1*%
%TO.N,+3V3*%
X152050000Y-67750000D03*
%TO.P,C17,2*%
%TO.N,GND*%
X153950000Y-67750000D03*
%TD*%
D24*
%TO.P,C30,1*%
%TO.N,Net-(C30-Pad1)*%
X160500000Y-81050000D03*
%TO.P,C30,2*%
%TO.N,GND*%
X160500000Y-82950000D03*
%TD*%
D25*
%TO.P,C2,1*%
%TO.N,GND*%
X164880000Y-76410000D03*
%TO.P,C2,2*%
%TO.N,Net-(C2-Pad2)*%
X162980000Y-76410000D03*
%TD*%
D10*
%TO.P,C3,1*%
%TO.N,Net-(C3-Pad1)*%
X159350000Y-70820000D03*
%TO.P,C3,2*%
%TO.N,GND*%
X161250000Y-70820000D03*
%TD*%
D25*
%TO.P,C14,1*%
%TO.N,+3V3*%
X157450000Y-70000000D03*
%TO.P,C14,2*%
%TO.N,GND*%
X155550000Y-70000000D03*
%TD*%
D26*
%TO.P,U1,1*%
%TO.N,+3V3*%
X157899999Y-79030000D03*
%TO.P,U1,2*%
%TO.N,Net-(U1-Pad2)*%
X157899999Y-78530001D03*
%TO.P,U1,3*%
%TO.N,Net-(C1-Pad1)*%
X157899999Y-78029999D03*
%TO.P,U1,4*%
%TO.N,Net-(C2-Pad2)*%
X157899999Y-77530000D03*
%TO.P,U1,5*%
%TO.N,Net-(C4-Pad1)*%
X157899999Y-77030001D03*
%TO.P,U1,6*%
%TO.N,Net-(C3-Pad1)*%
X157899999Y-76530000D03*
%TO.P,U1,7*%
%TO.N,Net-(C30-Pad1)*%
X157899999Y-76030000D03*
%TO.P,U1,8*%
%TO.N,Net-(U1-Pad8)*%
X157899999Y-75529999D03*
%TO.P,U1,9*%
%TO.N,Net-(U1-Pad9)*%
X157899999Y-75030000D03*
%TO.P,U1,10*%
%TO.N,Net-(U1-Pad10)*%
X157899999Y-74530001D03*
%TO.P,U1,11*%
%TO.N,Net-(U1-Pad11)*%
X157899999Y-74029999D03*
%TO.P,U1,12*%
%TO.N,Net-(U1-Pad12)*%
X157899999Y-73530000D03*
D27*
%TO.P,U1,13*%
%TO.N,Net-(U1-Pad13)*%
X156400000Y-72030001D03*
%TO.P,U1,14*%
%TO.N,Net-(U1-Pad14)*%
X155900001Y-72030001D03*
%TO.P,U1,15*%
%TO.N,Net-(U1-Pad15)*%
X155399999Y-72030001D03*
%TO.P,U1,16*%
%TO.N,PD0*%
X154900000Y-72030001D03*
%TO.P,U1,17*%
%TO.N,PD1*%
X154400001Y-72030001D03*
%TO.P,U1,18*%
%TO.N,PD2*%
X153900000Y-72030001D03*
%TO.P,U1,19*%
%TO.N,GND*%
X153400000Y-72030001D03*
%TO.P,U1,20*%
%TO.N,+3V3*%
X152899999Y-72030001D03*
%TO.P,U1,21*%
X152400000Y-72030001D03*
%TO.P,U1,22*%
%TO.N,AD1*%
X151900001Y-72030001D03*
%TO.P,U1,23*%
%TO.N,GND*%
X151399999Y-72030001D03*
%TO.P,U1,24*%
%TO.N,+3V3*%
X150900000Y-72030001D03*
D26*
%TO.P,U1,25*%
%TO.N,AD2*%
X149400001Y-73530000D03*
%TO.P,U1,26*%
%TO.N,AD3*%
X149400001Y-74029999D03*
%TO.P,U1,27*%
%TO.N,AD4*%
X149400001Y-74530001D03*
%TO.P,U1,28*%
%TO.N,AD5*%
X149400001Y-75030000D03*
%TO.P,U1,29*%
%TO.N,AD6*%
X149400001Y-75529999D03*
%TO.P,U1,30*%
%TO.N,Net-(U1-Pad30)*%
X149400001Y-76030000D03*
%TO.P,U1,31*%
%TO.N,Net-(U1-Pad31)*%
X149400001Y-76530000D03*
%TO.P,U1,32*%
%TO.N,Net-(U1-Pad32)*%
X149400001Y-77030001D03*
%TO.P,U1,33*%
%TO.N,D-*%
X149400001Y-77530000D03*
%TO.P,U1,34*%
%TO.N,D+*%
X149400001Y-78029999D03*
%TO.P,U1,35*%
%TO.N,GND*%
X149400001Y-78530001D03*
%TO.P,U1,36*%
%TO.N,+3V3*%
X149400001Y-79030000D03*
D27*
%TO.P,U1,37*%
%TO.N,SCL*%
X150900000Y-80529999D03*
%TO.P,U1,38*%
%TO.N,SDA*%
X151399999Y-80529999D03*
%TO.P,U1,39*%
%TO.N,Net-(U1-Pad39)*%
X151900001Y-80529999D03*
%TO.P,U1,40*%
%TO.N,PD3*%
X152400000Y-80529999D03*
%TO.P,U1,41*%
%TO.N,PD4*%
X152899999Y-80529999D03*
%TO.P,U1,42*%
%TO.N,PD5*%
X153400000Y-80529999D03*
%TO.P,U1,43*%
%TO.N,PD6*%
X153900000Y-80529999D03*
%TO.P,U1,44*%
%TO.N,PD7*%
X154400001Y-80529999D03*
%TO.P,U1,45*%
%TO.N,BOOT0*%
X154900000Y-80529999D03*
%TO.P,U1,46*%
%TO.N,AD0*%
X155399999Y-80529999D03*
%TO.P,U1,47*%
%TO.N,GND*%
X155900001Y-80529999D03*
%TO.P,U1,48*%
%TO.N,+3V3*%
X156400000Y-80529999D03*
%TD*%
D28*
%TO.P,Y2,1*%
%TO.N,Net-(C3-Pad1)*%
X159760000Y-72755000D03*
%TO.P,Y2,2*%
%TO.N,GND*%
X159760000Y-74505000D03*
%TO.P,Y2,3*%
%TO.N,Net-(C4-Pad1)*%
X161160000Y-74505000D03*
%TO.P,Y2,4*%
%TO.N,GND*%
X161160000Y-72755000D03*
%TD*%
D20*
%TO.P,R10,1*%
%TO.N,BOOT0*%
X166587500Y-73750000D03*
%TO.P,R10,2*%
%TO.N,Net-(R10-Pad2)*%
X168412500Y-73750000D03*
%TD*%
D29*
%TO.P,R20,1*%
%TO.N,+5V*%
X167470000Y-70132500D03*
%TO.P,R20,2*%
%TO.N,SCL*%
X167470000Y-68307500D03*
%TD*%
%TO.P,R21,1*%
%TO.N,+5V*%
X165170000Y-70172500D03*
%TO.P,R21,2*%
%TO.N,SDA*%
X165170000Y-68347500D03*
%TD*%
D30*
%TO.P,Y1,1*%
%TO.N,Net-(C1-Pad1)*%
X160810000Y-78850000D03*
%TO.P,Y1,2*%
%TO.N,Net-(C2-Pad2)*%
X160810000Y-76350000D03*
%TD*%
D31*
%TO.N,GND*%
X130650000Y-74750000D03*
X128250000Y-76750000D03*
%TO.N,+3V3*%
X132700000Y-71750000D03*
X139250000Y-68300000D03*
X149155000Y-82950000D03*
X149250000Y-71450000D03*
X149155000Y-79182403D03*
X152050000Y-70000000D03*
X148250000Y-76500000D03*
%TO.N,Net-(C30-Pad1)*%
X157274999Y-79682402D03*
X168250000Y-82750000D03*
X160500000Y-81050000D03*
%TO.N,PD7*%
X154579169Y-79043075D03*
%TO.N,PD6*%
X153876449Y-78660729D03*
%TO.N,PD5*%
X153222906Y-79122122D03*
%TO.N,PD4*%
X151825010Y-79433097D03*
%TO.N,PD3*%
X152024999Y-81626901D03*
%TO.N,PD2*%
X154933628Y-74836666D03*
%TO.N,PD1*%
X155162469Y-73971415D03*
%TO.N,PD0*%
X155250000Y-73126903D03*
%TO.N,AD6*%
X151876489Y-75429655D03*
%TO.N,AD5*%
X151650558Y-74662219D03*
%TO.N,AD4*%
X151106339Y-74075850D03*
%TO.N,AD3*%
X150496903Y-73500000D03*
%TO.N,AD2*%
X149400001Y-73377597D03*
%TO.N,AD1*%
X152500000Y-73126903D03*
%TO.N,D-*%
X141000000Y-77000000D03*
X137500000Y-77250000D03*
%TO.N,D+*%
X141794963Y-78155000D03*
X137541941Y-78091944D03*
%TO.N,Net-(R10-Pad2)*%
X141750000Y-68300000D03*
X168412500Y-73750000D03*
%TO.N,BOOT0*%
X166587500Y-73750000D03*
X155499443Y-79433097D03*
%TO.N,SCL*%
X167470000Y-68307500D03*
X133657629Y-69776256D03*
%TO.N,SDA*%
X133091942Y-70341942D03*
X165170000Y-68347500D03*
X131750000Y-69800001D03*
%TD*%
D32*
%TO.N,GND*%
X156800010Y-71050010D02*
X156600010Y-71050010D01*
X148478100Y-80278100D02*
X148478100Y-78605002D01*
X155550000Y-67750000D02*
X155550000Y-70000000D01*
X161250000Y-70820000D02*
X160199990Y-69769990D01*
D33*
X161160000Y-72970002D02*
X161160000Y-72755000D01*
D32*
X151083589Y-78530001D02*
X154151923Y-75461667D01*
X157680461Y-83519539D02*
X158250000Y-82950000D01*
X153950000Y-70000000D02*
X155550000Y-70000000D01*
X155220250Y-82180461D02*
X155900001Y-81500710D01*
X160890000Y-82950000D02*
X160500000Y-82950000D01*
X158250000Y-82950000D02*
X160500000Y-82950000D01*
X130800000Y-71750000D02*
X134370000Y-68180000D01*
D33*
X159760000Y-74370002D02*
X161160000Y-72970002D01*
D32*
X164880000Y-78940000D02*
X164890000Y-78950000D01*
X130800000Y-71750000D02*
X131505001Y-72455001D01*
X131505001Y-76555001D02*
X131505001Y-74825001D01*
X143400001Y-67150001D02*
X144250000Y-68000000D01*
X134370000Y-68180000D02*
X134370000Y-68000000D01*
X163005000Y-72755000D02*
X163100000Y-72660000D01*
X153950000Y-70000000D02*
X153950000Y-67750000D01*
X164880000Y-76410000D02*
X164880000Y-78940000D01*
X156119539Y-70569539D02*
X155550000Y-70000000D01*
X149400001Y-78530001D02*
X151083589Y-78530001D01*
X132700000Y-77750000D02*
X131505001Y-76555001D01*
X157399990Y-83800010D02*
X157680461Y-83519539D01*
X128140000Y-76640000D02*
X128250000Y-76750000D01*
X150336437Y-70119539D02*
X149819539Y-70119539D01*
X148553101Y-78530001D02*
X149400001Y-78530001D01*
X156877401Y-73817895D02*
X156877401Y-71127401D01*
X131505001Y-74825001D02*
X131430000Y-74750000D01*
X162950000Y-80950000D02*
X163650000Y-80950000D01*
X145250000Y-73550000D02*
X145250000Y-68550000D01*
X126880000Y-76640000D02*
X128140000Y-76640000D01*
X131430000Y-74750000D02*
X130650000Y-74750000D01*
X151399999Y-72030001D02*
X151399999Y-71183101D01*
X145000000Y-68300000D02*
X144250000Y-68300000D01*
X135219999Y-67150001D02*
X143400001Y-67150001D01*
X154300000Y-82750000D02*
X154869539Y-82180461D01*
X153400000Y-70550000D02*
X153950000Y-70000000D01*
X152064327Y-73751904D02*
X151422600Y-73110177D01*
X160199990Y-69769990D02*
X158861820Y-69769990D01*
X153400000Y-72030001D02*
X153400000Y-70550000D01*
X156600010Y-71050010D02*
X156119539Y-70569539D01*
X152800001Y-73751904D02*
X152064327Y-73751904D01*
X155900001Y-81500710D02*
X155900001Y-81376899D01*
X155350010Y-83800010D02*
X157399990Y-83800010D01*
X151399999Y-71183101D02*
X150336437Y-70119539D01*
X154151923Y-75461667D02*
X155233629Y-75461667D01*
X155233629Y-75461667D02*
X156877401Y-73817895D01*
X158275010Y-70356800D02*
X158275010Y-70713180D01*
X144250000Y-68300000D02*
X148000000Y-68300000D01*
X163650000Y-80950000D02*
X167050000Y-80950000D01*
X161160000Y-72755000D02*
X163005000Y-72755000D01*
X161160000Y-70910000D02*
X161250000Y-70820000D01*
X154300000Y-82750000D02*
X155350010Y-83800010D01*
X158861820Y-69769990D02*
X158275010Y-70356800D01*
X164880000Y-74440000D02*
X163100000Y-72660000D01*
X148000000Y-68300000D02*
X149250000Y-69550000D01*
X154869539Y-82180461D02*
X155220250Y-82180461D01*
X145250000Y-68550000D02*
X145000000Y-68300000D01*
X131505001Y-72455001D02*
X131505001Y-74825001D01*
D33*
X159760000Y-74505000D02*
X159760000Y-74370002D01*
D32*
X144250000Y-68000000D02*
X144250000Y-68300000D01*
X148478100Y-78605002D02*
X148553101Y-78530001D01*
X151422600Y-72052602D02*
X151399999Y-72030001D01*
X155900001Y-81376899D02*
X155900001Y-80529999D01*
X161160000Y-72755000D02*
X161160000Y-70910000D01*
X151422600Y-73110177D02*
X151422600Y-72052602D01*
X153400000Y-73151905D02*
X152800001Y-73751904D01*
X134370000Y-68000000D02*
X135219999Y-67150001D01*
X149819539Y-70119539D02*
X149250000Y-69550000D01*
X149250000Y-81050000D02*
X148478100Y-80278100D01*
X153400000Y-72030001D02*
X153400000Y-73151905D01*
X157938180Y-71050010D02*
X156800010Y-71050010D01*
X164880000Y-76410000D02*
X164880000Y-74440000D01*
X158275010Y-70713180D02*
X157938180Y-71050010D01*
X156877401Y-71127401D02*
X156800010Y-71050010D01*
X164890000Y-78950000D02*
X160890000Y-82950000D01*
%TO.N,Net-(C1-Pad1)*%
X160810000Y-78100000D02*
X160810000Y-78850000D01*
X162990000Y-78950000D02*
X160910000Y-78950000D01*
X157899999Y-78029999D02*
X160739999Y-78029999D01*
X160910000Y-78950000D02*
X160810000Y-78850000D01*
X160739999Y-78029999D02*
X160810000Y-78100000D01*
%TO.N,Net-(C2-Pad2)*%
X160810000Y-77100000D02*
X160810000Y-76350000D01*
X160380000Y-77530000D02*
X160810000Y-77100000D01*
X157899999Y-77530000D02*
X160380000Y-77530000D01*
X160810000Y-76350000D02*
X162920000Y-76350000D01*
X162920000Y-76350000D02*
X162980000Y-76410000D01*
%TO.N,Net-(C3-Pad1)*%
X158734301Y-76530000D02*
X158934999Y-76329302D01*
X158934999Y-76329302D02*
X158934999Y-73655001D01*
X157899999Y-76530000D02*
X158734301Y-76530000D01*
X159760000Y-72830000D02*
X159760000Y-72755000D01*
X158934999Y-73655001D02*
X159760000Y-72830000D01*
X159350000Y-72345000D02*
X159760000Y-72755000D01*
X159350000Y-70820000D02*
X159350000Y-72345000D01*
%TO.N,Net-(C4-Pad1)*%
X159584999Y-75589999D02*
X159769997Y-75405001D01*
X161215000Y-74560000D02*
X161160000Y-74505000D01*
X161084999Y-75405001D02*
X161160000Y-75330000D01*
X163100000Y-74560000D02*
X161215000Y-74560000D01*
X159769997Y-75405001D02*
X161084999Y-75405001D01*
X161160000Y-75330000D02*
X161160000Y-74505000D01*
X158870710Y-77030001D02*
X159584999Y-76315712D01*
X157899999Y-77030001D02*
X158870710Y-77030001D01*
X159584999Y-76315712D02*
X159584999Y-75589999D01*
%TO.N,+3V3*%
X140075001Y-69425001D02*
X139250000Y-68600000D01*
X152400000Y-72030001D02*
X152899999Y-72030001D01*
X156400000Y-80529999D02*
X156400000Y-82550000D01*
X143030000Y-74750000D02*
X148250000Y-74750000D01*
X151220000Y-79030000D02*
X152214272Y-78035728D01*
X148250000Y-76500000D02*
X148250000Y-74750000D01*
X152214272Y-78035728D02*
X156035728Y-78035728D01*
X152899999Y-72030001D02*
X152899999Y-67261811D01*
X139250000Y-68600000D02*
X139250000Y-68300000D01*
X156200000Y-82750000D02*
X157900000Y-81050000D01*
X156400000Y-79683099D02*
X156400000Y-80529999D01*
X148250000Y-74750000D02*
X148250000Y-72450000D01*
X153461820Y-66699990D02*
X156399990Y-66699990D01*
X152400000Y-70350000D02*
X152050000Y-70000000D01*
X149250000Y-82950000D02*
X149155000Y-82950000D01*
X156880461Y-67180461D02*
X157450000Y-67750000D01*
X140990000Y-73510000D02*
X140989999Y-71825001D01*
X156400000Y-78400000D02*
X156400000Y-79683099D01*
X156400000Y-82550000D02*
X156200000Y-82750000D01*
X148250000Y-72450000D02*
X149250000Y-71450000D01*
X140075001Y-70910003D02*
X140075001Y-69425001D01*
X157899999Y-80699999D02*
X158250000Y-81050000D01*
X140990000Y-73510000D02*
X141790000Y-73510000D01*
X150319999Y-71450000D02*
X150900000Y-72030001D01*
X152400000Y-72030001D02*
X152400000Y-70350000D01*
X149250000Y-71450000D02*
X150319999Y-71450000D01*
X132700000Y-73650000D02*
X132850000Y-73800000D01*
X132700000Y-71750000D02*
X132700000Y-73650000D01*
X156035728Y-78035728D02*
X156400000Y-78400000D01*
X140989999Y-71825001D02*
X140075001Y-70910003D01*
X157899999Y-79030000D02*
X157899999Y-80699999D01*
X156399990Y-66699990D02*
X156880461Y-67180461D01*
X152899999Y-67261811D02*
X153461820Y-66699990D01*
X157450000Y-70000000D02*
X157450000Y-67750000D01*
X152050000Y-70000000D02*
X152050000Y-67750000D01*
X149400001Y-79030000D02*
X151220000Y-79030000D01*
X157900000Y-81050000D02*
X158250000Y-81050000D01*
X141790000Y-73510000D02*
X143030000Y-74750000D01*
%TO.N,+5V*%
X165170000Y-70172500D02*
X167430000Y-70172500D01*
X167430000Y-70172500D02*
X167470000Y-70132500D01*
X131369539Y-78319539D02*
X130800000Y-77750000D01*
X161247481Y-66249981D02*
X127400019Y-66249981D01*
X129630000Y-74040000D02*
X127830000Y-74040000D01*
X126750000Y-66900000D02*
X126750000Y-68000000D01*
X126750000Y-70105000D02*
X130445000Y-73800000D01*
X130445000Y-73800000D02*
X130650000Y-73800000D01*
X130650000Y-77600000D02*
X130800000Y-77750000D01*
X126750000Y-68000000D02*
X126750000Y-70105000D01*
X129870000Y-75700000D02*
X129630000Y-75460000D01*
X130650000Y-75700000D02*
X130650000Y-77600000D01*
X136750000Y-75238190D02*
X133188180Y-78800010D01*
X133188180Y-78800010D02*
X131850010Y-78800010D01*
X130650000Y-75700000D02*
X129870000Y-75700000D01*
X127830000Y-74040000D02*
X126880000Y-74040000D01*
X165170000Y-70172500D02*
X161247481Y-66249981D01*
X130650000Y-73800000D02*
X129870000Y-73800000D01*
X129870000Y-73800000D02*
X129630000Y-74040000D01*
X127400019Y-66249981D02*
X126750000Y-66900000D01*
X131850010Y-78800010D02*
X131369539Y-78319539D01*
X136750000Y-73540000D02*
X136750000Y-75238190D01*
X129630000Y-75460000D02*
X129630000Y-74040000D01*
%TO.N,Net-(C30-Pad1)*%
X156978098Y-79385501D02*
X157274999Y-79682402D01*
X157899999Y-76030000D02*
X157053099Y-76030000D01*
X162950000Y-82550000D02*
X167050000Y-82550000D01*
X168250000Y-82750000D02*
X167250000Y-82750000D01*
X167250000Y-82750000D02*
X167050000Y-82550000D01*
X156978098Y-76105001D02*
X156978098Y-79385501D01*
X157053099Y-76030000D02*
X156978098Y-76105001D01*
%TO.N,PD7*%
X154579169Y-79043075D02*
X154400001Y-79222243D01*
X154400001Y-79222243D02*
X154400001Y-80529999D01*
%TO.N,PD6*%
X153900000Y-78684280D02*
X153900000Y-80529999D01*
X153876449Y-78660729D02*
X153900000Y-78684280D01*
%TO.N,PD5*%
X153222906Y-79122122D02*
X153400000Y-79299216D01*
X153400000Y-79299216D02*
X153400000Y-80529999D01*
%TO.N,PD4*%
X152899999Y-80529999D02*
X152899999Y-79683099D01*
X152899999Y-79683099D02*
X152649997Y-79433097D01*
X152649997Y-79433097D02*
X151825010Y-79433097D01*
%TO.N,PD3*%
X152400000Y-81251900D02*
X152400000Y-80529999D01*
X152024999Y-81626901D02*
X152400000Y-81251900D01*
%TO.N,PD2*%
X153900000Y-73803038D02*
X154933628Y-74836666D01*
X153900000Y-72030001D02*
X153900000Y-73803038D01*
%TO.N,PD1*%
X154400001Y-72030001D02*
X154400001Y-73208947D01*
X154400001Y-73208947D02*
X155162469Y-73971415D01*
%TO.N,PD0*%
X154900000Y-72776903D02*
X154900000Y-72030001D01*
X155250000Y-73126903D02*
X154900000Y-72776903D01*
%TO.N,AD6*%
X149400001Y-75529999D02*
X151776145Y-75529999D01*
X151776145Y-75529999D02*
X151876489Y-75429655D01*
%TO.N,AD5*%
X151650558Y-74662219D02*
X151282777Y-75030000D01*
X151282777Y-75030000D02*
X149400001Y-75030000D01*
%TO.N,AD4*%
X150652188Y-74530001D02*
X149400001Y-74530001D01*
X151106339Y-74075850D02*
X150652188Y-74530001D01*
%TO.N,AD3*%
X150246901Y-74029999D02*
X149400001Y-74029999D01*
X150246901Y-74029999D02*
X150496903Y-73779997D01*
X150496903Y-73779997D02*
X150496903Y-73500000D01*
%TO.N,AD1*%
X152500000Y-73126903D02*
X152075736Y-73126903D01*
X151900001Y-72951168D02*
X151900001Y-72876901D01*
X151900202Y-72030202D02*
X151900001Y-72030001D01*
X151900001Y-72876901D02*
X151900001Y-72030001D01*
X152075736Y-73126903D02*
X151900001Y-72951168D01*
%TO.N,AD0*%
X150955001Y-84556809D02*
X150955001Y-86314001D01*
X155399999Y-80529999D02*
X155399999Y-81364302D01*
X155399999Y-81364302D02*
X155064311Y-81699990D01*
X134540000Y-85750000D02*
X135715001Y-86925001D01*
X150955001Y-86314001D02*
X150344001Y-86925001D01*
X155064311Y-81699990D02*
X153811820Y-81699990D01*
X150344001Y-86925001D02*
X135715001Y-86925001D01*
X153811820Y-81699990D02*
X150955001Y-84556809D01*
%TO.N,Net-(J1-Pad3)*%
X132000000Y-85750000D02*
X133784989Y-83965011D01*
X144450000Y-82450000D02*
X145250000Y-82450000D01*
X142934989Y-83965011D02*
X144450000Y-82450000D01*
X133784989Y-83965011D02*
X142934989Y-83965011D01*
%TO.N,Net-(J1-Pad2)*%
X131694999Y-83515001D02*
X139084999Y-83515001D01*
X140190000Y-82410000D02*
X140990000Y-82410000D01*
X129460000Y-85750000D02*
X131694999Y-83515001D01*
X139084999Y-83515001D02*
X140190000Y-82410000D01*
%TO.N,Net-(J1-Pad1)*%
X135364990Y-83025010D02*
X135950000Y-82440000D01*
X135950000Y-82440000D02*
X136750000Y-82440000D01*
X128544990Y-83025010D02*
X135364990Y-83025010D01*
X126920000Y-85750000D02*
X126920000Y-84650000D01*
X126920000Y-84650000D02*
X128544990Y-83025010D01*
%TO.N,Net-(J10-Pad6)*%
X124230000Y-73090000D02*
X124300000Y-73020000D01*
X124230000Y-77590000D02*
X124300000Y-77660000D01*
X124230000Y-74215000D02*
X124230000Y-76465000D01*
X125485000Y-77660000D02*
X126460000Y-77660000D01*
X124230000Y-74215000D02*
X124230000Y-71765000D01*
X124230000Y-76465000D02*
X124230000Y-78915000D01*
X125485000Y-73020000D02*
X126460000Y-73020000D01*
X124230000Y-76465000D02*
X124230000Y-77590000D01*
X124300000Y-77660000D02*
X125485000Y-77660000D01*
X124300000Y-73020000D02*
X125485000Y-73020000D01*
X124230000Y-74215000D02*
X124230000Y-73090000D01*
%TO.N,Net-(J10-Pad3)*%
X126880000Y-75340000D02*
X127830000Y-75340000D01*
X130260882Y-81423382D02*
X130837500Y-82000000D01*
X127830000Y-75340000D02*
X129049990Y-76559990D01*
X129049990Y-76559990D02*
X129049990Y-80212490D01*
X129049990Y-80212490D02*
X130260882Y-81423382D01*
%TO.N,Net-(J10-Pad2)*%
X129500000Y-76373590D02*
X129500000Y-78662500D01*
X126880000Y-74690000D02*
X127816410Y-74690000D01*
X130837500Y-80000000D02*
X129500000Y-78662500D01*
X127816410Y-74690000D02*
X129500000Y-76373590D01*
%TO.N,D-*%
X134750000Y-80000000D02*
X137500000Y-77250000D01*
X141530000Y-77530000D02*
X149400001Y-77530000D01*
X141000000Y-77000000D02*
X141530000Y-77530000D01*
X132662500Y-80000000D02*
X134750000Y-80000000D01*
%TO.N,D+*%
X142219227Y-78155000D02*
X142344228Y-78029999D01*
X141794963Y-78155000D02*
X142219227Y-78155000D01*
X148553101Y-78029999D02*
X149400001Y-78029999D01*
X142344228Y-78029999D02*
X148553101Y-78029999D01*
X133633885Y-82000000D02*
X137541941Y-78091944D01*
X132662500Y-82000000D02*
X133633885Y-82000000D01*
%TO.N,BOOT0*%
X154900000Y-80529999D02*
X154900000Y-79683099D01*
X154900000Y-79683099D02*
X155150002Y-79433097D01*
X155150002Y-79433097D02*
X155499443Y-79433097D01*
%TO.N,SCL*%
X138700010Y-76063600D02*
X138700010Y-72968598D01*
X148536820Y-83775010D02*
X146575011Y-81813201D01*
X137531402Y-71799990D02*
X135681363Y-71799990D01*
X135681363Y-71799990D02*
X133657629Y-69776256D01*
X141886410Y-79250000D02*
X138700010Y-76063600D01*
X149963180Y-83775010D02*
X148536820Y-83775010D01*
X144571412Y-79250000D02*
X141886410Y-79250000D01*
X146575011Y-81813201D02*
X146575010Y-81253598D01*
X150900000Y-82838190D02*
X149963180Y-83775010D01*
X150900000Y-80529999D02*
X150900000Y-82838190D01*
X138700010Y-72968598D02*
X137531402Y-71799990D01*
X146575010Y-81253598D02*
X144571412Y-79250000D01*
%TO.N,SDA*%
X137345002Y-72250000D02*
X135000000Y-72250000D01*
X150124600Y-84250000D02*
X148500000Y-84250000D01*
X141750000Y-79750000D02*
X138250000Y-76250000D01*
X148500000Y-84250000D02*
X148475020Y-84225020D01*
X138250000Y-73154998D02*
X137345002Y-72250000D01*
X131750000Y-68080000D02*
X131830000Y-68000000D01*
X151399999Y-82974601D02*
X150124600Y-84250000D01*
X146125001Y-81999601D02*
X146125001Y-81439999D01*
X151399999Y-80529999D02*
X151399999Y-82974601D01*
X148475020Y-84225020D02*
X148350420Y-84225020D01*
X135000000Y-72250000D02*
X133091942Y-70341942D01*
X146125001Y-81439999D02*
X144435002Y-79750000D01*
X131750000Y-69800001D02*
X131750000Y-68080000D01*
X144435002Y-79750000D02*
X141750000Y-79750000D01*
X138250000Y-76250000D02*
X138250000Y-73154998D01*
X148350420Y-84225020D02*
X146125001Y-81999601D01*
%TD*%
M02*
