%TF.GenerationSoftware,KiCad,Pcbnew,(5.1.10)-1*%
%TF.CreationDate,2022-03-07T16:55:32-05:00*%
%TF.ProjectId,ManySegmentDisplay,4d616e79-5365-4676-9d65-6e7444697370,rev?*%
%TF.SameCoordinates,Original*%
%TF.FileFunction,Paste,Bot*%
%TF.FilePolarity,Positive*%
%FSLAX46Y46*%
G04 Gerber Fmt 4.6, Leading zero omitted, Abs format (unit mm)*
G04 Created by KiCad (PCBNEW (5.1.10)-1) date 2022-03-07 16:55:32*
%MOMM*%
%LPD*%
G01*
G04 APERTURE LIST*
%ADD10R,1.454899X0.354800*%
%ADD11R,1.060000X0.650000*%
%ADD12R,1.450000X1.150000*%
%ADD13R,1.900000X1.750000*%
%ADD14R,1.400000X0.400000*%
%ADD15R,0.508000X1.409700*%
%ADD16R,0.700000X1.950000*%
G04 APERTURE END LIST*
D10*
%TO.C,LA52*%
X216155452Y-77235002D03*
X216155452Y-77885001D03*
X216155452Y-78535002D03*
X216155452Y-79185001D03*
X216155452Y-79835002D03*
X216155452Y-80485001D03*
X216155452Y-81135002D03*
X216155452Y-81785001D03*
X216155452Y-82435002D03*
X216155452Y-83085000D03*
X222004548Y-83084998D03*
X222004548Y-82434999D03*
X222004548Y-81784998D03*
X222004548Y-81134999D03*
X222004548Y-80484998D03*
X222004548Y-79834999D03*
X222004548Y-79185001D03*
X222004548Y-78534999D03*
X222004548Y-77885001D03*
X222004548Y-77235000D03*
%TD*%
%TO.C,LA23*%
X113705452Y-125960000D03*
X113705452Y-126609999D03*
X113705452Y-127260000D03*
X113705452Y-127909999D03*
X113705452Y-128560000D03*
X113705452Y-129209999D03*
X113705452Y-129860000D03*
X113705452Y-130509999D03*
X113705452Y-131160000D03*
X113705452Y-131809998D03*
X119554548Y-131809996D03*
X119554548Y-131159997D03*
X119554548Y-130509996D03*
X119554548Y-129859997D03*
X119554548Y-129209996D03*
X119554548Y-128559997D03*
X119554548Y-127909999D03*
X119554548Y-127259997D03*
X119554548Y-126609999D03*
X119554548Y-125959998D03*
%TD*%
%TO.C,LA8*%
X80705452Y-77285002D03*
X80705452Y-77935001D03*
X80705452Y-78585002D03*
X80705452Y-79235001D03*
X80705452Y-79885002D03*
X80705452Y-80535001D03*
X80705452Y-81185002D03*
X80705452Y-81835001D03*
X80705452Y-82485002D03*
X80705452Y-83135000D03*
X86554548Y-83134998D03*
X86554548Y-82484999D03*
X86554548Y-81834998D03*
X86554548Y-81184999D03*
X86554548Y-80534998D03*
X86554548Y-79884999D03*
X86554548Y-79235001D03*
X86554548Y-78584999D03*
X86554548Y-77935001D03*
X86554548Y-77285000D03*
%TD*%
D11*
%TO.C,U105*%
X218580000Y-135310000D03*
X218580000Y-133410000D03*
X216380000Y-133410000D03*
X216380000Y-134360000D03*
X216380000Y-135310000D03*
%TD*%
%TO.C,U104*%
X170180000Y-135510000D03*
X170180000Y-133610000D03*
X167980000Y-133610000D03*
X167980000Y-134560000D03*
X167980000Y-135510000D03*
%TD*%
%TO.C,U103*%
X108380000Y-135510000D03*
X108380000Y-133610000D03*
X106180000Y-133610000D03*
X106180000Y-134560000D03*
X106180000Y-135510000D03*
%TD*%
%TO.C,U102*%
X65730000Y-135410000D03*
X65730000Y-133510000D03*
X63530000Y-133510000D03*
X63530000Y-134460000D03*
X63530000Y-135410000D03*
%TD*%
%TO.C,U101*%
X121380000Y-133410000D03*
X121380000Y-135310000D03*
X123580000Y-135310000D03*
X123580000Y-134360000D03*
X123580000Y-133410000D03*
%TD*%
D10*
%TO.C,LA67*%
X252955452Y-125960000D03*
X252955452Y-126609999D03*
X252955452Y-127260000D03*
X252955452Y-127909999D03*
X252955452Y-128560000D03*
X252955452Y-129209999D03*
X252955452Y-129860000D03*
X252955452Y-130509999D03*
X252955452Y-131160000D03*
X252955452Y-131809998D03*
X258804548Y-131809996D03*
X258804548Y-131159997D03*
X258804548Y-130509996D03*
X258804548Y-129859997D03*
X258804548Y-129209996D03*
X258804548Y-128559997D03*
X258804548Y-127909999D03*
X258804548Y-127259997D03*
X258804548Y-126609999D03*
X258804548Y-125959998D03*
%TD*%
%TO.C,LA66*%
X252880000Y-110035002D03*
X252880000Y-110685001D03*
X252880000Y-111335002D03*
X252880000Y-111985001D03*
X252880000Y-112635002D03*
X252880000Y-113285001D03*
X252880000Y-113935002D03*
X252880000Y-114585001D03*
X252880000Y-115235002D03*
X252880000Y-115885000D03*
X258729096Y-115884998D03*
X258729096Y-115234999D03*
X258729096Y-114584998D03*
X258729096Y-113934999D03*
X258729096Y-113284998D03*
X258729096Y-112634999D03*
X258729096Y-111985001D03*
X258729096Y-111334999D03*
X258729096Y-110685001D03*
X258729096Y-110035000D03*
%TD*%
%TO.C,LA65*%
X253880000Y-92835002D03*
X253880000Y-93485001D03*
X253880000Y-94135002D03*
X253880000Y-94785001D03*
X253880000Y-95435002D03*
X253880000Y-96085001D03*
X253880000Y-96735002D03*
X253880000Y-97385001D03*
X253880000Y-98035002D03*
X253880000Y-98685000D03*
X259729096Y-98684998D03*
X259729096Y-98034999D03*
X259729096Y-97384998D03*
X259729096Y-96734999D03*
X259729096Y-96084998D03*
X259729096Y-95434999D03*
X259729096Y-94785001D03*
X259729096Y-94134999D03*
X259729096Y-93485001D03*
X259729096Y-92835000D03*
%TD*%
%TO.C,LA64*%
X253430904Y-77310001D03*
X253430904Y-77960000D03*
X253430904Y-78610001D03*
X253430904Y-79260000D03*
X253430904Y-79910001D03*
X253430904Y-80560000D03*
X253430904Y-81210001D03*
X253430904Y-81860000D03*
X253430904Y-82510001D03*
X253430904Y-83159999D03*
X259280000Y-83159997D03*
X259280000Y-82509998D03*
X259280000Y-81859997D03*
X259280000Y-81209998D03*
X259280000Y-80559997D03*
X259280000Y-79909998D03*
X259280000Y-79260000D03*
X259280000Y-78609998D03*
X259280000Y-77960000D03*
X259280000Y-77309999D03*
%TD*%
%TO.C,LA63*%
X240755452Y-125960000D03*
X240755452Y-126609999D03*
X240755452Y-127260000D03*
X240755452Y-127909999D03*
X240755452Y-128560000D03*
X240755452Y-129209999D03*
X240755452Y-129860000D03*
X240755452Y-130509999D03*
X240755452Y-131160000D03*
X240755452Y-131809998D03*
X246604548Y-131809996D03*
X246604548Y-131159997D03*
X246604548Y-130509996D03*
X246604548Y-129859997D03*
X246604548Y-129209996D03*
X246604548Y-128559997D03*
X246604548Y-127909999D03*
X246604548Y-127259997D03*
X246604548Y-126609999D03*
X246604548Y-125959998D03*
%TD*%
%TO.C,LA62*%
X240280000Y-110035002D03*
X240280000Y-110685001D03*
X240280000Y-111335002D03*
X240280000Y-111985001D03*
X240280000Y-112635002D03*
X240280000Y-113285001D03*
X240280000Y-113935002D03*
X240280000Y-114585001D03*
X240280000Y-115235002D03*
X240280000Y-115885000D03*
X246129096Y-115884998D03*
X246129096Y-115234999D03*
X246129096Y-114584998D03*
X246129096Y-113934999D03*
X246129096Y-113284998D03*
X246129096Y-112634999D03*
X246129096Y-111985001D03*
X246129096Y-111334999D03*
X246129096Y-110685001D03*
X246129096Y-110035000D03*
%TD*%
%TO.C,LA61*%
X244830904Y-92710001D03*
X244830904Y-93360000D03*
X244830904Y-94010001D03*
X244830904Y-94660000D03*
X244830904Y-95310001D03*
X244830904Y-95960000D03*
X244830904Y-96610001D03*
X244830904Y-97260000D03*
X244830904Y-97910001D03*
X244830904Y-98559999D03*
X250680000Y-98559997D03*
X250680000Y-97909998D03*
X250680000Y-97259997D03*
X250680000Y-96609998D03*
X250680000Y-95959997D03*
X250680000Y-95309998D03*
X250680000Y-94660000D03*
X250680000Y-94009998D03*
X250680000Y-93360000D03*
X250680000Y-92709999D03*
%TD*%
%TO.C,LA60*%
X240955452Y-77235002D03*
X240955452Y-77885001D03*
X240955452Y-78535002D03*
X240955452Y-79185001D03*
X240955452Y-79835002D03*
X240955452Y-80485001D03*
X240955452Y-81135002D03*
X240955452Y-81785001D03*
X240955452Y-82435002D03*
X240955452Y-83085000D03*
X246804548Y-83084998D03*
X246804548Y-82434999D03*
X246804548Y-81784998D03*
X246804548Y-81134999D03*
X246804548Y-80484998D03*
X246804548Y-79834999D03*
X246804548Y-79185001D03*
X246804548Y-78534999D03*
X246804548Y-77885001D03*
X246804548Y-77235000D03*
%TD*%
%TO.C,LA59*%
X228355452Y-125960000D03*
X228355452Y-126609999D03*
X228355452Y-127260000D03*
X228355452Y-127909999D03*
X228355452Y-128560000D03*
X228355452Y-129209999D03*
X228355452Y-129860000D03*
X228355452Y-130509999D03*
X228355452Y-131160000D03*
X228355452Y-131809998D03*
X234204548Y-131809996D03*
X234204548Y-131159997D03*
X234204548Y-130509996D03*
X234204548Y-129859997D03*
X234204548Y-129209996D03*
X234204548Y-128559997D03*
X234204548Y-127909999D03*
X234204548Y-127259997D03*
X234204548Y-126609999D03*
X234204548Y-125959998D03*
%TD*%
%TO.C,LA58*%
X228030904Y-110035002D03*
X228030904Y-110685001D03*
X228030904Y-111335002D03*
X228030904Y-111985001D03*
X228030904Y-112635002D03*
X228030904Y-113285001D03*
X228030904Y-113935002D03*
X228030904Y-114585001D03*
X228030904Y-115235002D03*
X228030904Y-115885000D03*
X233880000Y-115884998D03*
X233880000Y-115234999D03*
X233880000Y-114584998D03*
X233880000Y-113934999D03*
X233880000Y-113284998D03*
X233880000Y-112634999D03*
X233880000Y-111985001D03*
X233880000Y-111334999D03*
X233880000Y-110685001D03*
X233880000Y-110035000D03*
%TD*%
%TO.C,LA57*%
X218680000Y-92760000D03*
X218680000Y-93409999D03*
X218680000Y-94060000D03*
X218680000Y-94709999D03*
X218680000Y-95360000D03*
X218680000Y-96009999D03*
X218680000Y-96660000D03*
X218680000Y-97309999D03*
X218680000Y-97960000D03*
X218680000Y-98609998D03*
X224529096Y-98609996D03*
X224529096Y-97959997D03*
X224529096Y-97309996D03*
X224529096Y-96659997D03*
X224529096Y-96009996D03*
X224529096Y-95359997D03*
X224529096Y-94709999D03*
X224529096Y-94059997D03*
X224529096Y-93409999D03*
X224529096Y-92759998D03*
%TD*%
%TO.C,LA56*%
X228555452Y-77235002D03*
X228555452Y-77885001D03*
X228555452Y-78535002D03*
X228555452Y-79185001D03*
X228555452Y-79835002D03*
X228555452Y-80485001D03*
X228555452Y-81135002D03*
X228555452Y-81785001D03*
X228555452Y-82435002D03*
X228555452Y-83085000D03*
X234404548Y-83084998D03*
X234404548Y-82434999D03*
X234404548Y-81784998D03*
X234404548Y-81134999D03*
X234404548Y-80484998D03*
X234404548Y-79834999D03*
X234404548Y-79185001D03*
X234404548Y-78534999D03*
X234404548Y-77885001D03*
X234404548Y-77235000D03*
%TD*%
%TO.C,LA55*%
X216155452Y-125960000D03*
X216155452Y-126609999D03*
X216155452Y-127260000D03*
X216155452Y-127909999D03*
X216155452Y-128560000D03*
X216155452Y-129209999D03*
X216155452Y-129860000D03*
X216155452Y-130509999D03*
X216155452Y-131160000D03*
X216155452Y-131809998D03*
X222004548Y-131809996D03*
X222004548Y-131159997D03*
X222004548Y-130509996D03*
X222004548Y-129859997D03*
X222004548Y-129209996D03*
X222004548Y-128559997D03*
X222004548Y-127909999D03*
X222004548Y-127259997D03*
X222004548Y-126609999D03*
X222004548Y-125959998D03*
%TD*%
%TO.C,LA54*%
X214955452Y-110035002D03*
X214955452Y-110685001D03*
X214955452Y-111335002D03*
X214955452Y-111985001D03*
X214955452Y-112635002D03*
X214955452Y-113285001D03*
X214955452Y-113935002D03*
X214955452Y-114585001D03*
X214955452Y-115235002D03*
X214955452Y-115885000D03*
X220804548Y-115884998D03*
X220804548Y-115234999D03*
X220804548Y-114584998D03*
X220804548Y-113934999D03*
X220804548Y-113284998D03*
X220804548Y-112634999D03*
X220804548Y-111985001D03*
X220804548Y-111334999D03*
X220804548Y-110685001D03*
X220804548Y-110035000D03*
%TD*%
%TO.C,LA53*%
X209480000Y-92760000D03*
X209480000Y-93409999D03*
X209480000Y-94060000D03*
X209480000Y-94709999D03*
X209480000Y-95360000D03*
X209480000Y-96009999D03*
X209480000Y-96660000D03*
X209480000Y-97309999D03*
X209480000Y-97960000D03*
X209480000Y-98609998D03*
X215329096Y-98609996D03*
X215329096Y-97959997D03*
X215329096Y-97309996D03*
X215329096Y-96659997D03*
X215329096Y-96009996D03*
X215329096Y-95359997D03*
X215329096Y-94709999D03*
X215329096Y-94059997D03*
X215329096Y-93409999D03*
X215329096Y-92759998D03*
%TD*%
%TO.C,LA51*%
X204155452Y-125960000D03*
X204155452Y-126609999D03*
X204155452Y-127260000D03*
X204155452Y-127909999D03*
X204155452Y-128560000D03*
X204155452Y-129209999D03*
X204155452Y-129860000D03*
X204155452Y-130509999D03*
X204155452Y-131160000D03*
X204155452Y-131809998D03*
X210004548Y-131809996D03*
X210004548Y-131159997D03*
X210004548Y-130509996D03*
X210004548Y-129859997D03*
X210004548Y-129209996D03*
X210004548Y-128559997D03*
X210004548Y-127909999D03*
X210004548Y-127259997D03*
X210004548Y-126609999D03*
X210004548Y-125959998D03*
%TD*%
%TO.C,LA50*%
X206480000Y-110035002D03*
X206480000Y-110685001D03*
X206480000Y-111335002D03*
X206480000Y-111985001D03*
X206480000Y-112635002D03*
X206480000Y-113285001D03*
X206480000Y-113935002D03*
X206480000Y-114585001D03*
X206480000Y-115235002D03*
X206480000Y-115885000D03*
X212329096Y-115884998D03*
X212329096Y-115234999D03*
X212329096Y-114584998D03*
X212329096Y-113934999D03*
X212329096Y-113284998D03*
X212329096Y-112634999D03*
X212329096Y-111985001D03*
X212329096Y-111334999D03*
X212329096Y-110685001D03*
X212329096Y-110035000D03*
%TD*%
%TO.C,LA49*%
X200280000Y-92710002D03*
X200280000Y-93360001D03*
X200280000Y-94010002D03*
X200280000Y-94660001D03*
X200280000Y-95310002D03*
X200280000Y-95960001D03*
X200280000Y-96610002D03*
X200280000Y-97260001D03*
X200280000Y-97910002D03*
X200280000Y-98560000D03*
X206129096Y-98559998D03*
X206129096Y-97909999D03*
X206129096Y-97259998D03*
X206129096Y-96609999D03*
X206129096Y-95959998D03*
X206129096Y-95309999D03*
X206129096Y-94660001D03*
X206129096Y-94009999D03*
X206129096Y-93360001D03*
X206129096Y-92710000D03*
%TD*%
%TO.C,LA48*%
X203955452Y-77235002D03*
X203955452Y-77885001D03*
X203955452Y-78535002D03*
X203955452Y-79185001D03*
X203955452Y-79835002D03*
X203955452Y-80485001D03*
X203955452Y-81135002D03*
X203955452Y-81785001D03*
X203955452Y-82435002D03*
X203955452Y-83085000D03*
X209804548Y-83084998D03*
X209804548Y-82434999D03*
X209804548Y-81784998D03*
X209804548Y-81134999D03*
X209804548Y-80484998D03*
X209804548Y-79834999D03*
X209804548Y-79185001D03*
X209804548Y-78534999D03*
X209804548Y-77885001D03*
X209804548Y-77235000D03*
%TD*%
%TO.C,LA47*%
X191755452Y-125960000D03*
X191755452Y-126609999D03*
X191755452Y-127260000D03*
X191755452Y-127909999D03*
X191755452Y-128560000D03*
X191755452Y-129209999D03*
X191755452Y-129860000D03*
X191755452Y-130509999D03*
X191755452Y-131160000D03*
X191755452Y-131809998D03*
X197604548Y-131809996D03*
X197604548Y-131159997D03*
X197604548Y-130509996D03*
X197604548Y-129859997D03*
X197604548Y-129209996D03*
X197604548Y-128559997D03*
X197604548Y-127909999D03*
X197604548Y-127259997D03*
X197604548Y-126609999D03*
X197604548Y-125959998D03*
%TD*%
%TO.C,LA46*%
X198030904Y-110035002D03*
X198030904Y-110685001D03*
X198030904Y-111335002D03*
X198030904Y-111985001D03*
X198030904Y-112635002D03*
X198030904Y-113285001D03*
X198030904Y-113935002D03*
X198030904Y-114585001D03*
X198030904Y-115235002D03*
X198030904Y-115885000D03*
X203880000Y-115884998D03*
X203880000Y-115234999D03*
X203880000Y-114584998D03*
X203880000Y-113934999D03*
X203880000Y-113284998D03*
X203880000Y-112634999D03*
X203880000Y-111985001D03*
X203880000Y-111334999D03*
X203880000Y-110685001D03*
X203880000Y-110035000D03*
%TD*%
%TO.C,LA45*%
X190680000Y-92710002D03*
X190680000Y-93360001D03*
X190680000Y-94010002D03*
X190680000Y-94660001D03*
X190680000Y-95310002D03*
X190680000Y-95960001D03*
X190680000Y-96610002D03*
X190680000Y-97260001D03*
X190680000Y-97910002D03*
X190680000Y-98560000D03*
X196529096Y-98559998D03*
X196529096Y-97909999D03*
X196529096Y-97259998D03*
X196529096Y-96609999D03*
X196529096Y-95959998D03*
X196529096Y-95309999D03*
X196529096Y-94660001D03*
X196529096Y-94009999D03*
X196529096Y-93360001D03*
X196529096Y-92710000D03*
%TD*%
%TO.C,LA44*%
X191755452Y-77235002D03*
X191755452Y-77885001D03*
X191755452Y-78535002D03*
X191755452Y-79185001D03*
X191755452Y-79835002D03*
X191755452Y-80485001D03*
X191755452Y-81135002D03*
X191755452Y-81785001D03*
X191755452Y-82435002D03*
X191755452Y-83085000D03*
X197604548Y-83084998D03*
X197604548Y-82434999D03*
X197604548Y-81784998D03*
X197604548Y-81134999D03*
X197604548Y-80484998D03*
X197604548Y-79834999D03*
X197604548Y-79185001D03*
X197604548Y-78534999D03*
X197604548Y-77885001D03*
X197604548Y-77235000D03*
%TD*%
%TO.C,LA43*%
X179230904Y-125960000D03*
X179230904Y-126609999D03*
X179230904Y-127260000D03*
X179230904Y-127909999D03*
X179230904Y-128560000D03*
X179230904Y-129209999D03*
X179230904Y-129860000D03*
X179230904Y-130509999D03*
X179230904Y-131160000D03*
X179230904Y-131809998D03*
X185080000Y-131809996D03*
X185080000Y-131159997D03*
X185080000Y-130509996D03*
X185080000Y-129859997D03*
X185080000Y-129209996D03*
X185080000Y-128559997D03*
X185080000Y-127909999D03*
X185080000Y-127259997D03*
X185080000Y-126609999D03*
X185080000Y-125959998D03*
%TD*%
%TO.C,LA42*%
X172755452Y-110035002D03*
X172755452Y-110685001D03*
X172755452Y-111335002D03*
X172755452Y-111985001D03*
X172755452Y-112635002D03*
X172755452Y-113285001D03*
X172755452Y-113935002D03*
X172755452Y-114585001D03*
X172755452Y-115235002D03*
X172755452Y-115885000D03*
X178604548Y-115884998D03*
X178604548Y-115234999D03*
X178604548Y-114584998D03*
X178604548Y-113934999D03*
X178604548Y-113284998D03*
X178604548Y-112634999D03*
X178604548Y-111985001D03*
X178604548Y-111334999D03*
X178604548Y-110685001D03*
X178604548Y-110035000D03*
%TD*%
%TO.C,LA41*%
X180830904Y-92760002D03*
X180830904Y-93410001D03*
X180830904Y-94060002D03*
X180830904Y-94710001D03*
X180830904Y-95360002D03*
X180830904Y-96010001D03*
X180830904Y-96660002D03*
X180830904Y-97310001D03*
X180830904Y-97960002D03*
X180830904Y-98610000D03*
X186680000Y-98609998D03*
X186680000Y-97959999D03*
X186680000Y-97309998D03*
X186680000Y-96659999D03*
X186680000Y-96009998D03*
X186680000Y-95359999D03*
X186680000Y-94710001D03*
X186680000Y-94059999D03*
X186680000Y-93410001D03*
X186680000Y-92760000D03*
%TD*%
%TO.C,LA40*%
X179555452Y-77235002D03*
X179555452Y-77885001D03*
X179555452Y-78535002D03*
X179555452Y-79185001D03*
X179555452Y-79835002D03*
X179555452Y-80485001D03*
X179555452Y-81135002D03*
X179555452Y-81785001D03*
X179555452Y-82435002D03*
X179555452Y-83085000D03*
X185404548Y-83084998D03*
X185404548Y-82434999D03*
X185404548Y-81784998D03*
X185404548Y-81134999D03*
X185404548Y-80484998D03*
X185404548Y-79834999D03*
X185404548Y-79185001D03*
X185404548Y-78534999D03*
X185404548Y-77885001D03*
X185404548Y-77235000D03*
%TD*%
%TO.C,LA39*%
X167155452Y-125960000D03*
X167155452Y-126609999D03*
X167155452Y-127260000D03*
X167155452Y-127909999D03*
X167155452Y-128560000D03*
X167155452Y-129209999D03*
X167155452Y-129860000D03*
X167155452Y-130509999D03*
X167155452Y-131160000D03*
X167155452Y-131809998D03*
X173004548Y-131809996D03*
X173004548Y-131159997D03*
X173004548Y-130509996D03*
X173004548Y-129859997D03*
X173004548Y-129209996D03*
X173004548Y-128559997D03*
X173004548Y-127909999D03*
X173004548Y-127259997D03*
X173004548Y-126609999D03*
X173004548Y-125959998D03*
%TD*%
%TO.C,LA38*%
X164030904Y-110035002D03*
X164030904Y-110685001D03*
X164030904Y-111335002D03*
X164030904Y-111985001D03*
X164030904Y-112635002D03*
X164030904Y-113285001D03*
X164030904Y-113935002D03*
X164030904Y-114585001D03*
X164030904Y-115235002D03*
X164030904Y-115885000D03*
X169880000Y-115884998D03*
X169880000Y-115234999D03*
X169880000Y-114584998D03*
X169880000Y-113934999D03*
X169880000Y-113284998D03*
X169880000Y-112634999D03*
X169880000Y-111985001D03*
X169880000Y-111334999D03*
X169880000Y-110685001D03*
X169880000Y-110035000D03*
%TD*%
%TO.C,LA37*%
X171430904Y-92760000D03*
X171430904Y-93409999D03*
X171430904Y-94060000D03*
X171430904Y-94709999D03*
X171430904Y-95360000D03*
X171430904Y-96009999D03*
X171430904Y-96660000D03*
X171430904Y-97309999D03*
X171430904Y-97960000D03*
X171430904Y-98609998D03*
X177280000Y-98609996D03*
X177280000Y-97959997D03*
X177280000Y-97309996D03*
X177280000Y-96659997D03*
X177280000Y-96009996D03*
X177280000Y-95359997D03*
X177280000Y-94709999D03*
X177280000Y-94059997D03*
X177280000Y-93409999D03*
X177280000Y-92759998D03*
%TD*%
%TO.C,LA36*%
X167355452Y-77235002D03*
X167355452Y-77885001D03*
X167355452Y-78535002D03*
X167355452Y-79185001D03*
X167355452Y-79835002D03*
X167355452Y-80485001D03*
X167355452Y-81135002D03*
X167355452Y-81785001D03*
X167355452Y-82435002D03*
X167355452Y-83085000D03*
X173204548Y-83084998D03*
X173204548Y-82434999D03*
X173204548Y-81784998D03*
X173204548Y-81134999D03*
X173204548Y-80484998D03*
X173204548Y-79834999D03*
X173204548Y-79185001D03*
X173204548Y-78534999D03*
X173204548Y-77885001D03*
X173204548Y-77235000D03*
%TD*%
%TO.C,LA35*%
X152955452Y-125960000D03*
X152955452Y-126609999D03*
X152955452Y-127260000D03*
X152955452Y-127909999D03*
X152955452Y-128560000D03*
X152955452Y-129209999D03*
X152955452Y-129860000D03*
X152955452Y-130509999D03*
X152955452Y-131160000D03*
X152955452Y-131809998D03*
X158804548Y-131809996D03*
X158804548Y-131159997D03*
X158804548Y-130509996D03*
X158804548Y-129859997D03*
X158804548Y-129209996D03*
X158804548Y-128559997D03*
X158804548Y-127909999D03*
X158804548Y-127259997D03*
X158804548Y-126609999D03*
X158804548Y-125959998D03*
%TD*%
%TO.C,LA34*%
X155430904Y-110035002D03*
X155430904Y-110685001D03*
X155430904Y-111335002D03*
X155430904Y-111985001D03*
X155430904Y-112635002D03*
X155430904Y-113285001D03*
X155430904Y-113935002D03*
X155430904Y-114585001D03*
X155430904Y-115235002D03*
X155430904Y-115885000D03*
X161280000Y-115884998D03*
X161280000Y-115234999D03*
X161280000Y-114584998D03*
X161280000Y-113934999D03*
X161280000Y-113284998D03*
X161280000Y-112634999D03*
X161280000Y-111985001D03*
X161280000Y-111334999D03*
X161280000Y-110685001D03*
X161280000Y-110035000D03*
%TD*%
%TO.C,LA33*%
X161880000Y-92760002D03*
X161880000Y-93410001D03*
X161880000Y-94060002D03*
X161880000Y-94710001D03*
X161880000Y-95360002D03*
X161880000Y-96010001D03*
X161880000Y-96660002D03*
X161880000Y-97310001D03*
X161880000Y-97960002D03*
X161880000Y-98610000D03*
X167729096Y-98609998D03*
X167729096Y-97959999D03*
X167729096Y-97309998D03*
X167729096Y-96659999D03*
X167729096Y-96009998D03*
X167729096Y-95359999D03*
X167729096Y-94710001D03*
X167729096Y-94059999D03*
X167729096Y-93410001D03*
X167729096Y-92760000D03*
%TD*%
%TO.C,LA32*%
X154955452Y-77235002D03*
X154955452Y-77885001D03*
X154955452Y-78535002D03*
X154955452Y-79185001D03*
X154955452Y-79835002D03*
X154955452Y-80485001D03*
X154955452Y-81135002D03*
X154955452Y-81785001D03*
X154955452Y-82435002D03*
X154955452Y-83085000D03*
X160804548Y-83084998D03*
X160804548Y-82434999D03*
X160804548Y-81784998D03*
X160804548Y-81134999D03*
X160804548Y-80484998D03*
X160804548Y-79834999D03*
X160804548Y-79185001D03*
X160804548Y-78534999D03*
X160804548Y-77885001D03*
X160804548Y-77235000D03*
%TD*%
%TO.C,LA31*%
X142555452Y-125960000D03*
X142555452Y-126609999D03*
X142555452Y-127260000D03*
X142555452Y-127909999D03*
X142555452Y-128560000D03*
X142555452Y-129209999D03*
X142555452Y-129860000D03*
X142555452Y-130509999D03*
X142555452Y-131160000D03*
X142555452Y-131809998D03*
X148404548Y-131809996D03*
X148404548Y-131159997D03*
X148404548Y-130509996D03*
X148404548Y-129859997D03*
X148404548Y-129209996D03*
X148404548Y-128559997D03*
X148404548Y-127909999D03*
X148404548Y-127259997D03*
X148404548Y-126609999D03*
X148404548Y-125959998D03*
%TD*%
%TO.C,LA30*%
X146680000Y-110035002D03*
X146680000Y-110685001D03*
X146680000Y-111335002D03*
X146680000Y-111985001D03*
X146680000Y-112635002D03*
X146680000Y-113285001D03*
X146680000Y-113935002D03*
X146680000Y-114585001D03*
X146680000Y-115235002D03*
X146680000Y-115885000D03*
X152529096Y-115884998D03*
X152529096Y-115234999D03*
X152529096Y-114584998D03*
X152529096Y-113934999D03*
X152529096Y-113284998D03*
X152529096Y-112634999D03*
X152529096Y-111985001D03*
X152529096Y-111334999D03*
X152529096Y-110685001D03*
X152529096Y-110035000D03*
%TD*%
%TO.C,LA29*%
X134880000Y-92760000D03*
X134880000Y-93409999D03*
X134880000Y-94060000D03*
X134880000Y-94709999D03*
X134880000Y-95360000D03*
X134880000Y-96009999D03*
X134880000Y-96660000D03*
X134880000Y-97309999D03*
X134880000Y-97960000D03*
X134880000Y-98609998D03*
X140729096Y-98609996D03*
X140729096Y-97959997D03*
X140729096Y-97309996D03*
X140729096Y-96659997D03*
X140729096Y-96009996D03*
X140729096Y-95359997D03*
X140729096Y-94709999D03*
X140729096Y-94059997D03*
X140729096Y-93409999D03*
X140729096Y-92759998D03*
%TD*%
%TO.C,LA28*%
X142755452Y-77235002D03*
X142755452Y-77885001D03*
X142755452Y-78535002D03*
X142755452Y-79185001D03*
X142755452Y-79835002D03*
X142755452Y-80485001D03*
X142755452Y-81135002D03*
X142755452Y-81785001D03*
X142755452Y-82435002D03*
X142755452Y-83085000D03*
X148604548Y-83084998D03*
X148604548Y-82434999D03*
X148604548Y-81784998D03*
X148604548Y-81134999D03*
X148604548Y-80484998D03*
X148604548Y-79834999D03*
X148604548Y-79185001D03*
X148604548Y-78534999D03*
X148604548Y-77885001D03*
X148604548Y-77235000D03*
%TD*%
%TO.C,LA27*%
X133830904Y-125910001D03*
X133830904Y-126560000D03*
X133830904Y-127210001D03*
X133830904Y-127860000D03*
X133830904Y-128510001D03*
X133830904Y-129160000D03*
X133830904Y-129810001D03*
X133830904Y-130460000D03*
X133830904Y-131110001D03*
X133830904Y-131759999D03*
X139680000Y-131759997D03*
X139680000Y-131109998D03*
X139680000Y-130459997D03*
X139680000Y-129809998D03*
X139680000Y-129159997D03*
X139680000Y-128509998D03*
X139680000Y-127860000D03*
X139680000Y-127209998D03*
X139680000Y-126560000D03*
X139680000Y-125909999D03*
%TD*%
%TO.C,LA26*%
X137555452Y-110035002D03*
X137555452Y-110685001D03*
X137555452Y-111335002D03*
X137555452Y-111985001D03*
X137555452Y-112635002D03*
X137555452Y-113285001D03*
X137555452Y-113935002D03*
X137555452Y-114585001D03*
X137555452Y-115235002D03*
X137555452Y-115885000D03*
X143404548Y-115884998D03*
X143404548Y-115234999D03*
X143404548Y-114584998D03*
X143404548Y-113934999D03*
X143404548Y-113284998D03*
X143404548Y-112634999D03*
X143404548Y-111985001D03*
X143404548Y-111334999D03*
X143404548Y-110685001D03*
X143404548Y-110035000D03*
%TD*%
%TO.C,LA25*%
X125080000Y-92760000D03*
X125080000Y-93409999D03*
X125080000Y-94060000D03*
X125080000Y-94709999D03*
X125080000Y-95360000D03*
X125080000Y-96009999D03*
X125080000Y-96660000D03*
X125080000Y-97309999D03*
X125080000Y-97960000D03*
X125080000Y-98609998D03*
X130929096Y-98609996D03*
X130929096Y-97959997D03*
X130929096Y-97309996D03*
X130929096Y-96659997D03*
X130929096Y-96009996D03*
X130929096Y-95359997D03*
X130929096Y-94709999D03*
X130929096Y-94059997D03*
X130929096Y-93409999D03*
X130929096Y-92759998D03*
%TD*%
%TO.C,LA24*%
X130355452Y-77235002D03*
X130355452Y-77885001D03*
X130355452Y-78535002D03*
X130355452Y-79185001D03*
X130355452Y-79835002D03*
X130355452Y-80485001D03*
X130355452Y-81135002D03*
X130355452Y-81785001D03*
X130355452Y-82435002D03*
X130355452Y-83085000D03*
X136204548Y-83084998D03*
X136204548Y-82434999D03*
X136204548Y-81784998D03*
X136204548Y-81134999D03*
X136204548Y-80484998D03*
X136204548Y-79834999D03*
X136204548Y-79185001D03*
X136204548Y-78534999D03*
X136204548Y-77885001D03*
X136204548Y-77235000D03*
%TD*%
%TO.C,LA22*%
X112430904Y-110035002D03*
X112430904Y-110685001D03*
X112430904Y-111335002D03*
X112430904Y-111985001D03*
X112430904Y-112635002D03*
X112430904Y-113285001D03*
X112430904Y-113935002D03*
X112430904Y-114585001D03*
X112430904Y-115235002D03*
X112430904Y-115885000D03*
X118280000Y-115884998D03*
X118280000Y-115234999D03*
X118280000Y-114584998D03*
X118280000Y-113934999D03*
X118280000Y-113284998D03*
X118280000Y-112634999D03*
X118280000Y-111985001D03*
X118280000Y-111334999D03*
X118280000Y-110685001D03*
X118280000Y-110035000D03*
%TD*%
%TO.C,LA21*%
X114955452Y-92760000D03*
X114955452Y-93409999D03*
X114955452Y-94060000D03*
X114955452Y-94709999D03*
X114955452Y-95360000D03*
X114955452Y-96009999D03*
X114955452Y-96660000D03*
X114955452Y-97309999D03*
X114955452Y-97960000D03*
X114955452Y-98609998D03*
X120804548Y-98609996D03*
X120804548Y-97959997D03*
X120804548Y-97309996D03*
X120804548Y-96659997D03*
X120804548Y-96009996D03*
X120804548Y-95359997D03*
X120804548Y-94709999D03*
X120804548Y-94059997D03*
X120804548Y-93409999D03*
X120804548Y-92759998D03*
%TD*%
%TO.C,LA20*%
X118480000Y-77235002D03*
X118480000Y-77885001D03*
X118480000Y-78535002D03*
X118480000Y-79185001D03*
X118480000Y-79835002D03*
X118480000Y-80485001D03*
X118480000Y-81135002D03*
X118480000Y-81785001D03*
X118480000Y-82435002D03*
X118480000Y-83085000D03*
X124329096Y-83084998D03*
X124329096Y-82434999D03*
X124329096Y-81784998D03*
X124329096Y-81134999D03*
X124329096Y-80484998D03*
X124329096Y-79834999D03*
X124329096Y-79185001D03*
X124329096Y-78534999D03*
X124329096Y-77885001D03*
X124329096Y-77235000D03*
%TD*%
%TO.C,LA19*%
X105205452Y-125960000D03*
X105205452Y-126609999D03*
X105205452Y-127260000D03*
X105205452Y-127909999D03*
X105205452Y-128560000D03*
X105205452Y-129209999D03*
X105205452Y-129860000D03*
X105205452Y-130509999D03*
X105205452Y-131160000D03*
X105205452Y-131809998D03*
X111054548Y-131809996D03*
X111054548Y-131159997D03*
X111054548Y-130509996D03*
X111054548Y-129859997D03*
X111054548Y-129209996D03*
X111054548Y-128559997D03*
X111054548Y-127909999D03*
X111054548Y-127259997D03*
X111054548Y-126609999D03*
X111054548Y-125959998D03*
%TD*%
%TO.C,LA18*%
X104130000Y-110035002D03*
X104130000Y-110685001D03*
X104130000Y-111335002D03*
X104130000Y-111985001D03*
X104130000Y-112635002D03*
X104130000Y-113285001D03*
X104130000Y-113935002D03*
X104130000Y-114585001D03*
X104130000Y-115235002D03*
X104130000Y-115885000D03*
X109979096Y-115884998D03*
X109979096Y-115234999D03*
X109979096Y-114584998D03*
X109979096Y-113934999D03*
X109979096Y-113284998D03*
X109979096Y-112634999D03*
X109979096Y-111985001D03*
X109979096Y-111334999D03*
X109979096Y-110685001D03*
X109979096Y-110035000D03*
%TD*%
%TO.C,LA17*%
X104480000Y-92760000D03*
X104480000Y-93409999D03*
X104480000Y-94060000D03*
X104480000Y-94709999D03*
X104480000Y-95360000D03*
X104480000Y-96009999D03*
X104480000Y-96660000D03*
X104480000Y-97309999D03*
X104480000Y-97960000D03*
X104480000Y-98609998D03*
X110329096Y-98609996D03*
X110329096Y-97959997D03*
X110329096Y-97309996D03*
X110329096Y-96659997D03*
X110329096Y-96009996D03*
X110329096Y-95359997D03*
X110329096Y-94709999D03*
X110329096Y-94059997D03*
X110329096Y-93409999D03*
X110329096Y-92759998D03*
%TD*%
%TO.C,LA16*%
X106155452Y-77235002D03*
X106155452Y-77885001D03*
X106155452Y-78535002D03*
X106155452Y-79185001D03*
X106155452Y-79835002D03*
X106155452Y-80485001D03*
X106155452Y-81135002D03*
X106155452Y-81785001D03*
X106155452Y-82435002D03*
X106155452Y-83085000D03*
X112004548Y-83084998D03*
X112004548Y-82434999D03*
X112004548Y-81784998D03*
X112004548Y-81134999D03*
X112004548Y-80484998D03*
X112004548Y-79834999D03*
X112004548Y-79185001D03*
X112004548Y-78534999D03*
X112004548Y-77885001D03*
X112004548Y-77235000D03*
%TD*%
%TO.C,LA15*%
X92705452Y-126035002D03*
X92705452Y-126685001D03*
X92705452Y-127335002D03*
X92705452Y-127985001D03*
X92705452Y-128635002D03*
X92705452Y-129285001D03*
X92705452Y-129935002D03*
X92705452Y-130585001D03*
X92705452Y-131235002D03*
X92705452Y-131885000D03*
X98554548Y-131884998D03*
X98554548Y-131234999D03*
X98554548Y-130584998D03*
X98554548Y-129934999D03*
X98554548Y-129284998D03*
X98554548Y-128634999D03*
X98554548Y-127985001D03*
X98554548Y-127334999D03*
X98554548Y-126685001D03*
X98554548Y-126035000D03*
%TD*%
%TO.C,LA14*%
X95705452Y-110035002D03*
X95705452Y-110685001D03*
X95705452Y-111335002D03*
X95705452Y-111985001D03*
X95705452Y-112635002D03*
X95705452Y-113285001D03*
X95705452Y-113935002D03*
X95705452Y-114585001D03*
X95705452Y-115235002D03*
X95705452Y-115885000D03*
X101554548Y-115884998D03*
X101554548Y-115234999D03*
X101554548Y-114584998D03*
X101554548Y-113934999D03*
X101554548Y-113284998D03*
X101554548Y-112634999D03*
X101554548Y-111985001D03*
X101554548Y-111334999D03*
X101554548Y-110685001D03*
X101554548Y-110035000D03*
%TD*%
%TO.C,LA13*%
X93455452Y-92785002D03*
X93455452Y-93435001D03*
X93455452Y-94085002D03*
X93455452Y-94735001D03*
X93455452Y-95385002D03*
X93455452Y-96035001D03*
X93455452Y-96685002D03*
X93455452Y-97335001D03*
X93455452Y-97985002D03*
X93455452Y-98635000D03*
X99304548Y-98634998D03*
X99304548Y-97984999D03*
X99304548Y-97334998D03*
X99304548Y-96684999D03*
X99304548Y-96034998D03*
X99304548Y-95384999D03*
X99304548Y-94735001D03*
X99304548Y-94084999D03*
X99304548Y-93435001D03*
X99304548Y-92785000D03*
%TD*%
%TO.C,LA12*%
X93705452Y-77285002D03*
X93705452Y-77935001D03*
X93705452Y-78585002D03*
X93705452Y-79235001D03*
X93705452Y-79885002D03*
X93705452Y-80535001D03*
X93705452Y-81185002D03*
X93705452Y-81835001D03*
X93705452Y-82485002D03*
X93705452Y-83135000D03*
X99554548Y-83134998D03*
X99554548Y-82484999D03*
X99554548Y-81834998D03*
X99554548Y-81184999D03*
X99554548Y-80534998D03*
X99554548Y-79884999D03*
X99554548Y-79235001D03*
X99554548Y-78584999D03*
X99554548Y-77935001D03*
X99554548Y-77285000D03*
%TD*%
%TO.C,LA11*%
X82205452Y-126035002D03*
X82205452Y-126685001D03*
X82205452Y-127335002D03*
X82205452Y-127985001D03*
X82205452Y-128635002D03*
X82205452Y-129285001D03*
X82205452Y-129935002D03*
X82205452Y-130585001D03*
X82205452Y-131235002D03*
X82205452Y-131885000D03*
X88054548Y-131884998D03*
X88054548Y-131234999D03*
X88054548Y-130584998D03*
X88054548Y-129934999D03*
X88054548Y-129284998D03*
X88054548Y-128634999D03*
X88054548Y-127985001D03*
X88054548Y-127334999D03*
X88054548Y-126685001D03*
X88054548Y-126035000D03*
%TD*%
%TO.C,LA10*%
X87455452Y-110035002D03*
X87455452Y-110685001D03*
X87455452Y-111335002D03*
X87455452Y-111985001D03*
X87455452Y-112635002D03*
X87455452Y-113285001D03*
X87455452Y-113935002D03*
X87455452Y-114585001D03*
X87455452Y-115235002D03*
X87455452Y-115885000D03*
X93304548Y-115884998D03*
X93304548Y-115234999D03*
X93304548Y-114584998D03*
X93304548Y-113934999D03*
X93304548Y-113284998D03*
X93304548Y-112634999D03*
X93304548Y-111985001D03*
X93304548Y-111334999D03*
X93304548Y-110685001D03*
X93304548Y-110035000D03*
%TD*%
%TO.C,LA9*%
X81455452Y-92785002D03*
X81455452Y-93435001D03*
X81455452Y-94085002D03*
X81455452Y-94735001D03*
X81455452Y-95385002D03*
X81455452Y-96035001D03*
X81455452Y-96685002D03*
X81455452Y-97335001D03*
X81455452Y-97985002D03*
X81455452Y-98635000D03*
X87304548Y-98634998D03*
X87304548Y-97984999D03*
X87304548Y-97334998D03*
X87304548Y-96684999D03*
X87304548Y-96034998D03*
X87304548Y-95384999D03*
X87304548Y-94735001D03*
X87304548Y-94084999D03*
X87304548Y-93435001D03*
X87304548Y-92785000D03*
%TD*%
%TO.C,LA7*%
X71705452Y-126035002D03*
X71705452Y-126685001D03*
X71705452Y-127335002D03*
X71705452Y-127985001D03*
X71705452Y-128635002D03*
X71705452Y-129285001D03*
X71705452Y-129935002D03*
X71705452Y-130585001D03*
X71705452Y-131235002D03*
X71705452Y-131885000D03*
X77554548Y-131884998D03*
X77554548Y-131234999D03*
X77554548Y-130584998D03*
X77554548Y-129934999D03*
X77554548Y-129284998D03*
X77554548Y-128634999D03*
X77554548Y-127985001D03*
X77554548Y-127334999D03*
X77554548Y-126685001D03*
X77554548Y-126035000D03*
%TD*%
%TO.C,LA6*%
X68979096Y-110035000D03*
X68979096Y-110685001D03*
X68979096Y-111334999D03*
X68979096Y-111985001D03*
X68979096Y-112634999D03*
X68979096Y-113284998D03*
X68979096Y-113934999D03*
X68979096Y-114584998D03*
X68979096Y-115234999D03*
X68979096Y-115884998D03*
X63130000Y-115885000D03*
X63130000Y-115235002D03*
X63130000Y-114585001D03*
X63130000Y-113935002D03*
X63130000Y-113285001D03*
X63130000Y-112635002D03*
X63130000Y-111985001D03*
X63130000Y-111335002D03*
X63130000Y-110685001D03*
X63130000Y-110035002D03*
%TD*%
%TO.C,LA5*%
X69205452Y-92785002D03*
X69205452Y-93435001D03*
X69205452Y-94085002D03*
X69205452Y-94735001D03*
X69205452Y-95385002D03*
X69205452Y-96035001D03*
X69205452Y-96685002D03*
X69205452Y-97335001D03*
X69205452Y-97985002D03*
X69205452Y-98635000D03*
X75054548Y-98634998D03*
X75054548Y-97984999D03*
X75054548Y-97334998D03*
X75054548Y-96684999D03*
X75054548Y-96034998D03*
X75054548Y-95384999D03*
X75054548Y-94735001D03*
X75054548Y-94084999D03*
X75054548Y-93435001D03*
X75054548Y-92785000D03*
%TD*%
%TO.C,LA4*%
X68705452Y-77285002D03*
X68705452Y-77935001D03*
X68705452Y-78585002D03*
X68705452Y-79235001D03*
X68705452Y-79885002D03*
X68705452Y-80535001D03*
X68705452Y-81185002D03*
X68705452Y-81835001D03*
X68705452Y-82485002D03*
X68705452Y-83135000D03*
X74554548Y-83134998D03*
X74554548Y-82484999D03*
X74554548Y-81834998D03*
X74554548Y-81184999D03*
X74554548Y-80534998D03*
X74554548Y-79884999D03*
X74554548Y-79235001D03*
X74554548Y-78584999D03*
X74554548Y-77935001D03*
X74554548Y-77285000D03*
%TD*%
%TO.C,LA3*%
X61955452Y-126035002D03*
X61955452Y-126685001D03*
X61955452Y-127335002D03*
X61955452Y-127985001D03*
X61955452Y-128635002D03*
X61955452Y-129285001D03*
X61955452Y-129935002D03*
X61955452Y-130585001D03*
X61955452Y-131235002D03*
X61955452Y-131885000D03*
X67804548Y-131884998D03*
X67804548Y-131234999D03*
X67804548Y-130584998D03*
X67804548Y-129934999D03*
X67804548Y-129284998D03*
X67804548Y-128634999D03*
X67804548Y-127985001D03*
X67804548Y-127334999D03*
X67804548Y-126685001D03*
X67804548Y-126035000D03*
%TD*%
%TO.C,LA2*%
X54955452Y-110035002D03*
X54955452Y-110685001D03*
X54955452Y-111335002D03*
X54955452Y-111985001D03*
X54955452Y-112635002D03*
X54955452Y-113285001D03*
X54955452Y-113935002D03*
X54955452Y-114585001D03*
X54955452Y-115235002D03*
X54955452Y-115885000D03*
X60804548Y-115884998D03*
X60804548Y-115234999D03*
X60804548Y-114584998D03*
X60804548Y-113934999D03*
X60804548Y-113284998D03*
X60804548Y-112634999D03*
X60804548Y-111985001D03*
X60804548Y-111334999D03*
X60804548Y-110685001D03*
X60804548Y-110035000D03*
%TD*%
%TO.C,LA1*%
X56705452Y-92785002D03*
X56705452Y-93435001D03*
X56705452Y-94085002D03*
X56705452Y-94735001D03*
X56705452Y-95385002D03*
X56705452Y-96035001D03*
X56705452Y-96685002D03*
X56705452Y-97335001D03*
X56705452Y-97985002D03*
X56705452Y-98635000D03*
X62554548Y-98634998D03*
X62554548Y-97984999D03*
X62554548Y-97334998D03*
X62554548Y-96684999D03*
X62554548Y-96034998D03*
X62554548Y-95384999D03*
X62554548Y-94735001D03*
X62554548Y-94084999D03*
X62554548Y-93435001D03*
X62554548Y-92785000D03*
%TD*%
%TO.C,LA0*%
X56705452Y-77285002D03*
X56705452Y-77935001D03*
X56705452Y-78585002D03*
X56705452Y-79235001D03*
X56705452Y-79885002D03*
X56705452Y-80535001D03*
X56705452Y-81185002D03*
X56705452Y-81835001D03*
X56705452Y-82485002D03*
X56705452Y-83135000D03*
X62554548Y-83134998D03*
X62554548Y-82484999D03*
X62554548Y-81834998D03*
X62554548Y-81184999D03*
X62554548Y-80534998D03*
X62554548Y-79884999D03*
X62554548Y-79235001D03*
X62554548Y-78584999D03*
X62554548Y-77935001D03*
X62554548Y-77285000D03*
%TD*%
D12*
%TO.C,J3*%
X57410000Y-133030000D03*
X57410000Y-128390000D03*
D13*
X55180000Y-131835000D03*
D14*
X57830000Y-130710000D03*
X57830000Y-130060000D03*
X57830000Y-129410000D03*
X57830000Y-132010000D03*
X57830000Y-131360000D03*
D13*
X55180000Y-129585000D03*
%TD*%
D15*
%TO.C,IC5*%
X122790000Y-131481300D03*
X124060000Y-131481300D03*
X125330000Y-131481300D03*
X126600000Y-131481300D03*
X127870000Y-131481300D03*
X129140000Y-131481300D03*
X130410000Y-131481300D03*
X131680000Y-131481300D03*
X131680000Y-126160000D03*
X130410000Y-126160000D03*
X129140000Y-126160000D03*
X127870000Y-126160000D03*
X126600000Y-126160000D03*
X125330000Y-126160000D03*
X124060000Y-126160000D03*
X122790000Y-126160000D03*
%TD*%
D16*
%TO.C,IC4*%
X144495000Y-100885000D03*
X145765000Y-100885000D03*
X147035000Y-100885000D03*
X148305000Y-100885000D03*
X149575000Y-100885000D03*
X150845000Y-100885000D03*
X152115000Y-100885000D03*
X153385000Y-100885000D03*
X154655000Y-100885000D03*
X155925000Y-100885000D03*
X157195000Y-100885000D03*
X158465000Y-100885000D03*
X158465000Y-91435000D03*
X157195000Y-91435000D03*
X155925000Y-91435000D03*
X154655000Y-91435000D03*
X153385000Y-91435000D03*
X152115000Y-91435000D03*
X150845000Y-91435000D03*
X149575000Y-91435000D03*
X148305000Y-91435000D03*
X147035000Y-91435000D03*
X145765000Y-91435000D03*
X144495000Y-91435000D03*
%TD*%
%TO.C,IC3*%
X227680000Y-100610000D03*
X228950000Y-100610000D03*
X230220000Y-100610000D03*
X231490000Y-100610000D03*
X232760000Y-100610000D03*
X234030000Y-100610000D03*
X235300000Y-100610000D03*
X236570000Y-100610000D03*
X237840000Y-100610000D03*
X239110000Y-100610000D03*
X240380000Y-100610000D03*
X241650000Y-100610000D03*
X241650000Y-91160000D03*
X240380000Y-91160000D03*
X239110000Y-91160000D03*
X237840000Y-91160000D03*
X236570000Y-91160000D03*
X235300000Y-91160000D03*
X234030000Y-91160000D03*
X232760000Y-91160000D03*
X231490000Y-91160000D03*
X230220000Y-91160000D03*
X228950000Y-91160000D03*
X227680000Y-91160000D03*
%TD*%
%TO.C,IC2*%
X181450000Y-118410000D03*
X182720000Y-118410000D03*
X183990000Y-118410000D03*
X185260000Y-118410000D03*
X186530000Y-118410000D03*
X187800000Y-118410000D03*
X189070000Y-118410000D03*
X190340000Y-118410000D03*
X191610000Y-118410000D03*
X192880000Y-118410000D03*
X194150000Y-118410000D03*
X195420000Y-118410000D03*
X195420000Y-108960000D03*
X194150000Y-108960000D03*
X192880000Y-108960000D03*
X191610000Y-108960000D03*
X190340000Y-108960000D03*
X189070000Y-108960000D03*
X187800000Y-108960000D03*
X186530000Y-108960000D03*
X185260000Y-108960000D03*
X183990000Y-108960000D03*
X182720000Y-108960000D03*
X181450000Y-108960000D03*
%TD*%
%TO.C,IC1*%
X120710000Y-118210000D03*
X121980000Y-118210000D03*
X123250000Y-118210000D03*
X124520000Y-118210000D03*
X125790000Y-118210000D03*
X127060000Y-118210000D03*
X128330000Y-118210000D03*
X129600000Y-118210000D03*
X130870000Y-118210000D03*
X132140000Y-118210000D03*
X133410000Y-118210000D03*
X134680000Y-118210000D03*
X134680000Y-108760000D03*
X133410000Y-108760000D03*
X132140000Y-108760000D03*
X130870000Y-108760000D03*
X129600000Y-108760000D03*
X128330000Y-108760000D03*
X127060000Y-108760000D03*
X125790000Y-108760000D03*
X124520000Y-108760000D03*
X123250000Y-108760000D03*
X121980000Y-108760000D03*
X120710000Y-108760000D03*
%TD*%
%TO.C,IC0*%
X71145000Y-118185000D03*
X72415000Y-118185000D03*
X73685000Y-118185000D03*
X74955000Y-118185000D03*
X76225000Y-118185000D03*
X77495000Y-118185000D03*
X78765000Y-118185000D03*
X80035000Y-118185000D03*
X81305000Y-118185000D03*
X82575000Y-118185000D03*
X83845000Y-118185000D03*
X85115000Y-118185000D03*
X85115000Y-108735000D03*
X83845000Y-108735000D03*
X82575000Y-108735000D03*
X81305000Y-108735000D03*
X80035000Y-108735000D03*
X78765000Y-108735000D03*
X77495000Y-108735000D03*
X76225000Y-108735000D03*
X74955000Y-108735000D03*
X73685000Y-108735000D03*
X72415000Y-108735000D03*
X71145000Y-108735000D03*
%TD*%
%TO.C,C10*%
G36*
G01*
X220955000Y-133910000D02*
X220005000Y-133910000D01*
G75*
G02*
X219755000Y-133660000I0J250000D01*
G01*
X219755000Y-133160000D01*
G75*
G02*
X220005000Y-132910000I250000J0D01*
G01*
X220955000Y-132910000D01*
G75*
G02*
X221205000Y-133160000I0J-250000D01*
G01*
X221205000Y-133660000D01*
G75*
G02*
X220955000Y-133910000I-250000J0D01*
G01*
G37*
G36*
G01*
X220955000Y-135810000D02*
X220005000Y-135810000D01*
G75*
G02*
X219755000Y-135560000I0J250000D01*
G01*
X219755000Y-135060000D01*
G75*
G02*
X220005000Y-134810000I250000J0D01*
G01*
X220955000Y-134810000D01*
G75*
G02*
X221205000Y-135060000I0J-250000D01*
G01*
X221205000Y-135560000D01*
G75*
G02*
X220955000Y-135810000I-250000J0D01*
G01*
G37*
%TD*%
%TO.C,C9*%
G36*
G01*
X214955000Y-133910000D02*
X214005000Y-133910000D01*
G75*
G02*
X213755000Y-133660000I0J250000D01*
G01*
X213755000Y-133160000D01*
G75*
G02*
X214005000Y-132910000I250000J0D01*
G01*
X214955000Y-132910000D01*
G75*
G02*
X215205000Y-133160000I0J-250000D01*
G01*
X215205000Y-133660000D01*
G75*
G02*
X214955000Y-133910000I-250000J0D01*
G01*
G37*
G36*
G01*
X214955000Y-135810000D02*
X214005000Y-135810000D01*
G75*
G02*
X213755000Y-135560000I0J250000D01*
G01*
X213755000Y-135060000D01*
G75*
G02*
X214005000Y-134810000I250000J0D01*
G01*
X214955000Y-134810000D01*
G75*
G02*
X215205000Y-135060000I0J-250000D01*
G01*
X215205000Y-135560000D01*
G75*
G02*
X214955000Y-135810000I-250000J0D01*
G01*
G37*
%TD*%
%TO.C,C8*%
G36*
G01*
X172555000Y-134060000D02*
X171605000Y-134060000D01*
G75*
G02*
X171355000Y-133810000I0J250000D01*
G01*
X171355000Y-133310000D01*
G75*
G02*
X171605000Y-133060000I250000J0D01*
G01*
X172555000Y-133060000D01*
G75*
G02*
X172805000Y-133310000I0J-250000D01*
G01*
X172805000Y-133810000D01*
G75*
G02*
X172555000Y-134060000I-250000J0D01*
G01*
G37*
G36*
G01*
X172555000Y-135960000D02*
X171605000Y-135960000D01*
G75*
G02*
X171355000Y-135710000I0J250000D01*
G01*
X171355000Y-135210000D01*
G75*
G02*
X171605000Y-134960000I250000J0D01*
G01*
X172555000Y-134960000D01*
G75*
G02*
X172805000Y-135210000I0J-250000D01*
G01*
X172805000Y-135710000D01*
G75*
G02*
X172555000Y-135960000I-250000J0D01*
G01*
G37*
%TD*%
%TO.C,C7*%
G36*
G01*
X166555000Y-134060000D02*
X165605000Y-134060000D01*
G75*
G02*
X165355000Y-133810000I0J250000D01*
G01*
X165355000Y-133310000D01*
G75*
G02*
X165605000Y-133060000I250000J0D01*
G01*
X166555000Y-133060000D01*
G75*
G02*
X166805000Y-133310000I0J-250000D01*
G01*
X166805000Y-133810000D01*
G75*
G02*
X166555000Y-134060000I-250000J0D01*
G01*
G37*
G36*
G01*
X166555000Y-135960000D02*
X165605000Y-135960000D01*
G75*
G02*
X165355000Y-135710000I0J250000D01*
G01*
X165355000Y-135210000D01*
G75*
G02*
X165605000Y-134960000I250000J0D01*
G01*
X166555000Y-134960000D01*
G75*
G02*
X166805000Y-135210000I0J-250000D01*
G01*
X166805000Y-135710000D01*
G75*
G02*
X166555000Y-135960000I-250000J0D01*
G01*
G37*
%TD*%
%TO.C,C6*%
G36*
G01*
X110755000Y-134110000D02*
X109805000Y-134110000D01*
G75*
G02*
X109555000Y-133860000I0J250000D01*
G01*
X109555000Y-133360000D01*
G75*
G02*
X109805000Y-133110000I250000J0D01*
G01*
X110755000Y-133110000D01*
G75*
G02*
X111005000Y-133360000I0J-250000D01*
G01*
X111005000Y-133860000D01*
G75*
G02*
X110755000Y-134110000I-250000J0D01*
G01*
G37*
G36*
G01*
X110755000Y-136010000D02*
X109805000Y-136010000D01*
G75*
G02*
X109555000Y-135760000I0J250000D01*
G01*
X109555000Y-135260000D01*
G75*
G02*
X109805000Y-135010000I250000J0D01*
G01*
X110755000Y-135010000D01*
G75*
G02*
X111005000Y-135260000I0J-250000D01*
G01*
X111005000Y-135760000D01*
G75*
G02*
X110755000Y-136010000I-250000J0D01*
G01*
G37*
%TD*%
%TO.C,C5*%
G36*
G01*
X104555000Y-134110000D02*
X103605000Y-134110000D01*
G75*
G02*
X103355000Y-133860000I0J250000D01*
G01*
X103355000Y-133360000D01*
G75*
G02*
X103605000Y-133110000I250000J0D01*
G01*
X104555000Y-133110000D01*
G75*
G02*
X104805000Y-133360000I0J-250000D01*
G01*
X104805000Y-133860000D01*
G75*
G02*
X104555000Y-134110000I-250000J0D01*
G01*
G37*
G36*
G01*
X104555000Y-136010000D02*
X103605000Y-136010000D01*
G75*
G02*
X103355000Y-135760000I0J250000D01*
G01*
X103355000Y-135260000D01*
G75*
G02*
X103605000Y-135010000I250000J0D01*
G01*
X104555000Y-135010000D01*
G75*
G02*
X104805000Y-135260000I0J-250000D01*
G01*
X104805000Y-135760000D01*
G75*
G02*
X104555000Y-136010000I-250000J0D01*
G01*
G37*
%TD*%
%TO.C,C4*%
G36*
G01*
X68355000Y-134010000D02*
X67405000Y-134010000D01*
G75*
G02*
X67155000Y-133760000I0J250000D01*
G01*
X67155000Y-133260000D01*
G75*
G02*
X67405000Y-133010000I250000J0D01*
G01*
X68355000Y-133010000D01*
G75*
G02*
X68605000Y-133260000I0J-250000D01*
G01*
X68605000Y-133760000D01*
G75*
G02*
X68355000Y-134010000I-250000J0D01*
G01*
G37*
G36*
G01*
X68355000Y-135910000D02*
X67405000Y-135910000D01*
G75*
G02*
X67155000Y-135660000I0J250000D01*
G01*
X67155000Y-135160000D01*
G75*
G02*
X67405000Y-134910000I250000J0D01*
G01*
X68355000Y-134910000D01*
G75*
G02*
X68605000Y-135160000I0J-250000D01*
G01*
X68605000Y-135660000D01*
G75*
G02*
X68355000Y-135910000I-250000J0D01*
G01*
G37*
%TD*%
%TO.C,C3*%
G36*
G01*
X61855000Y-134010000D02*
X60905000Y-134010000D01*
G75*
G02*
X60655000Y-133760000I0J250000D01*
G01*
X60655000Y-133260000D01*
G75*
G02*
X60905000Y-133010000I250000J0D01*
G01*
X61855000Y-133010000D01*
G75*
G02*
X62105000Y-133260000I0J-250000D01*
G01*
X62105000Y-133760000D01*
G75*
G02*
X61855000Y-134010000I-250000J0D01*
G01*
G37*
G36*
G01*
X61855000Y-135910000D02*
X60905000Y-135910000D01*
G75*
G02*
X60655000Y-135660000I0J250000D01*
G01*
X60655000Y-135160000D01*
G75*
G02*
X60905000Y-134910000I250000J0D01*
G01*
X61855000Y-134910000D01*
G75*
G02*
X62105000Y-135160000I0J-250000D01*
G01*
X62105000Y-135660000D01*
G75*
G02*
X61855000Y-135910000I-250000J0D01*
G01*
G37*
%TD*%
%TO.C,C2*%
G36*
G01*
X119005000Y-134810000D02*
X119955000Y-134810000D01*
G75*
G02*
X120205000Y-135060000I0J-250000D01*
G01*
X120205000Y-135560000D01*
G75*
G02*
X119955000Y-135810000I-250000J0D01*
G01*
X119005000Y-135810000D01*
G75*
G02*
X118755000Y-135560000I0J250000D01*
G01*
X118755000Y-135060000D01*
G75*
G02*
X119005000Y-134810000I250000J0D01*
G01*
G37*
G36*
G01*
X119005000Y-132910000D02*
X119955000Y-132910000D01*
G75*
G02*
X120205000Y-133160000I0J-250000D01*
G01*
X120205000Y-133660000D01*
G75*
G02*
X119955000Y-133910000I-250000J0D01*
G01*
X119005000Y-133910000D01*
G75*
G02*
X118755000Y-133660000I0J250000D01*
G01*
X118755000Y-133160000D01*
G75*
G02*
X119005000Y-132910000I250000J0D01*
G01*
G37*
%TD*%
%TO.C,C1*%
G36*
G01*
X125205000Y-134760000D02*
X126155000Y-134760000D01*
G75*
G02*
X126405000Y-135010000I0J-250000D01*
G01*
X126405000Y-135510000D01*
G75*
G02*
X126155000Y-135760000I-250000J0D01*
G01*
X125205000Y-135760000D01*
G75*
G02*
X124955000Y-135510000I0J250000D01*
G01*
X124955000Y-135010000D01*
G75*
G02*
X125205000Y-134760000I250000J0D01*
G01*
G37*
G36*
G01*
X125205000Y-132860000D02*
X126155000Y-132860000D01*
G75*
G02*
X126405000Y-133110000I0J-250000D01*
G01*
X126405000Y-133610000D01*
G75*
G02*
X126155000Y-133860000I-250000J0D01*
G01*
X125205000Y-133860000D01*
G75*
G02*
X124955000Y-133610000I0J250000D01*
G01*
X124955000Y-133110000D01*
G75*
G02*
X125205000Y-132860000I250000J0D01*
G01*
G37*
%TD*%
M02*
