M48
; DRILL file {KiCad (5.1.10)-1} date 03/07/22 16:55:37
; FORMAT={-:-/ absolute / inch / decimal}
; #@! TF.CreationDate,2022-03-07T16:55:37-05:00
; #@! TF.GenerationSoftware,Kicad,Pcbnew,(5.1.10)-1
; #@! TF.FileFunction,Plated,1,2,PTH
FMAT,2
INCH
T1C0.0118
T2C0.0157
T3C0.0177
T4C0.0335
T5C0.0394
%
G90
G05
T1
X2.2109Y-4.592
X2.2176Y-3.6146
X2.2276Y-3.9256
X2.2296Y-4.3025
X2.2394Y-4.6146
X2.2438Y-3.9526
X2.2611Y-4.3025
X2.2663Y-4.6369
X2.2789Y-3.9553
X2.2798Y-3.0131
X2.2922Y-3.5942
X2.2926Y-4.3025
X2.296Y-4.5949
X2.2985Y-3.3374
X2.3113Y-3.0131
X2.3232Y-3.3023
X2.3232Y-3.5998
X2.3232Y-3.9551
X2.3513Y-4.4042
X2.353Y-4.3545
X2.3555Y-4.5127
X2.3565Y-4.4591
X2.4362Y-4.4866
X2.4362Y-4.5373
X2.4364Y-4.3791
X2.4371Y-4.4296
X2.4758Y-5.1661
X2.4991Y-3.1197
X2.4992Y-4.2898
X2.5017Y-3.2212
X2.5034Y-3.0658
X2.5034Y-3.1706
X2.5051Y-3.6795
X2.5051Y-3.7287
X2.5051Y-3.7799
X2.5053Y-3.8311
X2.507Y-4.2507
X2.5073Y-5.1655
X2.5164Y-3.2491
X2.5174Y-3.094
X2.5196Y-3.1436
X2.5213Y-3.1965
X2.5274Y-3.7041
X2.5274Y-3.7533
X2.5285Y-3.8045
X2.5298Y-3.8557
X2.5338Y-4.5619
X2.5387Y-5.1659
X2.5653Y-4.5619
X2.5701Y-4.2949
X2.5702Y-5.1657
X2.5968Y-4.5619
X2.6001Y-4.2825
X2.6178Y-4.5117
X2.6232Y-5.1362
X2.6251Y-5.0833
X2.6269Y-5.0341
X2.6282Y-4.5619
X2.6286Y-4.9844
X2.6582Y-3.0124
X2.6697Y-4.4037
X2.6721Y-4.3518
X2.6724Y-4.4571
X2.6724Y-4.5112
X2.6823Y-3.6233
X2.689Y-4.1291
X2.7121Y-5.009
X2.7131Y-5.0587
X2.7141Y-5.1084
X2.7217Y-5.1608
X2.7493Y-3.0131
X2.7533Y-3.2737
X2.761Y-4.3783
X2.761Y-4.4866
X2.761Y-4.5358
X2.762Y-3.6233
X2.7633Y-4.4283
X2.7729Y-3.8803
X2.7775Y-4.9312
X2.7808Y-3.0131
X2.7848Y-3.2737
X2.7935Y-3.6233
X2.8004Y-4.6539
X2.8044Y-3.8803
X2.8123Y-3.0131
X2.8163Y-3.2737
X2.825Y-3.6233
X2.8359Y-3.8803
X2.8478Y-3.2737
X2.8496Y-4.2987
X2.8496Y-4.6264
X2.8674Y-3.8803
X2.8693Y-4.9312
X2.8714Y-5.1854
X2.8988Y-4.2987
X2.8988Y-4.6244
X2.9008Y-4.9312
X2.9029Y-5.1854
X2.9323Y-4.9312
X2.9367Y-5.1854
X2.948Y-4.6244
X2.9682Y-5.1854
X2.975Y-3.2219
X2.9776Y-3.1186
X2.9776Y-3.1697
X2.9821Y-3.0684
X2.996Y-3.1441
X2.9972Y-3.7287
X2.9972Y-3.1972
X2.9972Y-3.2465
X2.9975Y-3.8291
X2.9992Y-3.778
X3.0008Y-3.0937
X3.0017Y-3.6785
X3.007Y-5.133
X3.0089Y-5.0833
X3.0108Y-5.0341
X3.0124Y-4.9844
X3.0189Y-3.8026
X3.0195Y-3.7533
X3.0204Y-3.7039
X3.0208Y-3.8537
X3.0494Y-3.8026
X3.073Y-3.8537
X3.0858Y-3.2465
X3.0959Y-5.009
X3.098Y-5.1084
X3.0986Y-3.8291
X3.0997Y-5.0587
X3.1017Y-5.1576
X3.1104Y-3.2219
X3.135Y-3.0131
X3.1577Y-3.6233
X3.1909Y-4.9312
X3.2148Y-3.0131
X3.2257Y-3.276
X3.2463Y-3.0131
X3.2513Y-3.6233
X3.2552Y-3.8783
X3.2572Y-3.276
X3.2778Y-3.0131
X3.2808Y-4.9312
X3.2828Y-3.6233
X3.2845Y-5.1822
X3.2867Y-3.8783
X3.2887Y-3.276
X3.2955Y-3.1943
X3.3123Y-4.9312
X3.3143Y-3.6233
X3.3172Y-5.1822
X3.3182Y-3.8783
X3.3202Y-3.276
X3.3438Y-4.9312
X3.3487Y-5.1822
X3.3497Y-3.8783
X3.3713Y-3.778
X3.3762Y-4.4325
X3.3802Y-5.1822
X3.4008Y-4.6589
X3.4106Y-3.3006
X3.4204Y-5.133
X3.4205Y-3.9256
X3.4223Y-5.0833
X3.4242Y-5.0341
X3.4258Y-4.9844
X3.4402Y-4.6589
X3.45Y-3.0693
X3.45Y-3.1687
X3.4502Y-3.2219
X3.452Y-3.1185
X3.4716Y-3.1431
X3.4723Y-3.0939
X3.4729Y-3.1933
X3.4733Y-4.6605
X3.4753Y-3.2465
X3.4795Y-3.6795
X3.4795Y-3.7287
X3.4795Y-3.778
X3.4798Y-3.8274
X3.4851Y-4.2228
X3.4858Y-3.5475
X3.5018Y-3.7041
X3.5018Y-3.7533
X3.5018Y-3.8026
X3.502Y-3.852
X3.5092Y-4.2474
X3.5093Y-5.009
X3.5094Y-4.6592
X3.5101Y-3.1687
X3.5131Y-5.0587
X3.515Y-5.1079
X3.515Y-5.1576
X3.5287Y-3.7533
X3.534Y-4.7031
X3.5386Y-3.1431
X3.5442Y-4.4079
X3.5583Y-3.7287
X3.5632Y-4.2474
X3.5681Y-3.1185
X3.5728Y-5.0587
X3.5829Y-3.7041
X3.5927Y-3.0939
X3.6007Y-4.9312
X3.6026Y-4.3791
X3.608Y-3.6795
X3.6173Y-3.0693
X3.6252Y-4.462
X3.6271Y-4.5112
X3.6272Y-3.8862
X3.6272Y-4.3587
X3.6272Y-4.4079
X3.6326Y-3.6233
X3.6469Y-3.276
X3.6472Y-3.0131
X3.6794Y-4.2228
X3.6942Y-4.9312
X3.6981Y-5.1854
X3.7098Y-4.6596
X3.7157Y-4.5358
X3.716Y-4.3833
X3.717Y-4.4325
X3.7196Y-4.4856
X3.7257Y-4.9312
X3.7266Y-3.0131
X3.7267Y-3.6233
X3.7277Y-3.8813
X3.7296Y-5.1854
X3.7404Y-3.276
X3.7453Y-4.6589
X3.7572Y-4.9312
X3.7582Y-3.6233
X3.7592Y-3.8813
X3.7611Y-5.1854
X3.7719Y-3.276
X3.7784Y-4.6605
X3.7846Y-3.0131
X3.7897Y-3.6233
X3.7907Y-3.8813
X3.7926Y-5.1854
X3.8043Y-3.276
X3.8099Y-4.2228
X3.8152Y-3.1687
X3.8192Y-4.6589
X3.8222Y-3.8813
X3.8339Y-5.1362
X3.834Y-4.2474
X3.8357Y-5.0833
X3.8358Y-3.276
X3.8376Y-5.0341
X3.8392Y-4.9844
X3.8634Y-4.6589
X3.8655Y-4.2474
X3.8829Y-3.2469
X3.888Y-4.585
X3.8929Y-2.8646
X3.897Y-4.2474
X3.9136Y-4.6096
X3.9227Y-5.009
X3.9282Y-5.0587
X3.9284Y-5.1608
X3.9284Y-5.1079
X3.952Y-3.7287
X3.952Y-3.778
X3.9549Y-4.3833
X3.9549Y-4.4325
X3.9557Y-4.5358
X3.9565Y-3.6785
X3.9565Y-3.8321
X3.9569Y-4.4856
X3.9618Y-3.1185
X3.9618Y-3.1677
X3.9663Y-3.0683
X3.9663Y-3.222
X3.9742Y-3.7533
X3.9742Y-3.8026
X3.9751Y-3.7039
X3.9791Y-3.8567
X3.9841Y-3.1431
X3.9841Y-3.1923
X3.985Y-3.0937
X4.0189Y-5.1874
X4.0396Y-4.2307
X4.0408Y-4.459
X4.0425Y-4.4079
X4.0425Y-4.5102
X4.0462Y-4.3522
X4.0474Y-4.5604
X4.0651Y-3.644
X4.0937Y-4.951
X4.0996Y-4.2898
X4.1134Y-3.8834
X4.1242Y-4.2652
X4.1357Y-3.021
X4.1468Y-4.6589
X4.1606Y-3.6223
X4.1606Y-3.9059
X4.1734Y-4.2406
X4.1783Y-4.6589
X4.1843Y-5.2142
X4.1902Y-4.9294
X4.1921Y-3.6223
X4.1921Y-3.9059
X4.2049Y-4.2406
X4.2098Y-4.6589
X4.2157Y-5.2142
X4.2217Y-4.9294
X4.2236Y-3.6223
X4.2236Y-3.9059
X4.2237Y-3.0111
X4.2277Y-3.2715
X4.2364Y-4.2406
X4.2413Y-4.6589
X4.2472Y-5.2142
X4.2532Y-4.9294
X4.2551Y-3.9059
X4.2592Y-3.2715
X4.2787Y-5.3744
X4.2787Y-5.2142
X4.2866Y-4.4079
X4.2866Y-4.5102
X4.2886Y-4.3587
X4.2886Y-4.4571
X4.2945Y-3.2715
X4.2945Y-3.9059
X4.3Y-3.7533
X4.3022Y-3.8075
X4.3022Y-3.7031
X4.3024Y-3.8567
X4.3277Y-5.0833
X4.3299Y-5.1362
X4.3302Y-5.0341
X4.3321Y-4.9844
X4.3654Y-3.1677
X4.3654Y-3.2189
X4.3664Y-3.0683
X4.3673Y-3.1185
X4.3708Y-4.4824
X4.3713Y-4.5358
X4.3722Y-4.3833
X4.3722Y-4.4325
X4.386Y-3.6785
X4.387Y-3.7287
X4.388Y-3.8321
X4.389Y-3.778
X4.414Y-5.1087
X4.4153Y-5.009
X4.4153Y-5.0587
X4.4156Y-5.1608
X4.4283Y-5.1896
X4.4283Y-4.6589
X4.4512Y-3.0937
X4.452Y-4.6844
X4.4539Y-4.6343
X4.4549Y-3.1923
X4.4549Y-3.1431
X4.4555Y-3.2469
X4.4749Y-4.7091
X4.4756Y-5.1904
X4.4863Y-3.6223
X4.4992Y-3.9236
X4.5102Y-4.5604
X4.5248Y-4.9294
X4.5249Y-5.2151
X4.5305Y-4.2404
X4.5307Y-3.9236
X4.5564Y-5.2151
X4.5701Y-3.9413
X4.5716Y-3.6223
X4.5741Y-4.9276
X4.5879Y-5.2151
X4.5938Y-4.7337
X4.5985Y-3.2715
X4.6016Y-3.9413
X4.6016Y-4.2406
X4.6031Y-3.6223
X4.6114Y-4.4571
X4.6135Y-4.5063
X4.6148Y-4.4079
X4.6154Y-4.3587
X4.6173Y-4.9276
X4.6173Y-5.2504
X4.6253Y-4.7337
X4.6288Y-4.2159
X4.6331Y-3.9413
X4.6346Y-3.6223
X4.6455Y-5.2155
X4.6488Y-2.8705
X4.6606Y-5.1362
X4.6609Y-5.0341
X4.6629Y-5.0833
X4.6663Y-4.9844
X4.6724Y-4.649
X4.6975Y-4.5358
X4.699Y-4.4817
X4.703Y-4.3833
X4.703Y-4.4325
X4.7039Y-5.3272
X4.7118Y-3.7285
X4.7118Y-3.778
X4.7118Y-3.9236
X4.7128Y-3.8321
X4.7129Y-3.2715
X4.7148Y-3.6785
X4.7482Y-5.1608
X4.7485Y-5.0587
X4.7485Y-5.009
X4.7504Y-5.1079
X4.7512Y-3.2715
X4.7524Y-4.6274
X4.7827Y-2.9551
X4.7837Y-2.8951
X4.7974Y-3.7533
X4.7984Y-3.7041
X4.7984Y-4.2652
X4.7984Y-3.8567
X4.7994Y-3.8026
X4.8063Y-4.5604
X4.8194Y-2.9762
X4.8252Y-3.0072
X4.8496Y-3.1677
X4.8505Y-3.222
X4.8516Y-3.1185
X4.8525Y-3.0683
X4.8535Y-4.2898
X4.8535Y-4.585
X4.8841Y-3.9051
X4.8924Y-3.6223
X4.9008Y-4.6096
X4.9223Y-3.909
X4.9268Y-3.437
X4.9352Y-3.1923
X4.9352Y-3.1431
X4.9394Y-3.0937
X4.9402Y-3.2466
X4.9538Y-3.909
X4.9683Y-3.6223
X4.9689Y-4.6835
X4.9854Y-5.1874
X4.9874Y-3.9039
X4.9998Y-3.6223
X5.0031Y-4.7075
X5.0031Y-5.2278
X5.0313Y-3.6223
X5.0346Y-5.2268
X5.0363Y-3.9889
X5.0511Y-4.7256
X5.0671Y-3.9955
X5.0825Y-4.7228
X5.0826Y-5.253
X5.0842Y-4.815
X5.0955Y-4.009
X5.1104Y-3.6785
X5.1124Y-3.8321
X5.1134Y-3.7287
X5.1134Y-3.778
X5.1269Y-3.9953
X5.1528Y-3.8834
X5.1528Y-4.5604
X5.1804Y-3.2715
X5.1968Y-3.7039
X5.199Y-3.7533
X5.199Y-3.8026
X5.2Y-3.8567
X5.2394Y-4.9276
X5.2654Y-3.6215
X5.3024Y-4.6589
X5.3091Y-4.1291
X5.3142Y-3.1677
X5.3149Y-4.9294
X5.3191Y-3.0683
X5.3201Y-3.1185
X5.3212Y-3.222
X5.3358Y-4.6835
X5.3464Y-4.9294
X5.3541Y-3.6223
X5.3586Y-3.8813
X5.3673Y-4.6835
X5.3732Y-4.2228
X5.3779Y-4.9294
X5.389Y-3.2961
X5.389Y-3.6223
X5.3896Y-5.2561
X5.3901Y-3.8813
X5.404Y-3.0937
X5.4077Y-3.1923
X5.4077Y-3.1431
X5.4083Y-3.2469
X5.4126Y-4.6589
X5.4208Y-5.2524
X5.4216Y-3.8813
X5.4392Y-4.7031
X5.4514Y-4.2406
X5.4523Y-5.2524
X5.453Y-3.8813
X5.4581Y-5.0833
X5.4581Y-4.9844
X5.459Y-5.0341
X5.459Y-5.1362
X5.4756Y-3.6205
X5.4838Y-5.2524
X5.4937Y-3.8314
X5.4972Y-3.7287
X5.4992Y-3.778
X5.5002Y-3.679
X5.5084Y-5.3134
X5.5113Y-4.1278
X5.5228Y-5.2524
X5.5376Y-4.5604
X5.5386Y-4.2898
X5.5406Y-5.1116
X5.5413Y-5.009
X5.5413Y-5.0587
X5.5415Y-5.1608
X5.5641Y-4.2652
X5.5681Y-4.6343
X5.5848Y-3.7533
X5.5858Y-3.8567
X5.5872Y-3.8044
X5.5874Y-3.7034
X5.6016Y-4.4079
X5.6016Y-4.5102
X5.6035Y-4.3587
X5.6035Y-4.4571
X5.6203Y-3.2721
X5.6409Y-5.2524
X5.6741Y-5.2535
X5.6785Y-4.9294
X5.6872Y-4.3833
X5.6872Y-4.4325
X5.6902Y-4.5358
X5.691Y-4.4817
X5.7066Y-5.2524
X5.71Y-4.9294
X5.7118Y-4.7098
X5.7354Y-4.2406
X5.7354Y-4.6852
X5.7381Y-5.2524
X5.7415Y-4.9294
X5.7748Y-4.6598
X5.7942Y-5.0341
X5.7945Y-5.1362
X5.8001Y-4.9844
X5.8001Y-5.0833
X5.8073Y-3.0683
X5.8083Y-3.1185
X5.8094Y-3.222
X5.8102Y-3.1677
X5.8233Y-4.2406
X5.825Y-4.5604
X5.8457Y-3.2721
X5.8496Y-4.6589
X5.8548Y-4.2406
X5.8811Y-4.6589
X5.8842Y-5.0095
X5.8863Y-4.2406
X5.8877Y-5.0587
X5.888Y-5.1608
X5.8915Y-5.1101
X5.8921Y-3.0937
X5.8959Y-3.1923
X5.8959Y-3.1431
X5.8965Y-3.2469
X5.9057Y-4.585
X5.9274Y-4.6096
X5.9323Y-5.2346
X5.956Y-5.1854
X5.9618Y-4.3587
X5.9618Y-4.4571
X5.9638Y-4.4079
X5.9638Y-4.5102
X5.9874Y-4.2406
X6.011Y-4.6589
X6.0474Y-4.4817
X6.0485Y-4.5348
X6.0494Y-4.3833
X6.0494Y-4.4325
X6.0504Y-5.2524
X6.0661Y-5.1854
X6.074Y-3.8813
X6.0835Y-5.254
X6.1213Y-5.2524
X6.1337Y-4.9294
X6.137Y-4.2406
X6.1618Y-5.2581
X6.1652Y-4.9294
X6.1702Y-4.2389
X6.1764Y-5.1854
X6.2031Y-4.6589
X6.2039Y-5.1362
X6.2042Y-5.0341
X6.2062Y-5.0833
X6.2096Y-4.9844
X6.2157Y-4.2406
X6.2346Y-4.6589
X6.2722Y-3.6223
X6.284Y-3.2206
X6.2866Y-3.1677
X6.2876Y-3.0683
X6.2886Y-3.1185
X6.2972Y-5.009
X6.2994Y-5.1608
X6.2997Y-5.0587
X6.3016Y-5.1079
X6.3028Y-4.5109
X6.3037Y-3.6223
X6.3043Y-4.4571
X6.3077Y-4.4079
X6.3083Y-4.3587
X6.3249Y-3.9059
X6.326Y-3.274
X6.3265Y-3.9374
X6.3504Y-4.8181
X6.3732Y-3.8834
X6.3762Y-3.1923
X6.3768Y-3.2469
X6.3781Y-3.1431
X6.3798Y-3.0934
X6.39Y-4.3833
X6.3909Y-4.5358
X6.3939Y-4.4817
X6.3969Y-4.4325
X6.4205Y-5.2346
X6.4215Y-3.6223
X6.4393Y-3.8813
X6.4484Y-4.126
X6.452Y-5.2593
X6.4529Y-3.6197
X6.4708Y-3.8813
X6.4715Y-5.287
X6.4913Y-3.2715
X6.5085Y-4.6589
X6.524Y-4.2406
X6.54Y-4.6589
X6.5593Y-3.6785
X6.5602Y-3.7287
X6.5622Y-3.778
X6.5622Y-4.2406
X6.5632Y-3.8321
X6.5714Y-4.6589
X6.6029Y-4.6589
X6.6331Y-3.2715
X6.6331Y-5.1854
X6.6446Y-3.7533
X6.6457Y-3.7039
X6.6463Y-4.4079
X6.6463Y-4.5112
X6.6469Y-4.3587
X6.6469Y-4.4571
X6.6488Y-3.8075
X6.6488Y-3.8567
X6.6724Y-3.6539
X6.6934Y-3.6304
X6.6961Y-3.8813
X6.7295Y-4.5358
X6.7301Y-4.3833
X6.7305Y-4.4817
X6.7344Y-4.4325
X6.7627Y-5.0341
X6.763Y-5.1362
X6.7686Y-4.9844
X6.7686Y-5.0833
X6.7747Y-3.2222
X6.7748Y-3.1677
X6.7758Y-3.0683
X6.7768Y-3.1185
X6.7906Y-3.6223
X6.7906Y-3.8813
X6.8194Y-3.9059
X6.8219Y-3.6199
X6.8299Y-5.2346
X6.8465Y-4.6589
X6.8509Y-3.9059
X6.8533Y-5.1084
X6.8553Y-5.1608
X6.8562Y-5.009
X6.8587Y-5.0587
X6.8606Y-3.0937
X6.8644Y-3.1923
X6.8644Y-3.1431
X6.8657Y-3.2469
X6.8824Y-3.9059
X6.885Y-4.6589
X6.9211Y-4.6589
X6.9299Y-3.437
X6.9327Y-3.7287
X6.9382Y-3.778
X6.9392Y-3.6769
X6.9392Y-3.8321
X6.9559Y-4.6589
X6.9717Y-5.2346
X6.9874Y-4.5102
X6.9894Y-4.3587
X6.9894Y-4.4571
X6.9908Y-4.4079
X7.0031Y-4.2406
X7.0221Y-3.7533
X7.0236Y-3.7039
X7.0258Y-3.8026
X7.0268Y-3.8567
X7.0425Y-3.6223
X7.0425Y-4.2406
X7.0583Y-5.2346
X7.071Y-3.8813
X7.073Y-4.3833
X7.073Y-4.4325
X7.074Y-3.6223
X7.076Y-4.5358
X7.077Y-4.4817
X7.0976Y-5.2593
X7.1213Y-3.274
X7.1291Y-3.909
X7.1291Y-5.2593
X7.1529Y-3.9339
X7.1618Y-5.2593
X7.1685Y-3.6223
X7.1685Y-3.8813
X7.1704Y-3.3233
X7.1786Y-3.9585
X7.1921Y-4.5604
X7.1931Y-4.2652
X7.2Y-3.6223
X7.2079Y-3.2976
X7.2157Y-3.9591
X7.2315Y-3.2715
X7.2417Y-5.0833
X7.2417Y-5.135
X7.2433Y-4.585
X7.2453Y-5.0336
X7.2455Y-4.9844
X7.2472Y-4.2898
X7.255Y-3.2222
X7.2551Y-3.1677
X7.2561Y-3.0683
X7.2571Y-3.1185
X7.2915Y-4.6096
X7.3073Y-3.6785
X7.3083Y-3.778
X7.3083Y-3.7287
X7.3093Y-3.8321
X7.3287Y-5.009
X7.3289Y-5.1608
X7.3312Y-5.0587
X7.3331Y-5.1079
X7.3417Y-3.1953
X7.3425Y-3.0937
X7.3447Y-3.1431
X7.3453Y-3.2469
X7.3496Y-3.9118
X7.39Y-3.7533
X7.39Y-3.8027
X7.3921Y-3.7039
X7.3922Y-3.8567
X7.4126Y-5.1854
X7.4171Y-3.8813
X7.4205Y-5.2346
X7.4212Y-3.4401
X7.4441Y-3.6204
X7.4588Y-3.8813
X7.4618Y-5.1854
X7.4756Y-3.6204
X7.4992Y-3.2715
X7.4992Y-5.2346
X7.5554Y-3.8813
X7.5622Y-3.6204
X7.5869Y-3.8813
X7.5937Y-3.6204
X7.6016Y-5.1854
X7.6155Y-4.9294
X7.6184Y-3.8813
X7.6252Y-5.2346
X7.647Y-4.9294
X7.6567Y-5.2346
X7.6803Y-4.9294
X7.6882Y-5.2346
X7.6931Y-3.6785
X7.6941Y-3.7287
X7.6961Y-3.778
X7.697Y-3.832
X7.7039Y-3.2715
X7.7276Y-5.1854
X7.7315Y-5.1362
X7.7354Y-5.0341
X7.7364Y-3.0683
X7.7371Y-4.9844
X7.7371Y-5.0833
X7.7372Y-3.1677
X7.7374Y-3.1185
X7.7385Y-3.222
X7.7512Y-4.2406
X7.7795Y-3.7039
X7.7817Y-3.7533
X7.7817Y-3.8026
X7.7827Y-3.8567
X7.785Y-3.437
X7.8063Y-4.6589
X7.8126Y-4.126
X7.8218Y-5.1084
X7.8228Y-3.0937
X7.8247Y-5.009
X7.8247Y-5.0587
X7.825Y-3.1923
X7.825Y-3.1431
X7.825Y-5.1608
X7.8256Y-3.2469
X7.8286Y-4.2406
X7.8394Y-4.6605
X7.8636Y-4.2406
X7.8735Y-4.6613
X7.8951Y-4.2406
X7.9049Y-4.6589
X7.9323Y-3.6204
X7.9334Y-3.8813
X7.9364Y-4.6589
X7.9638Y-3.6204
X7.9649Y-3.8813
X7.9848Y-4.4079
X7.9848Y-4.5112
X7.9854Y-4.3587
X7.9854Y-4.4571
X7.9874Y-5.2346
X7.9964Y-3.8813
X8.0028Y-4.126
X8.0031Y-3.6204
X8.0279Y-3.8813
X8.0671Y-4.3833
X8.0676Y-4.4325
X8.0681Y-4.5358
X8.07Y-4.4856
X8.072Y-3.7287
X8.074Y-3.6756
X8.074Y-3.778
X8.0749Y-3.832
X8.0819Y-5.1854
X8.0898Y-4.9294
X8.1055Y-5.2346
X8.1135Y-3.2715
X8.1291Y-4.9294
X8.137Y-5.2346
X8.1528Y-3.2715
X8.1575Y-3.7039
X8.1596Y-3.7533
X8.1596Y-3.8026
X8.1606Y-3.8567
X8.1685Y-5.2346
X8.1773Y-4.2406
X8.2079Y-4.6589
X8.2088Y-4.2406
X8.2167Y-3.0683
X8.2177Y-3.1185
X8.2188Y-3.222
X8.2197Y-3.1677
X8.2253Y-4.9844
X8.2253Y-5.0833
X8.2273Y-5.0341
X8.2276Y-5.1362
X8.2399Y-4.6589
X8.2472Y-3.8834
X8.2472Y-4.2406
X8.261Y-4.4079
X8.2701Y-3.4401
X8.3024Y-3.6223
X8.3026Y-3.1431
X8.3053Y-3.1923
X8.3059Y-3.2469
X8.309Y-3.0934
X8.3099Y-5.1084
X8.3129Y-5.009
X8.3129Y-5.0587
X8.3132Y-5.1608
X8.3161Y-4.3587
X8.3161Y-4.4571
X8.3181Y-4.4079
X8.3181Y-4.5102
X8.3292Y-5.2458
X8.3339Y-3.6046
X8.3464Y-5.2875
X8.3722Y-5.3055
X8.3775Y-4.126
X8.3819Y-4.8181
X8.3969Y-3.9059
X8.3999Y-4.3833
X8.4004Y-4.4824
X8.4028Y-4.5348
X8.4047Y-4.4325
X8.4146Y-3.6046
X8.433Y-3.9072
X8.4333Y-3.6785
X8.435Y-3.778
X8.4352Y-3.8321
X8.4362Y-3.7287
X8.4617Y-3.274
X8.5071Y-4.6589
X8.5148Y-4.5604
X8.5197Y-3.7039
X8.5219Y-3.7533
X8.5219Y-3.8026
X8.5228Y-3.8567
X8.5228Y-4.2406
X8.5358Y-3.5731
X8.5396Y-4.6612
X8.5543Y-4.2406
X8.5584Y-3.2715
X8.5622Y-5.1854
X8.5734Y-4.6622
X8.578Y-4.9294
X8.5899Y-3.2715
X8.5937Y-4.2406
X8.6094Y-3.9059
X8.6094Y-4.6589
X8.6252Y-3.2976
X8.6331Y-4.5604
X8.635Y-3.9283
X8.6488Y-3.5731
X8.6488Y-4.4079
X8.6488Y-4.5102
X8.6508Y-4.3587
X8.6508Y-4.4571
X8.6596Y-3.9551
X8.6803Y-3.5831
X8.6851Y-4.1291
X8.6882Y-4.9294
X8.6911Y-3.9551
X8.6971Y-3.0683
X8.6978Y-4.9844
X8.6978Y-5.0833
X8.698Y-3.1185
X8.6986Y-5.1362
X8.6991Y-3.222
X8.6997Y-5.0341
X8.7Y-3.1677
X8.7197Y-3.6037
X8.7226Y-3.9551
X8.7344Y-4.3833
X8.7344Y-4.4325
X8.7354Y-5.2346
X8.7367Y-4.4817
X8.7374Y-4.5358
X8.7559Y-4.2652
X8.7591Y-3.9476
X8.7669Y-5.2346
X8.7805Y-4.2898
X8.7819Y-3.0937
X8.7827Y-5.009
X8.7829Y-3.1431
X8.7834Y-5.1079
X8.7846Y-5.3744
X8.7854Y-5.0587
X8.7856Y-3.1923
X8.7856Y-5.1608
X8.7862Y-3.2469
X8.7955Y-3.6785
X8.7965Y-3.7287
X8.7974Y-3.8321
X8.7984Y-3.778
X8.8063Y-2.9984
X8.8516Y-4.6343
X8.8604Y-5.21
X8.8646Y-4.1291
X8.8803Y-3.7039
X8.8841Y-3.7533
X8.8841Y-3.8026
X8.885Y-3.8567
X8.885Y-3.6027
X8.9024Y-3.9295
X8.9037Y-4.6343
X8.9215Y-3.2932
X8.9303Y-3.96
X8.9323Y-4.266
X8.9402Y-5.211
X8.948Y-3.2715
X8.9515Y-2.9059
X8.9638Y-3.6126
X8.9717Y-4.266
X8.9874Y-5.211
X9.0041Y-4.2651
X9.0268Y-4.5604
X9.0346Y-5.2356
X9.0362Y-4.9294
X9.0485Y-2.9059
X9.0504Y-4.266
X9.0504Y-4.6343
X9.0638Y-3.961
X9.0661Y-3.6126
X9.0661Y-5.2356
X9.0823Y-2.9801
X9.0824Y-3.2798
X9.0898Y-4.6343
X9.0976Y-5.2356
X9.099Y-4.585
X9.1069Y-3.0111
X9.1128Y-3.2715
X9.1134Y-3.8813
X9.1138Y-3.961
X9.1262Y-4.6096
X9.1443Y-3.2715
X9.1528Y-4.5604
X9.1606Y-3.0111
X9.1659Y-4.4079
X9.1659Y-4.5112
X9.1665Y-4.3587
X9.1665Y-4.4571
X9.1698Y-4.9288
X9.1764Y-5.1362
X9.1781Y-4.9844
X9.1781Y-5.0833
X9.1801Y-5.0341
X9.1843Y-3.1677
X9.1852Y-3.0683
X9.1862Y-3.1185
X9.1873Y-3.222
X9.2157Y-3.9591
X9.2382Y-4.126
X9.248Y-3.4401
X9.2482Y-4.3833
X9.2482Y-4.4325
X9.2485Y-2.9059
X9.2502Y-4.4817
X9.2571Y-4.5355
X9.2627Y-5.1084
X9.263Y-3.8813
X9.263Y-5.0587
X9.2648Y-5.1608
X9.2657Y-5.009
X9.2716Y-3.0937
X9.2738Y-3.1923
X9.2738Y-3.1431
X9.2744Y-3.2469
X9.2945Y-5.1854
X9.3181Y-3.8813
X9.3299Y-3.0929
X9.3417Y-5.1854
X9.3496Y-2.9059
X9.3644Y-3.1185
X9.3732Y-5.1874
X9.3969Y-3.0111
X9.4115Y-4.5654
X9.4205Y-4.266
X9.4244Y-3.1431
X9.4283Y-3.0073
X9.4283Y-5.212
X9.4515Y-2.9059
X9.4677Y-3.8813
X9.4913Y-4.266
X9.5071Y-4.5604
X9.515Y-5.2366
X9.5183Y-4.5899
X9.5236Y-4.2657
X9.5307Y-4.6205
X9.5307Y-5.1874
X9.5446Y-4.9294
X9.5496Y-5.2397
X9.5551Y-4.266
X9.5622Y-3.6204
X9.5622Y-4.6441
X9.5761Y-4.9294
X9.5783Y-3.0111
X9.5842Y-5.2399
X9.5937Y-4.6343
X9.6002Y-3.6204
X9.6076Y-4.9294
X9.6173Y-4.5604
X9.6173Y-5.2366
X9.6409Y-3.9059
X9.6469Y-4.5358
X9.647Y-4.4817
X9.6478Y-4.3833
X9.6478Y-4.4325
X9.6488Y-2.9059
X9.6498Y-4.3025
X9.6663Y-4.9844
X9.6663Y-5.0833
X9.6672Y-5.1362
X9.6683Y-5.0341
X9.6724Y-3.1677
X9.6734Y-3.0683
X9.6744Y-3.1185
X9.6755Y-3.222
X9.685Y-3.6204
X9.6882Y-3.9059
X9.6901Y-4.5635
X9.7118Y-3.274
X9.7165Y-3.6204
X9.7197Y-3.9059
X9.7306Y-4.4079
X9.7335Y-4.3587
X9.7335Y-4.4571
X9.7344Y-3.0033
X9.7354Y-4.5102
X9.7512Y-5.0095
X9.7512Y-5.0587
X9.7512Y-3.9059
X9.7515Y-2.9059
X9.7519Y-5.1079
X9.7541Y-5.1608
X9.7583Y-3.0937
X9.762Y-3.1923
X9.762Y-3.1431
X9.7634Y-3.2469
X9.7748Y-5.0841
X9.7827Y-3.9059
X9.8032Y-3.222
X9.8142Y-4.9827
X9.8181Y-2.837
X9.823Y-3.8321
X9.825Y-3.6785
X9.8252Y-4.1291
X9.8264Y-3.2469
X9.8267Y-3.778
X9.828Y-3.7287
X9.8519Y-4.5683
X9.8841Y-5.2366
X9.9087Y-5.274
X9.9087Y-4.3025
X9.9134Y-3.7039
X9.9156Y-3.7533
X9.9156Y-3.8026
X9.9165Y-3.8567
X9.9481Y-3.9059
X9.9533Y-3.6253
X9.9589Y-5.1904
X9.9638Y-4.6343
X9.9953Y-3.8863
X9.9978Y-4.3025
X10.0031Y-5.211
X10.0042Y-4.5604
X10.0249Y-4.9265
X10.0259Y-3.2715
X10.0293Y-4.3025
X10.0346Y-5.1854
X10.0357Y-4.5604
X10.0382Y-3.6253
X10.0436Y-3.8813
X10.0436Y-3.0141
X10.0574Y-3.2715
X10.0661Y-4.9265
X10.0672Y-4.5604
X10.0676Y-4.299
X10.0697Y-3.6253
X10.0751Y-3.8813
X10.0819Y-3.0141
X10.0829Y-4.3833
X10.0889Y-3.2715
X10.0987Y-4.5604
X10.1012Y-3.6253
X10.1066Y-3.8813
X10.1429Y-4.3587
X10.1429Y-4.4571
X10.1449Y-4.5102
X10.1449Y-4.4079
X10.1466Y-4.9844
X10.1466Y-5.0833
X10.1488Y-5.1362
X10.1491Y-5.0341
X10.1595Y-3.222
X10.1646Y-3.1677
X10.1665Y-3.1185
X10.1675Y-3.0683
X10.1685Y-3.9433
X10.1764Y-3.6253
X10.1764Y-3.778
X10.1793Y-3.6785
X10.1823Y-3.7287
X10.1833Y-3.8321
X10.2276Y-3.6538
X10.2285Y-4.4817
X10.2295Y-4.5358
X10.2305Y-4.3833
X10.2305Y-4.4325
X10.2315Y-3.8882
X10.2315Y-5.1087
X10.2315Y-5.1638
X10.2317Y-5.0089
X10.2342Y-5.0587
X10.248Y-3.0937
X10.2502Y-3.1431
X10.2504Y-3.1926
X10.2508Y-3.2469
X10.2709Y-3.7071
X10.2709Y-3.7543
X10.2709Y-3.8094
X10.2709Y-3.8567
T2
X2.1606Y-4.3271
X2.1636Y-4.5674
X2.1705Y-4.6638
X2.2295Y-3.0377
X2.2295Y-3.6479
X2.2325Y-3.278
X2.2325Y-3.8883
X2.3476Y-5.0417
X2.3556Y-3.9185
X2.3575Y-4.6933
X2.3871Y-3.6479
X2.3919Y-3.0417
X2.3939Y-4.5674
X2.4188Y-5.3334
X2.4264Y-5.3823
X2.4362Y-4.957
X2.4591Y-5.4098
X2.4854Y-4.3259
X2.4906Y-3.4401
X2.4913Y-3.9197
X2.514Y-4.6047
X2.5937Y-3.2777
X2.6025Y-3.8853
X2.6724Y-5.3311
X2.7049Y-3.0377
X2.7246Y-3.6479
X2.823Y-4.9559
X2.889Y-5.3626
X3.1774Y-3.0377
X3.2069Y-3.6479
X3.2364Y-4.9559
X3.3516Y-5.3626
X3.4431Y-4.3233
X3.6498Y-4.9559
X3.6793Y-3.6479
X3.6892Y-3.0377
X3.7679Y-4.3271
X3.8142Y-5.3626
X3.9449Y-4.1291
X4.0976Y-5.337
X4.0996Y-4.3271
X4.1134Y-3.647
X4.1154Y-5.4098
X4.1399Y-4.954
X4.1843Y-3.0357
X4.2995Y-4.954
X4.3417Y-5.335
X4.4205Y-5.3291
X4.4263Y-4.3271
X4.4766Y-4.954
X4.5258Y-3.647
X4.5607Y-2.8552
X4.6216Y-5.3705
X4.6646Y-3.0357
X4.9244Y-3.647
X4.9461Y-5.2524
X5.0012Y-5.4098
X5.1321Y-3.0357
X5.2659Y-4.9521
X5.2846Y-5.3705
X5.3102Y-3.647
X5.4156Y-4.3271
X5.6124Y-4.954
X5.6203Y-3.0357
X5.7276Y-5.3705
X5.7727Y-4.3271
X6.0219Y-4.954
X6.1006Y-3.0357
X6.1213Y-4.3271
X6.1606Y-5.3705
X6.2709Y-4.3301
X6.3171Y-4.9531
X6.3732Y-3.647
X6.4106Y-3.0398
X6.4579Y-4.3271
X6.508Y-3.647
X6.5366Y-5.4098
X6.5386Y-5.337
X6.5809Y-4.954
X6.5937Y-3.0357
X6.6547Y-5.3705
X6.7492Y-3.647
X6.8014Y-4.3271
X6.8861Y-4.954
X7.0563Y-4.954
X7.0691Y-3.0357
X7.1193Y-3.647
X7.1213Y-5.3705
X7.1449Y-4.6382
X7.5071Y-3.645
X7.5494Y-3.0357
X7.5494Y-4.954
X7.6173Y-5.3705
X7.7965Y-4.3271
X7.885Y-3.645
X8.0297Y-3.0357
X8.0376Y-4.954
X8.0898Y-5.3705
X8.1291Y-4.3271
X8.1754Y-3.0398
X8.1882Y-3.6441
X8.2472Y-3.647
X8.2886Y-4.3281
X8.3447Y-4.9472
X8.4441Y-5.3291
X8.45Y-5.4098
X8.452Y-2.8803
X8.452Y-3.0398
X8.4598Y-4.3271
X8.5071Y-4.954
X8.5701Y-5.3705
X8.6094Y-3.647
X8.9776Y-4.3271
X8.9904Y-4.954
X8.9982Y-3.0357
X9.0642Y-5.3705
X9.4598Y-4.3271
X9.4786Y-4.954
X9.4864Y-3.0357
X9.6035Y-5.3705
X9.639Y-3.645
X9.7838Y-3.645
X9.7985Y-4.3271
X9.9559Y-4.3271
X9.9589Y-4.954
X9.9776Y-3.0387
X9.9953Y-3.6499
X10.0524Y-5.3705
X10.1065Y-2.8783
X10.1144Y-4.9558
X10.1252Y-3.0378
T4
X2.1508Y-2.7941
X2.1508Y-3.3941
X2.1508Y-3.4831
X2.1508Y-4.0831
X2.1508Y-4.172
X2.1508Y-4.772
X2.1508Y-4.861
X2.1508Y-5.461
X2.2508Y-2.7941
X2.2508Y-3.3941
X2.2508Y-3.4831
X2.2508Y-4.0831
X2.2508Y-4.172
X2.2508Y-4.772
X2.2508Y-4.861
X2.2508Y-5.461
X2.3508Y-2.7941
X2.3508Y-3.3941
X2.3508Y-3.4831
X2.3508Y-4.0831
X2.3508Y-4.172
X2.3508Y-4.772
X2.3508Y-4.861
X2.3508Y-5.461
X2.4508Y-2.7941
X2.4508Y-3.3941
X2.4508Y-3.4831
X2.4508Y-4.0831
X2.4508Y-4.172
X2.4508Y-4.772
X2.4508Y-4.861
X2.4508Y-5.461
X2.5508Y-2.7941
X2.5508Y-3.3941
X2.5508Y-3.4831
X2.5508Y-4.0831
X2.5508Y-4.172
X2.5508Y-4.772
X2.5508Y-4.861
X2.5508Y-5.461
X2.6331Y-2.7941
X2.6331Y-3.3941
X2.6331Y-3.4831
X2.6331Y-4.0831
X2.6331Y-4.172
X2.6331Y-4.772
X2.6331Y-4.861
X2.6331Y-5.461
X2.7331Y-2.7941
X2.7331Y-3.3941
X2.7331Y-3.4831
X2.7331Y-4.0831
X2.7331Y-4.172
X2.7331Y-4.772
X2.7331Y-4.861
X2.7331Y-5.461
X2.8331Y-2.7941
X2.8331Y-3.3941
X2.8331Y-3.4831
X2.8331Y-4.0831
X2.8331Y-4.172
X2.8331Y-4.772
X2.8331Y-4.861
X2.8331Y-5.461
X2.9331Y-2.7941
X2.9331Y-3.3941
X2.9331Y-3.4831
X2.9331Y-4.0831
X2.9331Y-4.172
X2.9331Y-4.772
X2.9331Y-4.861
X2.9331Y-5.461
X3.0331Y-2.7941
X3.0331Y-3.3941
X3.0331Y-3.4831
X3.0331Y-4.0831
X3.0331Y-4.172
X3.0331Y-4.772
X3.0331Y-4.861
X3.0331Y-5.461
X3.1154Y-2.7941
X3.1154Y-3.3941
X3.1154Y-3.4831
X3.1154Y-4.0831
X3.1154Y-4.172
X3.1154Y-4.772
X3.1154Y-4.861
X3.1154Y-5.461
X3.2154Y-2.7941
X3.2154Y-3.3941
X3.2154Y-3.4831
X3.2154Y-4.0831
X3.2154Y-4.172
X3.2154Y-4.772
X3.2154Y-4.861
X3.2154Y-5.461
X3.3154Y-2.7941
X3.3154Y-3.3941
X3.3154Y-3.4831
X3.3154Y-4.0831
X3.3154Y-4.172
X3.3154Y-4.772
X3.3154Y-4.861
X3.3154Y-5.461
X3.4154Y-2.7941
X3.4154Y-3.3941
X3.4154Y-3.4831
X3.4154Y-4.0831
X3.4154Y-4.172
X3.4154Y-4.772
X3.4154Y-4.861
X3.4154Y-5.461
X3.5154Y-2.7941
X3.5154Y-3.3941
X3.5154Y-3.4831
X3.5154Y-4.0831
X3.5154Y-4.172
X3.5154Y-4.772
X3.5154Y-4.861
X3.5154Y-5.461
X3.5976Y-2.7941
X3.5976Y-3.3941
X3.5976Y-3.4831
X3.5976Y-4.0831
X3.5976Y-4.172
X3.5976Y-4.772
X3.5976Y-4.861
X3.5976Y-5.461
X3.6976Y-2.7941
X3.6976Y-3.3941
X3.6976Y-3.4831
X3.6976Y-4.0831
X3.6976Y-4.172
X3.6976Y-4.772
X3.6976Y-4.861
X3.6976Y-5.461
X3.7976Y-2.7941
X3.7976Y-3.3941
X3.7976Y-3.4831
X3.7976Y-4.0831
X3.7976Y-4.172
X3.7976Y-4.772
X3.7976Y-4.861
X3.7976Y-5.461
X3.8976Y-2.7941
X3.8976Y-3.3941
X3.8976Y-3.4831
X3.8976Y-4.0831
X3.8976Y-4.172
X3.8976Y-4.772
X3.8976Y-4.861
X3.8976Y-5.461
X3.9976Y-2.7941
X3.9976Y-3.3941
X3.9976Y-3.4831
X3.9976Y-4.0831
X3.9976Y-4.172
X3.9976Y-4.772
X3.9976Y-4.861
X3.9976Y-5.461
X4.0799Y-2.7941
X4.0799Y-3.3941
X4.0799Y-3.4831
X4.0799Y-4.0831
X4.0799Y-4.172
X4.0799Y-4.772
X4.0799Y-4.861
X4.0799Y-5.461
X4.1799Y-2.7941
X4.1799Y-3.3941
X4.1799Y-3.4831
X4.1799Y-4.0831
X4.1799Y-4.172
X4.1799Y-4.772
X4.1799Y-4.861
X4.1799Y-5.461
X4.2799Y-2.7941
X4.2799Y-3.3941
X4.2799Y-3.4831
X4.2799Y-4.0831
X4.2799Y-4.172
X4.2799Y-4.772
X4.2799Y-4.861
X4.2799Y-5.461
X4.3799Y-2.7941
X4.3799Y-3.3941
X4.3799Y-3.4831
X4.3799Y-4.0831
X4.3799Y-4.172
X4.3799Y-4.772
X4.3799Y-4.861
X4.3799Y-5.461
X4.4799Y-2.7941
X4.4799Y-3.3941
X4.4799Y-3.4831
X4.4799Y-4.0831
X4.4799Y-4.172
X4.4799Y-4.772
X4.4799Y-4.861
X4.4799Y-5.461
X4.5622Y-2.7941
X4.5622Y-3.3941
X4.5622Y-3.4831
X4.5622Y-4.0831
X4.5622Y-4.172
X4.5622Y-4.772
X4.5622Y-4.861
X4.5622Y-5.461
X4.6622Y-2.7941
X4.6622Y-3.3941
X4.6622Y-3.4831
X4.6622Y-4.0831
X4.6622Y-4.172
X4.6622Y-4.772
X4.6622Y-4.861
X4.6622Y-5.461
X4.7622Y-2.7941
X4.7622Y-3.3941
X4.7622Y-3.4831
X4.7622Y-4.0831
X4.7622Y-4.172
X4.7622Y-4.772
X4.7622Y-4.861
X4.7622Y-5.461
X4.8622Y-2.7941
X4.8622Y-3.3941
X4.8622Y-3.4831
X4.8622Y-4.0831
X4.8622Y-4.172
X4.8622Y-4.772
X4.8622Y-4.861
X4.8622Y-5.461
X4.9622Y-2.7941
X4.9622Y-3.3941
X4.9622Y-3.4831
X4.9622Y-4.0831
X4.9622Y-4.172
X4.9622Y-4.772
X4.9622Y-4.861
X4.9622Y-5.461
X5.0445Y-2.7941
X5.0445Y-3.3941
X5.0445Y-3.4831
X5.0445Y-4.0831
X5.0445Y-4.172
X5.0445Y-4.772
X5.0445Y-4.861
X5.0445Y-5.461
X5.1445Y-2.7941
X5.1445Y-3.3941
X5.1445Y-3.4831
X5.1445Y-4.0831
X5.1445Y-4.172
X5.1445Y-4.772
X5.1445Y-4.861
X5.1445Y-5.461
X5.2445Y-2.7941
X5.2445Y-3.3941
X5.2445Y-3.4831
X5.2445Y-4.0831
X5.2445Y-4.172
X5.2445Y-4.772
X5.2445Y-4.861
X5.2445Y-5.461
X5.3445Y-2.7941
X5.3445Y-3.3941
X5.3445Y-3.4831
X5.3445Y-4.0831
X5.3445Y-4.172
X5.3445Y-4.772
X5.3445Y-4.861
X5.3445Y-5.461
X5.4445Y-2.7941
X5.4445Y-3.3941
X5.4445Y-3.4831
X5.4445Y-4.0831
X5.4445Y-4.172
X5.4445Y-4.772
X5.4445Y-4.861
X5.4445Y-5.461
X5.5268Y-2.7941
X5.5268Y-3.3941
X5.5268Y-3.4831
X5.5268Y-4.0831
X5.5268Y-4.172
X5.5268Y-4.772
X5.5268Y-4.861
X5.5268Y-5.461
X5.6268Y-2.7941
X5.6268Y-3.3941
X5.6268Y-3.4831
X5.6268Y-4.0831
X5.6268Y-4.172
X5.6268Y-4.772
X5.6268Y-4.861
X5.6268Y-5.461
X5.7268Y-2.7941
X5.7268Y-3.3941
X5.7268Y-3.4831
X5.7268Y-4.0831
X5.7268Y-4.172
X5.7268Y-4.772
X5.7268Y-4.861
X5.7268Y-5.461
X5.8268Y-2.7941
X5.8268Y-3.3941
X5.8268Y-3.4831
X5.8268Y-4.0831
X5.8268Y-4.172
X5.8268Y-4.772
X5.8268Y-4.861
X5.8268Y-5.461
X5.9268Y-2.7941
X5.9268Y-3.3941
X5.9268Y-3.4831
X5.9268Y-4.0831
X5.9268Y-4.172
X5.9268Y-4.772
X5.9268Y-4.861
X5.9268Y-5.461
X6.0091Y-2.7941
X6.0091Y-3.3941
X6.0091Y-3.4831
X6.0091Y-4.0831
X6.0091Y-4.172
X6.0091Y-4.772
X6.0091Y-4.861
X6.0091Y-5.461
X6.1091Y-2.7941
X6.1091Y-3.3941
X6.1091Y-3.4831
X6.1091Y-4.0831
X6.1091Y-4.172
X6.1091Y-4.772
X6.1091Y-4.861
X6.1091Y-5.461
X6.2091Y-2.7941
X6.2091Y-3.3941
X6.2091Y-3.4831
X6.2091Y-4.0831
X6.2091Y-4.172
X6.2091Y-4.772
X6.2091Y-4.861
X6.2091Y-5.461
X6.3091Y-2.7941
X6.3091Y-3.3941
X6.3091Y-3.4831
X6.3091Y-4.0831
X6.3091Y-4.172
X6.3091Y-4.772
X6.3091Y-4.861
X6.3091Y-5.461
X6.4091Y-2.7941
X6.4091Y-3.3941
X6.4091Y-3.4831
X6.4091Y-4.0831
X6.4091Y-4.172
X6.4091Y-4.772
X6.4091Y-4.861
X6.4091Y-5.461
X6.4913Y-2.7941
X6.4913Y-3.3941
X6.4913Y-3.4831
X6.4913Y-4.0831
X6.4913Y-4.172
X6.4913Y-4.772
X6.4913Y-4.861
X6.4913Y-5.461
X6.5913Y-2.7941
X6.5913Y-3.3941
X6.5913Y-3.4831
X6.5913Y-4.0831
X6.5913Y-4.172
X6.5913Y-4.772
X6.5913Y-4.861
X6.5913Y-5.461
X6.6913Y-2.7941
X6.6913Y-3.3941
X6.6913Y-3.4831
X6.6913Y-4.0831
X6.6913Y-4.172
X6.6913Y-4.772
X6.6913Y-4.861
X6.6913Y-5.461
X6.7913Y-2.7941
X6.7913Y-3.3941
X6.7913Y-3.4831
X6.7913Y-4.0831
X6.7913Y-4.172
X6.7913Y-4.772
X6.7913Y-4.861
X6.7913Y-5.461
X6.8913Y-2.7941
X6.8913Y-3.3941
X6.8913Y-3.4831
X6.8913Y-4.0831
X6.8913Y-4.172
X6.8913Y-4.772
X6.8913Y-4.861
X6.8913Y-5.461
X6.9736Y-2.7941
X6.9736Y-3.3941
X6.9736Y-3.4831
X6.9736Y-4.0831
X6.9736Y-4.172
X6.9736Y-4.772
X6.9736Y-4.861
X6.9736Y-5.461
X7.0736Y-2.7941
X7.0736Y-3.3941
X7.0736Y-3.4831
X7.0736Y-4.0831
X7.0736Y-4.172
X7.0736Y-4.772
X7.0736Y-4.861
X7.0736Y-5.461
X7.1736Y-2.7941
X7.1736Y-3.3941
X7.1736Y-3.4831
X7.1736Y-4.0831
X7.1736Y-4.172
X7.1736Y-4.772
X7.1736Y-4.861
X7.1736Y-5.461
X7.2736Y-2.7941
X7.2736Y-3.3941
X7.2736Y-3.4831
X7.2736Y-4.0831
X7.2736Y-4.172
X7.2736Y-4.772
X7.2736Y-4.861
X7.2736Y-5.461
X7.3736Y-2.7941
X7.3736Y-3.3941
X7.3736Y-3.4831
X7.3736Y-4.0831
X7.3736Y-4.172
X7.3736Y-4.772
X7.3736Y-4.861
X7.3736Y-5.461
X7.4559Y-2.7941
X7.4559Y-3.3941
X7.4559Y-3.4831
X7.4559Y-4.0831
X7.4559Y-4.172
X7.4559Y-4.772
X7.4559Y-4.861
X7.4559Y-5.461
X7.5559Y-2.7941
X7.5559Y-3.3941
X7.5559Y-3.4831
X7.5559Y-4.0831
X7.5559Y-4.172
X7.5559Y-4.772
X7.5559Y-4.861
X7.5559Y-5.461
X7.6559Y-2.7941
X7.6559Y-3.3941
X7.6559Y-3.4831
X7.6559Y-4.0831
X7.6559Y-4.172
X7.6559Y-4.772
X7.6559Y-4.861
X7.6559Y-5.461
X7.7559Y-2.7941
X7.7559Y-3.3941
X7.7559Y-3.4831
X7.7559Y-4.0831
X7.7559Y-4.172
X7.7559Y-4.772
X7.7559Y-4.861
X7.7559Y-5.461
X7.8559Y-2.7941
X7.8559Y-3.3941
X7.8559Y-3.4831
X7.8559Y-4.0831
X7.8559Y-4.172
X7.8559Y-4.772
X7.8559Y-4.861
X7.8559Y-5.461
X7.9382Y-2.7941
X7.9382Y-3.3941
X7.9382Y-3.4831
X7.9382Y-4.0831
X7.9382Y-4.172
X7.9382Y-4.772
X7.9382Y-4.861
X7.9382Y-5.461
X8.0382Y-2.7941
X8.0382Y-3.3941
X8.0382Y-3.4831
X8.0382Y-4.0831
X8.0382Y-4.172
X8.0382Y-4.772
X8.0382Y-4.861
X8.0382Y-5.461
X8.1382Y-2.7941
X8.1382Y-3.3941
X8.1382Y-3.4831
X8.1382Y-4.0831
X8.1382Y-4.172
X8.1382Y-4.772
X8.1382Y-4.861
X8.1382Y-5.461
X8.2382Y-2.7941
X8.2382Y-3.3941
X8.2382Y-3.4831
X8.2382Y-4.0831
X8.2382Y-4.172
X8.2382Y-4.772
X8.2382Y-4.861
X8.2382Y-5.461
X8.3382Y-2.7941
X8.3382Y-3.3941
X8.3382Y-3.4831
X8.3382Y-4.0831
X8.3382Y-4.172
X8.3382Y-4.772
X8.3382Y-4.861
X8.3382Y-5.461
X8.4205Y-2.7941
X8.4205Y-3.3941
X8.4205Y-3.4831
X8.4205Y-4.0831
X8.4205Y-4.172
X8.4205Y-4.772
X8.4205Y-4.861
X8.4205Y-5.461
X8.5205Y-2.7941
X8.5205Y-3.3941
X8.5205Y-3.4831
X8.5205Y-4.0831
X8.5205Y-4.172
X8.5205Y-4.772
X8.5205Y-4.861
X8.5205Y-5.461
X8.6205Y-2.7941
X8.6205Y-3.3941
X8.6205Y-3.4831
X8.6205Y-4.0831
X8.6205Y-4.172
X8.6205Y-4.772
X8.6205Y-4.861
X8.6205Y-5.461
X8.7205Y-2.7941
X8.7205Y-3.3941
X8.7205Y-3.4831
X8.7205Y-4.0831
X8.7205Y-4.172
X8.7205Y-4.772
X8.7205Y-4.861
X8.7205Y-5.461
X8.8205Y-2.7941
X8.8205Y-3.3941
X8.8205Y-3.4831
X8.8205Y-4.0831
X8.8205Y-4.172
X8.8205Y-4.772
X8.8205Y-4.861
X8.8205Y-5.461
X8.9028Y-2.7941
X8.9028Y-3.3941
X8.9028Y-3.4831
X8.9028Y-4.0831
X8.9028Y-4.172
X8.9028Y-4.772
X8.9028Y-4.861
X8.9028Y-5.461
X9.0028Y-2.7941
X9.0028Y-3.3941
X9.0028Y-3.4831
X9.0028Y-4.0831
X9.0028Y-4.172
X9.0028Y-4.772
X9.0028Y-4.861
X9.0028Y-5.461
X9.1028Y-2.7941
X9.1028Y-3.3941
X9.1028Y-3.4831
X9.1028Y-4.0831
X9.1028Y-4.172
X9.1028Y-4.772
X9.1028Y-4.861
X9.1028Y-5.461
X9.2028Y-2.7941
X9.2028Y-3.3941
X9.2028Y-3.4831
X9.2028Y-4.0831
X9.2028Y-4.172
X9.2028Y-4.772
X9.2028Y-4.861
X9.2028Y-5.461
X9.3028Y-2.7941
X9.3028Y-3.3941
X9.3028Y-3.4831
X9.3028Y-4.0831
X9.3028Y-4.172
X9.3028Y-4.772
X9.3028Y-4.861
X9.3028Y-5.461
X9.385Y-2.7941
X9.385Y-3.3941
X9.385Y-3.4831
X9.385Y-4.0831
X9.385Y-4.172
X9.385Y-4.772
X9.385Y-4.861
X9.385Y-5.461
X9.485Y-2.7941
X9.485Y-3.3941
X9.485Y-3.4831
X9.485Y-4.0831
X9.485Y-4.172
X9.485Y-4.772
X9.485Y-4.861
X9.485Y-5.461
X9.585Y-2.7941
X9.585Y-3.3941
X9.585Y-3.4831
X9.585Y-4.0831
X9.585Y-4.172
X9.585Y-4.772
X9.585Y-4.861
X9.585Y-5.461
X9.685Y-2.7941
X9.685Y-3.3941
X9.685Y-3.4831
X9.685Y-4.0831
X9.685Y-4.172
X9.685Y-4.772
X9.685Y-4.861
X9.685Y-5.461
X9.785Y-2.7941
X9.785Y-3.3941
X9.785Y-3.4831
X9.785Y-4.0831
X9.785Y-4.172
X9.785Y-4.772
X9.785Y-4.861
X9.785Y-5.461
X9.8673Y-2.7941
X9.8673Y-3.3941
X9.8673Y-3.4831
X9.8673Y-4.0831
X9.8673Y-4.172
X9.8673Y-4.772
X9.8673Y-4.861
X9.8673Y-5.461
X9.9673Y-2.7941
X9.9673Y-3.3941
X9.9673Y-3.4831
X9.9673Y-4.0831
X9.9673Y-4.172
X9.9673Y-4.772
X9.9673Y-4.861
X9.9673Y-5.461
X10.0673Y-2.7941
X10.0673Y-3.3941
X10.0673Y-3.4831
X10.0673Y-4.0831
X10.0673Y-4.172
X10.0673Y-4.772
X10.0673Y-4.861
X10.0673Y-5.461
X10.1673Y-2.7941
X10.1673Y-3.3941
X10.1673Y-3.4831
X10.1673Y-4.0831
X10.1673Y-4.172
X10.1673Y-4.772
X10.1673Y-4.861
X10.1673Y-5.461
X10.2673Y-2.7941
X10.2673Y-3.3941
X10.2673Y-3.4831
X10.2673Y-4.0831
X10.2673Y-4.172
X10.2673Y-4.772
X10.2673Y-4.861
X10.2673Y-5.461
T5
X3.0098Y-2.9413
X3.1098Y-2.9413
X3.2098Y-2.9413
X3.3098Y-2.9413
X3.4098Y-2.9413
X3.5098Y-2.9413
X3.6098Y-2.9413
X3.7098Y-2.9413
X3.8098Y-2.9413
X3.9098Y-2.9413
X4.0098Y-2.9413
X4.1098Y-2.9413
X4.2098Y-2.9413
X4.3098Y-2.9413
X4.4098Y-2.9413
X4.5098Y-2.9413
X4.6098Y-2.9413
X4.7098Y-2.9413
X8.2Y-2.9276
X8.3Y-2.9276
X8.4Y-2.9276
X8.5Y-2.9276
X8.6Y-2.9276
X8.7Y-2.9276
X8.8Y-2.9276
X8.9Y-2.9276
X9.0Y-2.9276
X9.1Y-2.9276
X9.2Y-2.9276
X9.3Y-2.9276
X9.4Y-2.9276
X9.5Y-2.9276
X9.6Y-2.9276
X9.7Y-2.9276
X9.8Y-2.9276
X9.9Y-2.9276
T3
G00X2.1567Y-5.0053
M15
G01X2.1882Y-5.0053
M16
G05
G00X2.1882Y-5.2868
M15
G01X2.1567Y-5.2868
M16
G05
T0
M30
